<svg xmlns="http://www.w3.org/2000/svg" viewBox="0 0 913 614.91"><defs><style>.cls-1{fill:#455981;}.cls-2{fill:#fff;}</style></defs><g id="Layer_1" data-name="Layer 1"><path class="cls-1" d="M412.38,310.45a1.05,1.05,0,1,1,.1-2.1,1,1,0,0,1,1,1.1,1.27,1.27,0,0,1-1.1,1h0m0-1.5a.4.4,0,1,0,.4.4h0a.43.43,0,0,0-.4-.4h0"/><path class="cls-1" d="M417,310.45a1.1,1.1,0,1,1,1.1-1.1h0a1.11,1.11,0,0,1-1.1,1.1m0-1.5c-.2,0-.5.1-.5.4s.1.5.4.5h.1c.2,0,.4-.3.4-.5s-.2-.4-.4-.4"/><path class="cls-1" d="M407.68,310.45a1.1,1.1,0,1,1,1.1-1.1,1.11,1.11,0,0,1-1.1,1.1m0-1.5c-.2,0-.4.3-.4.5s.2.3.4.4a.43.43,0,0,0,.4-.4h0c0-.3-.1-.5-.4-.5h0"/><path class="cls-1" d="M408.38,306.65H407a.27.27,0,0,1-.3-.3h0l-.1-3.6c0-.1,0-.2.1-.2s.1-.1.2-.1h1.5a.27.27,0,0,1,.3.3h0v3.6a.27.27,0,0,1-.3.3h0m-1.1-.6h.8v-3h-.8Z"/><path class="cls-1" d="M413.08,306.65h-1.5a.27.27,0,0,1-.3-.3h0v-3.6a.27.27,0,0,1,.3-.3h1.5a.27.27,0,0,1,.3.3v3.6a.27.27,0,0,1-.3.3h0m-1.2-.6h.9v-3h-.9Z"/><path class="cls-1" d="M417.68,306.65h-1.5a.27.27,0,0,1-.3-.3h0v-3.6a.27.27,0,0,1,.3-.3h1.5a.27.27,0,0,1,.3.3h0v3.6a.27.27,0,0,1-.3.3h0m-1.2-.6h.9v-3h-.9Z"/><path class="cls-1" d="M419.58,300.35h0v-.1h0l-4-3.7a.3.3,0,0,0-.4,0,1.91,1.91,0,0,1-1.8,0h-.2c-.1,0-.1,0-.2.1a1.08,1.08,0,0,1-1.1,0h0l-.1-.1h-.1a.1.1,0,0,0-.1.1,1.91,1.91,0,0,1-1.8,0,.3.3,0,0,0-.4,0l-4,3.7h0l-.1.1h0v.1h0v11.2a.27.27,0,0,0,.3.3h13.8a.27.27,0,0,0,.3-.3h0v-11.3m-4.4-3.4,3.3,3H415l-1.1-2.8a1.7,1.7,0,0,0,1.4-.2m-2.2.1.2.6,1,2.3h-3.7l1-2.4.2-.5a1.47,1.47,0,0,0,1.3,0m-3.4,0a2.62,2.62,0,0,0,1.5.2l-.5,1.3-.6,1.5h-3.6Zm.2,14.1h-4v-10.5h4Zm4.6,0h-4v-10.5h4Zm4.6,0h-4v-10.5h4Z"/><path class="cls-1" d="M303.58,196.05h-12.3a.27.27,0,0,0-.3.3v6.1a.27.27,0,0,0,.3.3h12.3a.27.27,0,0,0,.3-.3h0v-6.2c0-.1-.1-.2-.3-.2h0m-.4,6.1h-11.7v-1.3h11.6Zm0-2h-11.7v-1.5h11.6Zm0-2.1h-11.7v-1.3h11.6Z"/><path class="cls-1" d="M308,191.65l-4.9-2.1h-.3a.37.37,0,0,0-.1.3v6.2h.6v-5.6l4.3,1.8v9.1H304v.6h4a.27.27,0,0,0,.3-.3h0V192l-.3-.3"/><path class="cls-1" d="M300.48,198.05h-6.1a.27.27,0,0,0-.3.3h0v4.2a.27.27,0,0,0,.3.3h6.1a.27.27,0,0,0,.3-.3h0v-4.2a.27.27,0,0,0-.3-.3h0m-.3,4.1h-5.5v-3.5h5.5Z"/><path class="cls-1" d="M297.38,198.05a.27.27,0,0,0-.3.3h0v4.2a.27.27,0,0,0,.3.3h0a.27.27,0,0,0,.3-.3h0v-4.2a.27.27,0,0,0-.3-.3h0"/><path class="cls-1" d="M300.58,188.75l-3.1-1.3h-.2l-3.1,1.3c-.1,0-.2.2-.2.3v7.3a.27.27,0,0,0,.3.3h6.1a.27.27,0,0,0,.3-.3h0v-7.3c.1-.1,0-.2-.1-.3m-.4,7.3h-5.5v-6.8l2.8-1.1,2.8,1.1v6.8Z"/><path class="cls-1" d="M300.48,203.45h-6.1a.27.27,0,0,0-.3.3h0a.27.27,0,0,0,.3.3h6.1a.27.27,0,0,0,.3-.3h0a.32.32,0,0,0-.3-.3"/><path class="cls-1" d="M297.38,188.55a.4.4,0,1,0,.4.4h0c.1-.2-.1-.4-.4-.4"/><path class="cls-1" d="M297.38,190.15a.4.4,0,1,0,.4.4h0c.1-.2-.1-.4-.4-.4"/><path class="cls-1" d="M298.88,190.15c-.2,0-.5.1-.5.4s.1.5.4.5h.1c.2,0,.4-.3.4-.5a.37.37,0,0,0-.4-.4"/><path class="cls-1" d="M295.88,190.15a.4.4,0,1,0,.4.4h0a.43.43,0,0,0-.4-.4"/><path class="cls-1" d="M297.38,191.65a.4.4,0,1,0,.4.4h0c.1-.2-.1-.4-.4-.4"/><path class="cls-1" d="M298.88,191.65a.4.4,0,1,0,.4.4.37.37,0,0,0-.4-.4"/><path class="cls-1" d="M295.88,191.65a.4.4,0,1,0,.4.4.43.43,0,0,0-.4-.4"/><path class="cls-1" d="M297.38,193.15a.4.4,0,1,0,.4.4h0c.1-.2-.1-.4-.4-.4"/><path class="cls-1" d="M298.88,193.15a.4.4,0,1,0,.4.4c.1-.2-.1-.4-.4-.4"/><path class="cls-1" d="M295.88,193.15a.4.4,0,1,0,.4.4h0a.43.43,0,0,0-.4-.4"/><path class="cls-1" d="M297.38,194.65a.4.4,0,1,0,.4.4h0c.1-.2-.1-.4-.4-.4"/><path class="cls-1" d="M298.88,194.65a.4.4,0,1,0,.4.4c.1-.2-.1-.4-.4-.4"/><path class="cls-1" d="M295.88,194.65a.4.4,0,1,0,.4.4h0a.43.43,0,0,0-.4-.4"/><path class="cls-1" d="M288.48,192.15a.4.4,0,1,0,.4.4h0a.43.43,0,0,0-.4-.4"/><path class="cls-1" d="M290,192.15c-.2,0-.4.3-.4.5s.2.3.4.4.5-.1.5-.4-.1-.5-.4-.5H290"/><path class="cls-1" d="M288.48,193.65a.4.4,0,1,0,.4.4h0a.43.43,0,0,0-.4-.4"/><path class="cls-1" d="M290,193.65c-.2,0-.4.3-.4.5s.2.3.4.4.5-.1.5-.4-.1-.5-.4-.5H290"/><path class="cls-1" d="M288.48,195.15a.4.4,0,1,0,.4.4h0c0-.2-.2-.3-.4-.4"/><path class="cls-1" d="M290,195.15a.4.4,0,1,0,.4.4.43.43,0,0,0-.4-.4"/><path class="cls-1" d="M288.48,196.75a.4.4,0,1,0,.4.4h0a.43.43,0,0,0-.4-.4"/><path class="cls-1" d="M290,196.75a.4.4,0,1,0,.4.4.43.43,0,0,0-.4-.4"/><path class="cls-1" d="M288.48,198.25a.4.4,0,1,0,.4.4h0a.43.43,0,0,0-.4-.4"/><path class="cls-1" d="M290,198.25a.4.4,0,1,0,.4.4.43.43,0,0,0-.4-.4"/><path class="cls-1" d="M288.48,199.75a.4.4,0,1,0,.4.4h0a.43.43,0,0,0-.4-.4"/><path class="cls-1" d="M290,199.75a.4.4,0,1,0,.4.4.43.43,0,0,0-.4-.4"/><path class="cls-1" d="M304.78,192.15a.4.4,0,1,0,.4.4h0c.1-.2-.1-.4-.4-.4"/><path class="cls-1" d="M306.38,192.15a.4.4,0,1,0,.4.4h0a.43.43,0,0,0-.4-.4"/><path class="cls-1" d="M304.78,193.65a.4.4,0,1,0,.4.4h0c.1-.2-.1-.4-.4-.4"/><path class="cls-1" d="M306.38,193.65a.4.4,0,1,0,.4.4h0a.43.43,0,0,0-.4-.4"/><path class="cls-1" d="M304.78,195.15a.4.4,0,1,0,.4.4h0c.1-.2-.1-.4-.4-.4"/><path class="cls-1" d="M306.38,195.15a.4.4,0,1,0,.4.4h0a.43.43,0,0,0-.4-.4"/><path class="cls-1" d="M304.78,196.75a.4.4,0,1,0,.4.4h0c.1-.2-.1-.4-.4-.4"/><path class="cls-1" d="M306.38,196.75a.4.4,0,1,0,.4.4h0a.43.43,0,0,0-.4-.4"/><path class="cls-1" d="M304.78,198.25a.4.4,0,1,0,.4.4h0c.1-.2-.1-.4-.4-.4"/><path class="cls-1" d="M306.38,198.25a.4.4,0,1,0,.4.4h0a.43.43,0,0,0-.4-.4"/><path class="cls-1" d="M304.78,199.75a.4.4,0,1,0,.4.4h0c.1-.2-.1-.4-.4-.4"/><path class="cls-1" d="M306.38,199.75a.4.4,0,1,0,.4.4h0a.43.43,0,0,0-.4-.4"/><path class="cls-1" d="M290.88,201.25h-3.6v-9.1l4.3-1.8v5.7h.6V190c0-.1-.1-.2-.1-.3h-.3l-4.9,2.1c-.1,0-.2.2-.2.3v9.6a.27.27,0,0,0,.3.3h4v-.7Z"/><rect class="cls-1" x="445.18" y="291.95" width="89.3" height="22.3"/><polygon class="cls-1" points="445.18 308.05 445.18 303.05 445.18 298.05 435.18 300.65 425.18 303.15 435.18 305.65 445.18 308.05"/><rect class="cls-1" x="172.58" y="186" width="89.3" height="22.3"/><polygon class="cls-1" points="261.88 192.2 261.88 197.2 261.88 202.2 271.88 199.6 281.88 197.1 271.88 194.6 261.88 192.2"/></g><g id="t_en"><path class="cls-2" d="M187.23,196.75h0a2,2,0,0,1,2-2.1,2.09,2.09,0,0,1,1.5.6l-.4.5a1.61,1.61,0,0,0-1.1-.5,1.29,1.29,0,0,0-1.3,1.4h0a1.29,1.29,0,0,0,1.3,1.4,1.43,1.43,0,0,0,1.1-.5l.4.5a2.18,2.18,0,0,1-1.6.7A1.81,1.81,0,0,1,187.23,196.75Z"/><path class="cls-2" d="M191.33,196.75h0a2.11,2.11,0,0,1,2.1-2.1,2,2,0,0,1,2.1,2h0a2,2,0,0,1-2.1,2A1.8,1.8,0,0,1,191.33,196.75Zm3.4,0h0a1.35,1.35,0,0,0-1.3-1.4,1.29,1.29,0,0,0-1.3,1.4h0a1.3,1.3,0,1,0,2.6,0Z"/><path class="cls-2" d="M196.23,194.75h.6l2.1,2.7v-2.7h.7v4H199l-2.2-2.8v2.8h-.7v-4Z"/><path class="cls-2" d="M200.63,194.75h2.9v.6h-2.2v1.1h2v.6h-2v1.6h-.7v-3.9Z"/><path class="cls-2" d="M204.23,194.75h2.9v.6h-2.2v1h2v.6h-2v1.1h2.3v.6h-3v-3.9Z"/><path class="cls-2" d="M208,194.75h1.8a1.25,1.25,0,0,1,1.1.4,1.22,1.22,0,0,1,.3.9h0a1.29,1.29,0,0,1-.9,1.2l1.1,1.5h-.8l-1-1.4h-.9v1.4H208Zm1.7,2a.71.71,0,0,0,.8-.7h0a.71.71,0,0,0-.8-.7h-1v1.3h1Z"/><path class="cls-2" d="M212,194.75h2.9v.6h-2.2v1h2v.6h-2v1.1H215v.6h-3v-3.9Z"/><path class="cls-2" d="M215.73,194.75h.6l2.1,2.7v-2.7h.7v4h-.6l-2.2-2.8v2.8h-.7v-4Z"/><path class="cls-2" d="M219.93,196.75h0a2,2,0,0,1,2-2.1,2.09,2.09,0,0,1,1.5.6l-.4.5a1.61,1.61,0,0,0-1.1-.5,1.29,1.29,0,0,0-1.3,1.4h0a1.29,1.29,0,0,0,1.3,1.4,1.43,1.43,0,0,0,1.1-.5l.4.5a2.18,2.18,0,0,1-1.6.7A1.86,1.86,0,0,1,219.93,196.75Z"/><path class="cls-2" d="M224.23,194.75h2.9v.6h-2.2v1h2v.6h-2v1.1h2.3v.6h-3v-3.9Z"/><path class="cls-2" d="M229.43,196.75h0a2,2,0,0,1,2-2.1,2.09,2.09,0,0,1,1.5.6l-.4.5a1.61,1.61,0,0,0-1.1-.5,1.29,1.29,0,0,0-1.3,1.4h0a1.29,1.29,0,0,0,1.3,1.4,1.43,1.43,0,0,0,1.1-.5l.4.5a2.18,2.18,0,0,1-1.6.7A1.86,1.86,0,0,1,229.43,196.75Z"/><path class="cls-2" d="M233.73,194.75h2.9v.6h-2.2v1h2v.6h-2v1.1h2.3v.6h-3v-3.9Z"/><path class="cls-2" d="M237.43,194.75h.6l2.1,2.7v-2.7h.7v4h-.6L238,196v2.8h-.7v-4Z"/><path class="cls-2" d="M242.83,195.45h-1.3v-.6h3.2v.6h-1.3v3.3h-.7v-3.3Z"/><path class="cls-2" d="M245.43,194.75h2.9v.6h-2.2v1h2v.6h-2v1.1h2.3v.6h-3v-3.9Z"/><path class="cls-2" d="M249.13,194.75h1.8a1.25,1.25,0,0,1,1.1.4,1.22,1.22,0,0,1,.3.9h0a1.29,1.29,0,0,1-.9,1.2l1.1,1.5h-.8l-1-1.4h-.9v1.4h-.7Zm1.7,2a.71.71,0,0,0,.8-.7h0a.71.71,0,0,0-.8-.7h-1v1.3h1Z"/><path class="cls-2" d="M475.38,303.55h0a2.05,2.05,0,0,1,2.1-2.1,2.58,2.58,0,0,1,1.6.6l-.5.5a1.61,1.61,0,0,0-1.1-.5,1.29,1.29,0,0,0-1.3,1.4h0a1.35,1.35,0,0,0,1.3,1.4,1.85,1.85,0,0,0,1.2-.5l.5.5a2.24,2.24,0,0,1-1.7.7A1.92,1.92,0,0,1,475.38,303.55Z"/><path class="cls-2" d="M479.88,301.55h.7v4.1h-.7Z"/><path class="cls-2" d="M482.58,302.15h-1.3v-.7h3.3v.7h-1.3v3.4h-.7Z"/><path class="cls-2" d="M486.48,304l-1.6-2.5h.8l1.1,1.8,1.2-1.8h.8l-1.6,2.4v1.6h-.7V304Z"/><path class="cls-2" d="M491.08,301.55h.7v1.7h1.9v-1.7h.7v4.1h-.7V304h-1.9v1.7h-.7Z"/><path class="cls-2" d="M496.88,301.45h.7l1.8,4.1h-.8l-.4-1h-1.9l-.4,1h-.7Zm1,2.5-.7-1.6-.7,1.6Z"/><path class="cls-2" d="M500,301.55h.7V305h2.1v.7H500Z"/><path class="cls-2" d="M503.48,301.55h.7V305h2.1v.7h-2.9v-4.1Z"/></g></svg>