<svg xmlns="http://www.w3.org/2000/svg" viewBox="0 0 913 614.91"><defs><style>.cls-1{fill:#455981;}.cls-2{fill:#fff;}</style></defs><g id="Layer_1" data-name="Layer 1"><path class="cls-1" d="M412.38,310.45a1.05,1.05,0,1,1,.1-2.1,1,1,0,0,1,1,1.1,1.27,1.27,0,0,1-1.1,1h0m0-1.5a.4.4,0,1,0,.4.4h0a.43.43,0,0,0-.4-.4h0"/><path class="cls-1" d="M417,310.45a1.1,1.1,0,1,1,1.1-1.1h0a1.11,1.11,0,0,1-1.1,1.1m0-1.5c-.2,0-.5.1-.5.4s.1.5.4.5h.1c.2,0,.4-.3.4-.5s-.2-.4-.4-.4"/><path class="cls-1" d="M407.68,310.45a1.1,1.1,0,1,1,1.1-1.1,1.11,1.11,0,0,1-1.1,1.1m0-1.5c-.2,0-.4.3-.4.5s.2.3.4.4a.43.43,0,0,0,.4-.4h0c0-.3-.1-.5-.4-.5h0"/><path class="cls-1" d="M408.38,306.65H407a.27.27,0,0,1-.3-.3h0l-.1-3.6c0-.1,0-.2.1-.2s.1-.1.2-.1h1.5a.27.27,0,0,1,.3.3h0v3.6a.27.27,0,0,1-.3.3h0m-1.1-.6h.8v-3h-.8Z"/><path class="cls-1" d="M413.08,306.65h-1.5a.27.27,0,0,1-.3-.3h0v-3.6a.27.27,0,0,1,.3-.3h1.5a.27.27,0,0,1,.3.3v3.6a.27.27,0,0,1-.3.3h0m-1.2-.6h.9v-3h-.9Z"/><path class="cls-1" d="M417.68,306.65h-1.5a.27.27,0,0,1-.3-.3h0v-3.6a.27.27,0,0,1,.3-.3h1.5a.27.27,0,0,1,.3.3h0v3.6a.27.27,0,0,1-.3.3h0m-1.2-.6h.9v-3h-.9Z"/><path class="cls-1" d="M419.58,300.35h0v-.1h0l-4-3.7a.3.3,0,0,0-.4,0,1.91,1.91,0,0,1-1.8,0h-.2c-.1,0-.1,0-.2.1a1.08,1.08,0,0,1-1.1,0h0l-.1-.1h-.1a.1.1,0,0,0-.1.1,1.91,1.91,0,0,1-1.8,0,.3.3,0,0,0-.4,0l-4,3.7h0l-.1.1h0v.1h0v11.2a.27.27,0,0,0,.3.3h13.8a.27.27,0,0,0,.3-.3h0v-11.3m-4.4-3.4,3.3,3H415l-1.1-2.8a1.7,1.7,0,0,0,1.4-.2m-2.2.1.2.6,1,2.3h-3.7l1-2.4.2-.5a1.47,1.47,0,0,0,1.3,0m-3.4,0a2.62,2.62,0,0,0,1.5.2l-.5,1.3-.6,1.5h-3.6Zm.2,14.1h-4v-10.5h4Zm4.6,0h-4v-10.5h4Zm4.6,0h-4v-10.5h4Z"/><path class="cls-1" d="M303.58,196.05h-12.3a.27.27,0,0,0-.3.3v6.1a.27.27,0,0,0,.3.3h12.3a.27.27,0,0,0,.3-.3h0v-6.2c0-.1-.1-.2-.3-.2h0m-.4,6.1h-11.7v-1.3h11.6Zm0-2h-11.7v-1.5h11.6Zm0-2.1h-11.7v-1.3h11.6Z"/><path class="cls-1" d="M308,191.65l-4.9-2.1h-.3a.37.37,0,0,0-.1.3v6.2h.6v-5.6l4.3,1.8v9.1H304v.6h4a.27.27,0,0,0,.3-.3h0V192l-.3-.3"/><path class="cls-1" d="M300.48,198.05h-6.1a.27.27,0,0,0-.3.3h0v4.2a.27.27,0,0,0,.3.3h6.1a.27.27,0,0,0,.3-.3h0v-4.2a.27.27,0,0,0-.3-.3h0m-.3,4.1h-5.5v-3.5h5.5Z"/><path class="cls-1" d="M297.38,198.05a.27.27,0,0,0-.3.3h0v4.2a.27.27,0,0,0,.3.3h0a.27.27,0,0,0,.3-.3h0v-4.2a.27.27,0,0,0-.3-.3h0"/><path class="cls-1" d="M300.58,188.75l-3.1-1.3h-.2l-3.1,1.3c-.1,0-.2.2-.2.3v7.3a.27.27,0,0,0,.3.3h6.1a.27.27,0,0,0,.3-.3h0v-7.3c.1-.1,0-.2-.1-.3m-.4,7.3h-5.5v-6.8l2.8-1.1,2.8,1.1v6.8Z"/><path class="cls-1" d="M300.48,203.45h-6.1a.27.27,0,0,0-.3.3h0a.27.27,0,0,0,.3.3h6.1a.27.27,0,0,0,.3-.3h0a.32.32,0,0,0-.3-.3"/><path class="cls-1" d="M297.38,188.55a.4.4,0,1,0,.4.4h0c.1-.2-.1-.4-.4-.4"/><path class="cls-1" d="M297.38,190.15a.4.4,0,1,0,.4.4h0c.1-.2-.1-.4-.4-.4"/><path class="cls-1" d="M298.88,190.15c-.2,0-.5.1-.5.4s.1.5.4.5h.1c.2,0,.4-.3.4-.5a.37.37,0,0,0-.4-.4"/><path class="cls-1" d="M295.88,190.15a.4.4,0,1,0,.4.4h0a.43.43,0,0,0-.4-.4"/><path class="cls-1" d="M297.38,191.65a.4.4,0,1,0,.4.4h0c.1-.2-.1-.4-.4-.4"/><path class="cls-1" d="M298.88,191.65a.4.4,0,1,0,.4.4.37.37,0,0,0-.4-.4"/><path class="cls-1" d="M295.88,191.65a.4.4,0,1,0,.4.4.43.43,0,0,0-.4-.4"/><path class="cls-1" d="M297.38,193.15a.4.4,0,1,0,.4.4h0c.1-.2-.1-.4-.4-.4"/><path class="cls-1" d="M298.88,193.15a.4.4,0,1,0,.4.4c.1-.2-.1-.4-.4-.4"/><path class="cls-1" d="M295.88,193.15a.4.4,0,1,0,.4.4h0a.43.43,0,0,0-.4-.4"/><path class="cls-1" d="M297.38,194.65a.4.4,0,1,0,.4.4h0c.1-.2-.1-.4-.4-.4"/><path class="cls-1" d="M298.88,194.65a.4.4,0,1,0,.4.4c.1-.2-.1-.4-.4-.4"/><path class="cls-1" d="M295.88,194.65a.4.4,0,1,0,.4.4h0a.43.43,0,0,0-.4-.4"/><path class="cls-1" d="M288.48,192.15a.4.4,0,1,0,.4.4h0a.43.43,0,0,0-.4-.4"/><path class="cls-1" d="M290,192.15c-.2,0-.4.3-.4.5s.2.3.4.4.5-.1.5-.4-.1-.5-.4-.5H290"/><path class="cls-1" d="M288.48,193.65a.4.4,0,1,0,.4.4h0a.43.43,0,0,0-.4-.4"/><path class="cls-1" d="M290,193.65c-.2,0-.4.3-.4.5s.2.3.4.4.5-.1.5-.4-.1-.5-.4-.5H290"/><path class="cls-1" d="M288.48,195.15a.4.4,0,1,0,.4.4h0c0-.2-.2-.3-.4-.4"/><path class="cls-1" d="M290,195.15a.4.4,0,1,0,.4.4.43.43,0,0,0-.4-.4"/><path class="cls-1" d="M288.48,196.75a.4.4,0,1,0,.4.4h0a.43.43,0,0,0-.4-.4"/><path class="cls-1" d="M290,196.75a.4.4,0,1,0,.4.4.43.43,0,0,0-.4-.4"/><path class="cls-1" d="M288.48,198.25a.4.4,0,1,0,.4.4h0a.43.43,0,0,0-.4-.4"/><path class="cls-1" d="M290,198.25a.4.4,0,1,0,.4.4.43.43,0,0,0-.4-.4"/><path class="cls-1" d="M288.48,199.75a.4.4,0,1,0,.4.4h0a.43.43,0,0,0-.4-.4"/><path class="cls-1" d="M290,199.75a.4.4,0,1,0,.4.4.43.43,0,0,0-.4-.4"/><path class="cls-1" d="M304.78,192.15a.4.4,0,1,0,.4.4h0c.1-.2-.1-.4-.4-.4"/><path class="cls-1" d="M306.38,192.15a.4.4,0,1,0,.4.4h0a.43.43,0,0,0-.4-.4"/><path class="cls-1" d="M304.78,193.65a.4.4,0,1,0,.4.4h0c.1-.2-.1-.4-.4-.4"/><path class="cls-1" d="M306.38,193.65a.4.4,0,1,0,.4.4h0a.43.43,0,0,0-.4-.4"/><path class="cls-1" d="M304.78,195.15a.4.4,0,1,0,.4.4h0c.1-.2-.1-.4-.4-.4"/><path class="cls-1" d="M306.38,195.15a.4.4,0,1,0,.4.4h0a.43.43,0,0,0-.4-.4"/><path class="cls-1" d="M304.78,196.75a.4.4,0,1,0,.4.4h0c.1-.2-.1-.4-.4-.4"/><path class="cls-1" d="M306.38,196.75a.4.4,0,1,0,.4.4h0a.43.43,0,0,0-.4-.4"/><path class="cls-1" d="M304.78,198.25a.4.4,0,1,0,.4.4h0c.1-.2-.1-.4-.4-.4"/><path class="cls-1" d="M306.38,198.25a.4.4,0,1,0,.4.4h0a.43.43,0,0,0-.4-.4"/><path class="cls-1" d="M304.78,199.75a.4.4,0,1,0,.4.4h0c.1-.2-.1-.4-.4-.4"/><path class="cls-1" d="M306.38,199.75a.4.4,0,1,0,.4.4h0a.43.43,0,0,0-.4-.4"/><path class="cls-1" d="M290.88,201.25h-3.6v-9.1l4.3-1.8v5.7h.6V190c0-.1-.1-.2-.1-.3h-.3l-4.9,2.1c-.1,0-.2.2-.2.3v9.6a.27.27,0,0,0,.3.3h4v-.7Z"/><rect class="cls-1" x="445.18" y="291.95" width="89.3" height="22.3"/><polygon class="cls-1" points="445.18 308.05 445.18 303.05 445.18 298.05 435.18 300.65 425.18 303.15 435.18 305.65 445.18 308.05"/><rect class="cls-1" x="172.58" y="186" width="89.3" height="22.3"/><polygon class="cls-1" points="261.88 192.2 261.88 197.2 261.88 202.2 271.88 199.6 281.88 197.1 271.88 194.6 261.88 192.2"/></g><g id="t_vn"><polygon class="cls-2" points="474.48 298.45 473.18 298.45 473.18 297.75 476.48 297.75 476.48 298.45 475.18 298.45 475.18 301.75 474.48 301.75 474.48 298.45"/><path class="cls-2" d="M477,297.75h1.8a1.92,1.92,0,0,1,1.2.4,1.22,1.22,0,0,1,.3.9h0a1.19,1.19,0,0,1-1,1.2l1.1,1.5h-.8l-1-1.4h-.9v1.4H477Zm1.7,2a.71.71,0,0,0,.8-.7h0a.71.71,0,0,0-.8-.7h-1v1.4Z"/><path class="cls-2" d="M480.78,300.05v-2.3h.7v2.3c0,.8.4,1.1,1,1.1a1,1,0,0,0,1-1.1v-2.3h.7v2.3a1.59,1.59,0,0,1-1.4,1.8h-.3a1.58,1.58,0,0,1-1.7-1.5c-.1,0-.1-.2,0-.3"/><polygon class="cls-2" points="484.88 297.75 485.48 297.75 487.68 300.55 487.68 297.75 488.38 297.75 488.38 301.75 487.78 301.75 485.58 298.95 485.58 301.75 484.88 301.75 484.88 297.75"/><path class="cls-2" d="M489,299.75h0a2.09,2.09,0,0,1,2-2.1h.1a2.46,2.46,0,0,1,1.5.5l-.5.5a1.19,1.19,0,0,0-1.1-.4,1.34,1.34,0,0,0-1.3,1.4h0a1.34,1.34,0,0,0,1.3,1.4h.1a1.69,1.69,0,0,0,1-.3V300h-1v-.6h1.7v1.7a2.72,2.72,0,0,1-1.7.6,2,2,0,0,1-2.1-1.9h0"/><polygon class="cls-2" points="495.78 298.45 494.48 298.45 494.48 297.75 497.78 297.75 497.78 298.45 496.48 298.45 496.48 301.75 495.78 301.75 495.78 298.45"/><path class="cls-2" d="M499.58,297.75h.7l1.8,4h-.8l-.4-1H499l-.4,1h-.7Zm0-1.2h.6l.7.9h-.5l-.4-.4-.5.4H499Zm1,3.6-.7-1.6-.7,1.6Z"/><polygon class="cls-2" points="502.48 297.75 503.18 297.75 504.38 299.65 505.68 297.75 506.38 297.75 506.38 301.75 505.68 301.75 505.68 298.85 504.38 300.75 504.38 300.75 503.08 298.95 503.08 301.75 502.48 301.75 502.48 297.75"/><polygon class="cls-2" points="454.48 305.55 455.18 305.55 455.18 307.25 457.18 307.25 457.18 305.55 457.88 305.55 457.88 309.55 457.18 309.55 457.18 307.85 455.18 307.85 455.18 309.55 454.48 309.55 454.48 305.55"/><path class="cls-2" d="M460,305.55h.6l1.8,4h-.8l-.4-1h-1.9l-.4,1h-.7Zm-.5-1,.6-.3.6,1h-.5Zm1.6,3.4-.7-1.6-.7,1.6Z"/><polygon class="cls-2" points="462.88 305.55 463.48 305.55 465.68 308.35 465.68 305.55 466.38 305.55 466.38 309.55 465.78 309.55 463.58 306.65 463.58 309.55 462.88 309.55 462.88 305.55"/><polygon class="cls-2" points="467.08 305.55 467.78 305.55 467.78 307.25 469.68 307.25 469.68 305.55 470.48 305.55 470.48 309.55 469.68 309.55 469.68 307.85 467.78 307.85 467.78 309.55 467.08 309.55 467.08 305.55"/><path class="cls-2" d="M472.48,307.55h0a2.08,2.08,0,0,1,1.9-2.1h.2a2.27,2.27,0,0,1,1.6.6l-.5.5a1.61,1.61,0,0,0-1.1-.5,1.35,1.35,0,0,0-1.3,1.4h0a1.35,1.35,0,0,0,1.3,1.4h0a1.43,1.43,0,0,0,1.1-.5l.5.5a2,2,0,0,1-2.9.2,1.56,1.56,0,0,1-.8-1.5"/><polygon class="cls-2" points="476.58 305.55 477.28 305.55 477.28 307.25 479.18 307.25 479.18 305.55 479.88 305.55 479.88 309.55 479.18 309.55 479.18 307.85 477.28 307.85 477.28 309.55 476.58 309.55 476.58 305.55"/><path class="cls-2" d="M481.28,304.25l.6.3-.7.7h-.5Zm-.6,1.3h.7v4h-.7Z"/><polygon class="cls-2" points="482.18 305.55 482.78 305.55 484.98 308.35 484.98 305.55 485.68 305.55 485.68 309.55 485.08 309.55 482.88 306.65 482.88 309.55 482.18 309.55 482.18 305.55"/><polygon class="cls-2" points="486.38 305.55 487.08 305.55 487.08 307.25 489.08 307.25 489.08 305.55 489.78 305.55 489.78 309.55 489.08 309.55 489.08 307.85 487.08 307.85 487.08 309.55 486.38 309.55 486.38 305.55"/><polygon class="cls-2" points="492.88 306.15 491.58 306.15 491.58 305.55 494.88 305.55 494.88 306.15 493.58 306.15 493.58 309.55 492.88 309.55 492.88 306.15"/><polygon class="cls-2" points="495.38 305.55 496.08 305.55 496.08 307.25 497.98 307.25 497.98 305.55 498.68 305.55 498.68 309.55 497.98 309.55 497.98 307.85 496.08 307.85 496.08 309.55 495.38 309.55 495.38 305.55"/><path class="cls-2" d="M500.88,305.55h.7l1.8,4h-.8l-.4-1h-1.9l-.4,1h-.7Zm-.6-1,.6-.3.6,1H501Zm1.6,3.4-.7-1.6-.7,1.6Z"/><polygon class="cls-2" points="503.68 305.55 504.38 305.55 506.48 308.35 506.48 305.55 507.18 305.55 507.18 309.55 506.58 309.55 504.38 306.65 504.38 309.55 503.68 309.55 503.68 305.55"/><polygon class="cls-2" points="507.88 305.55 508.58 305.55 508.58 307.25 510.58 307.25 510.58 305.55 511.28 305.55 511.28 309.55 510.58 309.55 510.58 307.85 508.58 307.85 508.58 309.55 507.88 309.55 507.88 305.55"/><path class="cls-2" d="M513.48,305.55H515a1.34,1.34,0,0,1,1.5,1.2v.2h0a1.42,1.42,0,0,1-1.6,1.4h-.8v1.3h-.7Zm1.5,2.1a.81.81,0,0,0,.9-.7h0c0-.5-.3-.7-.9-.7h-.8v1.5Z"/><polygon class="cls-2" points="516.98 305.55 517.68 305.55 517.68 307.25 519.58 307.25 519.58 305.55 520.28 305.55 520.28 309.55 519.58 309.55 519.58 307.85 517.68 307.85 517.68 309.55 516.98 309.55 516.98 305.55"/><path class="cls-2" d="M520.88,307.55h0a2.09,2.09,0,0,1,2-2.1h.1a2,2,0,0,1,2.1,1.9v.2h0a2.11,2.11,0,0,1-2.1,2.1h-.1a2,2,0,0,1-2.1-1.9c.1-.1.1-.1.1-.2m3.5,0h0a1.35,1.35,0,0,0-1.3-1.4H523a1.37,1.37,0,0,0-1.4,1.4v.1h0a1.37,1.37,0,0,0,1.4,1.4,1.45,1.45,0,0,0,1.4-1.5h0m-1.7-3.3h.6l.7.9h-.5l-.5-.4-.4.4H522Zm1.6-.7.6.3-.7.7h-.5Z"/><polygon class="cls-2" points="191.03 195.35 189.73 195.35 189.73 194.75 193.03 194.75 193.03 195.35 191.73 195.35 191.73 198.75 191.03 198.75 191.03 195.35"/><path class="cls-2" d="M193.43,194.75h1.8a1.92,1.92,0,0,1,1.2.4,1.22,1.22,0,0,1,.3.9h0a1.19,1.19,0,0,1-1,1.2l1.1,1.5H196l-1-1.4h-.9v1.4h-.7Zm1.7,2a.71.71,0,0,0,.8-.7h0a.71.71,0,0,0-.8-.7h-1v1.4Z"/><path class="cls-2" d="M197.23,197.05v-2.3h.7v2.3c0,.8.4,1.1,1,1.1a1,1,0,0,0,1-1.1v-2.3h.7v2.3a1.59,1.59,0,0,1-1.4,1.8h-.3a1.58,1.58,0,0,1-1.7-1.5v-.3"/><polygon class="cls-2" points="201.33 194.75 202.03 194.75 204.13 197.55 204.13 194.75 204.83 194.75 204.83 198.75 204.23 198.75 202.03 195.85 202.03 198.75 201.33 198.75 201.33 194.75"/><path class="cls-2" d="M205.43,196.75h0a2.08,2.08,0,0,1,1.9-2.1h.2a2,2,0,0,1,1.5.6l-.5.5a1.5,1.5,0,0,0-1.1-.4,1.42,1.42,0,0,0-1.3,1.4h0a1.34,1.34,0,0,0,1.3,1.4h.1a1.69,1.69,0,0,0,1-.3v-.8h-1v-.6h1.7v1.7a2.72,2.72,0,0,1-1.7.6,2,2,0,0,1-2.1-1.9c.1,0,.1-.1,0-.1"/><polygon class="cls-2" points="212.23 195.35 210.93 195.35 210.93 194.75 214.23 194.75 214.23 195.35 212.93 195.35 212.93 198.75 212.23 198.75 212.23 195.35"/><path class="cls-2" d="M216.13,194.65h.7l1.8,4.1h-.8l-.4-1h-1.9l-.4,1h-.7Zm0-1.2h.6l.7.8h-.5l-.5-.4-.4.4h-.5Zm1,3.7-.7-1.6-.7,1.6Z"/><polygon class="cls-2" points="218.93 194.75 219.73 194.75 220.93 196.65 222.13 194.75 222.93 194.75 222.93 198.75 222.13 198.75 222.13 195.85 220.93 197.75 220.93 197.75 219.63 195.85 219.63 198.75 218.93 198.75 218.93 194.75"/><polygon class="cls-2" points="225.03 194.75 225.73 194.75 225.73 196.35 227.73 196.35 227.73 194.75 228.43 194.75 228.43 198.75 227.73 198.75 227.73 197.05 225.73 197.05 225.73 198.75 225.03 198.75 225.03 194.75"/><path class="cls-2" d="M228.93,196.75h0a2.09,2.09,0,0,1,2-2.1h0a2,2,0,0,1,2.1,1.9v.2h0a2.11,2.11,0,0,1-2.1,2.1h-.1a2,2,0,0,1-2.1-1.9c.2-.1.2-.2.2-.2m3.5,0h0a1.35,1.35,0,0,0-1.3-1.4h0a1.37,1.37,0,0,0-1.4,1.4v.1h0a1.35,1.35,0,0,0,1.3,1.4h0a1.52,1.52,0,0,0,1.4-1.5h0m-1.7-3.3h.6l.7.9h-.5l-.5-.4-.4.4H230Zm0,5.7h.6v.7h-.6Z"/><rect class="cls-2" x="233.73" y="194.75" width="0.7" height="4"/><polygon class="cls-2" points="236.73 194.75 237.33 194.75 239.53 197.55 239.53 194.75 240.23 194.75 240.23 198.75 239.63 198.75 237.43 195.85 237.43 198.75 236.73 198.75 236.73 194.75"/><path class="cls-2" d="M240.73,196.75h0a2.08,2.08,0,0,1,1.9-2.1h.2a2,2,0,0,1,1.5.6l-.5.5a1.5,1.5,0,0,0-1.1-.4,1.42,1.42,0,0,0-1.3,1.4h0a1.34,1.34,0,0,0,1.3,1.4h.1a1.69,1.69,0,0,0,1-.3v-.8h-1v-.6h1.7v1.7a2.72,2.72,0,0,1-1.7.6,2.08,2.08,0,0,1-2.1-1.9c.1,0,.1-.1,0-.1"/><polygon class="cls-2" points="245.13 194.75 245.83 194.75 245.83 196.35 247.83 196.35 247.83 194.75 248.53 194.75 248.53 198.75 247.83 198.75 247.83 197.05 245.83 197.05 245.83 198.75 245.13 198.75 245.13 194.75"/><path class="cls-2" d="M249.23,194.75h.7v4h-.7Zm0,4.4h.6v.7h-.6Z"/></g></svg>