<svg xmlns="http://www.w3.org/2000/svg" viewBox="0 0 1287 1119"><defs><style>.cls-1{fill:none;}.cls-2{fill:#11976f;}</style></defs><g id="Layer_2" data-name="Layer 2"><g id="Layer_1-2" data-name="Layer 1"><rect class="cls-1" width="1287" height="1119"/><rect class="cls-2" x="672.67" y="519.25" width="22.32" height="1.44"/><rect class="cls-2" x="670.66" y="521.49" width="26.34" height="1.44"/><rect class="cls-2" x="672.67" y="505.97" width="22.32" height="1.44"/><rect class="cls-2" x="674.58" y="508.22" width="2.93" height="10.22"/><rect class="cls-2" x="679.77" y="508.22" width="2.93" height="10.22"/><rect class="cls-2" x="684.96" y="508.22" width="2.93" height="10.22"/><rect class="cls-2" x="690.15" y="508.22" width="2.93" height="10.22"/><polygon class="cls-2" points="672.67 505.16 683.83 500.3 694.99 505.16 672.67 505.16"/><path class="cls-2" d="M1077.63,541.63h-11.9V531.2a.68.68,0,0,0-.68-.68h-12.78a.67.67,0,0,0-.68.68v4.53h-11.91a.68.68,0,0,0-.68.68v20.83a.68.68,0,0,0,.68.68h38a.68.68,0,0,0,.68-.68V542.31A.68.68,0,0,0,1077.63,541.63Zm-7.43,9.26h2.27v5.94h-2.27Zm6.75,5.67h-3.66v-6.08a.41.41,0,0,0-.41-.41h-3.09a.41.41,0,0,0-.41.41v6.08h-3.66V543H1077Zm-36.59-19.47h11.23v19.47h-3.66v-6.08a.41.41,0,0,0-.41-.41h-3.09a.41.41,0,0,0-.41.41v6.08h-3.66Zm4.48,13.8h2.27v5.94h-2.27Zm19.52-8.58v14.25h-3.93v-6.08a.41.41,0,0,0-.41-.41h-3.09a.42.42,0,0,0-.41.41v6.08H1053V531.88h11.42v10.35A.19.19,0,0,0,1064.36,542.31Zm-7,14.52v-5.94h2.28v5.94Z"/><path class="cls-2" d="M1057.91,534.47h-3.05a.41.41,0,0,0-.41.41v3.06a.41.41,0,0,0,.41.41h3.05a.41.41,0,0,0,.41-.41v-3.06A.41.41,0,0,0,1057.91,534.47Zm-.41,3.06h-2.23v-2.24h2.23Z"/><path class="cls-2" d="M1062.55,534.47h-3a.41.41,0,0,0-.41.41v3.06a.41.41,0,0,0,.41.41h3a.41.41,0,0,0,.41-.41v-3.06A.41.41,0,0,0,1062.55,534.47Zm-.4,3.06h-2.24v-2.24h2.24Z"/><path class="cls-2" d="M1057.91,539.48h-3.05a.4.4,0,0,0-.41.4v3.06a.41.41,0,0,0,.41.41h3.05a.41.41,0,0,0,.41-.41v-3.06A.4.4,0,0,0,1057.91,539.48Zm-.41,3h-2.23v-2.24h2.23Z"/><path class="cls-2" d="M1062.55,539.48h-3a.4.4,0,0,0-.41.4v3.06a.41.41,0,0,0,.41.41h3a.41.41,0,0,0,.41-.41v-3.06A.4.4,0,0,0,1062.55,539.48Zm-.4,3h-2.24v-2.24h2.24Z"/><path class="cls-2" d="M1057.91,544.48h-3.05a.41.41,0,0,0-.41.41V548a.4.4,0,0,0,.41.4h3.05a.4.4,0,0,0,.41-.4v-3.06A.41.41,0,0,0,1057.91,544.48Zm-.41,3.06h-2.23V545.3h2.23Z"/><path class="cls-2" d="M1062.55,544.48h-3a.41.41,0,0,0-.41.41V548a.4.4,0,0,0,.41.4h3a.4.4,0,0,0,.41-.4v-3.06A.41.41,0,0,0,1062.55,544.48Zm-.4,3.06h-2.24V545.3h2.24Z"/><path class="cls-2" d="M1042.13,543.35h3a.41.41,0,0,0,.41-.41v-3.06a.4.4,0,0,0-.41-.4h-3a.4.4,0,0,0-.41.4v3.06A.41.41,0,0,0,1042.13,543.35Zm.41-3.06h2.23v2.24h-2.23Z"/><path class="cls-2" d="M1046.77,543.35h3a.41.41,0,0,0,.41-.41v-3.06a.4.4,0,0,0-.41-.4h-3a.4.4,0,0,0-.41.4v3.06A.41.41,0,0,0,1046.77,543.35Zm.41-3.06h2.23v2.24h-2.23Z"/><path class="cls-2" d="M1045.18,548.35a.4.4,0,0,0,.41-.4v-3.06a.41.41,0,0,0-.41-.41h-3a.41.41,0,0,0-.41.41V548a.4.4,0,0,0,.41.4Zm-2.64-3.05h2.23v2.24h-2.23Z"/><path class="cls-2" d="M1046.77,548.35h3a.4.4,0,0,0,.41-.4v-3.06a.41.41,0,0,0-.41-.41h-3a.41.41,0,0,0-.41.41V548A.4.4,0,0,0,1046.77,548.35Zm.41-3.05h2.23v2.24h-2.23Z"/><path class="cls-2" d="M1067.48,548.35h3.06a.4.4,0,0,0,.41-.4v-3.06a.41.41,0,0,0-.41-.41h-3.06a.4.4,0,0,0-.4.41V548A.4.4,0,0,0,1067.48,548.35Zm.41-3.05h2.24v2.24h-2.24Z"/><path class="cls-2" d="M1072.13,548.35h3a.4.4,0,0,0,.41-.4v-3.06a.41.41,0,0,0-.41-.41h-3a.41.41,0,0,0-.41.41V548A.4.4,0,0,0,1072.13,548.35Zm.41-3.05h2.23v2.24h-2.23Z"/><path d="M671.25,527.83v4.79c0,1.81.81,2.58,1.88,2.58s2-.79,2-2.58v-4.79h1.06v4.72c0,2.48-1.31,3.5-3.06,3.5s-2.9-.95-2.9-3.45v-4.77Z"/><path d="M678,527.94a10.7,10.7,0,0,1,1.91-.17,3.35,3.35,0,0,1,2.22.59,1.69,1.69,0,0,1,.67,1.43,1.92,1.92,0,0,1-1.37,1.77v0a2.08,2.08,0,0,1,1.67,2,2.18,2.18,0,0,1-.68,1.61,4.06,4.06,0,0,1-2.8.76,11.75,11.75,0,0,1-1.62-.1Zm1,3.31H680c1.11,0,1.75-.57,1.75-1.35,0-.95-.72-1.32-1.77-1.32a4.14,4.14,0,0,0-.92.07Zm0,3.88a6.56,6.56,0,0,0,.87,0c1.08,0,2.08-.39,2.08-1.57s-1-1.56-2.09-1.56H679Z"/><path d="M684.48,535.92v-8.09h1.14l2.59,4.09a23.83,23.83,0,0,1,1.45,2.63h0c-.1-1.08-.12-2.06-.12-3.32v-3.39h1v8.09h-1l-2.57-4.1a27.44,27.44,0,0,1-1.51-2.7h0c.07,1,.09,2,.09,3.33v3.46Z"/><path d="M692.37,527.94a15.81,15.81,0,0,1,2.22-.17,4.6,4.6,0,0,1,3.27,1,3.73,3.73,0,0,1,1.14,2.9,4.28,4.28,0,0,1-1.16,3.15,5,5,0,0,1-3.57,1.16,16.77,16.77,0,0,1-1.9-.1Zm1,7.15a6.45,6.45,0,0,0,1.06.06,3.11,3.11,0,0,0,3.44-3.43c0-1.91-1.07-3.12-3.27-3.12a6,6,0,0,0-1.23.11Z"/><path d="M655.3,542.33a12.38,12.38,0,0,1,2-.16,3.34,3.34,0,0,1,2.27.68,2.18,2.18,0,0,1,.71,1.69,2.36,2.36,0,0,1-.63,1.72,3.34,3.34,0,0,1-2.47.89,3.61,3.61,0,0,1-.84-.07v3.24h-1Zm1,3.9a3.58,3.58,0,0,0,.87.08c1.26,0,2-.61,2-1.72s-.75-1.59-1.9-1.59a4.21,4.21,0,0,0-1,.09Z"/><path d="M659.72,549.69a.71.71,0,1,1,.7.76A.7.7,0,0,1,659.72,549.69Z"/><path d="M666.07,543.12h-2.45v-.89h6v.89h-2.47v7.2h-1.06Z"/><path d="M671.55,542.23v3.39h3.91v-3.39h1v8.09h-1v-3.79h-3.91v3.79h-1v-8.09Z"/><path d="M685.34,541.29a2.25,2.25,0,0,1,.22,1,1,1,0,0,1-1.26,1.07,4.29,4.29,0,0,1,.93,2.85c0,2.78-1.69,4.26-3.75,4.26s-3.63-1.65-3.63-4.1,1.59-4.25,3.75-4.25a3.91,3.91,0,0,1,1.25.21,5.57,5.57,0,0,0,1.33.43c.4,0,.54-.18.54-.53a1.86,1.86,0,0,0-.19-.77Zm-1.21,5c0-1.61-.84-3.29-2.58-3.29s-2.6,1.62-2.59,3.37.93,3.28,2.58,3.28S684.13,548.08,684.13,546.24Zm-.73-5.84-1.54,1.4H681l1.11-1.4Z"/><path d="M687.64,542.23v8.09h-1v-8.09Z"/><path d="M693.05,542.23v3.39H697v-3.39h1v8.09h-1v-3.79h-3.91v3.79h-1v-8.09Z"/><path d="M706.74,546.19c0,2.78-1.69,4.26-3.76,4.26s-3.63-1.65-3.63-4.1,1.6-4.25,3.75-4.25S706.74,543.79,706.74,546.19Zm-6.27.13c0,1.73.93,3.28,2.57,3.28s2.6-1.52,2.6-3.36c0-1.61-.84-3.29-2.58-3.29S700.47,544.55,700.47,546.32Zm2.12-5.94,1.1,1.39h-.85l-1.53-1.39Z"/><path d="M709.24,547.78l-.84,2.54h-1.08l2.74-8.09h1.26l2.76,8.09H713l-.87-2.54Zm2.65-.82-.79-2.33c-.18-.52-.3-1-.42-1.47h0c-.12.48-.25,1-.41,1.46l-.79,2.34Z"/><path d="M1029.55,566.09h-2.46v-.89h6v.89h-2.47v7.19h-1.06Z"/><path d="M1034,565.31a10.66,10.66,0,0,1,2-.17,3.28,3.28,0,0,1,2.34.66,2,2,0,0,1,.64,1.53,2.14,2.14,0,0,1-1.53,2.07v0a2,2,0,0,1,1.19,1.63,13.27,13.27,0,0,0,.62,2.22h-1.07a9.25,9.25,0,0,1-.54-1.93c-.24-1.11-.68-1.53-1.62-1.57h-1v3.5h-1Zm1,3.68h1.07c1.12,0,1.82-.61,1.82-1.54s-.75-1.5-1.86-1.51a4.15,4.15,0,0,0-1,.1Z"/><path d="M1041.48,565.2V570c0,1.82.8,2.58,1.88,2.58s2-.79,2-2.58V565.2h1.05v4.71c0,2.48-1.3,3.5-3.05,3.5s-2.91-.94-2.91-3.45V565.2Z"/><path d="M1048.2,573.28V565.2h1.14l2.59,4.09a22.28,22.28,0,0,1,1.45,2.63l0,0c-.09-1.08-.12-2.06-.12-3.32V565.2h1v8.08h-1.06l-2.56-4.1a24.7,24.7,0,0,1-1.52-2.7h0c.06,1,.08,2,.08,3.34v3.45Z"/><path d="M1062.25,572.92a7.46,7.46,0,0,1-2.49.45,3.79,3.79,0,0,1-4.14-4.08,4.05,4.05,0,0,1,4.37-4.18,5,5,0,0,1,2,.38l-.25.85A4.28,4.28,0,0,0,1060,566a3,3,0,0,0-3.25,3.25,3,3,0,0,0,3.12,3.26,3.43,3.43,0,0,0,1.39-.21v-2.41h-1.65V569h2.67Z"/><path d="M1067.43,566.09H1065v-.89h6v.89h-2.47v7.19h-1.06Z"/><path d="M1072.27,570.74l-.84,2.54h-1.08l2.75-8.08h1.26l2.76,8.08H1076l-.86-2.54Zm1.89-7.34,1.26,1.37h-.88l-.76-.83h0l-.77.83h-.85l1.22-1.37Zm.76,6.52-.79-2.32c-.18-.53-.3-1-.42-1.48h0c-.12.48-.26,1-.41,1.47l-.79,2.33Z"/><path d="M1085.07,569.73c-.06-1.13-.13-2.48-.12-3.49h0c-.27,1-.61,2-1,3.07l-1.43,3.92h-.79l-1.31-3.85c-.38-1.13-.71-2.18-.94-3.14h0c0,1-.08,2.36-.16,3.58l-.21,3.46h-1l.57-8.08h1.33l1.38,3.91c.33,1,.61,1.88.81,2.72h0c.2-.81.49-1.7.85-2.72l1.44-3.91h1.33l.5,8.08h-1Z"/><path d="M1012.3,579.6V583h3.91V579.6h1.06v8.08h-1.06v-3.79h-3.91v3.79h-1V579.6Z"/><path d="M1020.39,585.14l-.84,2.54h-1.08l2.75-8.08h1.26l2.76,8.08h-1.12l-.86-2.54Zm1-7.38,1.11,1.4h-.86l-1.53-1.4Zm1.67,6.56-.79-2.32c-.18-.53-.3-1-.42-1.48h0c-.12.48-.25,1-.4,1.47l-.79,2.33Z"/><path d="M1026.43,587.68V579.6h1.14l2.59,4.09a23.83,23.83,0,0,1,1.45,2.63l0,0c-.1-1.08-.12-2.06-.12-3.32V579.6h1v8.08h-1l-2.57-4.1a26.34,26.34,0,0,1-1.51-2.7h0c.06,1,.08,2,.08,3.34v3.45Z"/><path d="M1035.37,579.6V583h3.91V579.6h1v8.08h-1v-3.79h-3.91v3.79h-1V579.6Z"/><path d="M1050.34,587.42a5.25,5.25,0,0,1-2.14.38,3.77,3.77,0,0,1-4-4.09,4,4,0,0,1,4.22-4.24,4.22,4.22,0,0,1,1.92.36l-.25.85a3.84,3.84,0,0,0-1.63-.34,3,3,0,0,0-3.16,3.34,2.94,2.94,0,0,0,3.11,3.25,4,4,0,0,0,1.7-.34Z"/><path d="M1052.69,579.6V583h3.91V579.6h1.06v8.08h-1.06v-3.79h-3.91v3.79h-1V579.6Z"/><path d="M1061.75,577.76l-1.53,1.41h-.85l1.1-1.41Zm-1.23,1.84v8.08h-1V579.6Z"/><path d="M1062.34,587.68V579.6h1.14l2.59,4.09a22.28,22.28,0,0,1,1.45,2.63l0,0c-.1-1.08-.12-2.06-.12-3.32V579.6h1v8.08h-1.06l-2.56-4.1a23,23,0,0,1-1.51-2.7h0c.06,1,.08,2,.08,3.34v3.45Z"/><path d="M1071.28,579.6V583h3.91V579.6h1.06v8.08h-1.06v-3.79h-3.91v3.79h-1V579.6Z"/><path d="M1081.65,580.49h-2.46v-.89h6v.89h-2.47v7.19h-1Z"/><path d="M1086.33,579c.19-.51.63-.61.63-1a.37.37,0,0,0-.4-.38.8.8,0,0,0-.59.42l-.41-.24a1.31,1.31,0,0,1,1.19-.8.92.92,0,0,1,1,.86c0,.62-.52.75-.85,1.3Zm.79.58v8.08h-1V579.6Z"/><path d="M1089,587.68V579.6h1.13l2.6,4.09a23.83,23.83,0,0,1,1.45,2.63l0,0c-.1-1.08-.12-2.06-.12-3.32V579.6h1v8.08h-1l-2.57-4.1a26.34,26.34,0,0,1-1.51-2.7h0c.07,1,.09,2,.09,3.34v3.45Z"/><path d="M1097.88,579.6V583h3.91V579.6h1.06v8.08h-1.06v-3.79h-3.91v3.79h-1V579.6Z"/></g></g></svg>