<svg id="Layer_1" data-name="Layer 1" xmlns="http://www.w3.org/2000/svg" viewBox="0 0 913 614.91"><defs><style>.cls-1{fill:#455981;}.cls-2{fill:#fff;}</style></defs><g id="Layer_2" data-name="Layer 2"><path class="cls-1" d="M505,480.17l-4.8-8.8v-1h3.1a.52.52,0,0,0,.4-.2c.1-.1,0-.3-.1-.4l-.7-.6.7-.6c.1-.1.2-.3.1-.4a.52.52,0,0,0-.4-.2h-3.5a.35.35,0,0,0-.4.4v3.1l-1,1.8-4-7.4v-1.3h4.5c.2,0,.3-.1.3-.2s0-.3-.1-.4l-1.1-1,1.1-1c.1-.1.2-.3.1-.4s-.2-.2-.3-.2H494a.43.43,0,0,0-.4.4v4.1l-3.5,6.5h0l-2.6-4.9v-1h3.1a.52.52,0,0,0,.4-.2c.1-.1,0-.3-.1-.4l-.7-.6.7-.6c.1-.1.2-.3.1-.4a.52.52,0,0,0-.4-.2h-3.5c-.1,0-.2,0-.2.1a.37.37,0,0,0-.1.3v.7h0v2.4l-4.8,8.5c-.1.1-.1.2,0,.4s.2.2.3.2h5.4l.2-.4-1.1,2c-.1.1-.1.2,0,.4s.2.2.3.2h8.2l.4-.7h-8l3.5-6.4.8,1.2c.1.1.2.2.3.2h0c.1,0,.2-.1.3-.2l1.4-2.3c.1.2.3.5.5.9l.9,1.4c.1.1.2.2.3.2s.2-.1.3-.2l.8-1.2L498,474l-3.4,6.3c-.1.1-.1.2,0,.4s.2.2.3.2h9.7a4.35,4.35,0,0,0,.4-.7c-.1,0-.1-.1-.2-.1m-4.7-11.5h2.1l-.3.2a.5.5,0,0,0,0,.6l.3.2h-2Zm-5.8-6.3v-.2H498l-.7.6a.37.37,0,0,0-.1.3c0,.1.1.2.1.3l.7.6h-3.6Zm-6.9,2.3h2.1l-.3.2a.28.28,0,0,0,0,.5h0l.3.2h-2.1Zm-.3,3.5,1.6,2.9-.4.5-.9-1.5c-.1-.1-.2-.2-.3-.2h0c-.1,0-.2.1-.3.2l-.9,1.5-.4-.5Zm1,7.8H483l2.3-4.2.5.7c.1.1.2.2.3.2s.2-.1.3-.2l.9-1.5.3.5.6,1c.1.1.2.2.3.2h0c.1,0,.2-.1.3-.2l.5-.7.6,1.1Zm7.6-3.9-1.4-2.3c-.1-.1-.2-.2-.3-.2s-.2.1-.3.2l-1.4,2.3-.7-1,2.4-4.4,2.4,4.5Zm4,.2,1.6,2.9-.4.5-.9-1.5c-.1-.1-.2-.2-.3-.2s-.2.1-.3.2l-.2.4-.4-.6Zm-1.3,2.4.3.6-.2.4-.4-.5Zm-2.8,5.5,2.3-4.2.5.7c.1.1.2.2.3.2s.2-.1.3-.2l.9-1.5.3.5.6,1c.1.1.2.2.3.2h0c.1,0,.2-.1.3-.2l.5-.7,2.3,4.2Z"/><path class="cls-1" d="M403.5,469.67h-.2a7.31,7.31,0,0,0-5.8,0,.3.3,0,0,1-.4,0,4.71,4.71,0,0,0-4.6,0,.3.3,0,0,1-.4,0,.52.52,0,0,1-.2-.4,8.45,8.45,0,0,1,16.9-.5v.6a.76.76,0,0,1-.2.4.3.3,0,0,1-.4,0,4.71,4.71,0,0,0-4.6,0,.1.1,0,0,0-.1-.1m-8.7-1.4a5.42,5.42,0,0,1,2.5.6,8.05,8.05,0,0,1,6.1,0,5.67,5.67,0,0,1,4.6-.2,7.63,7.63,0,0,0-8.3-6.9,7.5,7.5,0,0,0-6.9,6.9,4.48,4.48,0,0,1,2-.4"/><path class="cls-1" d="M403.5,469.67a.43.43,0,0,1-.4-.4h0a13.38,13.38,0,0,0-2.7-7.4,13.88,13.88,0,0,0-2.7,7.4.55.55,0,0,1-.3.5c-.2.1-.4-.1-.5-.3v-.1a13.64,13.64,0,0,1,3.2-8.3.37.37,0,0,1,.6,0h0a15,15,0,0,1,3.2,8.3.45.45,0,0,1-.4.3h0"/><path class="cls-1" d="M407,478.37h0v-.1h0v-.1h0l-2.3-2.6-1.9-4a.52.52,0,0,0-.4-.2h-3.8a.52.52,0,0,0-.4.2l-1.9,4-2.3,2.6h0v.1h0v.1h0v2.2a.43.43,0,0,0,.4.4h0a.43.43,0,0,0,.4-.4h0v-1.8h11.5v1.8a.43.43,0,0,0,.4.4h0a.43.43,0,0,0,.4-.4h0v-2.2h0m-8.2-6.2H402l1.5,3.2h-6.4Zm-3.6,5.8,1.6-1.8h7l1.6,1.8Z"/><path class="cls-1" d="M400.9,471.27v-2.7a.5.5,0,0,0-1,0h0v2.7Z"/><path class="cls-1" d="M399.8,478.77v.2a.5.5,0,0,0,1,0v-.2Z"/><path class="cls-2" d="M600.2,271.27a1,1,0,0,0-1-.8h-2.5v-3.6a.43.43,0,0,0-.4-.4h-.8v-3.6a.43.43,0,0,0-.4-.4h-9a.43.43,0,0,0-.4.4h0v3.6h-.8a.43.43,0,0,0-.4.4v3.6h-.9a1.32,1.32,0,0,0-1.3,1.3,1.85,1.85,0,0,0,.2.7l1.9,2.8a2.23,2.23,0,0,0,1.7.9h7a2.3,2.3,0,0,0,1.4-.4l5.4-3.3a1.56,1.56,0,0,0,.3-1.2"/><path class="cls-1" d="M599.2,279.37a1.22,1.22,0,0,1-1.2-1.2.4.4,0,1,0-.8,0h0a1.22,1.22,0,0,1-1.2,1.2,1.29,1.29,0,0,1-1.2-1.2c0-.2-.2-.3-.4-.3a.27.27,0,0,0-.3.3,1.26,1.26,0,1,1-2.5.3v-.2a.4.4,0,0,0-.8,0,1.22,1.22,0,0,1-1.2,1.2,1.29,1.29,0,0,1-1.2-1.2.4.4,0,0,0-.8,0,1.22,1.22,0,0,1-1.2,1.2,1.29,1.29,0,0,1-1.2-1.2.4.4,0,0,0-.8,0,1.26,1.26,0,0,1-2.5.3v-.2c0-.2-.2-.3-.4-.3a.27.27,0,0,0-.3.3.43.43,0,0,1-.4.4h0a.43.43,0,0,1-.4-.4h0a1.22,1.22,0,0,1,1.2-1.2,1.29,1.29,0,0,1,1.2,1.2.4.4,0,1,0,.8,0h0a1.22,1.22,0,0,1,1.2-1.2,1.29,1.29,0,0,1,1.2,1.2.4.4,0,0,0,.8,0h0a1.22,1.22,0,0,1,1.2-1.2,1.29,1.29,0,0,1,1.2,1.2.4.4,0,0,0,.8,0h0a1.22,1.22,0,0,1,1.2-1.2,1.29,1.29,0,0,1,1.2,1.2.4.4,0,0,0,.8,0,1.22,1.22,0,0,1,1.2-1.2,1.29,1.29,0,0,1,1.2,1.2.4.4,0,0,0,.8,0,1.22,1.22,0,0,1,1.2-1.2,1.29,1.29,0,0,1,1.2,1.2.4.4,0,1,0,.8,0,1.22,1.22,0,0,1,1.2-1.2,1.29,1.29,0,0,1,1.2,1.2c0,.2-.3.4-.5.4s-.3-.2-.4-.4a.4.4,0,0,0-.8,0h0c.2.4-.4,1-1.1,1"/><path class="cls-1" d="M596.4,282.17a1.22,1.22,0,0,1-1.2-1.2.4.4,0,0,0-.8,0h0a1.22,1.22,0,0,1-1.2,1.2A1.29,1.29,0,0,1,592,281a.4.4,0,1,0-.8,0,1.22,1.22,0,0,1-1.2,1.2,1.29,1.29,0,0,1-1.2-1.2.4.4,0,1,0-.8,0h0a1.22,1.22,0,0,1-1.2,1.2,1.29,1.29,0,0,1-1.2-1.2.4.4,0,1,0-.8,0h0c0,.2-.3.4-.5.4s-.3-.2-.4-.4a1.22,1.22,0,0,1,1.2-1.2,1.29,1.29,0,0,1,1.2,1.2.4.4,0,1,0,.8,0,1.22,1.22,0,0,1,1.2-1.2,1.29,1.29,0,0,1,1.2,1.2c0,.2.2.3.4.3a.27.27,0,0,0,.3-.3,1.22,1.22,0,0,1,1.2-1.2,1.29,1.29,0,0,1,1.2,1.2.4.4,0,0,0,.8,0,1.22,1.22,0,0,1,1.2-1.2,1.29,1.29,0,0,1,1.2,1.2.4.4,0,1,0,.8,0,1.22,1.22,0,0,1,1.2-1.2.43.43,0,0,1,.4.4h0a.43.43,0,0,1-.4.4h0a.43.43,0,0,0-.4.4c.3.7-.3,1.2-1,1.2"/><path class="cls-1" d="M600.2,271.27a1,1,0,0,0-1-.8h-2.5v-3.6a.43.43,0,0,0-.4-.4h-.8v-3.6a.43.43,0,0,0-.4-.4h-9a.43.43,0,0,0-.4.4h0v3.6h-.8a.43.43,0,0,0-.4.4v3.6h-.9a1.32,1.32,0,0,0-1.3,1.3,1.85,1.85,0,0,0,.2.7l1.9,2.8a2.23,2.23,0,0,0,1.7.9h7a2.82,2.82,0,0,0,1.5-.4l5.4-3.3a2.17,2.17,0,0,0,.2-1.2m-13.7-8h8v3.2h-8Zm-1.3,4.1h10.5v3.2H585.2Zm14,4.4-5.4,3.3a1.69,1.69,0,0,1-1,.3h-7a1.05,1.05,0,0,1-.9-.5l-1.9-2.8a.3.3,0,0,1,0-.4.52.52,0,0,1,.4-.2h15.7a.22.22,0,0,1,.2.2l-.1.1"/><path class="cls-1" d="M588.1,269a.6.6,0,1,1-.6-.6.58.58,0,0,1,.6.6h0"/><path class="cls-1" d="M590.1,269a.65.65,0,0,1-.6.6.54.54,0,0,1-.5-.7.47.47,0,0,1,.5-.5.53.53,0,0,1,.6.6h0"/><path class="cls-1" d="M592.2,269a.65.65,0,0,1-.6.6.54.54,0,0,1-.5-.7.47.47,0,0,1,.5-.5.58.58,0,0,1,.6.6h0"/><path class="cls-1" d="M589.1,264.87a.65.65,0,0,1-.6.6h0a.6.6,0,1,1,.6-.6h0"/><path class="cls-1" d="M591.2,264.87a.65.65,0,0,1-.6.6h0a.6.6,0,1,1,.6-.6h0"/><path class="cls-1" d="M593.2,264.87a.6.6,0,1,1-.6-.6h0a.58.58,0,0,1,.6.6h0"/><path class="cls-1" d="M594.3,269a.65.65,0,0,1-.6.6.54.54,0,0,1-.5-.7.47.47,0,0,1,.5-.5.58.58,0,0,1,.6.6h0"/><path class="cls-1" d="M592.2,272.67a.65.65,0,0,1-.6.6.54.54,0,0,1-.5-.7.47.47,0,0,1,.5-.5c.3.1.6.3.6.6h0"/><path class="cls-1" d="M594.3,272.67a.65.65,0,0,1-.6.6.54.54,0,0,1-.5-.7.47.47,0,0,1,.5-.5c.3.1.6.3.6.6h0"/><rect class="cls-1" x="274.9" y="457.97" width="89.3" height="22.3"/><polygon class="cls-1" points="364.2 474.17 364.2 469.17 364.2 464.17 374.2 466.57 384.2 469.07 374.2 471.57 364.2 474.17"/><rect class="cls-1" x="627" y="259.47" width="89.3" height="22.3"/><polygon class="cls-1" points="627 275.67 627 270.67 627 265.67 617 268.17 607 270.77 617 273.17 627 275.67"/><rect class="cls-1" x="531.4" y="463.97" width="89.3" height="22.3"/><polygon class="cls-1" points="531.4 480.07 531.4 475.07 531.4 470.07 521.4 472.67 511.4 475.17 521.4 477.67 531.4 480.07"/></g><g id="t_vn"><polygon class="cls-2" points="294.6 464.07 295.3 464.07 295.3 466.17 297.2 464.07 298.1 464.07 296.4 465.87 298.2 468.17 297.3 468.17 295.9 466.27 295.3 466.97 295.3 468.17 294.6 468.17 294.6 464.07"/><polygon class="cls-2" points="298.5 464.07 299.2 464.07 299.2 465.77 301.1 465.77 301.1 464.07 301.8 464.07 301.8 468.17 301.1 468.17 301.1 466.47 299.2 466.47 299.2 468.17 298.5 468.17 298.5 464.07"/><path class="cls-2" d="M302.5,466.47v-2.4h.7v2.3c0,.8.4,1.1,1,1.1a1,1,0,0,0,1-1.1v-2.3h.7v2.3a1.59,1.59,0,0,1-1.4,1.8h-.4a1.58,1.58,0,0,1-1.7-1.5c0-.1,0-.2.1-.2"/><polygon class="cls-2" points="308 464.07 308.7 464.07 310.9 466.87 310.9 464.07 311.5 464.07 311.5 468.17 311 468.17 308.7 465.27 308.7 468.17 308 468.17 308 464.07"/><path class="cls-2" d="M312.1,466.17h0a2.08,2.08,0,0,1,1.9-2.1h.1a2.46,2.46,0,0,1,1.5.5l-.5.5a1.5,1.5,0,0,0-1.1-.4,1.42,1.42,0,0,0-1.3,1.4h0a1.27,1.27,0,0,0,1.2,1.4h.1a1.69,1.69,0,0,0,1-.3v-.8h-1v-.6h1.7v1.7a2.72,2.72,0,0,1-1.7.6,2.08,2.08,0,0,1-2.1-1.9c.3.1.3,0,.2,0"/><polygon class="cls-2" points="316.5 464.07 317.2 464.07 317.2 465.77 319.1 465.77 319.1 464.07 319.8 464.07 319.8 468.17 319.1 468.17 319.1 466.47 317.2 466.47 317.2 468.17 316.5 468.17 316.5 464.07"/><path class="cls-2" d="M319.9,463.67c.1-.5.3-.7.6-.7s.6.2.8.2.2-.1.3-.3l.4.1c-.1.5-.3.7-.6.7s-.6-.2-.8-.2-.2.1-.3.3Zm.7.4h.7v4h-.7Z"/><path class="cls-2" d="M323.5,464.07H325a2,2,0,0,1,2.1,1.9v.1h0a2,2,0,0,1-2,2h-1.6Zm1.5,3.4a1.32,1.32,0,0,0,1.4-1.2v-.1h0a1.41,1.41,0,0,0-1.3-1.4h-.9v2.7Z"/><path class="cls-2" d="M327.7,466.47v-2.4h.7v2.3c0,.8.4,1.1,1,1.1a1,1,0,0,0,1-1.1v-2.3h.6a.1.1,0,0,0,.1-.1,4.33,4.33,0,0,0-.1-.5h.7a1.27,1.27,0,0,1,.1.6.73.73,0,0,1-.6.7v1.7a1.59,1.59,0,0,1-1.4,1.8h-.3a1.58,1.58,0,0,1-1.7-1.5.77.77,0,0,1-.1-.3"/><path class="cls-2" d="M331.9,466.17h0a2.09,2.09,0,0,1,2-2.1h.1a1.92,1.92,0,0,1,1.2.4c.2,0,.2-.1.2-.2a.76.76,0,0,0-.2-.5h.7a1.27,1.27,0,0,1,.1.6.62.62,0,0,1-.4.6,1.92,1.92,0,0,1,.4,1.2h0a2.09,2.09,0,0,1-2,2.1h-.1a2,2,0,0,1-2.1-1.9.31.31,0,0,0,.1-.2m3.5-.1h0a1.35,1.35,0,0,0-1.3-1.4H334a1.37,1.37,0,0,0-1.4,1.4v.1h0a1.37,1.37,0,0,0,1.4,1.4,1.52,1.52,0,0,0,1.4-1.5h0m-2.4-2.4c.1-.5.3-.7.6-.7s.6.2.8.2.2-.1.3-.3l.4.1c-.1.5-.3.7-.6.7s-.6-.2-.9-.2-.2.1-.3.3Z"/><polygon class="cls-2" points="336.7 464.07 337.4 464.07 339.5 466.87 339.5 464.07 340.2 464.07 340.2 468.17 339.6 468.17 337.4 465.27 337.4 468.17 336.7 468.17 336.7 464.07"/><path class="cls-2" d="M340.8,466.17h0a2.08,2.08,0,0,1,1.9-2.1h.1a2.46,2.46,0,0,1,1.5.5l-.5.5a1.5,1.5,0,0,0-1.1-.4,1.42,1.42,0,0,0-1.3,1.4h0a1.27,1.27,0,0,0,1.2,1.4h.1a1.69,1.69,0,0,0,1-.3v-.8h-1v-.6h1.7v1.7a2.72,2.72,0,0,1-1.7.6,2.08,2.08,0,0,1-2.1-1.9c.2.1.2,0,.2,0"/><path class="cls-2" d="M294,474.77l.4-.5a1.9,1.9,0,0,0,1.3.5c.4,0,.7-.2.7-.5h0c0-.3-.2-.5-.9-.6s-1.3-.5-1.3-1.2h0a1.24,1.24,0,0,1,1.3-1.2h.1a2.69,2.69,0,0,1,1.5.5l-.4.5a1.5,1.5,0,0,0-1.1-.4c-.4,0-.6.2-.6.5h0c0,.3.2.5,1,.6s1.3.5,1.3,1.2h0c0,.8-.6,1.2-1.4,1.2a2.88,2.88,0,0,1-1.9-.6"/><path class="cls-2" d="M297.4,473.27h0a2.1,2.1,0,0,1,4.2,0h0a2.1,2.1,0,0,1-4.2,0m3.5,0h0a1.4,1.4,0,0,0-2.8,0h0a1.4,1.4,0,0,0,2.8,0"/><path class="cls-2" d="M302.1,473.57v-2.3h.7v2.3c0,.8.4,1.1,1,1.1a1,1,0,0,0,1-1.1v-2.3h.7v2.3a1.59,1.59,0,0,1-1.4,1.8h-.3a1.58,1.58,0,0,1-1.7-1.5v-.3"/><polygon class="cls-2" points="307.2 471.97 306 471.97 306 471.27 309.2 471.27 309.2 471.97 308 471.97 308 475.27 307.2 475.27 307.2 471.97"/><polygon class="cls-2" points="309.7 471.27 310.4 471.27 310.4 472.97 312.3 472.97 312.3 471.27 313 471.27 313 475.27 312.3 475.27 312.3 473.57 310.4 473.57 310.4 475.27 309.7 475.27 309.7 471.27"/><polygon class="cls-2" points="313.8 471.27 316.8 471.27 316.8 471.97 314.5 471.97 314.5 472.97 316.5 472.97 316.5 473.57 314.5 473.57 314.5 474.67 316.8 474.67 316.8 475.27 313.8 475.27 313.8 471.27"/><path class="cls-2" d="M317.3,471.27h1.8a1.92,1.92,0,0,1,1.2.4,1.22,1.22,0,0,1,.3.9h0a1.19,1.19,0,0,1-1,1.2l1.1,1.5h-.8l-1-1.4H318v1.4h-.7Zm1.8,2c.5,0,.8-.2.8-.7h0a.71.71,0,0,0-.8-.7h-1v1.4Z"/><polygon class="cls-2" points="321.2 471.27 321.9 471.27 324 474.07 324 471.27 324.7 471.27 324.7 475.27 324.1 475.27 321.9 472.47 321.9 475.27 321.2 475.27 321.2 471.27"/><path class="cls-2" d="M326.9,471.27h1.5a2,2,0,0,1,2.1,1.9v.1h0a2,2,0,0,1-2,2h-1.6Zm1.5,3.4a1.4,1.4,0,0,0,1.4-1.2v-.1h0a1.41,1.41,0,0,0-1.3-1.4h-.9v2.7Z"/><polygon class="cls-2" points="331.1 471.27 334.1 471.27 334.1 471.97 331.8 471.97 331.8 472.97 333.8 472.97 333.8 473.57 331.8 473.57 331.8 474.67 334.1 474.67 334.1 475.27 331.1 475.27 331.1 471.27"/><polygon class="cls-2" points="334.6 471.27 335.4 471.27 335.4 474.67 337.5 474.67 337.5 475.27 334.6 475.27 334.6 471.27"/><polygon class="cls-2" points="338.9 471.97 337.6 471.97 337.6 471.27 340.9 471.27 340.9 471.97 339.6 471.97 339.6 475.27 338.9 475.27 338.9 471.97"/><path class="cls-2" d="M342.8,471.27h.7l1.8,4h-.8l-.4-1h-1.9l-.4,1H341Zm1,2.4-.7-1.6-.7,1.6Z"/><polygon class="cls-2" points="651.1 265.67 651.8 265.67 651.8 267.77 653.7 265.67 654.5 265.67 652.9 267.47 654.6 269.77 653.8 269.77 652.4 267.87 651.8 268.57 651.8 269.77 651.1 269.77 651.1 265.67"/><polygon class="cls-2" points="654.9 265.67 655.6 265.67 655.6 267.37 657.6 267.37 657.6 265.67 658.3 265.67 658.3 269.77 657.6 269.77 657.6 268.07 655.6 268.07 655.6 269.77 654.9 269.77 654.9 265.67"/><path class="cls-2" d="M658.9,268v-2.3h.7V268c0,.8.4,1.1,1,1.1a1,1,0,0,0,1-1.1v-2.3h.7V268a1.75,1.75,0,0,1-1.7,1.7,1.69,1.69,0,0,1-1.7-1.7"/><path class="cls-2" d="M664.5,265.67h1.6a1.34,1.34,0,0,1,1.5,1.1v.2h0a1.43,1.43,0,0,1-1.4,1.4h-1v1.3h-.7Zm1.5,2.1a.81.81,0,0,0,.9-.7h0c0-.5-.3-.7-.9-.7h-.8v1.4Z"/><polygon class="cls-2" points="668 265.67 668.7 265.67 668.7 267.37 670.7 267.37 670.7 265.67 671.4 265.67 671.4 269.77 670.7 269.77 670.7 268.07 668.7 268.07 668.7 269.77 668 269.77 668 265.67"/><path class="cls-2" d="M672.1,268v-2.3h.7V268c0,.8.4,1.1,1,1.1a1,1,0,0,0,1-1.1v-2.3h.5a.22.22,0,0,0,.2-.2.76.76,0,0,0-.2-.5h.7a1.27,1.27,0,0,1,.1.6.73.73,0,0,1-.6.7V268a1.59,1.59,0,0,1-1.4,1.8h-.3a1.58,1.58,0,0,1-1.7-1.5V268m1.9-3.5.6.3-.7.7h-.5Z"/><path class="cls-2" d="M676.3,267.77h0a2.08,2.08,0,0,1,1.9-2.1h.2a2.27,2.27,0,0,1,1.6.6l-.5.5a1.61,1.61,0,0,0-1.1-.5,1.35,1.35,0,0,0-1.3,1.4h0a1.34,1.34,0,0,0,1.3,1.4h.1a1.85,1.85,0,0,0,1.2-.5l.5.5a2,2,0,0,1-1.6.7,2.09,2.09,0,0,1-2.3-2h0"/><polygon class="cls-2" points="681.9 265.67 682.6 265.67 682.6 267.37 684.5 267.37 684.5 265.67 685.2 265.67 685.2 269.77 684.5 269.77 684.5 268.07 682.6 268.07 682.6 269.77 681.9 269.77 681.9 265.67"/><path class="cls-2" d="M685.8,267.77h0a2.11,2.11,0,0,1,2.1-2.1h.1a1.75,1.75,0,0,1,1.2.4c.2,0,.2-.1.2-.2a.76.76,0,0,0-.2-.5h.7a1.27,1.27,0,0,1,.1.6.71.71,0,0,1-.3.6,1.92,1.92,0,0,1,.4,1.2h0a2.18,2.18,0,0,1-2.2,2,2.25,2.25,0,0,1-2.1-2m3.4-.1h0a1.35,1.35,0,0,0-1.3-1.4h-.1a1.42,1.42,0,0,0-1.4,1.3v.1h0a1.4,1.4,0,0,0,2.8,0h0m-1.7,2.4h.7v.7h-.7Z"/><path class="cls-2" d="M690.5,265.67h1.6a1.34,1.34,0,0,1,1.5,1.2v.2h0a1.43,1.43,0,0,1-1.4,1.4h-1v1.3h-.7Zm1.6,2.1a.81.81,0,0,0,.9-.7h0c0-.5-.3-.7-.9-.7h-.8v1.4Z"/><path class="cls-2" d="M649,272.77h1.8a1.28,1.28,0,0,1,1,.4.91.91,0,0,1,.3.7h0a1,1,0,0,1-.6.9,1,1,0,0,1,.8,1h0c0,.7-.6,1.1-1.5,1.1H649Zm1.7,1.7c.5,0,.8-.2.8-.6h0c0-.3-.2-.5-.7-.5h-1v1.1Zm.2,1.7c.5,0,.8-.2.8-.5h0c0-.3-.3-.5-.8-.5h-1.1v1.1Z"/><path class="cls-2" d="M652.9,272.77h3v.6h-2.3v1h2v.6h-2v1.1h2.3v.6h-3Zm1.2-1.1h.6l.7.9h-.6l-.4-.4-.4.4h-.5Zm1.6-.8.6.3-.7.7h-.5Z"/><polygon class="cls-2" points="656.5 272.77 657.1 272.77 659.3 275.57 659.3 272.77 660 272.77 660 276.87 659.4 276.87 657.2 273.97 657.2 276.87 656.5 276.87 656.5 272.77"/><path class="cls-2" d="M662.2,272.77h1.5a2,2,0,0,1,2.1,1.9v.1h0a2,2,0,0,1-2,2h-1.6Zm1.5,3.4a1.32,1.32,0,0,0,1.4-1.2v-.1h0a1.41,1.41,0,0,0-1.3-1.4h-.9v2.7Z"/><path class="cls-2" d="M666.3,275.17v-2.3h.7v2.3c0,.8.4,1.1,1,1.1a1,1,0,0,0,1-1.1v-2.3h.7v2.3a1.59,1.59,0,0,1-1.4,1.8H668a1.58,1.58,0,0,1-1.7-1.5v-.3"/><polygon class="cls-2" points="672.9 273.47 671.6 273.47 671.6 272.77 674.8 272.77 674.8 273.47 673.6 273.47 673.6 276.87 672.9 276.87 672.9 273.47"/><polygon class="cls-2" points="675.3 272.77 676 272.77 676 274.47 677.9 274.47 677.9 272.77 678.6 272.77 678.6 276.87 677.9 276.87 677.9 275.17 676 275.17 676 276.87 675.3 276.87 675.3 272.77"/><path class="cls-2" d="M679.3,275.17v-2.3h.7v2.3c0,.8.4,1.1,1,1.1a1,1,0,0,0,1-1.1v-2.3h.7v2.3a1.59,1.59,0,0,1-1.4,1.8H681a1.58,1.58,0,0,1-1.7-1.5v-.3"/><polygon class="cls-2" points="684.6 275.27 683 272.77 683.8 272.77 685 274.57 686.1 272.77 686.9 272.77 685.3 275.27 685.3 276.87 684.6 276.87 684.6 275.27"/><path class="cls-2" d="M687.2,272.77h3v.6H688v1h2v.6h-2v1.1h2.3v.6h-3Zm1.2-1.1h.7l.7.9h-.6l-.4-.4-.4.4h-.5Zm.6-.5.6-.3.6,1h-.5Z"/><polygon class="cls-2" points="690.8 272.77 691.5 272.77 693.6 275.57 693.6 272.77 694.3 272.77 694.3 276.87 693.7 276.87 691.5 273.97 691.5 276.87 690.8 276.87 690.8 272.77"/><path class="cls-2" d="M543,476h0a2.08,2.08,0,0,1,1.9-2.1h.2a2.27,2.27,0,0,1,1.6.6l-.5.5a1.61,1.61,0,0,0-1.1-.5,1.35,1.35,0,0,0-1.3,1.4h0a1.33,1.33,0,0,0,1.2,1.4,1.85,1.85,0,0,0,1.2-.5l.5.5a2.09,2.09,0,0,1-1.6.8,2,2,0,0,1-2-2c-.1,0-.1,0-.1-.1"/><path class="cls-2" d="M546.9,476h0a2.11,2.11,0,0,1,2.1-2.1h.1a2,2,0,0,1,2.1,1.9v.2h0a2.09,2.09,0,0,1-2,2.1h-.1a2,2,0,0,1-2.1-1.9c-.1-.1-.1-.1-.1-.2m3.5,0h0a1.35,1.35,0,0,0-1.3-1.4h0a1.37,1.37,0,0,0-1.4,1.4v.1h0a1.37,1.37,0,0,0,1.4,1.4,1.51,1.51,0,0,0,1.3-1.5h0m-1.7-3.3h.7l.7.9h-.5l-.5-.4-.4.4H548Z"/><polygon class="cls-2" points="551.7 473.97 552.3 473.97 554.5 476.67 554.5 473.97 555.2 473.97 555.2 477.97 554.6 477.97 552.4 475.07 552.4 477.97 551.7 477.97 551.7 473.97"/><path class="cls-2" d="M555.8,476h0a2.08,2.08,0,0,1,1.9-2.1h.2a2.46,2.46,0,0,1,1.5.5l-.5.5a1.5,1.5,0,0,0-1.1-.4,1.34,1.34,0,0,0-1.3,1.4h0a1.34,1.34,0,0,0,1.3,1.4h.1a1.69,1.69,0,0,0,1-.3v-.8h-1v-.6h1.7v1.7a2.72,2.72,0,0,1-1.7.6,2,2,0,0,1-2.1-1.9h0"/><polygon class="cls-2" points="561.2 473.97 562 473.97 563.2 477.07 564.4 473.97 565.2 473.97 563.5 477.97 562.9 477.97 561.2 473.97"/><rect class="cls-2" x="565.7" y="473.97" width="0.7" height="4"/><path class="cls-2" d="M567.1,474h3v.6h-2.3v1h2v.6h-2v1.1h2.3v.6h-3Zm1.2-1.2h.7l.7.9h-.5l-.5-.4-.4.4h-.5Z"/><polygon class="cls-2" points="570.7 473.97 571.3 473.97 573.5 476.67 573.5 473.97 574.2 473.97 574.2 477.97 573.6 477.97 571.4 475.07 571.4 477.97 570.7 477.97 570.7 473.97"/><polygon class="cls-2" points="577.4 474.57 576.1 474.57 576.1 473.97 579.4 473.97 579.4 474.57 578.1 474.57 578.1 477.97 577.4 477.97 577.4 474.57"/><polygon class="cls-2" points="579.8 473.97 580.5 473.97 580.5 475.57 582.4 475.57 582.4 473.97 583.1 473.97 583.1 477.97 582.4 477.97 582.4 476.27 580.5 476.27 580.5 477.97 579.8 477.97 579.8 473.97"/><path class="cls-2" d="M583.8,476.27V474h.7v2.3c0,.8.4,1.1,1,1.1a1,1,0,0,0,1-1.1V474h.7v2.3a1.7,1.7,0,0,1-3.4,0"/><path class="cls-2" d="M589.1,476.37l-1.6-2.4h.8l1.1,1.8,1.1-1.8h.8l-1.6,2.4V478H589Zm.2-3.3c.2,0,.4-.1.4-.3s-.1-.1-.2-.1h0a.22.22,0,0,0-.2.2l-.4-.2a.63.63,0,0,1,.6-.5.58.58,0,0,1,.6.6h0a.68.68,0,0,1-.4.6v.2h-.3Z"/><path class="cls-2" d="M593,476h0a2.08,2.08,0,0,1,1.9-2.1h.2a2.27,2.27,0,0,1,1.6.6l-.5.5a1.61,1.61,0,0,0-1.1-.5,1.35,1.35,0,0,0-1.3,1.4h0a1.34,1.34,0,0,0,1.3,1.4h.1a1.85,1.85,0,0,0,1.2-.5l.5.5a2,2,0,0,1-1.6.7,2.08,2.08,0,0,1-2.1-1.9c-.2,0-.2-.1-.2-.1"/><path class="cls-2" d="M597.1,476.27V474h.7v2.3c0,.8.4,1.1,1,1.1a1,1,0,0,0,1-1.1V474h.7v2.3a1.59,1.59,0,0,1-1.4,1.8h-.3a1.58,1.58,0,0,1-1.7-1.5.19.19,0,0,1,0-.3"/><polygon class="cls-2" points="601.2 473.97 601.9 473.97 604 476.67 604 473.97 604.7 473.97 604.7 477.97 604.1 477.97 601.9 475.07 601.9 477.97 601.2 477.97 601.2 473.97"/><path class="cls-2" d="M605.3,476h0a2.08,2.08,0,0,1,1.9-2.1h.2a2.46,2.46,0,0,1,1.5.5l-.5.5a1.5,1.5,0,0,0-1.1-.4,1.42,1.42,0,0,0-1.3,1.4h0a1.34,1.34,0,0,0,1.3,1.4h.1a1.69,1.69,0,0,0,1-.3v-.8h-1v-.6H609v1.7a2.72,2.72,0,0,1-1.7.6,2.08,2.08,0,0,1-2.1-1.9c0,.1,0,0,.1,0"/></g></svg>