<svg id="Layer_1" data-name="Layer 1" xmlns="http://www.w3.org/2000/svg" viewBox="0 0 913 614.91"><defs><style>.cls-1{fill:#455981;}.cls-2{fill:#fff;}</style></defs><g id="Layer_2" data-name="Layer 2"><path class="cls-1" d="M505,480.17l-4.8-8.8v-1h3.1a.52.52,0,0,0,.4-.2c.1-.1,0-.3-.1-.4l-.7-.6.7-.6c.1-.1.2-.3.1-.4a.52.52,0,0,0-.4-.2h-3.5a.35.35,0,0,0-.4.4v3.1l-1,1.8-4-7.4v-1.3h4.5c.2,0,.3-.1.3-.2s0-.3-.1-.4l-1.1-1,1.1-1c.1-.1.2-.3.1-.4s-.2-.2-.3-.2H494a.43.43,0,0,0-.4.4v4.1l-3.5,6.5h0l-2.6-4.9v-1h3.1a.52.52,0,0,0,.4-.2c.1-.1,0-.3-.1-.4l-.7-.6.7-.6c.1-.1.2-.3.1-.4a.52.52,0,0,0-.4-.2h-3.5c-.1,0-.2,0-.2.1a.37.37,0,0,0-.1.3v.7h0v2.4l-4.8,8.5c-.1.1-.1.2,0,.4s.2.2.3.2h5.4l.2-.4-1.1,2c-.1.1-.1.2,0,.4s.2.2.3.2h8.2l.4-.7h-8l3.5-6.4.8,1.2c.1.1.2.2.3.2h0c.1,0,.2-.1.3-.2l1.4-2.3c.1.2.3.5.5.9l.9,1.4c.1.1.2.2.3.2s.2-.1.3-.2l.8-1.2L498,474l-3.4,6.3c-.1.1-.1.2,0,.4s.2.2.3.2h9.7a4.35,4.35,0,0,0,.4-.7c-.1,0-.1-.1-.2-.1m-4.7-11.5h2.1l-.3.2a.5.5,0,0,0,0,.6l.3.2h-2Zm-5.8-6.3v-.2H498l-.7.6a.37.37,0,0,0-.1.3c0,.1.1.2.1.3l.7.6h-3.6Zm-6.9,2.3h2.1l-.3.2a.28.28,0,0,0,0,.5h0l.3.2h-2.1Zm-.3,3.5,1.6,2.9-.4.5-.9-1.5c-.1-.1-.2-.2-.3-.2h0c-.1,0-.2.1-.3.2l-.9,1.5-.4-.5Zm1,7.8H483l2.3-4.2.5.7c.1.1.2.2.3.2s.2-.1.3-.2l.9-1.5.3.5.6,1c.1.1.2.2.3.2h0c.1,0,.2-.1.3-.2l.5-.7.6,1.1Zm7.6-3.9-1.4-2.3c-.1-.1-.2-.2-.3-.2s-.2.1-.3.2l-1.4,2.3-.7-1,2.4-4.4,2.4,4.5Zm4,.2,1.6,2.9-.4.5-.9-1.5c-.1-.1-.2-.2-.3-.2s-.2.1-.3.2l-.2.4-.4-.6Zm-1.3,2.4.3.6-.2.4-.4-.5Zm-2.8,5.5,2.3-4.2.5.7c.1.1.2.2.3.2s.2-.1.3-.2l.9-1.5.3.5.6,1c.1.1.2.2.3.2h0c.1,0,.2-.1.3-.2l.5-.7,2.3,4.2Z"/><path class="cls-1" d="M403.5,469.67h-.2a7.31,7.31,0,0,0-5.8,0,.3.3,0,0,1-.4,0,4.71,4.71,0,0,0-4.6,0,.3.3,0,0,1-.4,0,.52.52,0,0,1-.2-.4,8.45,8.45,0,0,1,16.9-.5v.6a.76.76,0,0,1-.2.4.3.3,0,0,1-.4,0,4.71,4.71,0,0,0-4.6,0,.1.1,0,0,0-.1-.1m-8.7-1.4a5.42,5.42,0,0,1,2.5.6,8.05,8.05,0,0,1,6.1,0,5.67,5.67,0,0,1,4.6-.2,7.63,7.63,0,0,0-8.3-6.9,7.5,7.5,0,0,0-6.9,6.9,4.48,4.48,0,0,1,2-.4"/><path class="cls-1" d="M403.5,469.67a.43.43,0,0,1-.4-.4h0a13.38,13.38,0,0,0-2.7-7.4,13.88,13.88,0,0,0-2.7,7.4.55.55,0,0,1-.3.5c-.2.1-.4-.1-.5-.3v-.1a13.64,13.64,0,0,1,3.2-8.3.37.37,0,0,1,.6,0h0a15,15,0,0,1,3.2,8.3.45.45,0,0,1-.4.3h0"/><path class="cls-1" d="M407,478.37h0v-.1h0v-.1h0l-2.3-2.6-1.9-4a.52.52,0,0,0-.4-.2h-3.8a.52.52,0,0,0-.4.2l-1.9,4-2.3,2.6h0v.1h0v.1h0v2.2a.43.43,0,0,0,.4.4h0a.43.43,0,0,0,.4-.4h0v-1.8h11.5v1.8a.43.43,0,0,0,.4.4h0a.43.43,0,0,0,.4-.4h0v-2.2h0m-8.2-6.2H402l1.5,3.2h-6.4Zm-3.6,5.8,1.6-1.8h7l1.6,1.8Z"/><path class="cls-1" d="M400.9,471.27v-2.7a.5.5,0,0,0-1,0h0v2.7Z"/><path class="cls-1" d="M399.8,478.77v.2a.5.5,0,0,0,1,0v-.2Z"/><path class="cls-2" d="M600.2,271.27a1,1,0,0,0-1-.8h-2.5v-3.6a.43.43,0,0,0-.4-.4h-.8v-3.6a.43.43,0,0,0-.4-.4h-9a.43.43,0,0,0-.4.4h0v3.6h-.8a.43.43,0,0,0-.4.4v3.6h-.9a1.32,1.32,0,0,0-1.3,1.3,1.85,1.85,0,0,0,.2.7l1.9,2.8a2.23,2.23,0,0,0,1.7.9h7a2.3,2.3,0,0,0,1.4-.4l5.4-3.3a1.56,1.56,0,0,0,.3-1.2"/><path class="cls-1" d="M599.2,279.37a1.22,1.22,0,0,1-1.2-1.2.4.4,0,1,0-.8,0h0a1.22,1.22,0,0,1-1.2,1.2,1.29,1.29,0,0,1-1.2-1.2c0-.2-.2-.3-.4-.3a.27.27,0,0,0-.3.3,1.26,1.26,0,1,1-2.5.3v-.2a.4.4,0,0,0-.8,0,1.22,1.22,0,0,1-1.2,1.2,1.29,1.29,0,0,1-1.2-1.2.4.4,0,0,0-.8,0,1.22,1.22,0,0,1-1.2,1.2,1.29,1.29,0,0,1-1.2-1.2.4.4,0,0,0-.8,0,1.26,1.26,0,0,1-2.5.3v-.2c0-.2-.2-.3-.4-.3a.27.27,0,0,0-.3.3.43.43,0,0,1-.4.4h0a.43.43,0,0,1-.4-.4h0a1.22,1.22,0,0,1,1.2-1.2,1.29,1.29,0,0,1,1.2,1.2.4.4,0,1,0,.8,0h0a1.22,1.22,0,0,1,1.2-1.2,1.29,1.29,0,0,1,1.2,1.2.4.4,0,0,0,.8,0h0a1.22,1.22,0,0,1,1.2-1.2,1.29,1.29,0,0,1,1.2,1.2.4.4,0,0,0,.8,0h0a1.22,1.22,0,0,1,1.2-1.2,1.29,1.29,0,0,1,1.2,1.2.4.4,0,0,0,.8,0,1.22,1.22,0,0,1,1.2-1.2,1.29,1.29,0,0,1,1.2,1.2.4.4,0,0,0,.8,0,1.22,1.22,0,0,1,1.2-1.2,1.29,1.29,0,0,1,1.2,1.2.4.4,0,1,0,.8,0,1.22,1.22,0,0,1,1.2-1.2,1.29,1.29,0,0,1,1.2,1.2c0,.2-.3.4-.5.4s-.3-.2-.4-.4a.4.4,0,0,0-.8,0h0c.2.4-.4,1-1.1,1"/><path class="cls-1" d="M596.4,282.17a1.22,1.22,0,0,1-1.2-1.2.4.4,0,0,0-.8,0h0a1.22,1.22,0,0,1-1.2,1.2A1.29,1.29,0,0,1,592,281a.4.4,0,1,0-.8,0,1.22,1.22,0,0,1-1.2,1.2,1.29,1.29,0,0,1-1.2-1.2.4.4,0,1,0-.8,0h0a1.22,1.22,0,0,1-1.2,1.2,1.29,1.29,0,0,1-1.2-1.2.4.4,0,1,0-.8,0h0c0,.2-.3.4-.5.4s-.3-.2-.4-.4a1.22,1.22,0,0,1,1.2-1.2,1.29,1.29,0,0,1,1.2,1.2.4.4,0,1,0,.8,0,1.22,1.22,0,0,1,1.2-1.2,1.29,1.29,0,0,1,1.2,1.2c0,.2.2.3.4.3a.27.27,0,0,0,.3-.3,1.22,1.22,0,0,1,1.2-1.2,1.29,1.29,0,0,1,1.2,1.2.4.4,0,0,0,.8,0,1.22,1.22,0,0,1,1.2-1.2,1.29,1.29,0,0,1,1.2,1.2.4.4,0,1,0,.8,0,1.22,1.22,0,0,1,1.2-1.2.43.43,0,0,1,.4.4h0a.43.43,0,0,1-.4.4h0a.43.43,0,0,0-.4.4c.3.7-.3,1.2-1,1.2"/><path class="cls-1" d="M600.2,271.27a1,1,0,0,0-1-.8h-2.5v-3.6a.43.43,0,0,0-.4-.4h-.8v-3.6a.43.43,0,0,0-.4-.4h-9a.43.43,0,0,0-.4.4h0v3.6h-.8a.43.43,0,0,0-.4.4v3.6h-.9a1.32,1.32,0,0,0-1.3,1.3,1.85,1.85,0,0,0,.2.7l1.9,2.8a2.23,2.23,0,0,0,1.7.9h7a2.82,2.82,0,0,0,1.5-.4l5.4-3.3a2.17,2.17,0,0,0,.2-1.2m-13.7-8h8v3.2h-8Zm-1.3,4.1h10.5v3.2H585.2Zm14,4.4-5.4,3.3a1.69,1.69,0,0,1-1,.3h-7a1.05,1.05,0,0,1-.9-.5l-1.9-2.8a.3.3,0,0,1,0-.4.52.52,0,0,1,.4-.2h15.7a.22.22,0,0,1,.2.2l-.1.1"/><path class="cls-1" d="M588.1,269a.6.6,0,1,1-.6-.6.58.58,0,0,1,.6.6h0"/><path class="cls-1" d="M590.1,269a.65.65,0,0,1-.6.6.54.54,0,0,1-.5-.7.47.47,0,0,1,.5-.5.53.53,0,0,1,.6.6h0"/><path class="cls-1" d="M592.2,269a.65.65,0,0,1-.6.6.54.54,0,0,1-.5-.7.47.47,0,0,1,.5-.5.58.58,0,0,1,.6.6h0"/><path class="cls-1" d="M589.1,264.87a.65.65,0,0,1-.6.6h0a.6.6,0,1,1,.6-.6h0"/><path class="cls-1" d="M591.2,264.87a.65.65,0,0,1-.6.6h0a.6.6,0,1,1,.6-.6h0"/><path class="cls-1" d="M593.2,264.87a.6.6,0,1,1-.6-.6h0a.58.58,0,0,1,.6.6h0"/><path class="cls-1" d="M594.3,269a.65.65,0,0,1-.6.6.54.54,0,0,1-.5-.7.47.47,0,0,1,.5-.5.58.58,0,0,1,.6.6h0"/><path class="cls-1" d="M592.2,272.67a.65.65,0,0,1-.6.6.54.54,0,0,1-.5-.7.47.47,0,0,1,.5-.5c.3.1.6.3.6.6h0"/><path class="cls-1" d="M594.3,272.67a.65.65,0,0,1-.6.6.54.54,0,0,1-.5-.7.47.47,0,0,1,.5-.5c.3.1.6.3.6.6h0"/><rect class="cls-1" x="274.9" y="457.97" width="89.3" height="22.3"/><polygon class="cls-1" points="364.2 474.17 364.2 469.17 364.2 464.17 374.2 466.57 384.2 469.07 374.2 471.57 364.2 474.17"/><rect class="cls-1" x="627" y="259.47" width="89.3" height="22.3"/><polygon class="cls-1" points="627 275.67 627 270.67 627 265.67 617 268.17 607 270.77 617 273.17 627 275.67"/><rect class="cls-1" x="531.4" y="463.97" width="89.3" height="22.3"/><polygon class="cls-1" points="531.4 480.07 531.4 475.07 531.4 470.07 521.4 472.67 511.4 475.17 521.4 477.67 531.4 480.07"/></g><g id="t_en"><path class="cls-2" d="M645.7,269.07h.8l1.2,1.9,1.2-1.9h.8v4H649v-2.9l-1.3,1.9h0l-1.3-1.9v2.9h-.7Z"/><path class="cls-2" d="M652,269.07h.7l1.8,4.1h-.7l-.4-1h-1.9l-.4,1h-.7Zm1,2.4-.7-1.6-.7,1.6Z"/><path class="cls-2" d="M655.1,269.07h1.8a1.59,1.59,0,0,1,1.2.4,1.22,1.22,0,0,1,.3.9h0a1.12,1.12,0,0,1-1,1.2l1.1,1.5h-.8l-1-1.4h-.9v1.4h-.7v-4Zm1.7,2a.71.71,0,0,0,.8-.7h0a.71.71,0,0,0-.8-.7h-1v1.4Z"/><path class="cls-2" d="M659.2,269.07h.7v4h-.7Z"/><path class="cls-2" d="M661,269.07h.7l2.2,2.8v-2.8h.7v4H664l-2.2-2.9v2.9H661Z"/><path class="cls-2" d="M666.9,269.07h.7l1.8,4.1h-.7l-.4-1h-1.9l-.4,1h-.7Zm1,2.4-.7-1.6-.7,1.6Z"/><path class="cls-2" d="M671.4,271.07h0a2.05,2.05,0,0,1,2.1-2.1,2.58,2.58,0,0,1,1.6.6l-.5.5a1.61,1.61,0,0,0-1.1-.5,1.29,1.29,0,0,0-1.3,1.4h0a1.35,1.35,0,0,0,1.3,1.4,1.85,1.85,0,0,0,1.2-.5l.5.5a2.18,2.18,0,0,1-1.6.7A2,2,0,0,1,671.4,271.07Z"/><path class="cls-2" d="M675.6,271.07h0a2.11,2.11,0,0,1,2.1-2.1,2.05,2.05,0,0,1,2.1,2.1h0a2.11,2.11,0,0,1-2.1,2.1A2,2,0,0,1,675.6,271.07Zm3.5,0h0a1.4,1.4,0,1,0-2.8,0h0a1.4,1.4,0,1,0,2.8,0Z"/><path class="cls-2" d="M680.6,269.07h.8l1.2,1.9,1.2-1.9h.8v4h-.7v-2.9l-1.3,1.9h0l-1.3-1.9v2.9h-.7Z"/><path class="cls-2" d="M685.5,269.07h1.6a1.32,1.32,0,0,1,1.5,1.3h0a1.42,1.42,0,0,1-1.6,1.4h-.8v1.3h-.7Zm1.5,2.1a.81.81,0,0,0,.9-.7h0c0-.5-.3-.7-.9-.7h-.8v1.4Z"/><path class="cls-2" d="M689.3,269.07h.7v3.4h2.1v.6h-2.8Z"/><path class="cls-2" d="M692.8,269.07h3v.6h-2.3v1h2v.6h-2v1.1h2.3v.6h-3Z"/><path class="cls-2" d="M697.7,271.07l-1.4-2h.8l1,1.4,1-1.4h.8l-1.4,2,1.5,2.1h-.8l-1.1-1.5-1.1,1.5h-.8Z"/><path class="cls-2" d="M554.4,473.87h.7l1.8,4h-.7l-.4-1h-1.9l-.4,1h-.7Zm1,2.4-.7-1.6-.7,1.6Z"/><path class="cls-2" d="M560.6,477.57a2.14,2.14,0,0,1-1.2.4,2.05,2.05,0,0,1-2.1-2.1h0a2.11,2.11,0,0,1,2.1-2.1,2.05,2.05,0,0,1,2.1,2.1h0a1.59,1.59,0,0,1-.4,1.2l.5.4-.5.5Zm-.5-.4-.7-.6.5-.5.7.6a1.85,1.85,0,0,0,.2-.7h0a1.4,1.4,0,1,0-2.8,0h0a1.37,1.37,0,0,0,1.4,1.4A1.45,1.45,0,0,0,560.1,477.17Z"/><path class="cls-2" d="M562.2,476.17v-2.3h.7v2.3a1,1,0,1,0,2,0v-2.3h.7v2.3a1.7,1.7,0,1,1-3.4,0Z"/><path class="cls-2" d="M567.8,473.87h.7l1.8,4h-.7l-.4-1h-1.9l-.4,1h-.7Zm1,2.4-.7-1.6-.7,1.6Z"/><path class="cls-2" d="M571.3,474.57H570v-.7h3.3v.7H572V478h-.7Z"/><path class="cls-2" d="M574.1,473.87h.7v4h-.7Z"/><path class="cls-2" d="M575.6,475.87h0a2.05,2.05,0,0,1,2.1-2.1,2.58,2.58,0,0,1,1.6.6l-.5.5a1.61,1.61,0,0,0-1.1-.5,1.29,1.29,0,0,0-1.3,1.4h0a1.35,1.35,0,0,0,1.3,1.4,1.85,1.85,0,0,0,1.2-.5l.5.5a2.18,2.18,0,0,1-1.6.7A2,2,0,0,1,575.6,475.87Z"/><path class="cls-2" d="M581.6,473.87h1.6a1.32,1.32,0,0,1,1.5,1.3h0a1.42,1.42,0,0,1-1.6,1.4h-.8v1.3h-.7Zm1.5,2.1a.81.81,0,0,0,.9-.7h0c0-.5-.3-.7-.9-.7h-.8V476Z"/><path class="cls-2" d="M586.4,473.87h.7l1.8,4H588l-.4-1h-1.9l-.4,1h-.7Zm1,2.4-.7-1.6-.7,1.6Z"/><path class="cls-2" d="M589.4,473.87h1.8a1.59,1.59,0,0,1,1.2.4,1.22,1.22,0,0,1,.3.9h0a1.12,1.12,0,0,1-1,1.2l1.1,1.5H592l-1-1.4h-.9v1.4h-.7v-4Zm1.8,2a.71.71,0,0,0,.8-.7h0a.71.71,0,0,0-.8-.7h-1v1.3h1Z"/><path class="cls-2" d="M593.5,473.87h.7v2l1.9-2h.9l-1.7,1.7,1.7,2.3h-.9l-1.4-1.8-.6.6v1.2h-.7v-4Z"/><path class="cls-2" d="M292.8,467.47l.4-.5a1.66,1.66,0,0,0,1.3.5c.5,0,.7-.2.7-.5h0c0-.3-.2-.5-.9-.6-.9-.2-1.4-.5-1.4-1.3h0a1.27,1.27,0,0,1,1.4-1.2,2.46,2.46,0,0,1,1.5.5l-.4.6a1.86,1.86,0,0,0-1.1-.4c-.4,0-.7.2-.7.5h0c0,.3.2.5,1,.7s1.4.5,1.4,1.2h0a1.32,1.32,0,0,1-1.5,1.3A5.31,5.31,0,0,1,292.8,467.47Z"/><path class="cls-2" d="M296.7,466h0a2.2,2.2,0,1,1,4.4,0h0a2.16,2.16,0,0,1-2.2,2.2A2.22,2.22,0,0,1,296.7,466Zm3.6,0h0a1.4,1.4,0,1,0-2.8,0h0a1.4,1.4,0,1,0,2.8,0Z"/><path class="cls-2" d="M301.8,466.27v-2.4h.7v2.4c0,.8.4,1.2,1.1,1.2s1.1-.4,1.1-1.2v-2.4h.7v2.4a1.66,1.66,0,0,1-1.8,1.9A1.76,1.76,0,0,1,301.8,466.27Z"/><path class="cls-2" d="M307.4,464.57h-1.3v-.7h3.4v.7h-1.3v3.5h-.7v-3.5Z"/><path class="cls-2" d="M310.2,463.87h.7v1.7h2v-1.7h.7v4.2H313v-1.8h-2v1.8h-.7v-4.2Z"/><path class="cls-2" d="M314.7,463.87h3.1v.7h-2.4v1.1h2.1v.7h-2.1v1.1h2.4v.7h-3.1Z"/><path class="cls-2" d="M318.7,463.87h1.9a2.14,2.14,0,0,1,1.2.4,1.22,1.22,0,0,1,.3.9h0a1.3,1.3,0,0,1-1,1.3l1.1,1.6h-.9l-1-1.5h-.9v1.5h-.7Zm1.8,2.1a.81.81,0,0,0,.9-.7h0c0-.5-.3-.7-.9-.7h-1.1V466Z"/><path class="cls-2" d="M323,463.87h.7l2.3,2.9v-2.9h.7v4.2H326l-2.3-3v3H323Z"/><path class="cls-2" d="M329.4,463.87H331a2.08,2.08,0,0,1,2.2,2.1h0a2.08,2.08,0,0,1-2.2,2.1h-1.6Zm1.5,3.5a1.39,1.39,0,0,0,1.5-1.4h0a1.39,1.39,0,0,0-1.5-1.4h-.8v2.9h.8Z"/><path class="cls-2" d="M334,463.87h3.1v.7h-2.4v1.1h2.1v.7h-2.1v1.1h2.4v.7H334Z"/><path class="cls-2" d="M338,463.87h.7v3.5h2.2v.7H338Z"/><path class="cls-2" d="M342,464.57h-1.3v-.7h3.4v.7h-1.3v3.5H342Z"/><path class="cls-2" d="M345.8,463.77h.7l1.8,4.2h-.8l-.4-1h-2l-.4,1h-.8Zm1,2.6-.7-1.7-.7,1.7Z"/><path class="cls-2" d="M308.3,471.37h1.9a2.14,2.14,0,0,1,1.2.4,1.22,1.22,0,0,1,.3.9h0a1.3,1.3,0,0,1-1,1.3l1.1,1.6H311l-1-1.5h-.9v1.5h-.7v-4.2Zm1.9,2.1a.81.81,0,0,0,.9-.7h0c0-.5-.3-.7-.9-.7h-1.1v1.4Z"/><path class="cls-2" d="M312.6,471.37h3.1v.7h-2.4v1.1h2.1v.7h-2.1V475h2.4v.7h-3.1Z"/><path class="cls-2" d="M316.3,475l.4-.5a1.66,1.66,0,0,0,1.3.5c.5,0,.7-.2.7-.5h0c0-.3-.2-.5-.9-.6-.9-.2-1.4-.5-1.4-1.3h0a1.27,1.27,0,0,1,1.4-1.2,2.46,2.46,0,0,1,1.5.5l-.4.6a1.86,1.86,0,0,0-1.1-.4c-.4,0-.7.2-.7.5h0c0,.3.2.5,1,.7s1.4.5,1.4,1.2h0a1.32,1.32,0,0,1-1.5,1.3A3,3,0,0,1,316.3,475Z"/><path class="cls-2" d="M320.2,473.47h0a2.2,2.2,0,1,1,4.4,0h0a2.2,2.2,0,1,1-4.4,0Zm3.6,0h0a1.4,1.4,0,1,0-2.8,0h0a1.4,1.4,0,1,0,2.8,0Z"/><path class="cls-2" d="M325.4,471.37h1.9a2.14,2.14,0,0,1,1.2.4,1.22,1.22,0,0,1,.3.9h0a1.3,1.3,0,0,1-1,1.3l1.1,1.6H328l-1-1.5h-.9v1.5h-.7Zm1.8,2.1a.81.81,0,0,0,.9-.7h0c0-.5-.3-.7-.9-.7h-1.1v1.4Z"/><path class="cls-2" d="M330.7,472.07h-1.3v-.7h3.4v.7h-1.3v3.5h-.7v-3.5Z"/></g></svg>