<svg id="Layer_1" data-name="Layer 1" xmlns="http://www.w3.org/2000/svg" viewBox="0 0 913 614.91"><defs><style>.cls-1{fill:#455981;}.cls-2{fill:#fff;}</style></defs><g id="Layer_2" data-name="Layer 2"><path class="cls-1" d="M251.19,264.41h-8.4c-.2,0-.3-.1-.3-.2a.6.6,0,0,1,.1-.4l4.2-2.6a.3.3,0,0,1,.4,0l4.2,2.6c.1.1.2.2.2.3a.45.45,0,0,1-.4.3m-7.2-.7h6l-3-1.8Z"/><path class="cls-1" d="M256,273.51h-.9l-.6-1.1v-5.7l.6-1h1a.32.32,0,0,0,.3-.3c0-.1-.1-.3-.2-.3l-8.8-5.4v-.3h3.7c.1,0,.3-.1.3-.2a.6.6,0,0,0-.1-.4l-.8-.8.8-.8a.45.45,0,0,0,0-.5.37.37,0,0,0-.3-.1h-4a.45.45,0,0,0-.4.3h0v2.7l-8.8,5.4c-.1.1-.2.2-.1.4s.2.3.3.2h1l.6,1v5.8l-.6,1.1h-1a.32.32,0,0,0-.3.3v1.5a.32.32,0,0,0,.3.3h18c.2,0,.3-.2.4-.3v-1.5c-.1-.1-.2-.3-.4-.3m-8.6-16.2h2.9l-.5.4a.31.31,0,0,0-.1.2c0,.1,0,.2.1.2l.5.4h-2.9Zm-8.2,7.7,7.8-4.8,7.8,4.8Zm13.7,1.2-.3-.6h1.7l-.3.6Zm.9,5.9H253v-5.3h.8Zm-.9.7h1l.3.6h-1.7Zm-6.4.7-.6-1v-5.8l.6-1h1l.6,1v5.8l-.6,1.1Zm-2-6.6h.8v5.3h-.8Zm.9-.7h-1l-.3-.6h1.7Zm-1,6.7h1l.3.6H244Zm5.6.5h-1.7l.3-.6h1.1Zm-.5-1.2h-.8v-5.3h.8Zm.1-5.9h-1l-.3-.6H250Zm1.2,7.2-.6-1.1v-5.7l.6-1h1l.6,1v5.8l-.6,1.1Zm-9.8-1.3h-.8v-5.3h.8Zm.1-5.9h-1l-.3-.6h1.7Zm-1,6.6h1l.3.6h-1.7Zm1.6-.5v-5.7l.6-1h1l.6,1v5.9l-.6,1h-.9Zm14,2.6h-17.4v-.8h17.3Z"/><path class="cls-1" d="M245.49,275.61h-5.6a.5.5,0,0,1,0-1h5.6a.47.47,0,0,1,.5.5c-.1.3-.3.5-.5.5"/><path class="cls-1" d="M247.39,275.61a.47.47,0,0,1-.5-.5.46.46,0,0,1,.4-.5h0a.47.47,0,0,1,.5.5.46.46,0,0,1-.4.5"/><path class="cls-1" d="M249.19,275.61a.47.47,0,0,1-.5-.5.46.46,0,0,1,.4-.5h0a.47.47,0,0,1,.5.5c.1.3-.1.5-.4.5"/><path class="cls-2" d="M402,315.11h-.6a2.1,2.1,0,0,0,.8-1.1c.3-1.6-1.6-3.3-1.8-3.5h0l-.1-.1H400c-.2.2-2.1,2-1.8,3.5a1.55,1.55,0,0,0,.8,1.1h-.6a.27.27,0,0,0-.3.3v.9H397v-2a.27.27,0,0,0-.3-.3h-1.4a2.83,2.83,0,0,0,1.4-1.8c.5-2.3-2.4-4.9-2.6-5.1h0l-.1-.1h-.1c-.1,0-.1,0-.2.1h0c-.3.3-3.1,2.9-2.6,5.1a3.1,3.1,0,0,0,1.4,1.8h-1.4a.27.27,0,0,0-.3.3v2h-1.1v-.9a.27.27,0,0,0-.3-.3h-.6a2.1,2.1,0,0,0,.8-1.1c.3-1.6-1.6-3.3-1.8-3.5h0l-.1-.1h-.2c-.2.2-2.1,2-1.8,3.5a1.55,1.55,0,0,0,.8,1.1h-.6a.27.27,0,0,0-.3.3v7a.27.27,0,0,0,.3.3H402a.27.27,0,0,0,.3-.3v-7a.27.27,0,0,0-.3-.3"/><path class="cls-1" d="M394,307h0l-.1-.1h-.1c-.1,0-.1,0-.2.1h0c-.3.3-3.1,2.9-2.6,5.1.2,1.1,1.2,1.9,2.8,2.4h.2c1.6-.5,2.6-1.3,2.8-2.4.4-2.2-2.5-4.8-2.8-5.1m-2.5,5c-.3-1.2.7-2.6,1.5-3.6-.9,3.3.2,5,.5,5.4a2.82,2.82,0,0,1-2-1.8m4.6,0a2.64,2.64,0,0,1-2,1.8c.1-.1.1-.2,0-.4,0,0-1.5-1.8-.1-5.7.7.8,2.4,2.7,2.1,4.3"/><path class="cls-1" d="M387.59,310.41h0l-.2-.1h-.1c-.2.2-2.1,2-1.8,3.5.2.8.8,1.3,1.9,1.7h.2c1.1-.3,1.8-.9,1.9-1.7.3-1.6-1.6-3.3-1.8-3.5m-1.7,3.5a3.23,3.23,0,0,1,.8-2.1,6.51,6.51,0,0,0,.1,3.1,1.32,1.32,0,0,1-.9-1m2.8,0c-.1.5-.5.8-1.1,1.1h0s-.8-1.1-.1-3.6a3.17,3.17,0,0,1,1.2,2.5"/><path class="cls-1" d="M400.39,310.41h0l-.2-.1H400c-.2.2-2.1,2-1.8,3.5.2.8.8,1.3,1.9,1.7h.2c1.1-.3,1.8-.9,1.9-1.7.3-1.6-1.6-3.3-1.8-3.5m-1.5,3.5a3.23,3.23,0,0,1,.8-2.1,5.09,5.09,0,0,0,.1,3,1.35,1.35,0,0,1-.9-.9m2.8,0a2,2,0,0,1-1.1,1.1h0s-.8-1.1-.1-3.6a3,3,0,0,1,1.2,2.5"/><rect class="cls-1" x="389.39" y="316.21" width="1.1" height="0.6"/><path class="cls-1" d="M390.59,322.41v-.3h-1.1v.3a.27.27,0,0,1-.3.3h-3.5a.27.27,0,0,1-.3-.3.27.27,0,0,0,.3.3h5.2a.27.27,0,0,1-.3-.3"/><path class="cls-1" d="M402,322.71h-3.5a.27.27,0,0,1-.3-.3v-.3H397v.3a.27.27,0,0,1-.3.3H402a.27.27,0,0,0,.3-.3.27.27,0,0,1-.3.3"/><rect class="cls-1" x="396.99" y="316.21" width="1.1" height="0.6"/><path class="cls-1" d="M396.69,322.71h-5.8a.27.27,0,0,1-.3-.3v-8.2a.27.27,0,0,1,.3-.3h5.8a.27.27,0,0,1,.3.3v8.2a.32.32,0,0,1-.3.3m-5.5-.6h5.2v-7.5h-5.2Z"/><path class="cls-1" d="M389.09,322.71h-3.5a.27.27,0,0,1-.3-.3v-7a.27.27,0,0,1,.3-.3h3.5a.27.27,0,0,1,.3.3v7a.27.27,0,0,1-.3.3m-3.2-.6h2.9v-6.4h-2.9Z"/><path class="cls-1" d="M402,322.71h-3.5a.27.27,0,0,1-.3-.3v-7a.27.27,0,0,1,.3-.3H402a.27.27,0,0,1,.3.3v7a.27.27,0,0,1-.3.3m-3.2-.6h2.9v-6.4h-2.9Z"/><path class="cls-1" d="M393.79,316.21h0a2,2,0,0,0-2,2v4.2a.27.27,0,0,0,.3.3h3.3a.27.27,0,0,0,.3-.3v-4.2a2,2,0,0,0-1.9-2m-1.4,2a1.3,1.3,0,0,1,1-1.3v5.2h-1Zm2.7,3.9h-1v-5.2a1.3,1.3,0,0,1,1,1.3Z"/><path class="cls-1" d="M400.59,316.61a.4.4,0,1,1-.4-.4.37.37,0,0,1,.4.4h0"/><path class="cls-1" d="M387.79,316.61a.43.43,0,0,1-.4.4.55.55,0,0,1-.5-.3c-.1-.2.1-.4.3-.5h.1c.3-.1.5.1.5.4h0"/><path class="cls-1" d="M400.59,318a.4.4,0,1,1-.4-.4.43.43,0,0,1,.4.4h0"/><path class="cls-1" d="M387.79,318a.43.43,0,0,1-.4.4.55.55,0,0,1-.5-.3c-.1-.2.1-.4.3-.5h.1a.46.46,0,0,1,.5.4h0"/><path class="cls-1" d="M400.19,316.21a.4.4,0,1,0,.4.4.43.43,0,0,0-.4-.4h0"/><path class="cls-1" d="M387.39,316.21a.55.55,0,0,0-.5.3c-.1.2.1.4.3.5h.1a.35.35,0,0,0,.3-.5c.1-.1-.1-.3-.2-.3"/><path class="cls-1" d="M400.19,317.61a.4.4,0,1,0,.4.4.43.43,0,0,0-.4-.4h0"/><path class="cls-1" d="M387.39,317.61a.55.55,0,0,0-.5.3c-.1.2.1.4.3.5h.1a.35.35,0,0,0,.3-.5c.1-.1-.1-.3-.2-.3"/><path class="cls-1" d="M469.39,401.91h-.1a7.94,7.94,0,0,1-5.3-9.8,8.24,8.24,0,0,1,5.3-5.3c.2-.1.3,0,.4.2h0c.1.2,0,.4-.2.4h0a7.21,7.21,0,0,0,0,13.8c.2.1.3.2.2.4a.32.32,0,0,1-.3.3"/><path class="cls-1" d="M468.69,387.51a2,2,0,0,1-1.1-.3c-.1-.1-.2-.2-.2-.3a2.24,2.24,0,0,1,.6-1.7,3.39,3.39,0,0,1,2.6-.4.22.22,0,0,1,.2.2v.3a3.22,3.22,0,0,1-1.5,2.1,1.27,1.27,0,0,1-.6.1m-.7-.8a1.18,1.18,0,0,0,1,.1.89.89,0,1,0-.6-1.1v.1a1.27,1.27,0,0,0-.4.9"/><path class="cls-1" d="M463.79,392.61h-.1a1.75,1.75,0,0,1-1.2-1.3,3.67,3.67,0,0,1,.7-2.5c.1-.1.1-.1.2-.1s.2,0,.2.1a3.38,3.38,0,0,1,1.3,2.2,1.86,1.86,0,0,1-.9,1.5.31.31,0,0,1-.2.1m-.4-3.1a2.28,2.28,0,0,0-.4,1.6,1,1,0,0,0,.7.7,1.05,1.05,0,0,0,.5-.9,2.25,2.25,0,0,0-.8-1.4"/><path class="cls-1" d="M463.89,398.41a2.35,2.35,0,0,1-.8-.2,3.16,3.16,0,0,1-1.3-2.2.37.37,0,0,1,.1-.3c.1-.1.1-.1.2-.1a2.83,2.83,0,0,1,2.5.6,2.16,2.16,0,0,1,.5,1.7c0,.1-.1.2-.2.3a1.8,1.8,0,0,1-1,.2Zm-1.4-2.1a2.43,2.43,0,0,0,.9,1.4,1.7,1.7,0,0,0,1,0,1.4,1.4,0,0,0-.3-.9,1.84,1.84,0,0,0-1.6-.5"/><path class="cls-1" d="M467.69,403.21a4,4,0,0,1-2.1-.9c-.1-.1-.1-.1-.1-.2s0-.2.1-.2a3,3,0,0,1,2.3-1.1,2,2,0,0,1,1.5,1,.19.19,0,0,1,0,.3,1.92,1.92,0,0,1-1.4,1.2.37.37,0,0,0-.3-.1m-1.4-1.2a2.1,2.1,0,0,0,1.5.5,1.56,1.56,0,0,0,.8-.6,1,1,0,0,0-.8-.5,1.83,1.83,0,0,0-1.5.6"/><path class="cls-1" d="M473.69,401.91c-.2,0-.3-.1-.4-.3s.1-.3.3-.4a7.21,7.21,0,0,0,0-13.8c-.2-.1-.3-.2-.2-.4s.2-.3.4-.2h0a7.86,7.86,0,0,1-.1,15.1h0"/><path class="cls-1" d="M474.39,387.51a1.27,1.27,0,0,1-.6-.1,3.22,3.22,0,0,1-1.5-2.1V385c0-.1.1-.1.2-.2a3.39,3.39,0,0,1,2.6.4,1.75,1.75,0,0,1,.6,1.7c0,.1-.1.2-.2.3a2.28,2.28,0,0,1-1.1.3Zm-1.4-2a2.56,2.56,0,0,0,1,1.3,1.18,1.18,0,0,0,1-.1,1.09,1.09,0,0,0-.4-.9,2.22,2.22,0,0,0-1.6-.3"/><path class="cls-1" d="M479.29,392.61c-.1,0-.1,0-.2-.1a1.86,1.86,0,0,1-.9-1.5,3.16,3.16,0,0,1,1.3-2.2.31.31,0,0,1,.2-.1.35.35,0,0,1,.2.1,3.22,3.22,0,0,1,.7,2.5,2,2,0,0,1-1.2,1.3c0-.1,0-.1-.1,0m.3-3.1a2.85,2.85,0,0,0-.8,1.4,1.19,1.19,0,0,0,.5.9,1.21,1.21,0,0,0,.7-.7,1.8,1.8,0,0,0-.4-1.6"/><path class="cls-1" d="M479.39,398.41a3.55,3.55,0,0,1-1-.2c-.1-.1-.2-.2-.2-.3a2.05,2.05,0,0,1,.5-1.7,3.61,3.61,0,0,1,2.5-.6.35.35,0,0,1,.2.1v.3a3.16,3.16,0,0,1-1.3,2.2,1,1,0,0,1-.7.2m-.6-.7a1.7,1.7,0,0,0,1,0,.86.86,0,1,0-.7-1v.1a1.22,1.22,0,0,0-.3.9"/><path class="cls-1" d="M475.39,403.21a1.84,1.84,0,0,1-1.7-1.2.19.19,0,0,1,0-.3,1.82,1.82,0,0,1,1.5-1,3.84,3.84,0,0,1,2.3,1.1.31.31,0,0,1,.1.2c0,.1,0,.2-.1.2a3.46,3.46,0,0,1-2.1,1m-1-1.3a1.24,1.24,0,0,0,.8.6.85.85,0,1,0,.1-1.2l-.1.1a1,1,0,0,0-.8.5"/><path class="cls-1" d="M475.39,403.21a1.84,1.84,0,0,1-1.7-1.2.19.19,0,0,1,0-.3,1.78,1.78,0,0,1,1.6-1,3.86,3.86,0,0,1,2.2,1.1.31.31,0,0,1,.1.2c0,.1,0,.2-.1.2a3.46,3.46,0,0,1-2.1,1m-1-1.3a1.1,1.1,0,0,0,1,.6,2.11,2.11,0,0,0,1.3-.5,2.67,2.67,0,0,0-1.4-.7,1.46,1.46,0,0,0-.9.6"/><path class="cls-1" d="M480.09,393.41l-8.4-2.4h-.2l-8.4,2.4c-.1,0-.2.2-.2.3s.1.3.2.3l8.4,2.4h.2l2.8-.8v3.5a.37.37,0,0,0-.1.3.45.45,0,0,0,.9-.1.37.37,0,0,0-.1-.3v-3.7l4.9-1.4c.1,0,.3-.2.2-.3s-.1-.2-.2-.2m-5.3,1.4-3.1-1.4a.38.38,0,0,0-.3.7h0l2.4,1.1-2.2.6-7.1-2,7.1-2,7.1,2Z"/><path class="cls-1" d="M476.79,395l-.7.2v1.1h0c0,.4-.4.7-1,1.1v.8c1-.5,1.7-1.1,1.7-1.8V395Z"/><path class="cls-1" d="M474.49,397.61a9.25,9.25,0,0,1-2.9.4c-2.7,0-4.6-.9-4.6-1.8v-1.1l-.7-.2v1.3c0,1.4,2.3,2.5,5.3,2.5a9.25,9.25,0,0,0,2.9-.4Z"/><path class="cls-1" d="M533.69,404.71h0a7.92,7.92,0,0,1-5.4-9.8,8.24,8.24,0,0,1,5.3-5.3c.2-.1.4,0,.4.2a.3.3,0,0,1-.2.4,7.21,7.21,0,0,0,0,13.8c.2.1.3.2.2.4h0c0,.3-.1.3-.3.3"/><path class="cls-1" d="M533,390.41a2,2,0,0,1-1.1-.3c-.1-.1-.2-.2-.2-.3a2.24,2.24,0,0,1,.6-1.7,3.39,3.39,0,0,1,2.6-.4.35.35,0,0,1,.2.1v.3a3.22,3.22,0,0,1-1.5,2.1.73.73,0,0,1-.6.2m-.6-.8a1.18,1.18,0,0,0,1,.1,2.56,2.56,0,0,0,1-1.3,2.22,2.22,0,0,0-1.6.3,1,1,0,0,0-.4.9"/><path class="cls-1" d="M528.09,395.41H528a1.75,1.75,0,0,1-1.2-1.3,3.67,3.67,0,0,1,.7-2.5c.1-.1.1-.1.2-.1s.2,0,.2.1a3.38,3.38,0,0,1,1.3,2.2,1.86,1.86,0,0,1-.9,1.5c0,.1-.1.2-.2.1m-.3-3a2.28,2.28,0,0,0-.4,1.6,1,1,0,0,0,.7.7,1.05,1.05,0,0,0,.5-.9,2.85,2.85,0,0,0-.8-1.4"/><path class="cls-1" d="M528.19,401.31a2.35,2.35,0,0,1-.8-.2,3.16,3.16,0,0,1-1.3-2.2c0-.1,0-.2.1-.2s.1-.1.2-.1a3.17,3.17,0,0,1,2.5.6,2.16,2.16,0,0,1,.5,1.7c0,.1-.1.2-.2.3-.3,0-.6.1-1,.1Zm-1.3-2.1a2.43,2.43,0,0,0,.9,1.4,1.7,1.7,0,0,0,1,0,1.4,1.4,0,0,0-.3-.9,2,2,0,0,0-1.6-.5"/><path class="cls-1" d="M532,406a4,4,0,0,1-2.1-.9c-.1-.1-.1-.1-.1-.2s0-.2.1-.2a3,3,0,0,1,2.3-1.1,2.26,2.26,0,0,1,1.5,1,.19.19,0,0,1,0,.3,2,2,0,0,1-1.3,1.2.76.76,0,0,0-.4-.1m-1.4-1.2a2.69,2.69,0,0,0,1.5.5,1.56,1.56,0,0,0,.8-.6,1,1,0,0,0-.8-.5,2.2,2.2,0,0,0-1.5.6"/><path class="cls-1" d="M538.09,404.71c-.1,0-.3-.1-.3-.2s0-.4.2-.4h0a7.2,7.2,0,0,0,4.9-8.9,7.11,7.11,0,0,0-4.9-4.9c-.2,0-.3-.2-.2-.4h0c.1-.2.2-.3.4-.2a7.94,7.94,0,0,1,5.3,9.8,8.24,8.24,0,0,1-5.3,5.3.1.1,0,0,0-.1-.1"/><path class="cls-1" d="M538.79,390.41a2,2,0,0,1-.7-.1,3.22,3.22,0,0,1-1.5-2.1v-.3c0-.1.1-.1.2-.1a3.39,3.39,0,0,1,2.6.4,1.75,1.75,0,0,1,.6,1.7c0,.1-.1.2-.2.3a3.55,3.55,0,0,1-1,.2m.9-.6Zm-2.4-1.5a2.56,2.56,0,0,0,1,1.3,1.18,1.18,0,0,0,1-.1,1.09,1.09,0,0,0-.4-.9,3.81,3.81,0,0,0-1.6-.3"/><path class="cls-1" d="M543.69,395.41c-.1,0-.1,0-.2-.1a1.86,1.86,0,0,1-.9-1.5,3.16,3.16,0,0,1,1.3-2.2.31.31,0,0,1,.2-.1.35.35,0,0,1,.2.1,3.22,3.22,0,0,1,.7,2.5,2.21,2.21,0,0,1-1.2,1.3h-.1m.3-3a2.75,2.75,0,0,0-.8,1.5.6.6,0,0,0,1.1.5.3.3,0,0,0,0-.4,1.77,1.77,0,0,0-.3-1.6"/><path class="cls-1" d="M543.79,401.31a3.55,3.55,0,0,1-1-.2c-.1,0-.2-.2-.2-.3a2.05,2.05,0,0,1,.5-1.7,3.61,3.61,0,0,1,2.5-.6.35.35,0,0,1,.2.1.31.31,0,0,1,.1.2,3.16,3.16,0,0,1-1.3,2.2,1,1,0,0,1-.8.3m-.6-.8a1.7,1.7,0,0,0,1,0,1.94,1.94,0,0,0,.9-1.4,2.28,2.28,0,0,0-1.6.4,1.93,1.93,0,0,0-.3,1"/><path class="cls-1" d="M539.79,406h-.3a1.75,1.75,0,0,1-1.3-1.2.19.19,0,0,1,0-.3,1.82,1.82,0,0,1,1.5-1,3.84,3.84,0,0,1,2.3,1.1.31.31,0,0,1,.1.2c0,.1,0,.2-.1.2a3.34,3.34,0,0,1-2.2,1m-1.1-1.3a1.24,1.24,0,0,0,.8.6,2,2,0,0,0,1.5-.5,2.63,2.63,0,0,0-1.5-.7,2.41,2.41,0,0,0-.8.6"/><path class="cls-1" d="M539.79,406a1.84,1.84,0,0,1-1.7-1.2.19.19,0,0,1,0-.3,1.78,1.78,0,0,1,1.6-1,3.86,3.86,0,0,1,2.2,1.1.31.31,0,0,1,.1.2c0,.1,0,.2-.1.2a3.41,3.41,0,0,1-2.1,1m-1.1-1.3a1.1,1.1,0,0,0,1,.6,2.11,2.11,0,0,0,1.3-.5,2.67,2.67,0,0,0-1.4-.7,2.36,2.36,0,0,0-.9.6"/><path class="cls-1" d="M544.39,396.21l-8.4-2.3h-.2l-8.4,2.4c-.2.1-.3.3-.2.4a.22.22,0,0,0,.2.2l8.4,2.4h.2l2.8-.8V402a.37.37,0,0,0-.1.3.54.54,0,0,0,.5.5.47.47,0,0,0,.5-.5.37.37,0,0,0-.1-.3v-3.7l4.9-1.4c.2-.1.3-.3.2-.4l-.3-.3m-5.2,1.5-3.1-1.4a.38.38,0,0,0-.3.7l2.4,1.1-2.2.6-7.2-2,7.2-2,7.2,2Z"/><path class="cls-1" d="M541.19,397.81l-.7.2v1.1h0c0,.4-.4.8-1,1.1v.8c1-.4,1.7-1.1,1.7-1.8v-1.4Z"/><path class="cls-1" d="M538.79,400.51a9.25,9.25,0,0,1-2.9.4c-2.7,0-4.6-.9-4.6-1.8V398l-.7-.2v1.3c0,1.4,2.3,2.5,5.3,2.5a9.25,9.25,0,0,0,2.9-.4Z"/><polygon class="cls-2" points="410.99 290.51 410.39 290.71 410.29 290.41 411.09 290.11 411.29 290.11 411.29 293.31 410.99 293.31 410.99 290.51"/><polygon class="cls-2" points="394.49 326.31 392.79 326.31 392.79 326.01 394.89 326.01 394.89 326.31 393.49 329.11 393.09 329.11 394.49 326.31"/><path class="cls-1" d="M345.69,164.31a.71.71,0,0,0-.8-.7h-.6l-5.9-3.3h-.2l-5.4,3.3h-1.1a.85.85,0,0,0-.8.7c0,.4.3.7.8.8h.4a1,1,0,0,0,.4,1.2.1.1,0,0,1,.1.1v3.2a.86.86,0,0,0-.6,1.1.1.1,0,0,0,.1.1h-.3a1,1,0,0,0-.9.8v.5a.9.9,0,0,0,.9.9h3.5a.88.88,0,0,0,.9-.8h0v-.5a.6.6,0,0,0-.1-.4h4.5c-.1.1-.1.2-.1.4v.5a.9.9,0,0,0,.9.9h3.5a.88.88,0,0,0,.9-.8h0v-.5a.82.82,0,0,0-.9-.8h-.3a.6.6,0,0,0,.1-.4.87.87,0,0,0-.6-.8v-3.6a.76.76,0,0,0,.6-.8.6.6,0,0,0-.1-.4h.4a.68.68,0,0,0,.7-.7m-7.3-3.6,5,2.8h-9.6Zm-5.9,4.7a.43.43,0,0,1,.4-.4h1.4c.2,0,.4.2.3.4a.32.32,0,0,1-.3.3h-1.4c-.2.1-.4-.1-.4-.3h0m1.6,4h-.9v-3.2h.9Zm-1.2.4h1.4a.4.4,0,0,1,0,.8h-1.4a.43.43,0,0,1-.4-.4h0a.43.43,0,0,1,.4-.4h0m2.9,2.2a.43.43,0,0,1-.4.4h-3.5a.43.43,0,0,1-.4-.4h0v-.5a.43.43,0,0,1,.4-.4h3.5a.43.43,0,0,1,.4.4h0Zm1.1-1.4h-1.8a.6.6,0,0,0,.1-.4.87.87,0,0,0-.6-.8v-3.2a.76.76,0,0,0,.6-.8.6.6,0,0,0-.1-.4h1.8a1,1,0,0,0,.4,1.2.1.1,0,0,1,.1.1v3.2a.86.86,0,0,0-.6,1.1c.1-.1.1,0,.1,0m.8-4.8c-.2,0-.4-.2-.3-.4a.32.32,0,0,1,.3-.3h1.4c.2,0,.4.2.3.4a.32.32,0,0,1-.3.3Zm1.1,3.6h-.9v-3.2h.9Zm.3,1.2h-1.4a.43.43,0,0,1-.4-.4h0a.43.43,0,0,1,.4-.4h1.4a.43.43,0,0,1,.4.4c-.1.2-.2.4-.4.4m.7,0a.6.6,0,0,0,.1-.4.87.87,0,0,0-.6-.8v-3.2a.76.76,0,0,0,.6-.8.6.6,0,0,0-.1-.4h1.8a1,1,0,0,0,.4,1.2.1.1,0,0,1,.1.1v3.2a.86.86,0,0,0-.6,1.1.1.1,0,0,0,.1.1h-1.8Zm5,.5a.43.43,0,0,1,.4.4h0v.5a.43.43,0,0,1-.4.4h-3.5a.43.43,0,0,1-.4-.4h0v-.5a.43.43,0,0,1,.4-.4h3.5Zm-.7-.9a.43.43,0,0,1-.4.4h-1.4a.43.43,0,0,1-.4-.4h0a.43.43,0,0,1,.4-.4h1.4a.37.37,0,0,1,.4.4h0m-1.5-4h.9v3.1h-.9Zm1.2-.4h-1.4c-.2,0-.4-.2-.3-.4a.32.32,0,0,1,.3-.3h1.4c.2,0,.4.2.3.4s-.2.2-.3.3m0-1.3h-12c-.2,0-.3-.1-.3-.2s.1-.3.2-.3H345c.2,0,.3.1.3.2s-.1.3-.2.3h-1.3Z"/><path class="cls-1" d="M339.69,172.41H337a.22.22,0,0,0-.2.2h0a.22.22,0,0,0,.2.2h2.8a.22.22,0,0,0,.2-.2h0c0-.1-.1-.2-.3-.2h0"/><path class="cls-1" d="M339.29,172a.2.2,0,0,0,0-.4h-1.8a.22.22,0,0,0-.2.2h0a.22.22,0,0,0,.2.2h1.8Z"/><path class="cls-1" d="M338.39,161.41a.9.9,0,1,0,.9.9h0a.9.9,0,0,0-.9-.9h0m0,1.3a.4.4,0,1,1,.4-.4h0a.43.43,0,0,1-.4.4"/><polygon class="cls-2" points="343.59 184.11 342.99 184.21 342.89 184.01 343.69 183.71 343.99 183.71 343.99 186.81 343.59 186.81 343.59 184.11"/><path class="cls-1" d="M427.39,225.81a1.4,1.4,0,1,1,1.4-1.4h0a1.37,1.37,0,0,1-1.4,1.4m0-2.2a.8.8,0,1,0,.8.8h0c-.1-.4-.4-.8-.8-.8h0"/><path class="cls-1" d="M419.89,235a1.4,1.4,0,1,1,1.4-1.4h0a1.59,1.59,0,0,1-1.4,1.4m0-2.2a.81.81,0,0,0-.2,1.6h.2a.81.81,0,0,0,.7-.9.84.84,0,0,0-.7-.7"/><path class="cls-1" d="M427.39,235a1.4,1.4,0,1,1,1.4-1.4h0a1.5,1.5,0,0,1-1.4,1.4h0m0-2.2a.8.8,0,1,0,.8.8h0c-.1-.5-.4-.8-.8-.8h0"/><path class="cls-1" d="M419.89,225.81a1.46,1.46,0,0,1-.3-2.9h.2a1.46,1.46,0,0,1,1.3,1.6,1.24,1.24,0,0,1-1.2,1.3m0-2.2a.8.8,0,1,0,.8.8h0c-.1-.4-.4-.8-.8-.8h0"/><path class="cls-1" d="M415.19,230.41a1.43,1.43,0,0,1-1.4-1.4,1.51,1.51,0,0,1,1.4-1.4,1.37,1.37,0,0,1,1.4,1.4,1.31,1.31,0,0,1-1.4,1.4m0-2.2a.75.75,0,0,0,.1,1.5c.4,0,.7-.3.8-.8a1,1,0,0,0-.9-.7h0"/><path class="cls-1" d="M432,230.41a1.4,1.4,0,1,1,1.4-1.4h0a1.43,1.43,0,0,1-1.4,1.4m0-2.2a.8.8,0,1,0,.8.8.79.79,0,0,0-.8-.8h0"/><path class="cls-1" d="M423.59,224.91a3.9,3.9,0,0,0-3.9,3.9,4,4,0,0,0,3.9,3.9,3.9,3.9,0,1,0,0-7.8m-1.8,6.6a1.8,1.8,0,0,1,3.6,0h0a3.35,3.35,0,0,1-3.6,0m4.2-.5a2.52,2.52,0,0,0-2.7-2.1,2.44,2.44,0,0,0-2.1,2.1,3.25,3.25,0,1,1,4.7-4.5,3.37,3.37,0,0,1,.1,4.5"/><path class="cls-1" d="M423.59,229.71a1.71,1.71,0,0,1-1.6-1.9,1.66,1.66,0,1,1,3.3-.3v.3a1.86,1.86,0,0,1-1.7,1.9m0-2.9a.94.94,0,0,0-1,1v.1a1,1,0,1,0,2,0,1,1,0,0,0-1-1.1h0"/><path class="cls-1" d="M428.79,228.61a8.53,8.53,0,0,0-.6-3.1,1.42,1.42,0,0,1-.6.2,8.68,8.68,0,0,1,.5,2.8h-.6v.7h.6a8.68,8.68,0,0,1-.5,2.8.86.86,0,0,1,.6.3,10.66,10.66,0,0,0,.6-3.1h1.8v-.6Z"/><path class="cls-1" d="M431.49,230.31a10.21,10.21,0,0,1-1.1,2.9h-1.7v.6h1.2a7.71,7.71,0,0,1-5,3,9,9,0,0,0,1.9-2,2.09,2.09,0,0,1-.6-.4,10.44,10.44,0,0,1-2.4,2.3v-3h2.1v-.6h-2v-.5h-.6v.5h-2v.6h2v2.9a9.66,9.66,0,0,1-2.3-2.2,1,1,0,0,1-.5.4,13.36,13.36,0,0,0,2,2.1,7.66,7.66,0,0,1-5.2-3.1h1.3v-.6h-1.7a9.19,9.19,0,0,1-1.1-2.9c-.1,0-.3.1-.4.1H415a8.2,8.2,0,0,0,1.2,3.2c0,.1,0,.1.1.1a8.74,8.74,0,0,0,7.3,3.9h.2a8.76,8.76,0,0,0,8.4-7.3H432a.45.45,0,0,1-.5,0"/><path class="cls-1" d="M419.69,228.81v-.2h-.6a8.68,8.68,0,0,1,.5-2.8,1.42,1.42,0,0,1-.6-.2,8.15,8.15,0,0,0-.6,3.1h-1.8v.6h1.8a8,8,0,0,0,.6,3,1.42,1.42,0,0,1,.6-.2,12.66,12.66,0,0,1-.6-2.8h.6a1.09,1.09,0,0,0,.1-.5"/><path class="cls-1" d="M423.59,220.21h0a8.6,8.6,0,0,0-7.3,4v.1a7.74,7.74,0,0,0-1.2,3.3h.2a.6.6,0,0,1,.4.1,6.86,6.86,0,0,1,1.1-2.8h1.7v-.6h-1.3a7.88,7.88,0,0,1,5.2-3.1,10,10,0,0,0-2,2.1,2.09,2.09,0,0,1,.6.4,7.56,7.56,0,0,1,2.4-2.3v2.9h-2a.85.85,0,0,1,0,.7h2v.2h.6V225h2v-.6h-2v-3.2a10.44,10.44,0,0,1,2.4,2.3,1.76,1.76,0,0,1,.5-.4,10,10,0,0,0-2-2.1,7.67,7.67,0,0,1,5.1,3.1h-1.2v.6h1.7a9.19,9.19,0,0,1,1.1,2.9,4.33,4.33,0,0,1,.5-.1h.2a9.09,9.09,0,0,0-8.7-7.3"/><polygon class="cls-2" points="591.79 160.31 591.29 160.51 591.19 160.31 591.89 160.01 592.19 160.01 592.19 163.11 591.79 163.11 591.79 160.31"/><path class="cls-1" d="M596.79,145.11a1.4,1.4,0,1,1,1.4-1.4h0a1.37,1.37,0,0,1-1.4,1.4m0-2.2a.79.79,0,0,0-.8.8.74.74,0,0,0,.8.8.79.79,0,0,0,.8-.8h0c-.1-.4-.4-.8-.8-.8h0"/><path class="cls-1" d="M589.29,154.21a1.4,1.4,0,1,1,1.4-1.4h0a1.37,1.37,0,0,1-1.4,1.4m0-2.2a.8.8,0,0,0,0,1.6.74.74,0,0,0,.8-.8h0c-.1-.4-.4-.8-.8-.8h0"/><path class="cls-1" d="M596.79,154.21a1.4,1.4,0,1,1,1.4-1.4h0a1.37,1.37,0,0,1-1.4,1.4m0-2.2a1,1,0,0,0-.9.7c-.1.4.3.8.7.9h.2a.81.81,0,0,0,.7-.9.84.84,0,0,0-.7-.7"/><path class="cls-1" d="M589.29,145.11a1.4,1.4,0,1,1,1.4-1.4h0a1.37,1.37,0,0,1-1.4,1.4m0-2.2a.79.79,0,0,0-.8.8.74.74,0,0,0,.8.8.79.79,0,0,0,.8-.8h0c-.1-.4-.4-.8-.8-.8h0"/><path class="cls-1" d="M584.69,149.71a1.4,1.4,0,1,1,1.4-1.4h0a1.51,1.51,0,0,1-1.4,1.4m0-2.2a.79.79,0,0,0-.8.8.74.74,0,0,0,.8.8.79.79,0,0,0,.8-.8c-.1-.5-.4-.8-.8-.8h0"/><path class="cls-1" d="M601.39,149.71a1.4,1.4,0,1,1,1.4-1.4h0a1.43,1.43,0,0,1-1.4,1.4m0-2.2a.79.79,0,0,0-.8.8.74.74,0,0,0,.8.8h0a.8.8,0,0,0,0-1.6h0"/><path class="cls-1" d="M593,144.21a3.9,3.9,0,1,0,3.9,3.9h0a3.9,3.9,0,0,0-3.9-3.9m-1.8,6.6a1.8,1.8,0,1,1,3.6,0,3.35,3.35,0,0,1-3.6,0m4.2-.5a2.52,2.52,0,0,0-2.7-2.1,2.44,2.44,0,0,0-2.1,2.1,3.25,3.25,0,0,1,4.7-4.5,3.37,3.37,0,0,1,.1,4.5"/><path class="cls-1" d="M593,149a1.71,1.71,0,0,1-1.6-1.9,1.6,1.6,0,1,1,3.2,0h0A1.71,1.71,0,0,1,593,149m0-3a.94.94,0,0,0-1,1v.1a1,1,0,1,0,2,0,1.09,1.09,0,0,0-1-1.1h0"/><path class="cls-1" d="M598.19,147.91a8,8,0,0,0-.6-3,1.42,1.42,0,0,1-.6.2,8.68,8.68,0,0,1,.5,2.8h-.6v.7h.6a8.68,8.68,0,0,1-.5,2.8.86.86,0,0,1,.6.3,10.66,10.66,0,0,0,.6-3.1H600V148Z"/><path class="cls-1" d="M601,149.61a10.21,10.21,0,0,1-1.1,2.9h-1.7v.6h1.2a7.71,7.71,0,0,1-5,3,11.9,11.9,0,0,0,1.9-2,2.09,2.09,0,0,1-.6-.4,10.44,10.44,0,0,1-2.4,2.3v-3h2v-.6h-2v-.5h-.6v.5h-2v.6h2v2.9a9.66,9.66,0,0,1-2.3-2.2,1,1,0,0,1-.5.4,13.36,13.36,0,0,0,2,2.1,7.66,7.66,0,0,1-5.2-3.1H588v-.6h-1.7a9.19,9.19,0,0,1-1.1-2.9c-.1,0-.3.1-.4.1h-.2a8.2,8.2,0,0,0,1.2,3.2c0,.1,0,.1.1.1a8.74,8.74,0,0,0,7.3,3.9h.2a8.76,8.76,0,0,0,8.4-7.3H601"/><path class="cls-1" d="M589.09,148.11v-.2h-.6a8.68,8.68,0,0,1,.5-2.8,1.42,1.42,0,0,1-.6-.2,15.94,15.94,0,0,0-.6,3H586v.6h1.8a10.66,10.66,0,0,0,.6,3,1.42,1.42,0,0,1,.6-.2,12.66,12.66,0,0,1-.6-2.8h.6a.76.76,0,0,0,.1-.4"/><path class="cls-1" d="M593,139.51h0a8.6,8.6,0,0,0-7.3,4v.1a7.74,7.74,0,0,0-1.2,3.3h.2a.6.6,0,0,1,.4.1,6.86,6.86,0,0,1,1.1-2.8h1.7v-.6h-1.3a7.88,7.88,0,0,1,5.2-3.1,10,10,0,0,0-2,2.1,2.09,2.09,0,0,1,.6.4,8.39,8.39,0,0,1,2.3-2.3v2.9h-2v.6h2v.1h.6v-.2h2v-.6h-2v-2.9a10.44,10.44,0,0,1,2.4,2.3,1.27,1.27,0,0,1,.6-.4,10,10,0,0,0-2-2.1,7.67,7.67,0,0,1,5.1,3.1h-1.2v.6h1.7a9.61,9.61,0,0,1,1.1,2.8,4.33,4.33,0,0,1,.5-.1h.2a8.89,8.89,0,0,0-8.7-7.3"/><path class="cls-1" d="M236.89,303.91a.27.27,0,0,0-.3.3v3a.32.32,0,0,0,.3.3c.2,0,.3-.1.4-.3v-3a.54.54,0,0,0-.4-.3"/><path class="cls-1" d="M247.39,303.91a.27.27,0,0,0-.3.3v3a.32.32,0,0,0,.3.3.27.27,0,0,0,.3-.3v-3a.32.32,0,0,0-.3-.3"/><path class="cls-1" d="M242.09,288.71a1.92,1.92,0,0,0-1.9,2,1.83,1.83,0,0,0,1.6,2.1,1.9,1.9,0,0,0,2.1-1.6v-.5a1.79,1.79,0,0,0-1.8-2m0,3.4a1.44,1.44,0,0,1-1.2-1.5,1.21,1.21,0,0,1,1.1-1.3,1.16,1.16,0,0,1,1.3,1.1v.2a1.43,1.43,0,0,1-1.2,1.5"/><path class="cls-1" d="M251.49,300a2.36,2.36,0,0,0,.7-1.6,1.85,1.85,0,0,0-3.7-.1h0a2,2,0,0,0,.7,1.6,3.36,3.36,0,0,0-1.6,2.9c0,2,2.1,2,2.8,2s2.8,0,2.8-2a3.67,3.67,0,0,0-1.7-2.8m-2.3-1.7a1.16,1.16,0,0,1,2.3-.3v.3a1.6,1.6,0,0,1-.8,1.4h-.8a1.75,1.75,0,0,1-.7-1.4m1.1,5.8c-1.9,0-2.1-.6-2.1-1.3a2.65,2.65,0,0,1,1.6-2.4,1.3,1.3,0,0,0,1,0,2.6,2.6,0,0,1,1.6,2.4c.1.7-.2,1.3-2.1,1.3"/><path class="cls-1" d="M251.59,299.91l-.1.1.1.1v-.2"/><path class="cls-1" d="M247.79,301.61c-.9-.2-1.1-.7-1.1-1.2a2.65,2.65,0,0,1,1.6-2.4h.1a1.33,1.33,0,0,1,.3-.8h-.4a1.6,1.6,0,0,1-.8-1.4,1.16,1.16,0,0,1,2.3-.3v.3a.9.9,0,0,1-.1.5h.7a.9.9,0,0,1,.1-.5,1.85,1.85,0,0,0-3.7-.1h0a2,2,0,0,0,.7,1.6,3.36,3.36,0,0,0-1.6,2.9,1.75,1.75,0,0,0,1.5,1.8c.1-.2.1-.4.2-.6"/><path class="cls-1" d="M235,300a2.36,2.36,0,0,0,.7-1.6,1.86,1.86,0,0,0-3.7-.3v.3a2,2,0,0,0,.7,1.6,3.36,3.36,0,0,0-1.6,2.9c0,2,2.1,2,2.8,2s2.8,0,2.8-2A3.69,3.69,0,0,0,235,300m-2.3-1.7a1.16,1.16,0,1,1,2.3-.3v.3a1.6,1.6,0,0,1-.8,1.4,1.39,1.39,0,0,0-.9,0,1.68,1.68,0,0,1-.6-1.4m1.1,5.8c-1.9,0-2.1-.6-2.1-1.3a2.65,2.65,0,0,1,1.6-2.4,1.39,1.39,0,0,0,.9,0,2.6,2.6,0,0,1,1.6,2.4c.1.7-.1,1.3-2,1.3"/><path class="cls-1" d="M232.69,300l-.1-.1v.2l.1-.1"/><path class="cls-1" d="M236.49,297.61a2.36,2.36,0,0,0,.7-1.6,1.85,1.85,0,0,0-3.7-.1h0v.5h.7a.9.9,0,0,1-.1-.5,1.16,1.16,0,0,1,2.3-.3v.3a1.6,1.6,0,0,1-.8,1.4h-.4a1.14,1.14,0,0,1,.3.8h.1a2.6,2.6,0,0,1,1.6,2.4c0,.5-.1,1-1,1.2a1.42,1.42,0,0,1,.2.6,1.67,1.67,0,0,0,1.5-1.8,3.48,3.48,0,0,0-1.6-2.9"/><path class="cls-1" d="M245.69,298.41v-1.7h0a.32.32,0,0,0,.3-.3v-1.6a.32.32,0,0,0-.3-.3h-7.3a.32.32,0,0,0-.3.3v1.6a.32.32,0,0,0,.3.3h0v1.7l-2.9,5.6a.19.19,0,0,0,0,.3c.1.1.2.2.3.2h12.4c.1,0,.2-.1.3-.2a.19.19,0,0,0,0-.3Zm-6.9-3.3h6.6v.9h-6.6Zm6.2,3h-5.8v-1.4H245Zm-8.5,5.7,2.6-5h6.1l2.6,5Z"/><path class="cls-1" d="M240.09,294.41a2,2,0,0,1,4,0h.7a2.7,2.7,0,0,0-3-2.4,2.58,2.58,0,0,0-2.4,2.4Z"/><rect class="cls-1" x="423.99" y="308.21" width="89.3" height="22.3"/><rect class="cls-1" x="567.19" y="385.81" width="89.3" height="22.3"/><rect class="cls-1" x="350.19" y="383.81" width="89.3" height="22.3"/><rect class="cls-1" x="221.39" y="157.91" width="89.3" height="22.3"/><rect class="cls-1" x="121.59" y="258.41" width="89.3" height="22.3"/><rect class="cls-1" x="627.59" y="137.81" width="89.3" height="22.3"/><rect class="cls-1" x="454.49" y="218.51" width="89.3" height="22.3"/><rect class="cls-1" x="115.79" y="288.61" width="89.3" height="22.3"/><polygon class="cls-1" points="310.69 174.11 310.69 169.11 310.69 164.11 320.69 166.61 330.69 169.01 320.69 171.61 310.69 174.11"/><polygon class="cls-1" points="210.79 274.61 210.79 269.61 210.79 264.61 220.79 267.01 230.79 269.51 220.79 272.01 210.79 274.61"/><polygon class="cls-1" points="204.99 304.81 204.99 299.81 204.99 294.81 214.99 297.31 224.99 299.71 214.99 302.31 204.99 304.81"/><polygon class="cls-1" points="439.49 400.01 439.49 395.01 439.49 390.01 449.49 392.51 459.49 394.91 449.49 397.51 439.49 400.01"/><polygon class="cls-1" points="627.59 153.91 627.59 148.91 627.59 143.91 617.59 146.51 607.59 149.01 617.59 151.51 627.59 153.91"/><polygon class="cls-1" points="454.49 234.61 454.49 229.61 454.49 224.61 444.49 227.21 434.49 229.71 444.49 232.21 454.49 234.61"/><polygon class="cls-1" points="423.99 324.31 423.99 319.31 423.99 314.31 413.99 316.91 403.99 319.41 413.99 321.91 423.99 324.31"/><polygon class="cls-1" points="567.29 402.01 567.29 397.01 567.29 392.01 557.29 394.51 547.29 397.11 557.29 399.51 567.29 402.01"/></g><g id="t_vn"><polygon class="cls-2" points="592.29 392.41 592.99 392.41 592.99 394.51 594.99 392.41 595.79 392.41 594.09 394.21 595.89 396.51 594.99 396.51 593.69 394.71 592.99 395.31 592.99 396.51 592.29 396.51 592.29 392.41"/><polygon class="cls-2" points="596.19 392.41 596.89 392.41 596.89 394.11 598.79 394.11 598.79 392.41 599.49 392.41 599.49 396.51 598.79 396.51 598.79 394.81 596.89 394.81 596.89 396.51 596.19 396.51 596.19 392.41"/><path class="cls-2" d="M600.19,394.81v-2.3h.7v2.3c0,.8.4,1.1,1,1.1a1,1,0,0,0,1-1.1v-2.3h.7v2.3a1.75,1.75,0,0,1-1.7,1.7,1.83,1.83,0,0,1-1.7-1.7"/><path class="cls-2" d="M605.79,392.41h1.8a1.28,1.28,0,0,1,1,.4.91.91,0,0,1,.3.7h0a1,1,0,0,1-.6.9,1,1,0,0,1,.8,1h0c0,.7-.6,1.1-1.5,1.1h-1.9Zm1.6,1.7c.5,0,.8-.2.8-.5h0c0-.3-.2-.5-.7-.5h-1v1.1Zm.2,1.7c.5,0,.8-.2.8-.5h0c0-.4-.3-.5-.8-.5h-1.1v1.1Z"/><path class="cls-2" d="M611,392.41h.7l1.8,4h-.8l-.4-1h-1.9l-.4,1h-.7Zm1,2.5-.7-1.6-.7,1.6Zm-.8-3.3c.2,0,.4-.1.4-.3s-.1-.2-.2-.1h0c-.1,0-.2,0-.2.2l-.4-.2a.74.74,0,0,1,.6-.5.58.58,0,0,1,.6.6h0a.68.68,0,0,1-.4.6v.2h-.3Z"/><path class="cls-2" d="M613.69,394.51h0a2.1,2.1,0,0,1,4.2,0h0a2.11,2.11,0,0,1-2.1,2.1h-.1a2,2,0,0,1-2.1-1.9.31.31,0,0,0,.1-.2m3.5,0h0a1.35,1.35,0,0,0-1.3-1.4h-.1a1.42,1.42,0,0,0-1.4,1.3v.1h0a1.37,1.37,0,0,0,1.4,1.4,1.43,1.43,0,0,0,1.4-1.4h0"/><polygon class="cls-2" points="620.89 393.11 619.59 393.11 619.59 392.41 622.89 392.41 622.89 393.11 621.59 393.11 621.59 396.51 620.89 396.51 620.89 393.11"/><path class="cls-2" d="M623.19,394.51h0a2.11,2.11,0,0,1,2.1-2.1h.1a2,2,0,0,1,2.1,1.9v.2h0a2.18,2.18,0,0,1-2.2,2,2.25,2.25,0,0,1-2.1-2m3.4,0h0a1.35,1.35,0,0,0-1.3-1.4h-.1a1.42,1.42,0,0,0-1.4,1.3v.1h0a1.37,1.37,0,0,0,1.4,1.4,1.43,1.43,0,0,0,1.4-1.4h0m-1.7-3.3h.6l.7.9h-.5l-.5-.4-.4.4h-.5Zm.6-.4.6-.3.6.9h-.5Z"/><polygon class="cls-2" points="627.89 392.41 628.59 392.41 630.69 395.21 630.69 392.41 631.39 392.41 631.39 396.51 630.79 396.51 628.59 393.61 628.59 396.51 627.89 396.51 627.89 392.41"/><path class="cls-2" d="M586.29,402.81l.4-.5a1.9,1.9,0,0,0,1.3.5c.4,0,.7-.2.7-.5h0c0-.3-.2-.5-.9-.6s-1.3-.5-1.3-1.2h0a1.24,1.24,0,0,1,1.3-1.2h.1a3,3,0,0,1,1.5.5l-.4.5a1.5,1.5,0,0,0-1.1-.4c-.4,0-.7.2-.7.5h0c0,.3.2.5,1,.6s1.3.5,1.3,1.2h0c0,.8-.6,1.2-1.4,1.2a2,2,0,0,1-1.8-.6"/><path class="cls-2" d="M589.69,401.41h0a2.11,2.11,0,0,1,2.1-2.1h.1a2,2,0,0,1,2.1,1.9v.2h0a2.16,2.16,0,0,1-4.3,0m3.5,0h0a1.35,1.35,0,0,0-1.3-1.4h0a1.37,1.37,0,0,0-1.4,1.4v.1h0a1.35,1.35,0,0,0,1.3,1.4h0a1.52,1.52,0,0,0,1.4-1.5h0"/><path class="cls-2" d="M594.49,401.71v-2.3h.7v2.3c0,.8.4,1.1,1,1.1a1,1,0,0,0,1-1.1v-2.3h.7v2.3a1.59,1.59,0,0,1-1.4,1.8h-.3a1.58,1.58,0,0,1-1.7-1.5.19.19,0,0,1,0-.3"/><polygon class="cls-2" points="599.59 400.11 598.29 400.11 598.29 399.41 601.49 399.41 601.49 400.11 600.29 400.11 600.29 403.41 599.59 403.41 599.59 400.11"/><polygon class="cls-2" points="601.99 399.41 602.69 399.41 602.69 401.11 604.59 401.11 604.59 399.41 605.29 399.41 605.29 403.41 604.59 403.41 604.59 401.71 602.69 401.71 602.69 403.41 601.99 403.41 601.99 399.41"/><polygon class="cls-2" points="606.09 399.41 609.09 399.41 609.09 400.01 606.79 400.01 606.79 401.11 608.79 401.11 608.79 401.71 606.79 401.71 606.79 402.81 609.09 402.81 609.09 403.41 606.09 403.41 606.09 399.41"/><path class="cls-2" d="M609.59,399.41h1.8a1.92,1.92,0,0,1,1.2.4,1.22,1.22,0,0,1,.3.9h0a1.19,1.19,0,0,1-1,1.2l1.1,1.5h-.8l-1-1.4h-.9v1.4h-.7Zm1.8,2a.71.71,0,0,0,.8-.7h0a.71.71,0,0,0-.8-.7h-1v1.4Z"/><polygon class="cls-2" points="613.49 399.41 614.19 399.41 616.29 402.21 616.29 399.41 616.99 399.41 616.99 403.41 616.39 403.41 614.19 400.61 614.19 403.41 613.49 403.41 613.49 399.41"/><path class="cls-2" d="M619.19,399.41h1.5a2,2,0,0,1,2.1,1.9v.1h0a2,2,0,0,1-2,2h-1.6Zm1.5,3.4a1.32,1.32,0,0,0,1.4-1.2v-.1h0a1.41,1.41,0,0,0-1.3-1.4h-.9v2.7Z"/><polygon class="cls-2" points="623.39 399.41 626.39 399.41 626.39 400.01 624.09 400.01 624.09 401.11 626.09 401.11 626.09 401.71 624.09 401.71 624.09 402.81 626.39 402.81 626.39 403.41 623.39 403.41 623.39 399.41"/><polygon class="cls-2" points="626.89 399.41 627.69 399.41 627.69 402.81 629.79 402.81 629.79 403.41 626.89 403.41 626.89 399.41"/><polygon class="cls-2" points="631.19 400.11 629.89 400.11 629.89 399.41 633.19 399.41 633.19 400.11 631.89 400.11 631.89 403.41 631.19 403.41 631.19 400.11"/><path class="cls-2" d="M635.09,399.41h.7l1.8,4h-.8l-.4-1h-1.9l-.4,1h-.7Zm1,2.4-.7-1.6-.7,1.6Z"/><polygon class="cls-2" points="375.29 390.41 375.99 390.41 375.99 392.51 377.89 390.41 378.79 390.41 377.09 392.21 378.89 394.51 377.99 394.51 376.59 392.71 375.99 393.31 375.99 394.51 375.29 394.51 375.29 390.41"/><polygon class="cls-2" points="379.19 390.41 379.89 390.41 379.89 392.11 381.79 392.11 381.79 390.41 382.49 390.41 382.49 394.51 381.79 394.51 381.79 392.81 379.89 392.81 379.89 394.51 379.19 394.51 379.19 390.41"/><path class="cls-2" d="M383.19,392.81v-2.3h.7v2.3c0,.8.4,1.1,1,1.1a1,1,0,0,0,1-1.1v-2.3h.7v2.3a1.59,1.59,0,0,1-1.4,1.8h-.3a1.58,1.58,0,0,1-1.7-1.5v-.3"/><path class="cls-2" d="M388.79,390.41h1.8a1.16,1.16,0,0,1,1,.4.91.91,0,0,1,.3.7h0a1,1,0,0,0-.5,1.3.75.75,0,0,0,.7.5h0c0,.7-.6,1.1-1.5,1.1h-1.9v-4Zm1.6,1.7c.5,0,.8-.2.8-.5h0c0-.3-.2-.5-.7-.5h-1v1.1Zm.2,1.7c.5,0,.8-.2.8-.5h0c0-.4-.3-.5-.8-.5h-1.1v1.1Z"/><path class="cls-2" d="M414.89,420.71h1.8a1.28,1.28,0,0,1,1,.4.91.91,0,0,1,.3.7h0a1,1,0,0,1-.6.9,1,1,0,0,1,.8,1h0c0,.7-.6,1.1-1.5,1.1h-1.9Zm1.6,1.7c.5,0,.8-.2.8-.5h0c0-.3-.2-.5-.7-.5h-1v1.1Zm.2,1.7c.5,0,.8-.2.8-.5h0c0-.4-.3-.5-.8-.5h-1.1v1.1Z"/><path class="cls-2" d="M394,390.41h.7l1.8,4h-.8l-.4-1h-1.9l-.4,1h-.7Zm1,2.5-.7-1.6-.7,1.6Zm-.9-3.3c.2,0,.4-.1.4-.3s-.1-.2-.2-.1h0c-.1,0-.2,0-.2.2l-.4-.2a.63.63,0,0,1,.6-.5.75.75,0,0,1,.7.5c.1.3-.2.6-.5.7v.2h-.3Z"/><path class="cls-2" d="M388.79,390.41h1.8a1.28,1.28,0,0,1,1,.4.91.91,0,0,1,.3.7h0a1,1,0,0,1-.6.9,1,1,0,0,1,.8,1h0c0,.7-.6,1.1-1.5,1.1h-1.9Zm1.7,1.7c.5,0,.8-.2.8-.5h0c0-.3-.2-.5-.7-.5h-1v1.1Zm.2,1.7c.5,0,.8-.2.8-.5h0c0-.4-.3-.5-.8-.5h-1.1v1.1Z"/><path class="cls-2" d="M396.69,392.51h0a2.09,2.09,0,0,1,2-2.1h.1a2,2,0,0,1,2.1,1.9v.2h0a2.05,2.05,0,0,1-2.1,2.1,2.11,2.11,0,0,1-2.1-2.1m3.4-.1h0a1.35,1.35,0,0,0-1.3-1.4h-.1a1.42,1.42,0,0,0-1.4,1.3v.1h0a1.35,1.35,0,0,0,1.3,1.4h.1a1.22,1.22,0,0,0,1.4-1.4h0"/><polygon class="cls-2" points="403.89 391.11 402.59 391.11 402.59 390.41 405.89 390.41 405.89 391.11 404.59 391.11 404.59 394.51 403.89 394.51 403.89 391.11"/><path class="cls-2" d="M406.09,392.51h0a2.09,2.09,0,0,1,2-2.1h.1a2,2,0,0,1,2.1,1.9v.2h0a2.05,2.05,0,0,1-2.1,2.1,2.11,2.11,0,0,1-2.1-2.1m3.5-.1h0a1.35,1.35,0,0,0-1.3-1.4h-.1a1.42,1.42,0,0,0-1.4,1.3v.1h0a1.4,1.4,0,0,0,2.8,0m-1.7-3.2h.6l.7.9h-.6l-.4-.4-.5.4h-.5Zm.6-.4.6-.3.6.9h-.5Z"/><polygon class="cls-2" points="410.89 390.41 411.59 390.41 413.69 393.21 413.69 390.41 414.39 390.41 414.39 394.51 413.79 394.51 411.59 391.61 411.59 394.51 410.89 394.51 410.89 390.41"/><path class="cls-2" d="M369.29,400.81l.4-.5a1.9,1.9,0,0,0,1.3.5c.4,0,.7-.2.7-.5h0c0-.3-.2-.5-.9-.6s-1.3-.5-1.3-1.2h0a1.24,1.24,0,0,1,1.3-1.2h.1a2.69,2.69,0,0,1,1.5.5l-.4.5a1.5,1.5,0,0,0-1.1-.4c-.4,0-.6.2-.6.5h0c0,.3.2.5,1,.6s1.3.5,1.3,1.2h0c0,.8-.6,1.2-1.4,1.2a2,2,0,0,1-1.9-.6"/><path class="cls-2" d="M372.69,399.41h0a2.11,2.11,0,0,1,2.1-2.1h.1a2,2,0,0,1,2.1,1.9v.2h0a2.05,2.05,0,0,1-2.1,2.1,2.14,2.14,0,0,1-2.2-2.1m3.5,0h0a1.4,1.4,0,1,0-2.8,0h0a1.4,1.4,0,1,0,2.8,0"/><path class="cls-2" d="M377.39,399.71v-2.3h.7v2.3c0,.8.4,1.1,1,1.1a1,1,0,0,0,1-1.1v-2.3h.7v2.3a1.7,1.7,0,0,1-3.4,0"/><polygon class="cls-2" points="382.49 398.11 381.29 398.11 381.29 397.41 384.49 397.41 384.49 398.11 383.29 398.11 383.29 401.41 382.49 401.41 382.49 398.11"/><polygon class="cls-2" points="384.99 397.41 385.69 397.41 385.69 399.11 387.59 399.11 387.59 397.41 388.29 397.41 388.29 401.41 387.59 401.41 387.59 399.71 385.69 399.71 385.69 401.41 384.99 401.41 384.99 397.41"/><polygon class="cls-2" points="389.09 397.41 391.99 397.41 391.99 398.01 389.79 398.01 389.79 399.11 391.79 399.11 391.79 399.71 389.79 399.71 389.79 400.81 392.09 400.81 392.09 401.41 389.09 401.41 389.09 397.41"/><path class="cls-2" d="M392.59,397.41h1.8a1.92,1.92,0,0,1,1.2.4,1.22,1.22,0,0,1,.3.9h0a1.19,1.19,0,0,1-1,1.2l1.1,1.5h-.8l-1-1.4h-.9v1.4h-.7Zm1.8,2c.5,0,.8-.2.8-.7h0a.71.71,0,0,0-.8-.7h-1v1.4Z"/><polygon class="cls-2" points="396.49 397.41 397.09 397.41 399.29 400.21 399.29 397.41 399.99 397.41 399.99 401.41 399.39 401.41 397.19 398.61 397.19 401.41 396.49 401.41 396.49 397.41"/><path class="cls-2" d="M402.19,397.41h1.5a2,2,0,0,1,2.1,1.9v.1h0a2,2,0,0,1-2,2h-1.6Zm1.5,3.4a1.4,1.4,0,0,0,1.4-1.2v-.1h0a1.41,1.41,0,0,0-1.3-1.4h-.9v2.7Z"/><polygon class="cls-2" points="406.39 397.41 409.39 397.41 409.39 398.01 407.09 398.01 407.09 399.11 409.09 399.11 409.09 399.71 407.09 399.71 407.09 400.81 409.39 400.81 409.39 401.41 406.39 401.41 406.39 397.41"/><polygon class="cls-2" points="409.89 397.41 410.59 397.41 410.59 400.81 412.79 400.81 412.79 401.41 409.89 401.41 409.89 397.41"/><polygon class="cls-2" points="414.19 398.11 412.89 398.11 412.89 397.41 416.19 397.41 416.19 398.11 414.89 398.11 414.89 401.41 414.19 401.41 414.19 398.11"/><path class="cls-2" d="M418.09,397.41h.6l1.8,4h-.7l-.4-1h-1.9l-.4,1h-.7Zm1,2.4-.7-1.6-.7,1.6Z"/><path class="cls-2" d="M251.19,167.91H253a1.28,1.28,0,0,1,1,.4.91.91,0,0,1,.3.7h0a1,1,0,0,1-.6.9,1,1,0,0,1,.8,1h0c0,.7-.6,1.1-1.5,1.1h-1.9Zm1.7,1.7c.5,0,.8-.2.8-.6h0c0-.3-.2-.5-.7-.5h-1v1.1Zm.2,1.7c.5,0,.8-.2.8-.6h0c0-.3-.3-.5-.8-.5H252v1.1Z"/><path class="cls-2" d="M256.49,167.91h.7L259,172h-.8l-.4-1h-1.9l-.4,1h-.7Zm1,2.5-.7-1.6-.7,1.6Zm-.9-3.3c.2,0,.4-.1.4-.3a.35.35,0,0,0-.1-.2h0a.22.22,0,0,0-.2.2l-.4-.2a.63.63,0,0,1,.6-.5.58.58,0,0,1,.6.6h0a.68.68,0,0,1-.4.6v.2h-.3Z"/><path class="cls-2" d="M259.09,169.91h0a2.11,2.11,0,0,1,2.1-2.1h.1a2,2,0,0,1,2.1,1.9v.2h0a2.05,2.05,0,0,1-2.1,2.1,2.14,2.14,0,0,1-2.2-2.1m3.5,0h0a1.4,1.4,0,1,0-2.8,0h0a1.35,1.35,0,0,0,1.3,1.4h.1a1.26,1.26,0,0,0,1.4-1.4h0"/><polygon class="cls-2" points="266.29 168.61 265.09 168.61 265.09 167.91 268.29 167.91 268.29 168.61 266.99 168.61 266.99 171.91 266.29 171.91 266.29 168.61"/><path class="cls-2" d="M270.19,167.91h.7l1.8,4.1h-.8l-.4-1h-1.9l-.4,1h-.7Zm-.6-1,.6-.3.6.9h-.5Zm1.6,3.5-.7-1.6-.7,1.6Z"/><polygon class="cls-2" points="272.99 167.91 273.69 167.91 275.79 170.71 275.79 167.91 276.49 167.91 276.49 171.91 275.89 171.91 273.69 169.11 273.69 171.91 272.99 171.91 272.99 167.91"/><path class="cls-2" d="M277.09,169.91h0a2.09,2.09,0,0,1,2-2.1h.1a2,2,0,0,1,1.5.6l-.5.5a1.5,1.5,0,0,0-1.1-.4,1.34,1.34,0,0,0-1.3,1.4h0a1.34,1.34,0,0,0,1.3,1.4h.1a1.69,1.69,0,0,0,1-.3v-.8h-1v-.6h1.7v1.7a2.72,2.72,0,0,1-1.7.6,2,2,0,0,1-2.1-1.9v-.1"/><polygon class="cls-2" points="144.59 263.61 145.19 263.61 147.39 266.41 147.39 263.61 148.09 263.61 148.09 267.61 147.49 267.61 145.19 264.81 145.19 267.61 144.59 267.61 144.59 263.61"/><polygon class="cls-2" points="148.79 263.61 149.49 263.61 149.49 265.31 151.39 265.31 151.39 263.61 152.09 263.61 152.09 267.61 151.39 267.61 151.39 265.91 149.49 265.91 149.49 267.61 148.79 267.61 148.79 263.61"/><path class="cls-2" d="M154.29,263.61h.7l1.8,4H156l-.4-1h-1.9l-.4,1h-.7Zm-.6-1,.6-.3.6.9h-.5Zm1.6,3.4-.7-1.6-.7,1.6Z"/><polygon class="cls-2" points="158.59 263.61 159.29 263.61 159.29 265.31 161.19 265.31 161.19 263.61 161.89 263.61 161.89 267.61 161.19 267.61 161.19 265.91 159.29 265.91 159.29 267.61 158.59 267.61 158.59 263.61"/><path class="cls-2" d="M164.09,263.61h.6l1.8,4h-.7l-.4-1h-1.9l-.4,1h-.7Zm1,2.4-.7-1.6-.7,1.6Zm-.5-3.7.6.3-.7.7H164Z"/><polygon class="cls-2" points="167.89 264.31 166.59 264.31 166.59 263.61 169.89 263.61 169.89 264.31 168.59 264.31 168.59 267.61 167.89 267.61 167.89 264.31"/><polygon class="cls-2" points="171.79 263.61 172.39 263.61 174.59 266.41 174.59 263.61 175.19 263.61 175.19 267.61 174.69 267.61 172.39 264.81 172.39 267.61 171.79 267.61 171.79 263.61"/><polygon class="cls-2" points="175.99 263.61 176.69 263.61 176.69 265.31 178.59 265.31 178.59 263.61 179.29 263.61 179.29 267.61 178.59 267.61 178.59 265.91 176.69 265.91 176.69 267.61 175.99 267.61 175.99 263.61"/><path class="cls-2" d="M181.49,263.61h.6l1.8,4h-.8l-.4-1h-1.9l-.4,1h-.7Zm1,2.4-.7-1.6-.7,1.6Zm-1,2h.6v.7h-.6Z"/><path class="cls-2" d="M184.09,265.61h0a2.08,2.08,0,0,1,1.9-2.1h.2a2.27,2.27,0,0,1,1.6.6l-.4.5a1.61,1.61,0,0,0-1.1-.5,1.29,1.29,0,0,0-1.3,1.4h0a1.29,1.29,0,0,0,1.3,1.4h0a1.43,1.43,0,0,0,1.1-.5l.5.5a2,2,0,0,1-1.6.7,2.08,2.08,0,0,1-2.1-1.9c-.1,0-.1,0-.1-.1"/><polygon class="cls-2" points="137.19 271.71 137.99 271.71 139.19 274.81 140.39 271.71 141.19 271.71 139.49 275.81 138.89 275.81 137.19 271.71"/><path class="cls-2" d="M141.49,274v-2.3h.7V274c0,.8.4,1.1,1,1.1a1,1,0,0,0,1-1.1v-2.3h.7V274a1.7,1.7,0,1,1-3.4,0m.6-2.8c.1-.5.3-.7.6-.7s.6.2.8.2.2-.1.3-.3l.4.1c-.1.5-.3.7-.6.7s-.6-.2-.8-.2-.2.1-.3.3Z"/><polygon class="cls-2" points="147.09 271.71 147.79 271.71 147.79 273.71 149.69 271.71 150.59 271.71 148.89 273.41 150.69 275.71 149.79 275.71 148.39 273.91 147.79 274.61 147.79 275.71 147.09 275.71 147.09 271.71"/><path class="cls-2" d="M151,271.71h.7v4H151Zm0,4.4h.6v.7H151Z"/><path class="cls-2" d="M152.29,273.71h0a2.08,2.08,0,0,1,1.9-2.1h.2a2.27,2.27,0,0,1,1.6.6l-.5.5a1.61,1.61,0,0,0-1.1-.5,1.29,1.29,0,0,0-1.3,1.4h0a1.42,1.42,0,0,0,1.2,1.5h.1a1.43,1.43,0,0,0,1.1-.5l.5.5a2.06,2.06,0,0,1-3.6-1.3l-.1-.1"/><polygon class="cls-2" points="156.49 271.71 157.19 271.71 157.19 273.41 159.09 273.41 159.09 271.71 159.79 271.71 159.79 275.71 159.09 275.71 159.09 274.01 157.19 274.01 157.19 275.71 156.49 275.71 156.49 271.71"/><polygon class="cls-2" points="162.89 272.41 161.69 272.41 161.69 271.71 164.89 271.71 164.89 272.41 163.69 272.41 163.69 275.71 162.89 275.71 162.89 272.41"/><polygon class="cls-2" points="165.39 271.71 166.09 271.71 166.09 273.41 167.99 273.41 167.99 271.71 168.69 271.71 168.69 275.71 167.99 275.71 167.99 274.01 166.09 274.01 166.09 275.71 165.39 275.71 165.39 271.71"/><path class="cls-2" d="M170.89,271.71h.6l1.8,4.1h-.7l-.4-1h-1.9l-.4,1h-.7Zm-.6-1,.6-.3.6.9H171Zm1.6,3.4-.7-1.6-.7,1.6Z"/><polygon class="cls-2" points="173.69 271.71 174.39 271.71 176.49 274.51 176.49 271.71 177.19 271.71 177.19 275.71 176.59 275.71 174.39 272.91 174.39 275.71 173.69 275.71 173.69 271.71"/><polygon class="cls-2" points="177.99 271.71 178.69 271.71 178.69 273.41 180.59 273.41 180.59 271.71 181.29 271.71 181.29 275.71 180.59 275.71 180.59 274.01 178.69 274.01 178.69 275.71 177.99 275.71 177.99 271.71"/><path class="cls-2" d="M183.49,271.71h1.6a1.34,1.34,0,0,1,1.5,1.2v.2h0a1.42,1.42,0,0,1-1.6,1.4h-.8v1.3h-.7Zm1.5,2.1a.81.81,0,0,0,.9-.7h0c0-.5-.3-.7-.9-.7h-.8v1.4Z"/><polygon class="cls-2" points="186.99 271.71 187.69 271.71 187.69 273.41 189.59 273.41 189.59 271.71 190.39 271.71 190.39 275.71 189.59 275.71 189.59 274.01 187.69 274.01 187.69 275.71 186.99 275.71 186.99 271.71"/><path class="cls-2" d="M190.89,273.71h0a2.11,2.11,0,0,1,2.1-2.1h.1a2,2,0,0,1,2.1,1.9v.2h0a2.11,2.11,0,0,1-2.1,2.1H193a2,2,0,0,1-2.1-1.9v-.2m3.5,0h0a1.35,1.35,0,0,0-1.3-1.4h0a1.37,1.37,0,0,0-1.4,1.4v.1h0a1.37,1.37,0,0,0,1.3,1.5h.1a1.37,1.37,0,0,0,1.4-1.4c-.1-.1-.1-.1-.1-.2m-1.7-3.2h.6l.7.8h-.6l-.4-.4-.4.4H192Zm1.6-.7.6.3-.7.7h-.5Z"/><polygon class="cls-2" points="642.59 148.31 641.39 148.31 641.39 147.61 644.59 147.61 644.59 148.31 643.29 148.31 643.29 151.61 642.59 151.61 642.59 148.31"/><path class="cls-2" d="M645.09,147.61h1.8a1.92,1.92,0,0,1,1.2.4,1.22,1.22,0,0,1,.3.9h0a1.19,1.19,0,0,1-1,1.2l1.1,1.5h-.8l-1-1.4h-.9v1.4H645Zm1.7,2a.71.71,0,0,0,.8-.7h0a.71.71,0,0,0-.8-.7h-1v1.4Z"/><path class="cls-2" d="M648.89,149.91v-2.3h.7v2.3c0,.8.4,1.1,1,1.1a1,1,0,0,0,1-1.1v-2.3h.7v2.3a1.59,1.59,0,0,1-1.4,1.8h-.4a1.58,1.58,0,0,1-1.7-1.5.37.37,0,0,1,.1-.3"/><polygon class="cls-2" points="652.99 147.61 653.69 147.61 655.79 150.41 655.79 147.61 656.49 147.61 656.49 151.61 655.89 151.61 653.69 148.81 653.69 151.61 652.99 151.61 652.99 147.61"/><path class="cls-2" d="M657.09,149.61h0a2.08,2.08,0,0,1,1.9-2.1h.2a2.46,2.46,0,0,1,1.5.5l-.5.5a1.19,1.19,0,0,0-1.1-.4,1.34,1.34,0,0,0-1.3,1.4h0a1.34,1.34,0,0,0,1.3,1.4h.1a1.69,1.69,0,0,0,1-.3v-.8h-1v-.6h1.7v1.7a2.72,2.72,0,0,1-1.7.6,2,2,0,0,1-2.1-1.9h0"/><polygon class="cls-2" points="663.89 148.31 662.59 148.31 662.59 147.61 665.89 147.61 665.89 148.31 664.59 148.31 664.59 151.61 663.89 151.61 663.89 148.31"/><path class="cls-2" d="M667.79,147.61h.7l1.8,4h-.8l-.4-1h-1.9l-.4,1H666Zm0-1.2h.7l.7.8h-.5l-.5-.4-.4.4h-.5Zm1,3.6-.7-1.6-.7,1.6Z"/><polygon class="cls-2" points="670.59 147.61 671.29 147.61 672.49 149.51 673.79 147.61 674.49 147.61 674.49 151.61 673.79 151.61 673.79 148.71 672.49 150.61 672.49 150.61 671.29 148.81 671.29 151.61 670.59 151.61 670.59 147.61"/><polygon class="cls-2" points="676.39 147.61 677.19 147.61 678.39 150.71 679.59 147.61 680.29 147.61 678.69 151.61 677.99 151.61 676.39 147.61"/><path class="cls-2" d="M682.19,147.61h.7l1.8,4h-.8l-.4-1h-1.9l-.4,1h-.7Zm-.7-1.2h.5c.1.2.3.4.5.3a.55.55,0,0,0,.5-.3h.5a.85.85,0,0,1-1,.8h0a.89.89,0,0,1-1-.8h0m1.7,3.6-.7-1.6-.7,1.6Z"/><polygon class="cls-2" points="684.99 147.61 685.59 147.61 687.79 150.41 687.79 147.61 688.49 147.61 688.49 151.61 687.89 151.61 685.69 148.81 685.69 151.61 684.99 151.61 684.99 147.61"/><polygon class="cls-2" points="690.69 147.61 691.39 147.61 691.39 149.31 693.29 149.31 693.29 147.61 693.99 147.61 693.99 151.61 693.29 151.61 693.29 149.91 691.39 149.91 691.39 151.61 690.69 151.61 690.69 147.61"/><path class="cls-2" d="M694.49,149.61h0a2.09,2.09,0,0,1,2-2.1h.1a2,2,0,0,1,2.1,1.9v.2h0a2.18,2.18,0,0,1-2.2,2,2.24,2.24,0,0,1-2-2m3.5,0h0a1.35,1.35,0,0,0-1.3-1.4h-.1a1.42,1.42,0,0,0-1.4,1.3v.1h0a1.4,1.4,0,0,0,2.8,0h0"/><path class="cls-2" d="M700.79,147.61h.7l1.8,4h-.7l-.4-1h-1.9l-.4,1H699Zm1,2.4-.7-1.6-.7,1.6Zm-.5-3.7.6.3-.7.7h-.5Z"/><path class="cls-2" d="M503,250.91h0a.87.87,0,0,1,.6-.8.75.75,0,0,1-.5-.7h0a1.23,1.23,0,0,1,1.4-.8,1.09,1.09,0,0,1,.8.8h0a.75.75,0,0,1-.5.7.76.76,0,0,1,.6.8h0c0,.5-.5.9-1.2.9s-1.2-.4-1.2-.9m2,0h0c0-.3-.4-.6-.8-.6s-.8.2-.8.6h0c0,.3.3.6.8.6s.8-.3.8-.6m-.1-1.5h0c0-.3-.3-.5-.7-.5s-.7.2-.7.5h0a.67.67,0,0,0,.7.6h0a.67.67,0,0,0,.7-.6"/><polygon class="cls-2" points="469.49 228.91 468.29 228.91 468.29 228.31 471.49 228.31 471.49 228.91 470.29 228.91 470.29 232.31 469.49 232.31 469.49 228.91"/><path class="cls-2" d="M472,228.31h1.8a1.92,1.92,0,0,1,1.2.4,1.22,1.22,0,0,1,.3.9h0a1.19,1.19,0,0,1-1,1.2l1.1,1.5h-.8l-1-1.4h-.9v1.4H472Zm1.7,2a.71.71,0,0,0,.8-.7h0a.71.71,0,0,0-.8-.7h-1v1.4Z"/><path class="cls-2" d="M475.79,230.61v-2.3h.7v2.3c0,.8.4,1.1,1,1.1a1,1,0,0,0,1-1.1v-2.3h.7v2.3a1.59,1.59,0,0,1-1.4,1.8h-.3a1.58,1.58,0,0,1-1.7-1.5.19.19,0,0,1,0-.3"/><polygon class="cls-2" points="479.89 228.31 480.59 228.31 482.69 231.01 482.69 228.31 483.39 228.31 483.39 232.31 482.79 232.31 480.59 229.41 480.59 232.31 479.89 232.31 479.89 228.31"/><path class="cls-2" d="M484,230.31h0a2.08,2.08,0,0,1,1.9-2.1h.2a2.46,2.46,0,0,1,1.5.5l-.5.5a1.5,1.5,0,0,0-1.1-.4,1.42,1.42,0,0,0-1.3,1.4h0a1.33,1.33,0,0,0,1.2,1.4h.1a1.69,1.69,0,0,0,1-.3v-.8h-1v-.6h1.7v1.7a2.72,2.72,0,0,1-1.7.6,2.08,2.08,0,0,1-2.1-1.9c.2.1.2,0,.1,0"/><polygon class="cls-2" points="490.79 228.91 489.49 228.91 489.49 228.31 492.79 228.31 492.79 228.91 491.49 228.91 491.49 232.31 490.79 232.31 490.79 228.91"/><path class="cls-2" d="M494.69,228.21h.6l1.8,4.1h-.7l-.4-1h-2l-.4,1h-.7Zm0-1.2h.6l.7.9h-.5l-.5-.4-.4.4H494Zm1,3.6L495,229l-.7,1.6Z"/><polygon class="cls-2" points="497.49 228.31 498.19 228.31 499.49 230.21 500.69 228.31 501.39 228.31 501.39 232.31 500.69 232.31 500.69 229.41 499.49 231.31 499.39 231.31 498.19 229.41 498.19 232.31 497.49 232.31 497.49 228.31"/><polygon class="cls-2" points="503.29 228.31 503.99 228.31 505.29 231.41 506.49 228.31 507.19 228.31 505.59 232.31 504.89 232.31 503.29 228.31"/><path class="cls-2" d="M509.09,228.21h.6l1.8,4.1h-.8l-.4-1h-1.9l-.4,1h-.7Zm-.7-1.2h.5a.52.52,0,0,0,.7.3l.3-.3h.5a1,1,0,0,1-2,0m1.6,3.7-.7-1.6-.7,1.6Z"/><polygon class="cls-2" points="511.89 228.31 512.49 228.31 514.69 231.01 514.69 228.31 515.39 228.31 515.39 232.31 514.79 232.31 512.59 229.41 512.59 232.31 511.89 232.31 511.89 228.31"/><polygon class="cls-2" points="517.59 228.31 518.29 228.31 518.29 229.91 520.19 229.91 520.19 228.31 520.89 228.31 520.89 232.31 520.19 232.31 520.19 230.61 518.29 230.61 518.29 232.31 517.59 232.31 517.59 228.31"/><path class="cls-2" d="M521.49,230.31h0a2.09,2.09,0,0,1,2-2.1h.1a2,2,0,0,1,2.1,1.9v.2h0a2.05,2.05,0,0,1-2.1,2.1,2.11,2.11,0,0,1-2.1-2.1h0m3.4,0h0a1.4,1.4,0,0,0-2.8,0h0a1.37,1.37,0,0,0,1.4,1.4,1.43,1.43,0,0,0,1.4-1.4h0"/><path class="cls-2" d="M527.69,228.21h.7l1.8,4.1h-.8l-.4-1h-2l-.4,1h-.7Zm1,2.4L528,229l-.7,1.6Zm-.5-3.7.6.3-.7.7h-.5Z"/><polygon class="cls-2" points="122.79 298.81 123.39 298.81 125.59 301.61 125.59 298.81 126.19 298.81 126.19 302.91 125.69 302.91 123.39 300.01 123.39 302.91 122.79 302.91 122.79 298.81"/><polygon class="cls-2" points="126.99 298.81 127.69 298.81 127.69 300.51 129.59 300.51 129.59 298.81 130.29 298.81 130.29 302.91 129.59 302.91 129.59 301.21 127.69 301.21 127.69 302.91 126.99 302.91 126.99 298.81"/><path class="cls-2" d="M132.49,298.81h.6l1.8,4h-.7l-.4-1h-1.9l-.4,1h-.7Zm-.6-1,.6-.3.6.9h-.5Zm1.6,3.5-.7-1.6-.7,1.6Z"/><polygon class="cls-2" points="137.69 299.51 136.49 299.51 136.49 298.81 139.69 298.81 139.69 299.51 138.49 299.51 138.49 302.91 137.69 302.91 137.69 299.51"/><path class="cls-2" d="M140.19,298.81H142a1.92,1.92,0,0,1,1.2.4,1.22,1.22,0,0,1,.3.9h0a1.2,1.2,0,0,1-.9,1.2l1.1,1.5h-.8l-1-1.4H141v1.4h-.7Zm1.7,2a.71.71,0,0,0,.8-.7h0a.71.71,0,0,0-.8-.7h-1v1.4Z"/><rect class="cls-2" x="144.09" y="298.81" width="0.7" height="4"/><path class="cls-2" d="M145.59,298.81h3v.6h-2.3v1h2v.7h-2v1h2.3v.6h-3Zm1.2-1.1h.6l.7.9h-.6l-.4-.4-.4.4h-.5Zm1.1-.2c.2,0,.4-.1.4-.3a.35.35,0,0,0-.1-.2h0a.22.22,0,0,0-.2.2l-.4-.2a.63.63,0,0,1,.6-.5.58.58,0,0,1,.6.6h0a.68.68,0,0,1-.4.6v.2H148Z"/><polygon class="cls-2" points="149.09 298.81 149.79 298.81 151.89 301.61 151.89 298.81 152.59 298.81 152.59 302.91 152.09 302.91 149.79 300.01 149.79 302.91 149.09 302.91 149.09 298.81"/><polygon class="cls-2" points="154.79 298.81 155.49 298.81 155.49 302.21 157.59 302.21 157.59 302.91 154.79 302.91 154.79 298.81"/><path class="cls-2" d="M159.49,298.81h.6l1.8,4h-.8l-.4-1h-1.9l-.4,1h-.7Zm-.7-.4c.1-.5.3-.7.6-.7s.6.2.8.2.2-.1.3-.3l.4.1c-.1.5-.3.7-.6.7s-.6-.2-.8-.2-.2.1-.3.3Zm1.7,2.9-.7-1.6-.7,1.6Z"/><polygon class="cls-2" points="162.29 298.81 163.09 298.81 164.29 300.71 165.49 298.81 166.29 298.81 166.29 302.91 165.59 302.91 165.59 300.01 164.29 301.91 164.29 301.91 162.99 300.01 162.99 302.91 162.29 302.91 162.29 298.81"/><polygon class="cls-2" points="169.49 299.51 168.19 299.51 168.19 298.81 171.39 298.81 171.39 299.51 170.19 299.51 170.19 302.91 169.49 302.91 169.49 299.51"/><polygon class="cls-2" points="171.89 298.81 172.59 298.81 172.59 300.51 174.49 300.51 174.49 298.81 175.19 298.81 175.19 302.91 174.49 302.91 174.49 301.21 172.59 301.21 172.59 302.91 171.89 302.91 171.89 298.81"/><path class="cls-2" d="M175.89,301.21v-2.3h.7v2.3c0,.8.4,1.1,1,1.1a1,1,0,0,0,1-1.1v-2.3h.7v2.3a1.7,1.7,0,0,1-3.4,0m1.6-3.2c.2,0,.4-.1.4-.3s-.1-.2-.2-.1h0a.22.22,0,0,0-.2.2l-.4-.2a.63.63,0,0,1,.6-.5.58.58,0,0,1,.6.6h0a.68.68,0,0,1-.4.6v.2h-.3Z"/><polygon class="cls-2" points="182.49 299.51 181.19 299.51 181.19 298.81 184.39 298.81 184.39 299.51 183.19 299.51 183.19 302.91 182.49 302.91 182.49 299.51"/><polygon class="cls-2" points="184.89 298.81 185.59 298.81 185.59 300.51 187.49 300.51 187.49 298.81 188.19 298.81 188.19 302.91 187.49 302.91 187.49 301.21 185.59 301.21 185.59 302.91 184.89 302.91 184.89 298.81"/><rect class="cls-2" x="188.99" y="298.81" width="0.7" height="4"/><path class="cls-2" d="M190.49,298.81h3v.6h-2.3v1h2v.7h-2v1h2.3v.6h-3Zm1.2-1.1h.6l.7.9h-.6l-.4-.4-.4.4H191Z"/><polygon class="cls-2" points="194.09 298.81 194.79 298.81 195.99 300.71 197.29 298.81 197.99 298.81 197.99 302.91 197.29 302.91 197.29 300.01 195.99 301.91 195.99 301.91 194.79 300.01 194.79 302.91 194.09 302.91 194.09 298.81"/><path class="cls-2" d="M439.19,317.71H441a1.28,1.28,0,0,1,1,.4.91.91,0,0,1,.3.7h0a1,1,0,0,1-.6.9,1,1,0,0,1,.8,1h0c0,.7-.6,1.1-1.5,1.1h-1.9Zm1.7,1.7c.5,0,.8-.2.8-.5h0c0-.3-.2-.5-.7-.5h-1v1.1Zm.2,1.7c.5,0,.8-.2.8-.6h0c0-.3-.3-.5-.8-.5H440v1.1Z"/><path class="cls-2" d="M439.19,317.71H441a1.28,1.28,0,0,1,1,.4.91.91,0,0,1,.3.7h0a1,1,0,0,0-.5,1.3.75.75,0,0,0,.7.5h0c0,.7-.6,1.1-1.5,1.1h-1.9Zm1.7,1.7c.5,0,.8-.2.8-.5h0c0-.3-.2-.5-.7-.5h-1v1.1Zm.2,1.7c.5,0,.8-.2.8-.5h0c0-.4-.3-.5-.8-.5H440v1.1Z"/><path class="cls-2" d="M444.49,317.71h.6l1.8,4h-.8l-.4-1h-1.9l-.4,1h-.7Zm1,2.5-.7-1.6-.7,1.6Zm-.9-3.3c.2,0,.4-.1.4-.3s-.1-.2-.2-.1h0c-.1,0-.2,0-.2.2l-.4-.2a.74.74,0,0,1,.6-.5.58.58,0,0,1,.6.6h0a.68.68,0,0,1-.4.6v.2h-.3Z"/><path class="cls-2" d="M447.19,319.81h0a2.11,2.11,0,0,1,2.1-2.1h.1a2,2,0,0,1,2.1,1.9v.2h0a2.11,2.11,0,0,1-2.1,2.1h-.1a2,2,0,0,1-2.1-1.9v-.2m3.4,0h0a1.35,1.35,0,0,0-1.3-1.4h0a1.37,1.37,0,0,0-1.4,1.4v.1h0a1.35,1.35,0,0,0,1.3,1.4h0a1.52,1.52,0,0,0,1.4-1.5h0"/><polygon class="cls-2" points="454.39 318.41 453.09 318.41 453.09 317.71 456.29 317.71 456.29 318.41 455.09 318.41 455.09 321.81 454.39 321.81 454.39 318.41"/><path class="cls-2" d="M458.19,317.71h.7l1.8,4h-.8l-.4-1h-1.9l-.4,1h-.7Zm-.6-1,.6-.3.6,1h-.5Zm1.6,3.5-.7-1.6-.7,1.6Z"/><polygon class="cls-2" points="460.99 317.71 461.69 317.71 463.89 320.51 463.89 317.71 464.49 317.71 464.49 321.81 463.99 321.81 461.69 318.91 461.69 321.81 460.99 321.81 460.99 317.71"/><path class="cls-2" d="M465.09,319.81h0a2.08,2.08,0,0,1,1.9-2.1h.2a2.46,2.46,0,0,1,1.5.5l-.4.5a1.5,1.5,0,0,0-1.1-.4,1.42,1.42,0,0,0-1.3,1.4h0a1.33,1.33,0,0,0,1.2,1.4h.1a1.69,1.69,0,0,0,1-.3V320h-1v-.6h1.7v1.7a2.72,2.72,0,0,1-1.7.6,2.08,2.08,0,0,1-2.1-1.9c.1.1.1,0,0,0"/><polygon class="cls-2" points="471.89 318.41 470.59 318.41 470.59 317.71 473.89 317.71 473.89 318.41 472.59 318.41 472.59 321.81 471.89 321.81 471.89 318.41"/><polygon class="cls-2" points="474.39 317.71 475.09 317.71 475.09 319.41 476.99 319.41 476.99 317.71 477.69 317.71 477.69 321.81 476.99 321.81 476.99 320.11 475.09 320.11 475.09 321.81 474.39 321.81 474.39 317.71"/><rect class="cls-2" x="478.49" y="317.71" width="0.7" height="4"/><path class="cls-2" d="M480,317.71h3v.6h-2.3v1h2v.6h-2V321H483v.6h-3Zm1.2-1.1h.6l.7.8H482l-.4-.4-.5.4h-.5Zm1.6-.8.6.3-.7.7h-.5Z"/><path class="cls-2" d="M483.49,320.11v-2.3h.7v2.3c0,.8.4,1.1,1,1.1a1,1,0,0,0,1-1.1v-2.3h.7v2.3a1.59,1.59,0,0,1-1.4,1.8h-.3a1.58,1.58,0,0,1-1.7-1.5.19.19,0,0,1,0-.3"/><polygon class="cls-2" points="488.99 317.71 489.69 317.71 491.79 320.51 491.79 317.71 492.49 317.71 492.49 321.81 491.89 321.81 489.69 318.91 489.69 321.81 488.99 321.81 488.99 317.71"/><polygon class="cls-2" points="493.29 317.71 493.99 317.71 493.99 319.41 495.89 319.41 495.89 317.71 496.59 317.71 496.59 321.81 495.89 321.81 495.89 320.11 493.99 320.11 493.99 321.81 493.29 321.81 493.29 317.71"/><rect class="cls-2" x="497.39" y="317.71" width="0.7" height="4"/></g></svg>