<svg id="Layer_1" data-name="Layer 1" xmlns="http://www.w3.org/2000/svg" viewBox="0 0 913 614.91"><defs><style>.cls-1{fill:#455981;}.cls-2{fill:#fff;}</style></defs><g id="Layer_2" data-name="Layer 2"><path class="cls-1" d="M251.19,264.41h-8.4c-.2,0-.3-.1-.3-.2a.6.6,0,0,1,.1-.4l4.2-2.6a.3.3,0,0,1,.4,0l4.2,2.6c.1.1.2.2.2.3a.45.45,0,0,1-.4.3m-7.2-.7h6l-3-1.8Z"/><path class="cls-1" d="M256,273.51h-.9l-.6-1.1v-5.7l.6-1h1a.32.32,0,0,0,.3-.3c0-.1-.1-.3-.2-.3l-8.8-5.4v-.3h3.7c.1,0,.3-.1.3-.2a.6.6,0,0,0-.1-.4l-.8-.8.8-.8a.45.45,0,0,0,0-.5.37.37,0,0,0-.3-.1h-4a.45.45,0,0,0-.4.3h0v2.7l-8.8,5.4c-.1.1-.2.2-.1.4s.2.3.3.2h1l.6,1v5.8l-.6,1.1h-1a.32.32,0,0,0-.3.3v1.5a.32.32,0,0,0,.3.3h18c.2,0,.3-.2.4-.3v-1.5c-.1-.1-.2-.3-.4-.3m-8.6-16.2h2.9l-.5.4a.31.31,0,0,0-.1.2c0,.1,0,.2.1.2l.5.4h-2.9Zm-8.2,7.7,7.8-4.8,7.8,4.8Zm13.7,1.2-.3-.6h1.7l-.3.6Zm.9,5.9H253v-5.3h.8Zm-.9.7h1l.3.6h-1.7Zm-6.4.7-.6-1v-5.8l.6-1h1l.6,1v5.8l-.6,1.1Zm-2-6.6h.8v5.3h-.8Zm.9-.7h-1l-.3-.6h1.7Zm-1,6.7h1l.3.6H244Zm5.6.5h-1.7l.3-.6h1.1Zm-.5-1.2h-.8v-5.3h.8Zm.1-5.9h-1l-.3-.6H250Zm1.2,7.2-.6-1.1v-5.7l.6-1h1l.6,1v5.8l-.6,1.1Zm-9.8-1.3h-.8v-5.3h.8Zm.1-5.9h-1l-.3-.6h1.7Zm-1,6.6h1l.3.6h-1.7Zm1.6-.5v-5.7l.6-1h1l.6,1v5.9l-.6,1h-.9Zm14,2.6h-17.4v-.8h17.3Z"/><path class="cls-1" d="M245.49,275.61h-5.6a.5.5,0,0,1,0-1h5.6a.47.47,0,0,1,.5.5c-.1.3-.3.5-.5.5"/><path class="cls-1" d="M247.39,275.61a.47.47,0,0,1-.5-.5.46.46,0,0,1,.4-.5h0a.47.47,0,0,1,.5.5.46.46,0,0,1-.4.5"/><path class="cls-1" d="M249.19,275.61a.47.47,0,0,1-.5-.5.46.46,0,0,1,.4-.5h0a.47.47,0,0,1,.5.5c.1.3-.1.5-.4.5"/><path class="cls-2" d="M402,315.11h-.6a2.1,2.1,0,0,0,.8-1.1c.3-1.6-1.6-3.3-1.8-3.5h0l-.1-.1H400c-.2.2-2.1,2-1.8,3.5a1.55,1.55,0,0,0,.8,1.1h-.6a.27.27,0,0,0-.3.3v.9H397v-2a.27.27,0,0,0-.3-.3h-1.4a2.83,2.83,0,0,0,1.4-1.8c.5-2.3-2.4-4.9-2.6-5.1h0l-.1-.1h-.1c-.1,0-.1,0-.2.1h0c-.3.3-3.1,2.9-2.6,5.1a3.1,3.1,0,0,0,1.4,1.8h-1.4a.27.27,0,0,0-.3.3v2h-1.1v-.9a.27.27,0,0,0-.3-.3h-.6a2.1,2.1,0,0,0,.8-1.1c.3-1.6-1.6-3.3-1.8-3.5h0l-.1-.1h-.2c-.2.2-2.1,2-1.8,3.5a1.55,1.55,0,0,0,.8,1.1h-.6a.27.27,0,0,0-.3.3v7a.27.27,0,0,0,.3.3H402a.27.27,0,0,0,.3-.3v-7a.27.27,0,0,0-.3-.3"/><path class="cls-1" d="M394,307h0l-.1-.1h-.1c-.1,0-.1,0-.2.1h0c-.3.3-3.1,2.9-2.6,5.1.2,1.1,1.2,1.9,2.8,2.4h.2c1.6-.5,2.6-1.3,2.8-2.4.4-2.2-2.5-4.8-2.8-5.1m-2.5,5c-.3-1.2.7-2.6,1.5-3.6-.9,3.3.2,5,.5,5.4a2.82,2.82,0,0,1-2-1.8m4.6,0a2.64,2.64,0,0,1-2,1.8c.1-.1.1-.2,0-.4,0,0-1.5-1.8-.1-5.7.7.8,2.4,2.7,2.1,4.3"/><path class="cls-1" d="M387.59,310.41h0l-.2-.1h-.1c-.2.2-2.1,2-1.8,3.5.2.8.8,1.3,1.9,1.7h.2c1.1-.3,1.8-.9,1.9-1.7.3-1.6-1.6-3.3-1.8-3.5m-1.7,3.5a3.23,3.23,0,0,1,.8-2.1,6.51,6.51,0,0,0,.1,3.1,1.32,1.32,0,0,1-.9-1m2.8,0c-.1.5-.5.8-1.1,1.1h0s-.8-1.1-.1-3.6a3.17,3.17,0,0,1,1.2,2.5"/><path class="cls-1" d="M400.39,310.41h0l-.2-.1H400c-.2.2-2.1,2-1.8,3.5.2.8.8,1.3,1.9,1.7h.2c1.1-.3,1.8-.9,1.9-1.7.3-1.6-1.6-3.3-1.8-3.5m-1.5,3.5a3.23,3.23,0,0,1,.8-2.1,5.09,5.09,0,0,0,.1,3,1.35,1.35,0,0,1-.9-.9m2.8,0a2,2,0,0,1-1.1,1.1h0s-.8-1.1-.1-3.6a3,3,0,0,1,1.2,2.5"/><rect class="cls-1" x="389.39" y="316.21" width="1.1" height="0.6"/><path class="cls-1" d="M390.59,322.41v-.3h-1.1v.3a.27.27,0,0,1-.3.3h-3.5a.27.27,0,0,1-.3-.3.27.27,0,0,0,.3.3h5.2a.27.27,0,0,1-.3-.3"/><path class="cls-1" d="M402,322.71h-3.5a.27.27,0,0,1-.3-.3v-.3H397v.3a.27.27,0,0,1-.3.3H402a.27.27,0,0,0,.3-.3.27.27,0,0,1-.3.3"/><rect class="cls-1" x="396.99" y="316.21" width="1.1" height="0.6"/><path class="cls-1" d="M396.69,322.71h-5.8a.27.27,0,0,1-.3-.3v-8.2a.27.27,0,0,1,.3-.3h5.8a.27.27,0,0,1,.3.3v8.2a.32.32,0,0,1-.3.3m-5.5-.6h5.2v-7.5h-5.2Z"/><path class="cls-1" d="M389.09,322.71h-3.5a.27.27,0,0,1-.3-.3v-7a.27.27,0,0,1,.3-.3h3.5a.27.27,0,0,1,.3.3v7a.27.27,0,0,1-.3.3m-3.2-.6h2.9v-6.4h-2.9Z"/><path class="cls-1" d="M402,322.71h-3.5a.27.27,0,0,1-.3-.3v-7a.27.27,0,0,1,.3-.3H402a.27.27,0,0,1,.3.3v7a.27.27,0,0,1-.3.3m-3.2-.6h2.9v-6.4h-2.9Z"/><path class="cls-1" d="M393.79,316.21h0a2,2,0,0,0-2,2v4.2a.27.27,0,0,0,.3.3h3.3a.27.27,0,0,0,.3-.3v-4.2a2,2,0,0,0-1.9-2m-1.4,2a1.3,1.3,0,0,1,1-1.3v5.2h-1Zm2.7,3.9h-1v-5.2a1.3,1.3,0,0,1,1,1.3Z"/><path class="cls-1" d="M400.59,316.61a.4.4,0,1,1-.4-.4.37.37,0,0,1,.4.4h0"/><path class="cls-1" d="M387.79,316.61a.43.43,0,0,1-.4.4.55.55,0,0,1-.5-.3c-.1-.2.1-.4.3-.5h.1c.3-.1.5.1.5.4h0"/><path class="cls-1" d="M400.59,318a.4.4,0,1,1-.4-.4.43.43,0,0,1,.4.4h0"/><path class="cls-1" d="M387.79,318a.43.43,0,0,1-.4.4.55.55,0,0,1-.5-.3c-.1-.2.1-.4.3-.5h.1a.46.46,0,0,1,.5.4h0"/><path class="cls-1" d="M400.19,316.21a.4.4,0,1,0,.4.4.43.43,0,0,0-.4-.4h0"/><path class="cls-1" d="M387.39,316.21a.55.55,0,0,0-.5.3c-.1.2.1.4.3.5h.1a.35.35,0,0,0,.3-.5c.1-.1-.1-.3-.2-.3"/><path class="cls-1" d="M400.19,317.61a.4.4,0,1,0,.4.4.43.43,0,0,0-.4-.4h0"/><path class="cls-1" d="M387.39,317.61a.55.55,0,0,0-.5.3c-.1.2.1.4.3.5h.1a.35.35,0,0,0,.3-.5c.1-.1-.1-.3-.2-.3"/><path class="cls-1" d="M469.39,401.91h-.1a7.94,7.94,0,0,1-5.3-9.8,8.24,8.24,0,0,1,5.3-5.3c.2-.1.3,0,.4.2h0c.1.2,0,.4-.2.4h0a7.21,7.21,0,0,0,0,13.8c.2.1.3.2.2.4a.32.32,0,0,1-.3.3"/><path class="cls-1" d="M468.69,387.51a2,2,0,0,1-1.1-.3c-.1-.1-.2-.2-.2-.3a2.24,2.24,0,0,1,.6-1.7,3.39,3.39,0,0,1,2.6-.4.22.22,0,0,1,.2.2v.3a3.22,3.22,0,0,1-1.5,2.1,1.27,1.27,0,0,1-.6.1m-.7-.8a1.18,1.18,0,0,0,1,.1.89.89,0,1,0-.6-1.1v.1a1.27,1.27,0,0,0-.4.9"/><path class="cls-1" d="M463.79,392.61h-.1a1.75,1.75,0,0,1-1.2-1.3,3.67,3.67,0,0,1,.7-2.5c.1-.1.1-.1.2-.1s.2,0,.2.1a3.38,3.38,0,0,1,1.3,2.2,1.86,1.86,0,0,1-.9,1.5.31.31,0,0,1-.2.1m-.4-3.1a2.28,2.28,0,0,0-.4,1.6,1,1,0,0,0,.7.7,1.05,1.05,0,0,0,.5-.9,2.25,2.25,0,0,0-.8-1.4"/><path class="cls-1" d="M463.89,398.41a2.35,2.35,0,0,1-.8-.2,3.16,3.16,0,0,1-1.3-2.2.37.37,0,0,1,.1-.3c.1-.1.1-.1.2-.1a2.83,2.83,0,0,1,2.5.6,2.16,2.16,0,0,1,.5,1.7c0,.1-.1.2-.2.3a1.8,1.8,0,0,1-1,.2Zm-1.4-2.1a2.43,2.43,0,0,0,.9,1.4,1.7,1.7,0,0,0,1,0,1.4,1.4,0,0,0-.3-.9,1.84,1.84,0,0,0-1.6-.5"/><path class="cls-1" d="M467.69,403.21a4,4,0,0,1-2.1-.9c-.1-.1-.1-.1-.1-.2s0-.2.1-.2a3,3,0,0,1,2.3-1.1,2,2,0,0,1,1.5,1,.19.19,0,0,1,0,.3,1.92,1.92,0,0,1-1.4,1.2.37.37,0,0,0-.3-.1m-1.4-1.2a2.1,2.1,0,0,0,1.5.5,1.56,1.56,0,0,0,.8-.6,1,1,0,0,0-.8-.5,1.83,1.83,0,0,0-1.5.6"/><path class="cls-1" d="M473.69,401.91c-.2,0-.3-.1-.4-.3s.1-.3.3-.4a7.21,7.21,0,0,0,0-13.8c-.2-.1-.3-.2-.2-.4s.2-.3.4-.2h0a7.86,7.86,0,0,1-.1,15.1h0"/><path class="cls-1" d="M474.39,387.51a1.27,1.27,0,0,1-.6-.1,3.22,3.22,0,0,1-1.5-2.1V385c0-.1.1-.1.2-.2a3.39,3.39,0,0,1,2.6.4,1.75,1.75,0,0,1,.6,1.7c0,.1-.1.2-.2.3a2.28,2.28,0,0,1-1.1.3Zm-1.4-2a2.56,2.56,0,0,0,1,1.3,1.18,1.18,0,0,0,1-.1,1.09,1.09,0,0,0-.4-.9,2.22,2.22,0,0,0-1.6-.3"/><path class="cls-1" d="M479.29,392.61c-.1,0-.1,0-.2-.1a1.86,1.86,0,0,1-.9-1.5,3.16,3.16,0,0,1,1.3-2.2.31.31,0,0,1,.2-.1.35.35,0,0,1,.2.1,3.22,3.22,0,0,1,.7,2.5,2,2,0,0,1-1.2,1.3c0-.1,0-.1-.1,0m.3-3.1a2.85,2.85,0,0,0-.8,1.4,1.19,1.19,0,0,0,.5.9,1.21,1.21,0,0,0,.7-.7,1.8,1.8,0,0,0-.4-1.6"/><path class="cls-1" d="M479.39,398.41a3.55,3.55,0,0,1-1-.2c-.1-.1-.2-.2-.2-.3a2.05,2.05,0,0,1,.5-1.7,3.61,3.61,0,0,1,2.5-.6.35.35,0,0,1,.2.1v.3a3.16,3.16,0,0,1-1.3,2.2,1,1,0,0,1-.7.2m-.6-.7a1.7,1.7,0,0,0,1,0,.86.86,0,1,0-.7-1v.1a1.22,1.22,0,0,0-.3.9"/><path class="cls-1" d="M475.39,403.21a1.84,1.84,0,0,1-1.7-1.2.19.19,0,0,1,0-.3,1.82,1.82,0,0,1,1.5-1,3.84,3.84,0,0,1,2.3,1.1.31.31,0,0,1,.1.2c0,.1,0,.2-.1.2a3.46,3.46,0,0,1-2.1,1m-1-1.3a1.24,1.24,0,0,0,.8.6.85.85,0,1,0,.1-1.2l-.1.1a1,1,0,0,0-.8.5"/><path class="cls-1" d="M475.39,403.21a1.84,1.84,0,0,1-1.7-1.2.19.19,0,0,1,0-.3,1.78,1.78,0,0,1,1.6-1,3.86,3.86,0,0,1,2.2,1.1.31.31,0,0,1,.1.2c0,.1,0,.2-.1.2a3.46,3.46,0,0,1-2.1,1m-1-1.3a1.1,1.1,0,0,0,1,.6,2.11,2.11,0,0,0,1.3-.5,2.67,2.67,0,0,0-1.4-.7,1.46,1.46,0,0,0-.9.6"/><path class="cls-1" d="M480.09,393.41l-8.4-2.4h-.2l-8.4,2.4c-.1,0-.2.2-.2.3s.1.3.2.3l8.4,2.4h.2l2.8-.8v3.5a.37.37,0,0,0-.1.3.45.45,0,0,0,.9-.1.37.37,0,0,0-.1-.3v-3.7l4.9-1.4c.1,0,.3-.2.2-.3s-.1-.2-.2-.2m-5.3,1.4-3.1-1.4a.38.38,0,0,0-.3.7h0l2.4,1.1-2.2.6-7.1-2,7.1-2,7.1,2Z"/><path class="cls-1" d="M476.79,395l-.7.2v1.1h0c0,.4-.4.7-1,1.1v.8c1-.5,1.7-1.1,1.7-1.8V395Z"/><path class="cls-1" d="M474.49,397.61a9.25,9.25,0,0,1-2.9.4c-2.7,0-4.6-.9-4.6-1.8v-1.1l-.7-.2v1.3c0,1.4,2.3,2.5,5.3,2.5a9.25,9.25,0,0,0,2.9-.4Z"/><path class="cls-1" d="M533.69,404.71h0a7.92,7.92,0,0,1-5.4-9.8,8.24,8.24,0,0,1,5.3-5.3c.2-.1.4,0,.4.2a.3.3,0,0,1-.2.4,7.21,7.21,0,0,0,0,13.8c.2.1.3.2.2.4h0c0,.3-.1.3-.3.3"/><path class="cls-1" d="M533,390.41a2,2,0,0,1-1.1-.3c-.1-.1-.2-.2-.2-.3a2.24,2.24,0,0,1,.6-1.7,3.39,3.39,0,0,1,2.6-.4.35.35,0,0,1,.2.1v.3a3.22,3.22,0,0,1-1.5,2.1.73.73,0,0,1-.6.2m-.6-.8a1.18,1.18,0,0,0,1,.1,2.56,2.56,0,0,0,1-1.3,2.22,2.22,0,0,0-1.6.3,1,1,0,0,0-.4.9"/><path class="cls-1" d="M528.09,395.41H528a1.75,1.75,0,0,1-1.2-1.3,3.67,3.67,0,0,1,.7-2.5c.1-.1.1-.1.2-.1s.2,0,.2.1a3.38,3.38,0,0,1,1.3,2.2,1.86,1.86,0,0,1-.9,1.5c0,.1-.1.2-.2.1m-.3-3a2.28,2.28,0,0,0-.4,1.6,1,1,0,0,0,.7.7,1.05,1.05,0,0,0,.5-.9,2.85,2.85,0,0,0-.8-1.4"/><path class="cls-1" d="M528.19,401.31a2.35,2.35,0,0,1-.8-.2,3.16,3.16,0,0,1-1.3-2.2c0-.1,0-.2.1-.2s.1-.1.2-.1a3.17,3.17,0,0,1,2.5.6,2.16,2.16,0,0,1,.5,1.7c0,.1-.1.2-.2.3-.3,0-.6.1-1,.1Zm-1.3-2.1a2.43,2.43,0,0,0,.9,1.4,1.7,1.7,0,0,0,1,0,1.4,1.4,0,0,0-.3-.9,2,2,0,0,0-1.6-.5"/><path class="cls-1" d="M532,406a4,4,0,0,1-2.1-.9c-.1-.1-.1-.1-.1-.2s0-.2.1-.2a3,3,0,0,1,2.3-1.1,2.26,2.26,0,0,1,1.5,1,.19.19,0,0,1,0,.3,2,2,0,0,1-1.3,1.2.76.76,0,0,0-.4-.1m-1.4-1.2a2.69,2.69,0,0,0,1.5.5,1.56,1.56,0,0,0,.8-.6,1,1,0,0,0-.8-.5,2.2,2.2,0,0,0-1.5.6"/><path class="cls-1" d="M538.09,404.71c-.1,0-.3-.1-.3-.2s0-.4.2-.4h0a7.2,7.2,0,0,0,4.9-8.9,7.11,7.11,0,0,0-4.9-4.9c-.2,0-.3-.2-.2-.4h0c.1-.2.2-.3.4-.2a7.94,7.94,0,0,1,5.3,9.8,8.24,8.24,0,0,1-5.3,5.3.1.1,0,0,0-.1-.1"/><path class="cls-1" d="M538.79,390.41a2,2,0,0,1-.7-.1,3.22,3.22,0,0,1-1.5-2.1v-.3c0-.1.1-.1.2-.1a3.39,3.39,0,0,1,2.6.4,1.75,1.75,0,0,1,.6,1.7c0,.1-.1.2-.2.3a3.55,3.55,0,0,1-1,.2m.9-.6Zm-2.4-1.5a2.56,2.56,0,0,0,1,1.3,1.18,1.18,0,0,0,1-.1,1.09,1.09,0,0,0-.4-.9,3.81,3.81,0,0,0-1.6-.3"/><path class="cls-1" d="M543.69,395.41c-.1,0-.1,0-.2-.1a1.86,1.86,0,0,1-.9-1.5,3.16,3.16,0,0,1,1.3-2.2.31.31,0,0,1,.2-.1.35.35,0,0,1,.2.1,3.22,3.22,0,0,1,.7,2.5,2.21,2.21,0,0,1-1.2,1.3h-.1m.3-3a2.75,2.75,0,0,0-.8,1.5.6.6,0,0,0,1.1.5.3.3,0,0,0,0-.4,1.77,1.77,0,0,0-.3-1.6"/><path class="cls-1" d="M543.79,401.31a3.55,3.55,0,0,1-1-.2c-.1,0-.2-.2-.2-.3a2.05,2.05,0,0,1,.5-1.7,3.61,3.61,0,0,1,2.5-.6.35.35,0,0,1,.2.1.31.31,0,0,1,.1.2,3.16,3.16,0,0,1-1.3,2.2,1,1,0,0,1-.8.3m-.6-.8a1.7,1.7,0,0,0,1,0,1.94,1.94,0,0,0,.9-1.4,2.28,2.28,0,0,0-1.6.4,1.93,1.93,0,0,0-.3,1"/><path class="cls-1" d="M539.79,406h-.3a1.75,1.75,0,0,1-1.3-1.2.19.19,0,0,1,0-.3,1.82,1.82,0,0,1,1.5-1,3.84,3.84,0,0,1,2.3,1.1.31.31,0,0,1,.1.2c0,.1,0,.2-.1.2a3.34,3.34,0,0,1-2.2,1m-1.1-1.3a1.24,1.24,0,0,0,.8.6,2,2,0,0,0,1.5-.5,2.63,2.63,0,0,0-1.5-.7,2.41,2.41,0,0,0-.8.6"/><path class="cls-1" d="M539.79,406a1.84,1.84,0,0,1-1.7-1.2.19.19,0,0,1,0-.3,1.78,1.78,0,0,1,1.6-1,3.86,3.86,0,0,1,2.2,1.1.31.31,0,0,1,.1.2c0,.1,0,.2-.1.2a3.41,3.41,0,0,1-2.1,1m-1.1-1.3a1.1,1.1,0,0,0,1,.6,2.11,2.11,0,0,0,1.3-.5,2.67,2.67,0,0,0-1.4-.7,2.36,2.36,0,0,0-.9.6"/><path class="cls-1" d="M544.39,396.21l-8.4-2.3h-.2l-8.4,2.4c-.2.1-.3.3-.2.4a.22.22,0,0,0,.2.2l8.4,2.4h.2l2.8-.8V402a.37.37,0,0,0-.1.3.54.54,0,0,0,.5.5.47.47,0,0,0,.5-.5.37.37,0,0,0-.1-.3v-3.7l4.9-1.4c.2-.1.3-.3.2-.4l-.3-.3m-5.2,1.5-3.1-1.4a.38.38,0,0,0-.3.7l2.4,1.1-2.2.6-7.2-2,7.2-2,7.2,2Z"/><path class="cls-1" d="M541.19,397.81l-.7.2v1.1h0c0,.4-.4.8-1,1.1v.8c1-.4,1.7-1.1,1.7-1.8v-1.4Z"/><path class="cls-1" d="M538.79,400.51a9.25,9.25,0,0,1-2.9.4c-2.7,0-4.6-.9-4.6-1.8V398l-.7-.2v1.3c0,1.4,2.3,2.5,5.3,2.5a9.25,9.25,0,0,0,2.9-.4Z"/><polygon class="cls-2" points="410.99 290.51 410.39 290.71 410.29 290.41 411.09 290.11 411.29 290.11 411.29 293.31 410.99 293.31 410.99 290.51"/><polygon class="cls-2" points="394.49 326.31 392.79 326.31 392.79 326.01 394.89 326.01 394.89 326.31 393.49 329.11 393.09 329.11 394.49 326.31"/><path class="cls-1" d="M345.69,164.31a.71.71,0,0,0-.8-.7h-.6l-5.9-3.3h-.2l-5.4,3.3h-1.1a.85.85,0,0,0-.8.7c0,.4.3.7.8.8h.4a1,1,0,0,0,.4,1.2.1.1,0,0,1,.1.1v3.2a.86.86,0,0,0-.6,1.1.1.1,0,0,0,.1.1h-.3a1,1,0,0,0-.9.8v.5a.9.9,0,0,0,.9.9h3.5a.88.88,0,0,0,.9-.8h0v-.5a.6.6,0,0,0-.1-.4h4.5c-.1.1-.1.2-.1.4v.5a.9.9,0,0,0,.9.9h3.5a.88.88,0,0,0,.9-.8h0v-.5a.82.82,0,0,0-.9-.8h-.3a.6.6,0,0,0,.1-.4.87.87,0,0,0-.6-.8v-3.6a.76.76,0,0,0,.6-.8.6.6,0,0,0-.1-.4h.4a.68.68,0,0,0,.7-.7m-7.3-3.6,5,2.8h-9.6Zm-5.9,4.7a.43.43,0,0,1,.4-.4h1.4c.2,0,.4.2.3.4a.32.32,0,0,1-.3.3h-1.4c-.2.1-.4-.1-.4-.3h0m1.6,4h-.9v-3.2h.9Zm-1.2.4h1.4a.4.4,0,0,1,0,.8h-1.4a.43.43,0,0,1-.4-.4h0a.43.43,0,0,1,.4-.4h0m2.9,2.2a.43.43,0,0,1-.4.4h-3.5a.43.43,0,0,1-.4-.4h0v-.5a.43.43,0,0,1,.4-.4h3.5a.43.43,0,0,1,.4.4h0Zm1.1-1.4h-1.8a.6.6,0,0,0,.1-.4.87.87,0,0,0-.6-.8v-3.2a.76.76,0,0,0,.6-.8.6.6,0,0,0-.1-.4h1.8a1,1,0,0,0,.4,1.2.1.1,0,0,1,.1.1v3.2a.86.86,0,0,0-.6,1.1c.1-.1.1,0,.1,0m.8-4.8c-.2,0-.4-.2-.3-.4a.32.32,0,0,1,.3-.3h1.4c.2,0,.4.2.3.4a.32.32,0,0,1-.3.3Zm1.1,3.6h-.9v-3.2h.9Zm.3,1.2h-1.4a.43.43,0,0,1-.4-.4h0a.43.43,0,0,1,.4-.4h1.4a.43.43,0,0,1,.4.4c-.1.2-.2.4-.4.4m.7,0a.6.6,0,0,0,.1-.4.87.87,0,0,0-.6-.8v-3.2a.76.76,0,0,0,.6-.8.6.6,0,0,0-.1-.4h1.8a1,1,0,0,0,.4,1.2.1.1,0,0,1,.1.1v3.2a.86.86,0,0,0-.6,1.1.1.1,0,0,0,.1.1h-1.8Zm5,.5a.43.43,0,0,1,.4.4h0v.5a.43.43,0,0,1-.4.4h-3.5a.43.43,0,0,1-.4-.4h0v-.5a.43.43,0,0,1,.4-.4h3.5Zm-.7-.9a.43.43,0,0,1-.4.4h-1.4a.43.43,0,0,1-.4-.4h0a.43.43,0,0,1,.4-.4h1.4a.37.37,0,0,1,.4.4h0m-1.5-4h.9v3.1h-.9Zm1.2-.4h-1.4c-.2,0-.4-.2-.3-.4a.32.32,0,0,1,.3-.3h1.4c.2,0,.4.2.3.4s-.2.2-.3.3m0-1.3h-12c-.2,0-.3-.1-.3-.2s.1-.3.2-.3H345c.2,0,.3.1.3.2s-.1.3-.2.3h-1.3Z"/><path class="cls-1" d="M339.69,172.41H337a.22.22,0,0,0-.2.2h0a.22.22,0,0,0,.2.2h2.8a.22.22,0,0,0,.2-.2h0c0-.1-.1-.2-.3-.2h0"/><path class="cls-1" d="M339.29,172a.2.2,0,0,0,0-.4h-1.8a.22.22,0,0,0-.2.2h0a.22.22,0,0,0,.2.2h1.8Z"/><path class="cls-1" d="M338.39,161.41a.9.9,0,1,0,.9.9h0a.9.9,0,0,0-.9-.9h0m0,1.3a.4.4,0,1,1,.4-.4h0a.43.43,0,0,1-.4.4"/><polygon class="cls-2" points="343.59 184.11 342.99 184.21 342.89 184.01 343.69 183.71 343.99 183.71 343.99 186.81 343.59 186.81 343.59 184.11"/><path class="cls-1" d="M427.39,225.81a1.4,1.4,0,1,1,1.4-1.4h0a1.37,1.37,0,0,1-1.4,1.4m0-2.2a.8.8,0,1,0,.8.8h0c-.1-.4-.4-.8-.8-.8h0"/><path class="cls-1" d="M419.89,235a1.4,1.4,0,1,1,1.4-1.4h0a1.59,1.59,0,0,1-1.4,1.4m0-2.2a.81.81,0,0,0-.2,1.6h.2a.81.81,0,0,0,.7-.9.84.84,0,0,0-.7-.7"/><path class="cls-1" d="M427.39,235a1.4,1.4,0,1,1,1.4-1.4h0a1.5,1.5,0,0,1-1.4,1.4h0m0-2.2a.8.8,0,1,0,.8.8h0c-.1-.5-.4-.8-.8-.8h0"/><path class="cls-1" d="M419.89,225.81a1.46,1.46,0,0,1-.3-2.9h.2a1.46,1.46,0,0,1,1.3,1.6,1.24,1.24,0,0,1-1.2,1.3m0-2.2a.8.8,0,1,0,.8.8h0c-.1-.4-.4-.8-.8-.8h0"/><path class="cls-1" d="M415.19,230.41a1.43,1.43,0,0,1-1.4-1.4,1.51,1.51,0,0,1,1.4-1.4,1.37,1.37,0,0,1,1.4,1.4,1.31,1.31,0,0,1-1.4,1.4m0-2.2a.75.75,0,0,0,.1,1.5c.4,0,.7-.3.8-.8a1,1,0,0,0-.9-.7h0"/><path class="cls-1" d="M432,230.41a1.4,1.4,0,1,1,1.4-1.4h0a1.43,1.43,0,0,1-1.4,1.4m0-2.2a.8.8,0,1,0,.8.8.79.79,0,0,0-.8-.8h0"/><path class="cls-1" d="M423.59,224.91a3.9,3.9,0,0,0-3.9,3.9,4,4,0,0,0,3.9,3.9,3.9,3.9,0,1,0,0-7.8m-1.8,6.6a1.8,1.8,0,0,1,3.6,0h0a3.35,3.35,0,0,1-3.6,0m4.2-.5a2.52,2.52,0,0,0-2.7-2.1,2.44,2.44,0,0,0-2.1,2.1,3.25,3.25,0,1,1,4.7-4.5,3.37,3.37,0,0,1,.1,4.5"/><path class="cls-1" d="M423.59,229.71a1.71,1.71,0,0,1-1.6-1.9,1.66,1.66,0,1,1,3.3-.3v.3a1.86,1.86,0,0,1-1.7,1.9m0-2.9a.94.94,0,0,0-1,1v.1a1,1,0,1,0,2,0,1,1,0,0,0-1-1.1h0"/><path class="cls-1" d="M428.79,228.61a8.53,8.53,0,0,0-.6-3.1,1.42,1.42,0,0,1-.6.2,8.68,8.68,0,0,1,.5,2.8h-.6v.7h.6a8.68,8.68,0,0,1-.5,2.8.86.86,0,0,1,.6.3,10.66,10.66,0,0,0,.6-3.1h1.8v-.6Z"/><path class="cls-1" d="M431.49,230.31a10.21,10.21,0,0,1-1.1,2.9h-1.7v.6h1.2a7.71,7.71,0,0,1-5,3,9,9,0,0,0,1.9-2,2.09,2.09,0,0,1-.6-.4,10.44,10.44,0,0,1-2.4,2.3v-3h2.1v-.6h-2v-.5h-.6v.5h-2v.6h2v2.9a9.66,9.66,0,0,1-2.3-2.2,1,1,0,0,1-.5.4,13.36,13.36,0,0,0,2,2.1,7.66,7.66,0,0,1-5.2-3.1h1.3v-.6h-1.7a9.19,9.19,0,0,1-1.1-2.9c-.1,0-.3.1-.4.1H415a8.2,8.2,0,0,0,1.2,3.2c0,.1,0,.1.1.1a8.74,8.74,0,0,0,7.3,3.9h.2a8.76,8.76,0,0,0,8.4-7.3H432a.45.45,0,0,1-.5,0"/><path class="cls-1" d="M419.69,228.81v-.2h-.6a8.68,8.68,0,0,1,.5-2.8,1.42,1.42,0,0,1-.6-.2,8.15,8.15,0,0,0-.6,3.1h-1.8v.6h1.8a8,8,0,0,0,.6,3,1.42,1.42,0,0,1,.6-.2,12.66,12.66,0,0,1-.6-2.8h.6a1.09,1.09,0,0,0,.1-.5"/><path class="cls-1" d="M423.59,220.21h0a8.6,8.6,0,0,0-7.3,4v.1a7.74,7.74,0,0,0-1.2,3.3h.2a.6.6,0,0,1,.4.1,6.86,6.86,0,0,1,1.1-2.8h1.7v-.6h-1.3a7.88,7.88,0,0,1,5.2-3.1,10,10,0,0,0-2,2.1,2.09,2.09,0,0,1,.6.4,7.56,7.56,0,0,1,2.4-2.3v2.9h-2a.85.85,0,0,1,0,.7h2v.2h.6V225h2v-.6h-2v-3.2a10.44,10.44,0,0,1,2.4,2.3,1.76,1.76,0,0,1,.5-.4,10,10,0,0,0-2-2.1,7.67,7.67,0,0,1,5.1,3.1h-1.2v.6h1.7a9.19,9.19,0,0,1,1.1,2.9,4.33,4.33,0,0,1,.5-.1h.2a9.09,9.09,0,0,0-8.7-7.3"/><polygon class="cls-2" points="591.79 160.31 591.29 160.51 591.19 160.31 591.89 160.01 592.19 160.01 592.19 163.11 591.79 163.11 591.79 160.31"/><path class="cls-1" d="M596.79,145.11a1.4,1.4,0,1,1,1.4-1.4h0a1.37,1.37,0,0,1-1.4,1.4m0-2.2a.79.79,0,0,0-.8.8.74.74,0,0,0,.8.8.79.79,0,0,0,.8-.8h0c-.1-.4-.4-.8-.8-.8h0"/><path class="cls-1" d="M589.29,154.21a1.4,1.4,0,1,1,1.4-1.4h0a1.37,1.37,0,0,1-1.4,1.4m0-2.2a.8.8,0,0,0,0,1.6.74.74,0,0,0,.8-.8h0c-.1-.4-.4-.8-.8-.8h0"/><path class="cls-1" d="M596.79,154.21a1.4,1.4,0,1,1,1.4-1.4h0a1.37,1.37,0,0,1-1.4,1.4m0-2.2a1,1,0,0,0-.9.7c-.1.4.3.8.7.9h.2a.81.81,0,0,0,.7-.9.84.84,0,0,0-.7-.7"/><path class="cls-1" d="M589.29,145.11a1.4,1.4,0,1,1,1.4-1.4h0a1.37,1.37,0,0,1-1.4,1.4m0-2.2a.79.79,0,0,0-.8.8.74.74,0,0,0,.8.8.79.79,0,0,0,.8-.8h0c-.1-.4-.4-.8-.8-.8h0"/><path class="cls-1" d="M584.69,149.71a1.4,1.4,0,1,1,1.4-1.4h0a1.51,1.51,0,0,1-1.4,1.4m0-2.2a.79.79,0,0,0-.8.8.74.74,0,0,0,.8.8.79.79,0,0,0,.8-.8c-.1-.5-.4-.8-.8-.8h0"/><path class="cls-1" d="M601.39,149.71a1.4,1.4,0,1,1,1.4-1.4h0a1.43,1.43,0,0,1-1.4,1.4m0-2.2a.79.79,0,0,0-.8.8.74.74,0,0,0,.8.8h0a.8.8,0,0,0,0-1.6h0"/><path class="cls-1" d="M593,144.21a3.9,3.9,0,1,0,3.9,3.9h0a3.9,3.9,0,0,0-3.9-3.9m-1.8,6.6a1.8,1.8,0,1,1,3.6,0,3.35,3.35,0,0,1-3.6,0m4.2-.5a2.52,2.52,0,0,0-2.7-2.1,2.44,2.44,0,0,0-2.1,2.1,3.25,3.25,0,0,1,4.7-4.5,3.37,3.37,0,0,1,.1,4.5"/><path class="cls-1" d="M593,149a1.71,1.71,0,0,1-1.6-1.9,1.6,1.6,0,1,1,3.2,0h0A1.71,1.71,0,0,1,593,149m0-3a.94.94,0,0,0-1,1v.1a1,1,0,1,0,2,0,1.09,1.09,0,0,0-1-1.1h0"/><path class="cls-1" d="M598.19,147.91a8,8,0,0,0-.6-3,1.42,1.42,0,0,1-.6.2,8.68,8.68,0,0,1,.5,2.8h-.6v.7h.6a8.68,8.68,0,0,1-.5,2.8.86.86,0,0,1,.6.3,10.66,10.66,0,0,0,.6-3.1H600V148Z"/><path class="cls-1" d="M601,149.61a10.21,10.21,0,0,1-1.1,2.9h-1.7v.6h1.2a7.71,7.71,0,0,1-5,3,11.9,11.9,0,0,0,1.9-2,2.09,2.09,0,0,1-.6-.4,10.44,10.44,0,0,1-2.4,2.3v-3h2v-.6h-2v-.5h-.6v.5h-2v.6h2v2.9a9.66,9.66,0,0,1-2.3-2.2,1,1,0,0,1-.5.4,13.36,13.36,0,0,0,2,2.1,7.66,7.66,0,0,1-5.2-3.1H588v-.6h-1.7a9.19,9.19,0,0,1-1.1-2.9c-.1,0-.3.1-.4.1h-.2a8.2,8.2,0,0,0,1.2,3.2c0,.1,0,.1.1.1a8.74,8.74,0,0,0,7.3,3.9h.2a8.76,8.76,0,0,0,8.4-7.3H601"/><path class="cls-1" d="M589.09,148.11v-.2h-.6a8.68,8.68,0,0,1,.5-2.8,1.42,1.42,0,0,1-.6-.2,15.94,15.94,0,0,0-.6,3H586v.6h1.8a10.66,10.66,0,0,0,.6,3,1.42,1.42,0,0,1,.6-.2,12.66,12.66,0,0,1-.6-2.8h.6a.76.76,0,0,0,.1-.4"/><path class="cls-1" d="M593,139.51h0a8.6,8.6,0,0,0-7.3,4v.1a7.74,7.74,0,0,0-1.2,3.3h.2a.6.6,0,0,1,.4.1,6.86,6.86,0,0,1,1.1-2.8h1.7v-.6h-1.3a7.88,7.88,0,0,1,5.2-3.1,10,10,0,0,0-2,2.1,2.09,2.09,0,0,1,.6.4,8.39,8.39,0,0,1,2.3-2.3v2.9h-2v.6h2v.1h.6v-.2h2v-.6h-2v-2.9a10.44,10.44,0,0,1,2.4,2.3,1.27,1.27,0,0,1,.6-.4,10,10,0,0,0-2-2.1,7.67,7.67,0,0,1,5.1,3.1h-1.2v.6h1.7a9.61,9.61,0,0,1,1.1,2.8,4.33,4.33,0,0,1,.5-.1h.2a8.89,8.89,0,0,0-8.7-7.3"/><path class="cls-1" d="M236.89,303.91a.27.27,0,0,0-.3.3v3a.32.32,0,0,0,.3.3c.2,0,.3-.1.4-.3v-3a.54.54,0,0,0-.4-.3"/><path class="cls-1" d="M247.39,303.91a.27.27,0,0,0-.3.3v3a.32.32,0,0,0,.3.3.27.27,0,0,0,.3-.3v-3a.32.32,0,0,0-.3-.3"/><path class="cls-1" d="M242.09,288.71a1.92,1.92,0,0,0-1.9,2,1.83,1.83,0,0,0,1.6,2.1,1.9,1.9,0,0,0,2.1-1.6v-.5a1.79,1.79,0,0,0-1.8-2m0,3.4a1.44,1.44,0,0,1-1.2-1.5,1.21,1.21,0,0,1,1.1-1.3,1.16,1.16,0,0,1,1.3,1.1v.2a1.43,1.43,0,0,1-1.2,1.5"/><path class="cls-1" d="M251.49,300a2.36,2.36,0,0,0,.7-1.6,1.85,1.85,0,0,0-3.7-.1h0a2,2,0,0,0,.7,1.6,3.36,3.36,0,0,0-1.6,2.9c0,2,2.1,2,2.8,2s2.8,0,2.8-2a3.67,3.67,0,0,0-1.7-2.8m-2.3-1.7a1.16,1.16,0,0,1,2.3-.3v.3a1.6,1.6,0,0,1-.8,1.4h-.8a1.75,1.75,0,0,1-.7-1.4m1.1,5.8c-1.9,0-2.1-.6-2.1-1.3a2.65,2.65,0,0,1,1.6-2.4,1.3,1.3,0,0,0,1,0,2.6,2.6,0,0,1,1.6,2.4c.1.7-.2,1.3-2.1,1.3"/><path class="cls-1" d="M251.59,299.91l-.1.1.1.1v-.2"/><path class="cls-1" d="M247.79,301.61c-.9-.2-1.1-.7-1.1-1.2a2.65,2.65,0,0,1,1.6-2.4h.1a1.33,1.33,0,0,1,.3-.8h-.4a1.6,1.6,0,0,1-.8-1.4,1.16,1.16,0,0,1,2.3-.3v.3a.9.9,0,0,1-.1.5h.7a.9.9,0,0,1,.1-.5,1.85,1.85,0,0,0-3.7-.1h0a2,2,0,0,0,.7,1.6,3.36,3.36,0,0,0-1.6,2.9,1.75,1.75,0,0,0,1.5,1.8c.1-.2.1-.4.2-.6"/><path class="cls-1" d="M235,300a2.36,2.36,0,0,0,.7-1.6,1.86,1.86,0,0,0-3.7-.3v.3a2,2,0,0,0,.7,1.6,3.36,3.36,0,0,0-1.6,2.9c0,2,2.1,2,2.8,2s2.8,0,2.8-2A3.69,3.69,0,0,0,235,300m-2.3-1.7a1.16,1.16,0,1,1,2.3-.3v.3a1.6,1.6,0,0,1-.8,1.4,1.39,1.39,0,0,0-.9,0,1.68,1.68,0,0,1-.6-1.4m1.1,5.8c-1.9,0-2.1-.6-2.1-1.3a2.65,2.65,0,0,1,1.6-2.4,1.39,1.39,0,0,0,.9,0,2.6,2.6,0,0,1,1.6,2.4c.1.7-.1,1.3-2,1.3"/><path class="cls-1" d="M232.69,300l-.1-.1v.2l.1-.1"/><path class="cls-1" d="M236.49,297.61a2.36,2.36,0,0,0,.7-1.6,1.85,1.85,0,0,0-3.7-.1h0v.5h.7a.9.9,0,0,1-.1-.5,1.16,1.16,0,0,1,2.3-.3v.3a1.6,1.6,0,0,1-.8,1.4h-.4a1.14,1.14,0,0,1,.3.8h.1a2.6,2.6,0,0,1,1.6,2.4c0,.5-.1,1-1,1.2a1.42,1.42,0,0,1,.2.6,1.67,1.67,0,0,0,1.5-1.8,3.48,3.48,0,0,0-1.6-2.9"/><path class="cls-1" d="M245.69,298.41v-1.7h0a.32.32,0,0,0,.3-.3v-1.6a.32.32,0,0,0-.3-.3h-7.3a.32.32,0,0,0-.3.3v1.6a.32.32,0,0,0,.3.3h0v1.7l-2.9,5.6a.19.19,0,0,0,0,.3c.1.1.2.2.3.2h12.4c.1,0,.2-.1.3-.2a.19.19,0,0,0,0-.3Zm-6.9-3.3h6.6v.9h-6.6Zm6.2,3h-5.8v-1.4H245Zm-8.5,5.7,2.6-5h6.1l2.6,5Z"/><path class="cls-1" d="M240.09,294.41a2,2,0,0,1,4,0h.7a2.7,2.7,0,0,0-3-2.4,2.58,2.58,0,0,0-2.4,2.4Z"/><rect class="cls-1" x="423.99" y="308.21" width="89.3" height="22.3"/><rect class="cls-1" x="567.19" y="385.81" width="89.3" height="22.3"/><rect class="cls-1" x="350.19" y="383.81" width="89.3" height="22.3"/><rect class="cls-1" x="221.39" y="157.91" width="89.3" height="22.3"/><rect class="cls-1" x="121.59" y="258.41" width="89.3" height="22.3"/><rect class="cls-1" x="627.59" y="137.81" width="89.3" height="22.3"/><rect class="cls-1" x="454.49" y="218.51" width="89.3" height="22.3"/><rect class="cls-1" x="115.79" y="288.61" width="89.3" height="22.3"/><polygon class="cls-1" points="310.69 174.11 310.69 169.11 310.69 164.11 320.69 166.61 330.69 169.01 320.69 171.61 310.69 174.11"/><polygon class="cls-1" points="210.79 274.61 210.79 269.61 210.79 264.61 220.79 267.01 230.79 269.51 220.79 272.01 210.79 274.61"/><polygon class="cls-1" points="204.99 304.81 204.99 299.81 204.99 294.81 214.99 297.31 224.99 299.71 214.99 302.31 204.99 304.81"/><polygon class="cls-1" points="439.49 400.01 439.49 395.01 439.49 390.01 449.49 392.51 459.49 394.91 449.49 397.51 439.49 400.01"/><polygon class="cls-1" points="627.59 153.91 627.59 148.91 627.59 143.91 617.59 146.51 607.59 149.01 617.59 151.51 627.59 153.91"/><polygon class="cls-1" points="454.49 234.61 454.49 229.61 454.49 224.61 444.49 227.21 434.49 229.71 444.49 232.21 454.49 234.61"/><polygon class="cls-1" points="423.99 324.31 423.99 319.31 423.99 314.31 413.99 316.91 403.99 319.41 413.99 321.91 423.99 324.31"/><polygon class="cls-1" points="567.29 402.01 567.29 397.01 567.29 392.01 557.29 394.51 547.29 397.11 557.29 399.51 567.29 402.01"/></g><g id="t_en"><path class="cls-2" d="M376.59,393.71l.4-.5a1.66,1.66,0,0,0,1.3.5c.5,0,.7-.2.7-.5h0c0-.3-.2-.5-.9-.6-.9-.2-1.4-.5-1.4-1.2h0a1.27,1.27,0,0,1,1.4-1.2,2.46,2.46,0,0,1,1.5.5l-.4.6a1.67,1.67,0,0,0-1.1-.4c-.4,0-.7.2-.7.5h0c0,.3.2.5,1,.7s1.3.5,1.3,1.2h0c0,.8-.6,1.2-1.5,1.2A3,3,0,0,1,376.59,393.71Z"/><path class="cls-2" d="M380.49,392.21h0a2.2,2.2,0,0,1,4.4-.1h0a2.16,2.16,0,0,1-2.2,2.2A2,2,0,0,1,380.49,392.21Zm3.6,0h0a1.4,1.4,0,1,0-2.8,0h0a1.4,1.4,0,1,0,2.8,0Z"/><path class="cls-2" d="M385.59,392.51v-2.4h.7v2.4c0,.8.4,1.2,1.1,1.2s1-.4,1-1.2v-2.4h.7v2.4a1.71,1.71,0,0,1-1.8,1.9A1.69,1.69,0,0,1,385.59,392.51Z"/><path class="cls-2" d="M391.09,390.81h-1.3v-.7h3.4v.7h-1.3v3.5h-.7v-3.5Z"/><path class="cls-2" d="M393.89,390.11h.7v1.7h2v-1.7h.7v4.2h-.7v-1.8h-2v1.8h-.7Z"/><path class="cls-2" d="M398.29,390.11h3.1v.7H399v1.1h2.1v.7H399v1.1h2.4v.7h-3.1Z"/><path class="cls-2" d="M402.29,390.11h1.9a2.14,2.14,0,0,1,1.2.4,1.22,1.22,0,0,1,.3.9h0a1.3,1.3,0,0,1-1,1.3l1.1,1.6h-.9l-1-1.5H403v1.5h-.7Zm1.8,2.1a.81.81,0,0,0,.9-.7h0c0-.5-.3-.7-.9-.7H403v1.4Z"/><path class="cls-2" d="M406.49,390.11h.7l2.2,2.9v-2.9h.7v4.2h-.6l-2.3-3v3h-.7v-4.2Z"/><path class="cls-2" d="M368,397.31h1.6a2.08,2.08,0,0,1,2.2,2.1h0a2.08,2.08,0,0,1-2.2,2.1H368Zm1.6,3.5a1.31,1.31,0,0,0,1.4-1.4h0a1.37,1.37,0,0,0-1.4-1.4h-.8v2.8Z"/><path class="cls-2" d="M372.59,397.31h3.1v.7h-2.4v1.1h2.1v.7h-2.1v1.1h2.4v.7h-3.1Z"/><path class="cls-2" d="M376.59,397.31h.7v3.5h2.2v.7h-2.9v-4.2Z"/><path class="cls-2" d="M380.59,398h-1.3v-.7h3.4v.7h-1.3v3.5h-.7V398Z"/><path class="cls-2" d="M384.29,397.21h.7l1.8,4.2H386l-.4-1h-2l-.4,1h-.7Zm1.1,2.6-.7-1.7-.7,1.7Z"/><path class="cls-2" d="M389.19,397.31h1.9a2.14,2.14,0,0,1,1.2.4,1.22,1.22,0,0,1,.3.9h0a1.3,1.3,0,0,1-1,1.3l1.1,1.6h-.9l-1-1.5h-.9v1.5h-.7Zm1.8,2a.81.81,0,0,0,.9-.7h0c0-.5-.3-.7-.9-.7h-1.1v1.4Z"/><path class="cls-2" d="M393.39,397.31h3.1v.7h-2.4v1.1h2.1v.7h-2.1v1.1h2.4v.7h-3.1Z"/><path class="cls-2" d="M397.09,400.81l.4-.5a1.66,1.66,0,0,0,1.3.5c.5,0,.7-.2.7-.5h0c0-.3-.2-.5-.9-.6-.9-.2-1.4-.5-1.4-1.2h0a1.27,1.27,0,0,1,1.4-1.2,2.46,2.46,0,0,1,1.5.5l-.4.6a1.67,1.67,0,0,0-1.1-.4c-.4,0-.7.2-.7.5h0c0,.3.2.5,1,.7s1.3.5,1.3,1.2h0c0,.8-.6,1.2-1.5,1.2A3,3,0,0,1,397.09,400.81Z"/><path class="cls-2" d="M401.09,397.31h3.1v.7h-2.4v1.1h2.1v.7h-2.1v1.1h2.4v.7h-3.1Z"/><path class="cls-2" d="M406.49,397.21h.7l1.8,4.2h-.8l-.4-1h-2l-.4,1h-.7Zm1.1,2.6-.7-1.7-.7,1.7Z"/><path class="cls-2" d="M409.69,397.31h1.9a2.14,2.14,0,0,1,1.2.4,1.22,1.22,0,0,1,.3.9h0a1.3,1.3,0,0,1-1,1.3l1.1,1.6h-.9l-1-1.5h-.9v1.5h-.7Zm1.8,2a.81.81,0,0,0,.9-.7h0c0-.5-.3-.7-.9-.7h-1.1v1.4Z"/><path class="cls-2" d="M413.69,399.41h0a2.14,2.14,0,0,1,2.1-2.2,2.36,2.36,0,0,1,1.6.6l-.5.5a1.66,1.66,0,0,0-1.2-.5,1.45,1.45,0,0,0-1.4,1.5h0a1.45,1.45,0,0,0,1.4,1.5,1.85,1.85,0,0,0,1.2-.5l.5.5a1.94,1.94,0,0,1-1.7.7A2,2,0,0,1,413.69,399.41Z"/><path class="cls-2" d="M418.19,397.31h.7V399h2v-1.7h.7v4.2H421v-1.8h-2v1.8h-.7v-4.2Z"/><path class="cls-2" d="M593.09,396l.4-.5a1.66,1.66,0,0,0,1.3.5c.5,0,.7-.2.7-.5h0c0-.3-.2-.5-.9-.6-.9-.2-1.4-.5-1.4-1.2h0a1.27,1.27,0,0,1,1.4-1.2,2.46,2.46,0,0,1,1.5.5l-.4.6a1.67,1.67,0,0,0-1.1-.4c-.4,0-.7.2-.7.5h0c0,.3.2.5,1,.7s1.3.5,1.3,1.2h0c0,.8-.6,1.2-1.5,1.2A3,3,0,0,1,593.09,396Z"/><path class="cls-2" d="M597,394.51h0a2.2,2.2,0,0,1,4.4-.1h0a2.16,2.16,0,0,1-2.2,2.2A2,2,0,0,1,597,394.51Zm3.6,0h0a1.4,1.4,0,1,0-2.8,0h0a1.45,1.45,0,0,0,1.4,1.5A1.39,1.39,0,0,0,600.59,394.51Z"/><path class="cls-2" d="M602.09,394.81v-2.4h.7v2.4c0,.8.4,1.2,1.1,1.2s1-.4,1-1.2v-2.4h.7v2.4a1.71,1.71,0,0,1-1.8,1.9C602.79,396.71,602.09,396.11,602.09,394.81Z"/><path class="cls-2" d="M607.59,393.11h-1.3v-.7h3.4v.7h-1.3v3.5h-.7v-3.5Z"/><path class="cls-2" d="M610.39,392.51h.7v1.7h2v-1.7h.7v4.2h-.7v-1.8h-2v1.8h-.7Z"/><path class="cls-2" d="M614.89,392.51H618v.7h-2.4v1.1h2.1v.7h-2.1v1.1H618v.7h-3.1Z"/><path class="cls-2" d="M618.79,392.51h1.9a2.14,2.14,0,0,1,1.2.4,1.22,1.22,0,0,1,.3.9h0a1.3,1.3,0,0,1-1,1.3l1.1,1.6h-.9l-1-1.5h-.9v1.5h-.7v-4.2Zm1.8,2a.81.81,0,0,0,.9-.7h0c0-.5-.3-.7-.9-.7h-1.1v1.4Z"/><path class="cls-2" d="M623,392.51h.7l2.2,2.9v-2.9h.7v4.2H626l-2.3-3v3H623Z"/><path class="cls-2" d="M584.59,399.61h1.6a2.08,2.08,0,0,1,2.2,2.1h0a2.08,2.08,0,0,1-2.2,2.1h-1.6Zm1.5,3.5a1.31,1.31,0,0,0,1.4-1.4h0a1.37,1.37,0,0,0-1.4-1.4h-.8v2.8Z"/><path class="cls-2" d="M589.19,399.61h3.1v.7h-2.4v1.1H592v.7h-2.1v1.1h2.4v.7h-3.1Z"/><path class="cls-2" d="M593.09,399.61h.7v3.5H596v.7h-2.9Z"/><path class="cls-2" d="M597.09,400.31h-1.3v-.7h3.4v.7h-1.3v3.5h-.7v-3.5Z"/><path class="cls-2" d="M600.79,399.61h.7l1.8,4.2h-.8l-.4-1h-2l-.4,1H599Zm1.1,2.5-.7-1.7-.7,1.7Z"/><path class="cls-2" d="M605.69,399.61h1.9a2.14,2.14,0,0,1,1.2.4,1.22,1.22,0,0,1,.3.9h0a1.3,1.3,0,0,1-1,1.3l1.1,1.6h-.9l-1-1.5h-.9v1.5h-.7v-4.2Zm1.8,2.1a.81.81,0,0,0,.9-.7h0c0-.5-.3-.7-.9-.7h-1.1v1.4Z"/><path class="cls-2" d="M610,399.61h3.1v.7h-2.4v1.1h2.1v.7h-2.1v1.1h2.4v.7H610Z"/><path class="cls-2" d="M613.59,403.11l.4-.5a1.66,1.66,0,0,0,1.3.5c.5,0,.7-.2.7-.5h0c0-.3-.2-.5-.9-.6-.9-.2-1.4-.5-1.4-1.2h0a1.27,1.27,0,0,1,1.4-1.2,2.46,2.46,0,0,1,1.5.5l-.4.6a1.67,1.67,0,0,0-1.1-.4c-.4,0-.7.2-.7.5h0c0,.3.2.5,1,.7s1.3.5,1.3,1.2h0c0,.8-.6,1.2-1.5,1.2A3,3,0,0,1,613.59,403.11Z"/><path class="cls-2" d="M617.59,399.61h3.1v.7h-2.4v1.1h2.1v.7h-2.1v1.1h2.4v.7h-3.1Z"/><path class="cls-2" d="M623,399.61h.7l1.8,4.2h-.8l-.4-1h-2l-.4,1h-.7Zm1.1,2.5-.7-1.7-.7,1.7Z"/><path class="cls-2" d="M626.19,399.61h1.9a2.14,2.14,0,0,1,1.2.4,1.22,1.22,0,0,1,.3.9h0a1.3,1.3,0,0,1-1,1.3l1.1,1.6h-.9l-1-1.5h-.9v1.5h-.7v-4.2Zm1.8,2.1a.81.81,0,0,0,.9-.7h0c0-.5-.3-.7-.9-.7h-1.1v1.4Z"/><path class="cls-2" d="M630.29,401.71h0a2.14,2.14,0,0,1,2.1-2.2,2.36,2.36,0,0,1,1.6.6l-.5.5a1.66,1.66,0,0,0-1.2-.5,1.45,1.45,0,0,0-1.4,1.5h0a1.45,1.45,0,0,0,1.4,1.5,1.85,1.85,0,0,0,1.2-.5l.5.5a1.94,1.94,0,0,1-1.7.7A2,2,0,0,1,630.29,401.71Z"/><path class="cls-2" d="M634.79,399.61h.7v1.7h2v-1.7h.7v4.2h-.7V402h-2v1.8h-.7Z"/><path class="cls-2" d="M469.79,230.31h0a2.14,2.14,0,0,1,2.1-2.2,2.36,2.36,0,0,1,1.6.6l-.5.5a1.66,1.66,0,0,0-1.2-.5,1.45,1.45,0,0,0-1.4,1.5h0a1.45,1.45,0,0,0,1.4,1.5,1.85,1.85,0,0,0,1.2-.5l.5.5a1.94,1.94,0,0,1-1.7.7A2,2,0,0,1,469.79,230.31Z"/><path class="cls-2" d="M474.29,230.61v-2.4h.7v2.4c0,.8.4,1.2,1,1.2s1-.4,1-1.2v-2.4h.7v2.3a1.71,1.71,0,0,1-1.8,1.9C474.89,232.51,474.29,231.81,474.29,230.61Z"/><path class="cls-2" d="M478.69,228.31h.7v3.5h2.2v.7h-2.9v-4.2Z"/><path class="cls-2" d="M482.79,228.91h-1.3v-.7h3.4v.7h-1.3v3.5h-.7v-3.5Z"/><path class="cls-2" d="M485.39,230.61v-2.4h.7v2.4c0,.8.4,1.2,1,1.2s1-.4,1-1.2v-2.4h.7v2.3a1.71,1.71,0,0,1-1.8,1.9C486.09,232.51,485.39,231.81,485.39,230.61Z"/><path class="cls-2" d="M489.89,228.31h1.8a2.14,2.14,0,0,1,1.2.4,1.22,1.22,0,0,1,.3.9h0a1.3,1.3,0,0,1-1,1.3l1.1,1.6h-.9l-1-1.4h-.9v1.4h-.7v-4.2Zm1.8,2a.81.81,0,0,0,.9-.7h0c0-.4-.3-.7-.9-.7h-1.1v1.4Z"/><path class="cls-2" d="M495.59,228.21h.7l1.8,4.2h-.8l-.4-1h-2l-.4,1h-.7Zm1,2.6-.7-1.7-.7,1.7Z"/><path class="cls-2" d="M498.69,228.31h.7v3.5h2.2v.7h-2.9v-4.2Z"/><path class="cls-2" d="M503.89,230.31h0a2.14,2.14,0,0,1,2.1-2.2,2.36,2.36,0,0,1,1.6.6l-.5.5a1.66,1.66,0,0,0-1.2-.5,1.45,1.45,0,0,0-1.4,1.5h0a1.45,1.45,0,0,0,1.4,1.5,1.85,1.85,0,0,0,1.2-.5l.5.5a1.94,1.94,0,0,1-1.7.7A2,2,0,0,1,503.89,230.31Z"/><path class="cls-2" d="M508.29,228.31h3.1v.7h-2.3v1.1h2.1v.7h-2.1v1.1h2.4v.6h-3.1v-4.2Z"/><path class="cls-2" d="M512.19,228.31h.7l2.2,2.9v-2.9h.7v4.1h-.6l-2.3-2.9v2.9h-.7v-4.1Z"/><path class="cls-2" d="M517.89,228.91h-1.3v-.7H520v.7h-1.3v3.5H518v-3.5Z"/><path class="cls-2" d="M520.59,228.31h3.1v.7h-2.3v1.1h2.1v.7h-2.1v1.1h2.4v.6h-3.1v-4.2Z"/><path class="cls-2" d="M524.49,228.31h1.8a2.14,2.14,0,0,1,1.2.4,1.22,1.22,0,0,1,.3.9h0a1.3,1.3,0,0,1-1,1.3l1.1,1.6H527l-1-1.4h-.9v1.4h-.7v-4.2Zm1.8,2a.81.81,0,0,0,.9-.7h0c0-.4-.3-.7-.9-.7h-1.1v1.4Z"/><path class="cls-2" d="M643.19,149.61h0a2.14,2.14,0,0,1,2.1-2.2,2.36,2.36,0,0,1,1.6.6l-.5.5a1.66,1.66,0,0,0-1.2-.5,1.45,1.45,0,0,0-1.4,1.5h0a1.45,1.45,0,0,0,1.4,1.5,1.85,1.85,0,0,0,1.2-.5l.5.5a1.94,1.94,0,0,1-1.7.7A2,2,0,0,1,643.19,149.61Z"/><path class="cls-2" d="M647.59,149.91v-2.4h.7v2.4c0,.8.4,1.2,1,1.2s1-.4,1-1.2v-2.4h.7v2.3a1.71,1.71,0,0,1-1.8,1.9A1.58,1.58,0,0,1,647.59,149.91Z"/><path class="cls-2" d="M652.09,147.51h.7V151H655v.7h-2.9Z"/><path class="cls-2" d="M656.09,148.21h-1.3v-.7h3.4v.7h-1.3v3.5h-.7v-3.5Z"/><path class="cls-2" d="M658.79,149.91v-2.4h.7v2.4c0,.8.4,1.2,1,1.2s1-.4,1-1.2v-2.4h.7v2.3a1.71,1.71,0,0,1-1.8,1.9A1.58,1.58,0,0,1,658.79,149.91Z"/><path class="cls-2" d="M663.29,147.51h1.8a2.14,2.14,0,0,1,1.2.4,1.22,1.22,0,0,1,.3.9h0a1.3,1.3,0,0,1-1,1.3l1.1,1.6h-.9l-1-1.4H664v1.4h-.7Zm1.7,2.1a.81.81,0,0,0,.9-.7h0c0-.4-.3-.7-.9-.7h-1v1.4Z"/><path class="cls-2" d="M668.89,147.51h.7l1.8,4.2h-.8l-.4-1h-2l-.4,1h-.7ZM670,150l-.7-1.7-.7,1.7Z"/><path class="cls-2" d="M672.09,147.51h.7V151H675v.7h-2.9Z"/><path class="cls-2" d="M677.19,149.61h0a2.14,2.14,0,0,1,2.1-2.2,2.36,2.36,0,0,1,1.6.6l-.5.5a1.66,1.66,0,0,0-1.2-.5,1.45,1.45,0,0,0-1.4,1.5h0a1.45,1.45,0,0,0,1.4,1.5,1.85,1.85,0,0,0,1.2-.5l.5.5a1.94,1.94,0,0,1-1.7.7A2,2,0,0,1,677.19,149.61Z"/><path class="cls-2" d="M681.69,147.51h3.1v.7h-2.3v1.1h2.1v.7h-2.1v1.1h2.4v.6h-3.1v-4.2Z"/><path class="cls-2" d="M685.59,147.51h.7l2.2,2.9v-2.9h.7v4.1h-.6l-2.3-2.9v2.9h-.7v-4.1Z"/><path class="cls-2" d="M691.19,148.21h-1.3v-.7h3.4v.7H692v3.5h-.7v-3.5Z"/><path class="cls-2" d="M694,147.51h3.1v.7h-2.3v1.1h2.1v.7h-2.1v1.1h2.4v.6H694Z"/><path class="cls-2" d="M697.89,147.51h1.8a2.14,2.14,0,0,1,1.2.4,1.22,1.22,0,0,1,.3.9h0a1.3,1.3,0,0,1-1,1.3l1.1,1.6h-.9l-1-1.4h-.9v1.4h-.7v-4.2Zm1.7,2.1a.81.81,0,0,0,.9-.7h0c0-.4-.3-.7-.9-.7h-1.1v1.4Z"/><path class="cls-2" d="M127.79,299.51h-1.3v-.7h3.3v.7h-1.3v3.4h-.7Z"/><path class="cls-2" d="M130.39,298.81h.7v1.7H133v-1.7h.7v4H133v-1.6h-1.9v1.7h-.7Z"/><path class="cls-2" d="M134.69,301.21v-2.3h.7v2.3c0,.8.4,1.2,1,1.2a1,1,0,0,0,1-1.1V299h.7v2.3a1.61,1.61,0,0,1-1.7,1.8A1.8,1.8,0,0,1,134.69,301.21Z"/><path class="cls-2" d="M141.79,299.51h-1.3v-.7h3.3v.7h-1.3v3.4h-.7Z"/><path class="cls-2" d="M144.39,298.81h.7v1.7H147v-1.7h.7v4H147v-1.6h-1.9v1.7h-.7Z"/><path class="cls-2" d="M148.79,298.81h.7v4h-.7Z"/><path class="cls-2" d="M150.59,298.81h3v.6h-2.3v1.1h2v.6h-2v1.1h2.3v.6h-3Z"/><path class="cls-2" d="M154.39,298.81h.8l1.2,1.9,1.2-1.9h.8v4h-.7v-2.9l-1.3,1.9h0l-1.3-1.9v2.9h-.7Z"/><path class="cls-2" d="M161,298.81h3v.6h-2.3v1.1h2v.6h-2v1.1H164v.6h-3Z"/><path class="cls-2" d="M166,300.81l-1.4-2h.8l1,1.5,1-1.5h.8l-1.4,2,1.5,2.1h-.8l-1.1-1.5-1.1,1.5h-.8Z"/><path class="cls-2" d="M169,298.81h.7v1.7h1.9v-1.7h.7v4h-.7v-1.6h-1.9v1.7H169Z"/><path class="cls-2" d="M173.29,298.81h.7v4h-.7Z"/><path class="cls-2" d="M175.09,298.81h1.8a1.37,1.37,0,0,1,1.1.4.91.91,0,0,1,.3.7h0a1,1,0,0,1-.6.9c.5.2.8.4.8,1h0c0,.7-.6,1.1-1.5,1.1h-1.9v-4.1Zm1.6,1.7c.5,0,.8-.2.8-.5h0c0-.3-.2-.5-.7-.5h-1v1.1h.9Zm.2,1.8c.5,0,.8-.2.8-.6h0c0-.3-.3-.5-.8-.5h-1.1v1.1Z"/><path class="cls-2" d="M179.19,298.81h.7v4h-.7Z"/><path class="cls-2" d="M181.89,299.51h-1.3v-.7h3.3v.7h-1.3v3.4h-.7Z"/><path class="cls-2" d="M184.69,298.81h.7v4h-.7Z"/><path class="cls-2" d="M186.19,300.91h0a2.11,2.11,0,0,1,2.1-2.1,2.05,2.05,0,0,1,2.1,2.1h0a2.1,2.1,0,1,1-4.2,0Zm3.5,0h0a1.4,1.4,0,1,0-2.8,0h0a1.4,1.4,0,1,0,2.8,0Z"/><path class="cls-2" d="M191.29,298.81h.7l2.2,2.8v-2.8h.7v4h-.6l-2.2-2.9v2.9h-.7v-4Z"/><path class="cls-2" d="M438.39,319.81h0a1.94,1.94,0,0,1,2-2,1.89,1.89,0,0,1,1.5.6l-.4.5a1.43,1.43,0,0,0-1.1-.5,1.35,1.35,0,0,0-1.3,1.4h0a1.29,1.29,0,0,0,1.3,1.4,1.43,1.43,0,0,0,1.1-.5l.4.4a2.18,2.18,0,0,1-1.6.7A1.92,1.92,0,0,1,438.39,319.81Z"/><path class="cls-2" d="M442.59,317.91h.7v1.6h1.9v-1.6h.7v3.9h-.7v-1.6h-1.9v1.6h-.7Z"/><path class="cls-2" d="M446.79,317.91h.7v3.9h-.7Z"/><path class="cls-2" d="M448.39,317.91h.7v3.3h2v.6h-2.7Z"/><path class="cls-2" d="M451.79,317.91h1.4a2,2,0,0,1,2.1,1.9h0a1.9,1.9,0,0,1-2.1,1.9h-1.4Zm1.5,3.2a1.21,1.21,0,0,0,1.3-1.3h0a1.21,1.21,0,0,0-1.3-1.3h-.8v2.6Z"/><path class="cls-2" d="M456.09,317.91h1.7a1.25,1.25,0,0,1,1.1.4,1.14,1.14,0,0,1,.3.8h0a1.29,1.29,0,0,1-.9,1.2l1,1.5h-.8l-1-1.4h-.9v1.4h-.7v-3.9Zm1.7,1.9c.5,0,.8-.2.8-.6h0c0-.4-.3-.6-.8-.6h-1v1.3h1Z"/><path class="cls-2" d="M460.09,317.91H463v.6h-2.2v1h1.9v.6h-1.9v1H463v.6h-2.9Z"/><path class="cls-2" d="M463.69,317.91h.6l2.1,2.7v-2.7h.7v3.9h-.6l-2.1-2.8v2.8h-.7Z"/><path class="cls-2" d="M467.79,319.21c.3-.1.5-.2.5-.5H468v-.8h.7v.6a.8.8,0,0,1-.9.9Z"/><path class="cls-2" d="M469.19,321.21l.4-.5a1.85,1.85,0,0,0,1.2.5c.4,0,.7-.2.7-.5h0c0-.3-.2-.4-.9-.6s-1.3-.4-1.3-1.2h0a1.16,1.16,0,0,1,1.3-1.1,2.17,2.17,0,0,1,1.4.5l-.4.5a1.67,1.67,0,0,0-1.1-.4c-.4,0-.6.2-.6.5h0c0,.3.2.4.9.6s1.2.5,1.2,1.1h0a1.27,1.27,0,0,1-1.4,1.2A2.38,2.38,0,0,1,469.19,321.21Z"/><path class="cls-2" d="M474.59,317.91h.7l1.2,1.8,1.2-1.8h.7v3.9h-.7V319l-1.2,1.8h0l-1.2-1.8v2.8h-.7Z"/><path class="cls-2" d="M479.29,320.11v-2.2h.7v2.2a1,1,0,1,0,2,0v-2.2h.7v2.2a1.7,1.7,0,0,1-3.4,0Z"/><path class="cls-2" d="M483.19,321.21l.4-.5a1.85,1.85,0,0,0,1.2.5c.4,0,.7-.2.7-.5h0c0-.3-.2-.4-.9-.6s-1.3-.4-1.3-1.2h0a1.16,1.16,0,0,1,1.3-1.1,2.17,2.17,0,0,1,1.4.5l-.4.5a1.67,1.67,0,0,0-1.1-.4c-.4,0-.6.2-.6.5h0c0,.3.2.4.9.6s1.2.5,1.2,1.1h0a1.27,1.27,0,0,1-1.4,1.2A2.38,2.38,0,0,1,483.19,321.21Z"/><path class="cls-2" d="M487,317.91h2.9v.6h-2.2v1h1.9v.6h-1.9v1h2.2v.6H487Z"/><path class="cls-2" d="M490.59,320.11v-2.2h.7v2.2a1,1,0,1,0,2,0v-2.2h.7v2.2a1.7,1.7,0,1,1-3.4,0Z"/><path class="cls-2" d="M494.79,317.91h.7l1.2,1.8,1.2-1.8h.7v3.9h-.7V319l-1.2,1.8h0l-1.2-1.8v2.8h-.7Z"/><path class="cls-2" d="M253.49,168h.8l1.2,1.9,1.2-1.9h.8v4h-.7v-2.9l-1.3,1.9h0l-1.3-1.9V172h-.7v-4Z"/><path class="cls-2" d="M258.29,170.31V168h.7v2.3c0,.8.4,1.1,1,1.1a1,1,0,0,0,1-1.1V168h.7v2.3a1.61,1.61,0,0,1-1.7,1.8A1.71,1.71,0,0,1,258.29,170.31Z"/><path class="cls-2" d="M262.39,171.41l.4-.5a2.11,2.11,0,0,0,1.3.5c.4,0,.7-.2.7-.5h0c0-.3-.2-.4-.9-.6-.9-.2-1.3-.5-1.3-1.2h0a1.27,1.27,0,0,1,1.4-1.2,2.69,2.69,0,0,1,1.5.5l-.4.5a1.67,1.67,0,0,0-1.1-.4c-.4,0-.7.2-.7.5h0c0,.3.2.4,1,.6s1.3.5,1.3,1.2h0c0,.8-.6,1.2-1.4,1.2A2.61,2.61,0,0,1,262.39,171.41Z"/><path class="cls-2" d="M266.29,168h3v.6H267v1h2v.6h-2v1.1h2.3v.6h-3Z"/><path class="cls-2" d="M270,170.31V168h.7v2.3c0,.8.4,1.1,1,1.1a1,1,0,0,0,1-1.1V168h.7v2.3a1.61,1.61,0,0,1-1.7,1.8A1.71,1.71,0,0,1,270,170.31Z"/><path class="cls-2" d="M274.29,168h.8l1.2,1.9,1.2-1.9h.8v4h-.7v-2.9l-1.3,1.9h0l-1.3-1.9V172h-.7Z"/><path class="cls-2" d="M146,269.61h0a2.11,2.11,0,0,1,2.1-2.1,2.05,2.05,0,0,1,2.1,2.1h0a2.11,2.11,0,0,1-2.1,2.1A2.05,2.05,0,0,1,146,269.61Zm3.5,0h0a1.37,1.37,0,0,0-1.4-1.4,1.29,1.29,0,0,0-1.3,1.4h0a1.37,1.37,0,0,0,1.4,1.4A1.35,1.35,0,0,0,149.49,269.61Z"/><path class="cls-2" d="M151,267.61h1.6a1.32,1.32,0,0,1,1.5,1.3h0a1.42,1.42,0,0,1-1.6,1.4h-.8v1.3H151Zm1.5,2.1a.81.81,0,0,0,.9-.7h0c0-.5-.3-.7-.9-.7h-.8v1.4Z"/><path class="cls-2" d="M154.69,267.61h3v.6h-2.3v1h2v.6h-2v1.1h2.3v.6h-3Z"/><path class="cls-2" d="M158.49,267.61h1.8a1.59,1.59,0,0,1,1.2.4,1.22,1.22,0,0,1,.3.9h0a1.12,1.12,0,0,1-1,1.2l1.1,1.5h-.8l-1-1.4h-.9v1.4h-.7v-4Zm1.7,2a.71.71,0,0,0,.8-.7h0a.71.71,0,0,0-.8-.7h-1v1.3h1Z"/><path class="cls-2" d="M164,267.61h.7l1.8,4h-.7l-.4-1h-1.9l-.4,1h-.7Zm1,2.4-.7-1.6-.7,1.6Z"/><path class="cls-2" d="M168.69,267.61h.7v1.7h1.9v-1.7h.7v4h-.7v-1.7h-1.9v1.7h-.7Z"/><path class="cls-2" d="M172.79,269.61h0a2.11,2.11,0,0,1,2.1-2.1,2.05,2.05,0,0,1,2.1,2.1h0a2.11,2.11,0,0,1-2.1,2.1A2,2,0,0,1,172.79,269.61Zm3.4,0h0a1.37,1.37,0,0,0-1.4-1.4,1.29,1.29,0,0,0-1.3,1.4h0a1.37,1.37,0,0,0,1.4,1.4A1.29,1.29,0,0,0,176.19,269.61Z"/><path class="cls-2" d="M177.69,269.91v-2.3h.7v2.3a1,1,0,1,0,2,0v-2.3h.7v2.3a1.7,1.7,0,1,1-3.4,0Z"/><path class="cls-2" d="M181.79,271l.4-.5a2.11,2.11,0,0,0,1.3.5c.4,0,.7-.2.7-.5h0c0-.3-.2-.4-.9-.6-.9-.2-1.3-.5-1.3-1.2h0a1.27,1.27,0,0,1,1.4-1.2,2.69,2.69,0,0,1,1.5.5l-.4.5a1.67,1.67,0,0,0-1.1-.4c-.4,0-.7.2-.7.5h0c0,.3.2.4.9.6s1.3.5,1.3,1.2h0c0,.8-.6,1.2-1.4,1.2A1.75,1.75,0,0,1,181.79,271Z"/><path class="cls-2" d="M185.59,267.61h3v.6h-2.3v1h2v.6h-2v1.1h2.3v.6h-3Z"/></g></svg>