<svg id="Layer_1" data-name="Layer 1" xmlns="http://www.w3.org/2000/svg" viewBox="0 0 913 613.3"><defs><style>.cls-1{fill:#455981;}.cls-2{fill:#fff;}</style></defs><g id="Layer_2" data-name="Layer 2"><path class="cls-1" d="M442.8,416.55H427c-.2,0-.3-.1-.4-.3s0-.3.1-.5l2.3-2a.37.37,0,0,1,.3-.1h11.3a.37.37,0,0,1,.3.1l2.3,2a.44.44,0,0,1,.1.5,2.19,2.19,0,0,1-.5.3m-14.6-.9h13.5l-1.3-1.1H429.5Z"/><path class="cls-1" d="M442.8,415.65h-1.9v-8.1l1.6-1.5h0V406h0v-.1h0v-.2h0l-.1-.1h0l-7.4-5.4a.45.45,0,0,0-.5,0l-7.4,5.4h0v.1h0v.2h0v.1h0v.1h0l1.6,1.5v8.1h-1.9a.43.43,0,0,0-.4.4h0v1.6a.43.43,0,0,0,.4.4h15.8a.43.43,0,0,0,.4-.4h0v-1.5c.2-.3,0-.4-.2-.5h0m-6.4-7.8H438v7.9h-1.6Zm-4.5,0h1.6v7.9h-1.6Zm2.4,0h1.3v7.9h-1.3Zm4.5,0h1.3v7.9h-1.3Zm-3.9-6.9,6.1,4.4H428.9Zm6.3,5.3-.9.8H429.5l-.9-.8Zm-11.5,1.6H431v7.9h-1.3Zm12.7,9.5H427.5v-.8h14.9Z"/><path class="cls-1" d="M429,413.55h-5.4v-4.1H429v-.8h-5.4l3.2-4.1h1.8l1.1-.8h-3.1c-.1,0-.3.1-.3.2l-3.8,5a.3.3,0,0,0,0,.4.52.52,0,0,0,.4.2v4.1c-.2,0-.4.3-.4.5s.2.3.4.4h6.2Z"/><path class="cls-1" d="M447.2,413.55v-4.1a.43.43,0,0,0,.4-.4c0-.1,0-.2-.1-.2l-3.8-5c-.1-.1-.2-.2-.3-.2h-3.2l1.1.8h1.9l3.2,4.1H441v.8h5.4v4.1H441v.8h6.2a.43.43,0,0,0,.4-.4h0a.45.45,0,0,0-.4-.3"/><path class="cls-1" d="M425,410.45a.43.43,0,0,1-.4.4h0a.43.43,0,0,1-.4-.4h0a.43.43,0,0,1,.4-.4h0a.37.37,0,0,1,.4.4h0"/><path class="cls-1" d="M426.7,410.45a.43.43,0,0,1-.4.4h0a.43.43,0,0,1-.4-.4h0a.43.43,0,0,1,.4-.4h0a.43.43,0,0,1,.4.4h0"/><path class="cls-1" d="M428.4,410.45a.4.4,0,1,1-.4-.4.43.43,0,0,1,.4.4"/><path class="cls-1" d="M425,412.15a.43.43,0,0,1-.4.4h0a.43.43,0,0,1-.4-.4h0a.43.43,0,0,1,.4-.4h0a.37.37,0,0,1,.4.4h0"/><path class="cls-1" d="M426.7,412.15a.43.43,0,0,1-.4.4h0a.43.43,0,0,1-.4-.4h0a.43.43,0,0,1,.4-.4h0a.43.43,0,0,1,.4.4h0"/><path class="cls-1" d="M428.4,412.15a.4.4,0,0,1-.8,0h0a.4.4,0,0,1,.8,0"/><path class="cls-1" d="M442.4,410.45a.4.4,0,1,1-.4-.4.43.43,0,0,1,.4.4"/><path class="cls-1" d="M444.1,410.45a.43.43,0,0,1-.4.4h0a.43.43,0,0,1-.4-.4h0a.43.43,0,0,1,.4-.4h0a.43.43,0,0,1,.4.4h0"/><path class="cls-1" d="M445.7,410.45a.43.43,0,0,1-.4.4h0a.43.43,0,0,1-.4-.4h0a.43.43,0,0,1,.4-.4h0a.43.43,0,0,1,.4.4h0"/><path class="cls-1" d="M442.4,412.15a.4.4,0,0,1-.8,0h0a.4.4,0,0,1,.8,0"/><path class="cls-1" d="M444.1,412.15a.43.43,0,0,1-.4.4h0a.43.43,0,0,1-.4-.4h0a.43.43,0,0,1,.4-.4h0a.43.43,0,0,1,.4.4h0"/><path class="cls-1" d="M445.7,412.15a.43.43,0,0,1-.4.4h0a.43.43,0,0,1-.4-.4h0a.43.43,0,0,1,.4-.4h0a.43.43,0,0,1,.4.4h0"/><path class="cls-1" d="M547.8,338.85H532a.43.43,0,0,1-.4-.4c0-.1.1-.2.1-.3l2.3-2a.37.37,0,0,1,.3-.1h11.2a.37.37,0,0,1,.3.1l2.3,2a.44.44,0,0,1,.1.5.52.52,0,0,1-.4.2m-14.6-.8h13.5l-1.3-1.1H534.5Z"/><path class="cls-1" d="M547.8,338.05h-1.9V330l1.6-1.5h0v-.1h0v-.1h0v-.2h0V328h0l-7.3-5.4a.45.45,0,0,0-.5,0l-7.3,5.4h0l-.1.1h0v.2h0v.1h0l1.6,1.5V338h-1.8a.43.43,0,0,0-.4.4h0V340a.43.43,0,0,0,.4.4h15.8a.43.43,0,0,0,.4-.4h0v-1.6c-.1-.2-.2-.4-.5-.3h0m-6.4-7.9H543v7.9h-1.6Zm-4.5,0h1.5v7.9h-1.5Zm2.4,0h1.3v7.9h-1.3Zm4.5,0h1.3v7.9h-1.3Zm-3.9-6.9,6.1,4.4H533.8Zm6.3,5.3-.8.8H534.5l-.8-.8Zm-11.4,1.6h1.3v7.9h-1.3Zm12.6,9.5H532.5v-.8h14.9Z"/><path class="cls-1" d="M533.9,336h-5.4v-4.1h5.4v-.8h-5.3l3.2-4.1h1.8l1.1-.8h-3.2c-.1,0-.3.1-.3.2l-3.8,5a.47.47,0,0,0,.1.6c.1,0,.1.1.2.1v4.1a.4.4,0,1,0,0,.8h6.2Z"/><path class="cls-1" d="M552.2,336v-4.1c.1,0,.3-.1.3-.2a.3.3,0,0,0,0-.4l-3.8-5c-.1-.1-.2-.2-.3-.2h-3.2l1.1.8h1.8l3.2,4.1H546v.8h5.4v4.1H546v.8h6.2c.2,0,.4-.3.4-.5a.52.52,0,0,0-.4-.2"/><path class="cls-1" d="M530,332.85a.4.4,0,0,1-.8,0h0a.43.43,0,0,1,.4-.4c.2-.1.4.1.4.4h0"/><path class="cls-1" d="M531.7,332.85a.4.4,0,0,1-.8,0h0a.43.43,0,0,1,.4-.4c.2-.1.4.1.4.4"/><path class="cls-1" d="M533.3,332.85a.43.43,0,0,1-.4.4h0a.4.4,0,0,1,0-.8h0c.3-.1.4.1.4.4"/><path class="cls-1" d="M530,334.45a.4.4,0,0,1-.8,0h0a.4.4,0,1,1,.8,0h0"/><path class="cls-1" d="M531.7,334.45a.4.4,0,1,1-.4-.4.43.43,0,0,1,.4.4h0"/><path class="cls-1" d="M533.3,334.45a.43.43,0,0,1-.4.4h0a.4.4,0,1,1,0-.8h0a.37.37,0,0,1,.4.4"/><path class="cls-1" d="M547.4,332.85a.43.43,0,0,1-.4.4h0a.4.4,0,0,1,0-.8h0c.2-.1.4.1.4.4"/><path class="cls-1" d="M549,332.85a.4.4,0,0,1-.8,0h0a.43.43,0,0,1,.4-.4c.2-.1.4.1.4.4h0"/><path class="cls-1" d="M550.7,332.85a.4.4,0,0,1-.8,0h0a.43.43,0,0,1,.4-.4c.2-.1.4.1.4.4"/><path class="cls-1" d="M547.4,334.45a.43.43,0,0,1-.4.4h0a.4.4,0,1,1,0-.8h0a.43.43,0,0,1,.4.4"/><path class="cls-1" d="M549,334.45a.4.4,0,0,1-.8,0h0a.4.4,0,1,1,.8,0h0"/><path class="cls-1" d="M550.7,334.45a.4.4,0,1,1-.4-.4.43.43,0,0,1,.4.4h0"/><path class="cls-1" d="M550.8,297.85H535c-.2,0-.3-.1-.4-.3a.44.44,0,0,1,.1-.5l2.3-2a.37.37,0,0,1,.3-.1h11.3a.37.37,0,0,1,.3.1l2.3,2a.38.38,0,0,1,0,.6c-.1.2-.2.2-.4.2m-14.6-.8h13.5l-1.3-1.1H537.5Z"/><path class="cls-1" d="M550.8,297.05h-1.9V289l1.6-1.5h0v-.1h0V287h0l-.1-.1h0l-7.3-5.4a.45.45,0,0,0-.5,0l-7.3,5.4h0v.1h0v.2h0v.1h0v.1h0l1.6,1.5V297H535a.43.43,0,0,0-.4.4V299a.43.43,0,0,0,.4.4h15.8a.43.43,0,0,0,.4-.4v-1.6a.43.43,0,0,0-.4-.4m-6.3-7.8h1.6v7.9h-1.6Zm-4.6,0h1.6v7.9h-1.6Zm2.4,0h1.3v7.9h-1.3Zm4.5,0h1.3v7.9h-1.3Zm-3.8-6.9,6.1,4.4H536.9Zm6.3,5.3-.8.8H537.6l-.8-.8Zm-11.5,1.6h1.3v7.9h-1.3Zm12.6,9.5H535.5v-.8h14.9Z"/><path class="cls-1" d="M537,295h-5.4v-4.1H537v-.8h-5.4l3.2-4.1h1.8l1.1-.8h-3.1c-.1,0-.3.1-.3.2l-3.8,5a.47.47,0,0,0,.1.6c.1,0,.1.1.2.1v4.1c-.2,0-.4.3-.4.5s.2.3.4.4H537Z"/><path class="cls-1" d="M555.2,295v-4.1c.1,0,.3-.1.3-.2a.3.3,0,0,0,0-.4l-3.8-5c-.1-.1-.2-.2-.3-.2h-3.2l1.1.8h1.8l3.2,4.1H549v.8h5.4v4.1H549v.8h6.2c.2,0,.4-.3.4-.5a.52.52,0,0,0-.4-.2"/><path class="cls-1" d="M533.1,291.85a.4.4,0,1,1-.8,0c0-.2.3-.4.5-.4a1.38,1.38,0,0,1,.3.4"/><path class="cls-1" d="M534.7,291.85a.4.4,0,0,1-.8,0h0a.4.4,0,0,1,.8,0h0"/><path class="cls-1" d="M536.4,291.85a.4.4,0,1,1-.4-.4.43.43,0,0,1,.4.4"/><path class="cls-1" d="M533.1,293.55a.4.4,0,1,1-.4-.4.37.37,0,0,1,.4.4"/><path class="cls-1" d="M534.7,293.55a.4.4,0,1,1-.4-.4.37.37,0,0,1,.4.4"/><path class="cls-1" d="M536.4,293.55a.4.4,0,1,1-.4-.4h0c.2-.1.4.1.4.4"/><path class="cls-1" d="M550.4,291.85a.4.4,0,1,1-.4-.4.43.43,0,0,1,.4.4"/><path class="cls-1" d="M552.1,291.85a.43.43,0,0,1-.4.4h0a.4.4,0,0,1,0-.8h0a.43.43,0,0,1,.4.4"/><path class="cls-1" d="M553.7,291.85a.4.4,0,0,1-.8,0h0a.4.4,0,0,1,.8,0h0"/><path class="cls-1" d="M550.4,293.55a.4.4,0,1,1-.4-.4h0c.2-.1.4.1.4.4"/><path class="cls-1" d="M552.1,293.55a.43.43,0,0,1-.4.4h0a.4.4,0,1,1,0-.8h0c.2-.1.4.1.4.4h0"/><path class="cls-1" d="M553.7,293.55a.4.4,0,1,1-.4-.4.37.37,0,0,1,.4.4"/><path class="cls-1" d="M456.9,224.05H441.1c-.2,0-.3-.1-.4-.3a.44.44,0,0,1,.1-.5l2.3-1.9a.37.37,0,0,1,.3-.1h11.2a.37.37,0,0,1,.3.1l2.3,1.9a.44.44,0,0,1,.1.5.54.54,0,0,1-.4.3m-14.7-.8h13.5l-1.3-1.1H443.6Z"/><path class="cls-1" d="M456.9,223.25H455v-8.1l1.6-1.5h0v-.2h0v-.4h0v.1h0l-7.4-5.4a.45.45,0,0,0-.5,0l-7.4,5.4h0v.2h0v.4h0v.2h0l1.6,1.5v8.1H441a.43.43,0,0,0-.4.4h0v1.6a.43.43,0,0,0,.4.4h15.8a.43.43,0,0,0,.4-.4h0V224c.1-.5-.1-.7-.3-.7h0m-6.4-7.9h1.6v7.9h-1.6Zm-4.5,0h1.6v7.9H446Zm2.4,0h1.3v7.9h-1.3Zm4.5,0h1.3v7.9h-1.3Zm-3.9-6.9,6.1,4.4H443Zm6.3,5.3-.9.8H443.6l-.9-.8Zm-11.5,1.6h1.3v7.9h-1.3Zm12.7,9.5H441.6v-.8h14.9Z"/><path class="cls-1" d="M443,221.15h-5.4v-4.1H443v-.9h-5.4l3.2-4.1h1.9l1.1-.8h-3.2c-.1,0-.3.1-.3.2l-3.8,5a.3.3,0,0,0,0,.4.52.52,0,0,0,.4.2v4.1c-.2,0-.4.3-.4.5s.2.3.4.4h6.2Z"/><path class="cls-1" d="M461.3,221.15v-4.1a.43.43,0,0,0,.4-.4c0-.1,0-.2-.1-.2l-3.8-5c-.1-.1-.2-.2-.3-.2h-3.2l1.1.8h1.9l3.2,4.1h-5.4v.8h5.4v4.2h-5.4v.8h6.2c.2,0,.4-.3.4-.5s-.3-.3-.4-.3"/><path class="cls-1" d="M439.1,218.05a.43.43,0,0,1-.4.4h0a.43.43,0,0,1-.4-.4c0-.2.3-.4.5-.4a.45.45,0,0,1,.3.4"/><path class="cls-1" d="M440.8,218.05a.43.43,0,0,1-.4.4h0a.43.43,0,0,1-.4-.4h0a.43.43,0,0,1,.4-.4h0c.2-.1.4.1.4.4h0"/><path class="cls-1" d="M442.4,218.05a.4.4,0,1,1-.4-.4c.3-.1.4.1.4.4"/><path class="cls-1" d="M439.1,219.65a.43.43,0,0,1-.4.4h0a.4.4,0,1,1,.4-.4h0"/><path class="cls-1" d="M440.8,219.65a.43.43,0,0,1-.4.4h0a.4.4,0,1,1,.4-.4h0"/><path class="cls-1" d="M442.4,219.65a.4.4,0,1,1-.4-.4.43.43,0,0,1,.4.4h0"/><path class="cls-1" d="M456.5,218.05a.4.4,0,1,1-.4-.4c.2-.1.3.1.4.4"/><path class="cls-1" d="M458.1,218.05a.43.43,0,0,1-.4.4h0a.43.43,0,0,1-.4-.4h0a.43.43,0,0,1,.4-.4h0c.2-.1.4.1.4.4h0"/><path class="cls-1" d="M459.8,218.05a.43.43,0,0,1-.4.4h0a.43.43,0,0,1-.4-.4h0a.43.43,0,0,1,.4-.4h0c.2-.1.4.1.4.4h0"/><path class="cls-1" d="M456.5,219.65a.4.4,0,1,1-.4-.4.43.43,0,0,1,.4.4h0"/><path class="cls-1" d="M458.1,219.65a.43.43,0,0,1-.4.4h0a.4.4,0,0,1,0-.8h0a.43.43,0,0,1,.4.4h0"/><path class="cls-1" d="M459.8,219.65a.43.43,0,0,1-.4.4h0a.4.4,0,1,1,.4-.4h0"/><path class="cls-1" d="M643.8,133.05H628a.43.43,0,0,1-.4-.4c0-.1,0-.3.2-.3l2.3-2a.37.37,0,0,1,.3-.1h11.2a.37.37,0,0,1,.3.1l2.3,2a.44.44,0,0,1,.1.5.59.59,0,0,1-.5.2m-14.5-.8h13.5l-1.4-1.1H630.5Z"/><path class="cls-1" d="M643.8,132.25h-1.9v-8.1l1.6-1.5h0v-.1h0v-.1h0v-.2h-.1l-7.3-5.4a.45.45,0,0,0-.5,0l-7.3,5.4h-.1v.2h0v.1h0v.1h0l1.6,1.5v8.1H628a.43.43,0,0,0-.4.4h0v1.6a.43.43,0,0,0,.4.4h15.8a.43.43,0,0,0,.4-.4v-1.6a.43.43,0,0,0-.4-.4h0m-6.4-7.9H639v7.9h-1.6Zm-4.5,0h1.6v7.9h-1.6Zm2.4,0h1.3v7.9h-1.3Zm4.5,0h1.3v7.9h-1.3Zm-3.9-6.9,6.1,4.4H629.9Zm6.3,5.3-.8.8H630.6l-.8-.8Zm-11.5,1.6H632v7.9h-1.3Zm12.7,9.5H628.5v-.8h14.9Z"/><path class="cls-1" d="M629.9,130.15h-5.3v-4.1H630v-.8h-5.4l3.2-4.1h1.8l1.1-.8h-3.1c-.1,0-.3.1-.3.2l-3.8,5a.47.47,0,0,0,.1.6c.1,0,.1.1.2.1v4.1a.4.4,0,0,0,0,.8H630Z"/><path class="cls-1" d="M648.2,130.15v-4.1c.1,0,.3-.1.3-.2s0-.3,0-.4l-3.8-5c-.1-.1-.2-.2-.3-.2h-3.2l1.1.8h1.8l3.2,4.1H642v.8h5.4v4.1H642v.8h6.2a.43.43,0,0,0,.4-.4.45.45,0,0,0-.4-.3"/><path class="cls-1" d="M626,127.05a.43.43,0,0,1-.4.4h0a.4.4,0,0,1,0-.8h0a.37.37,0,0,1,.4.4"/><path class="cls-1" d="M627.7,127.05a.4.4,0,1,1-.4-.4.43.43,0,0,1,.4.4"/><path class="cls-1" d="M629.4,127.05a.4.4,0,1,1-.8,0h0a.4.4,0,1,1,.8,0h0"/><path class="cls-1" d="M626,128.75a.43.43,0,0,1-.4.4c-.2,0-.4-.3-.4-.5s.2-.3.4-.4c.3.1.4.2.4.5"/><path class="cls-1" d="M627.7,128.75a.4.4,0,1,1-.4-.4h0a.37.37,0,0,1,.4.4"/><path class="cls-1" d="M629.4,128.75a.43.43,0,0,1-.4.4.45.45,0,1,1-.1-.9h.1c.2.1.4.2.4.5h0"/><path class="cls-1" d="M643.4,127.05a.4.4,0,0,1-.8,0h0a.4.4,0,0,1,.8,0h0"/><path class="cls-1" d="M645.1,127.05a.43.43,0,0,1-.4.4h0a.4.4,0,0,1,0-.8h0a.43.43,0,0,1,.4.4"/><path class="cls-1" d="M646.7,127.05a.43.43,0,0,1-.4.4h0a.4.4,0,0,1,0-.8h0a.43.43,0,0,1,.4.4"/><path class="cls-1" d="M643.4,128.55c0,.1-.2.2-.4.2s-.4-.1-.4-.2.2-.2.4-.2.4,0,.4.2"/><path class="cls-1" d="M645.1,128.75a.43.43,0,0,1-.4.4c-.2,0-.4-.3-.4-.5s.2-.3.4-.4c.2.1.4.2.4.5"/><path class="cls-1" d="M646.7,128.75a.43.43,0,0,1-.4.4c-.2,0-.4-.3-.4-.5s.2-.3.4-.4c.2.1.4.2.4.5"/><path class="cls-1" d="M637.1,170.65H621.3a.43.43,0,0,1-.4-.4c0-.1,0-.3.2-.3l2.3-2a.37.37,0,0,1,.3-.1h11.2a.37.37,0,0,1,.3.1l2.3,2a.44.44,0,0,1,.1.5c-.2.1-.3.2-.5.2m-14.6-.9H636l-1.4-1.1H623.7Z"/><path class="cls-1" d="M637.1,169.75h-1.9v-8.1l1.6-1.5h0v-.1h0v-.2h-.1l-7.3-5.4a.45.45,0,0,0-.5,0l-7.3,5.4h-.1v.2h0v.1h0v.1h0l1.6,1.5v8.1h-1.8a.43.43,0,0,0-.4.4h0v1.6a.43.43,0,0,0,.4.4h15.8a.43.43,0,0,0,.4-.4v-1.7a.43.43,0,0,0-.4-.4h0m-6.5-7.8h1.6v7.9h-1.6Zm-4.5,0h1.6v7.9h-1.6Zm2.4,0h1.3v7.9h-1.3Zm4.5,0h1.3v7.9H633Zm-3.8-6.9,6.1,4.4H623.2Zm6.2,5.2-.8.8H623.8l-.8-.8ZM624,162h1.3v7.9H624Zm12.6,9.4H621.7v-.8h14.9Z"/><path class="cls-1" d="M623.2,167.65h-5.3v-4.1h5.4v-.8h-5.4l3.2-4.1h1.8l1.1-.8h-3.1c-.1,0-.3.1-.3.2l-3.8,5a.47.47,0,0,0,.1.6c.1,0,.1.1.2.1v4.1a.4.4,0,0,0,0,.8h6.2Z"/><path class="cls-1" d="M641.4,167.65v-4.1c.1,0,.3-.1.3-.2s0-.3,0-.4l-3.8-5c-.1-.1-.2-.2-.3-.2h-3.2l1.1.8h1.8l3.2,4.1h-5.3v.8h5.4v4.1h-5.4v.8h6.2a.43.43,0,0,0,.4-.4.45.45,0,0,0-.4-.3"/><path class="cls-1" d="M619.3,164.55a.43.43,0,0,1-.4.4h0a.4.4,0,1,1,0-.8h0a.43.43,0,0,1,.4.4"/><path class="cls-1" d="M620.9,164.55a.4.4,0,1,1-.4-.4.37.37,0,0,1,.4.4"/><path class="cls-1" d="M622.6,164.55a.4.4,0,0,1-.8,0h0a.4.4,0,0,1,.8,0h0"/><path class="cls-1" d="M619.3,166.25a.43.43,0,0,1-.4.4c-.2,0-.4-.3-.4-.5s.2-.3.4-.4a.66.66,0,0,1,.4.5"/><path class="cls-1" d="M620.9,166.25a.4.4,0,1,1-.4-.4h0a.37.37,0,0,1,.4.4"/><path class="cls-1" d="M622.6,166.25a.43.43,0,0,1-.4.4.51.51,0,0,1-.5-.4c-.1-.3.1-.4.4-.5h.1a.66.66,0,0,1,.4.5h0"/><path class="cls-1" d="M636.6,164.55a.4.4,0,1,1-.8,0h0a.4.4,0,0,1,.8,0h0"/><path class="cls-1" d="M638.3,164.55a.43.43,0,0,1-.4.4h0a.4.4,0,1,1,0-.8h0a.43.43,0,0,1,.4.4"/><path class="cls-1" d="M640,164.55a.43.43,0,0,1-.4.4h0a.4.4,0,1,1,0-.8h0a.43.43,0,0,1,.4.4"/><path class="cls-1" d="M636.6,166.05c0,.1-.2.2-.4.2s-.4-.1-.4-.2.2-.2.4-.2.4.1.4.2"/><path class="cls-1" d="M638.3,166.25a.43.43,0,0,1-.4.4c-.2,0-.4-.3-.4-.5s.2-.3.4-.4a.66.66,0,0,1,.4.5"/><path class="cls-1" d="M640,166.25a.43.43,0,0,1-.4.4c-.2,0-.4-.3-.4-.5s.2-.3.4-.4a.66.66,0,0,1,.4.5"/><path class="cls-2" d="M383.6,236.15v-4.1a.52.52,0,0,0,.4-.2.3.3,0,0,0,0-.4l-3.8-5c-.1-.1-.2-.2-.3-.2h-3.3l-5-3.6a.45.45,0,0,0-.5,0l-5,3.6h-3.2c-.1,0-.3.1-.3.2l-3.8,5a.3.3,0,0,0,0,.4.52.52,0,0,0,.4.2v4.1c-.2,0-.4.3-.4.5s.2.3.4.4h5.6l-1.6,1.4h0c-.1,0-.1.1-.1.2v1.8a.43.43,0,0,0,.4.4h15.8a.43.43,0,0,0,.4-.4h0v-1.7h0c0-.1-.1-.1-.1-.2h0l-1.6-1.4h5.6c.2,0,.4-.3.4-.5a.7.7,0,0,0-.4-.5"/><path class="cls-1" d="M379.2,239.05H363.4c-.2,0-.3-.1-.4-.3a.44.44,0,0,1,.1-.5l2.3-1.9a.37.37,0,0,1,.3-.1h11.2a.37.37,0,0,1,.3.1l2.3,1.9a.44.44,0,0,1,.1.5c-.1.2-.2.3-.4.3m-14.6-.8h13.5l-1.3-1.1H365.9Z"/><path class="cls-1" d="M379.2,238.25h-1.9v-8.1l1.6-1.5h0v-.2h0v-.4h0v0h0l-7.3-5.5a.45.45,0,0,0-.5,0l-7.3,5.4h0l-.1.1v.2h0v.4h0v.2h0l1.6,1.5v8.1h-1.9a.43.43,0,0,0-.4.4h0v1.6a.43.43,0,0,0,.4.4h15.8a.43.43,0,0,0,.4-.4h0v-1.6a.43.43,0,0,0-.4-.4h0m-6.4-8.2h1.5v7.9h-1.5Zm-4.5,0h1.6v7.9h-1.6Zm2.4,0H372v7.9h-1.3Zm4.5,0h1.3v7.9h-1.3Zm-3.9-6.9,6.1,4.4H365.2Zm6.3,5.3-.8.8H365.9l-.8-.8Zm-11.5,1.6h1.3v7.9h-1.3Zm12.7,9.5H363.9V239h14.9Z"/><path class="cls-1" d="M365.3,236.15h-5.4v-4.1h5.4v-.8H360l3.2-4.1h1.9l1.1-.8H363c-.1,0-.3.1-.3.2l-3.8,5a.3.3,0,0,0,0,.4.52.52,0,0,0,.4.2v4.1c-.2,0-.4.3-.4.5s.2.3.4.4h6.2Z"/><path class="cls-1" d="M383.6,236.15v-4.1a.52.52,0,0,0,.4-.2.3.3,0,0,0,0-.4l-3.8-5c-.1-.1-.2-.2-.3-.2h-3.3l1.1.8h1.9l3.2,4.1h-5.3v.8h5.4v4.2h-5.4v.8h6.2c.2,0,.4-.3.4-.5-.2-.1-.3-.3-.5-.3"/><path class="cls-1" d="M361.4,233.05a.4.4,0,0,1-.8,0h0a.4.4,0,0,1,.8,0"/><path class="cls-1" d="M363.1,233.05a.43.43,0,0,1-.4.4h0a.43.43,0,0,1-.4-.4h0a.43.43,0,0,1,.4-.4h0a.43.43,0,0,1,.4.4h0"/><path class="cls-1" d="M364.7,233.05a.4.4,0,1,1-.8,0h0c0-.2.3-.4.5-.4s.3.2.3.4"/><path class="cls-1" d="M361.4,234.75a.4.4,0,1,1-.4-.4.37.37,0,0,1,.4.4h0"/><path class="cls-1" d="M363.1,234.75a.43.43,0,0,1-.4.4h0a.4.4,0,0,1,0-.8c.2-.1.4.1.4.4h0"/><path class="cls-1" d="M364.7,234.75a.4.4,0,1,1-.4-.4c.3,0,.4.1.4.4"/><path class="cls-1" d="M378.7,233.05a.43.43,0,0,1-.4.4h0a.43.43,0,0,1-.4-.4h0a.43.43,0,0,1,.4-.4h0a.37.37,0,0,1,.4.4h0"/><path class="cls-1" d="M380.4,233.05a.4.4,0,0,1-.8,0h0a.4.4,0,0,1,.8,0"/><path class="cls-1" d="M382.1,233.05a.4.4,0,1,1-.4-.4.43.43,0,0,1,.4.4"/><path class="cls-1" d="M378.7,234.75a.43.43,0,0,1-.4.4h0a.4.4,0,1,1,0-.8c.3,0,.4.1.4.4h0"/><path class="cls-1" d="M380.4,234.75a.4.4,0,1,1-.4-.4.37.37,0,0,1,.4.4h0"/><path class="cls-1" d="M382.1,234.75a.4.4,0,1,1-.4-.4.37.37,0,0,1,.4.4h0"/><path class="cls-1" d="M361,232.65a.43.43,0,0,0-.4.4h0a.4.4,0,0,0,.8,0h0a.43.43,0,0,0-.4-.4h0"/><path class="cls-1" d="M362.7,232.65a.43.43,0,0,0-.4.4h0a.43.43,0,0,0,.4.4h0a.43.43,0,0,0,.4-.4h0a.43.43,0,0,0-.4-.4h0"/><path class="cls-1" d="M364.3,232.65a.43.43,0,0,0-.4.4h0a.43.43,0,0,0,.4.4h0a.43.43,0,0,0,.4-.4h0a.37.37,0,0,0-.4-.4h0"/><path class="cls-1" d="M361,234.25a.4.4,0,1,0,.4.4.43.43,0,0,0-.4-.4h0"/><path class="cls-1" d="M362.7,234.25a.4.4,0,1,0,.4.4c0-.2-.2-.3-.4-.4"/><path class="cls-1" d="M364.3,234.25a.4.4,0,1,0,.4.4c0-.2-.1-.3-.4-.4"/><path class="cls-1" d="M378.3,233.45a.43.43,0,0,0,.4-.4h0a.43.43,0,0,0-.4-.4h0a.43.43,0,0,0-.4.4h0a.43.43,0,0,0,.4.4h0"/><path class="cls-1" d="M380,233.45a.43.43,0,0,0,.4-.4h0a.4.4,0,1,0-.4.4h0"/><path class="cls-1" d="M381.7,233.45a.43.43,0,0,0,.4-.4h0a.4.4,0,1,0-.8,0,.37.37,0,0,0,.4.4h0"/><path class="cls-1" d="M378.3,235.15a.4.4,0,1,0,0-.8h0a.4.4,0,1,0,0,.8"/><path class="cls-1" d="M380,235.15a.4.4,0,1,0-.4-.4.43.43,0,0,0,.4.4h0"/><path class="cls-1" d="M381.7,235.15a.4.4,0,1,0-.4-.4c-.1.2.1.4.4.4h0"/><path class="cls-2" d="M258.7,338.05V334a.76.76,0,0,0,.4-.2.3.3,0,0,0,0-.4l-3.8-5c-.1-.1-.2-.2-.3-.2h-3.2l-5-3.6a.45.45,0,0,0-.5,0l-5,3.6h-3.2c-.1,0-.3.1-.3.2l-3.8,5a.47.47,0,0,0,.1.6c.1,0,.1.1.2.1v4.1a.4.4,0,1,0,0,.8h5.6l-1.6,1.4h0c-.1,0-.1.1-.1.2h0v1.7a.43.43,0,0,0,.4.4h15.8a.43.43,0,0,0,.4-.4h0v-1.7h0c0-.1-.1-.1-.1-.2h0l-1.6-1.4h5.6a.43.43,0,0,0,.4-.4h0c0-.3-.2-.4-.4-.5"/><path class="cls-1" d="M254.4,341H238.6c-.2,0-.3-.1-.4-.3s0-.3.1-.5l2.3-2a.37.37,0,0,1,.3-.1h11.2a.37.37,0,0,1,.3.1l2.3,2c.2.1.2.4.1.6s-.3.2-.4.2m-14.7-.8h13.5l-1.3-1.1H241Z"/><path class="cls-1" d="M254.4,340.15h-1.9v-8.1l1.6-1.5h0v-.1h0v-.1h0v-.2h0l-.1-.1h0l-7.4-5.4a.45.45,0,0,0-.5,0l-7.4,5.4h-.1v.2h0v.1h0v.1h0l1.6,1.5v8.1h-1.6a.43.43,0,0,0-.4.4h0v1.6a.43.43,0,0,0,.4.4h15.8a.43.43,0,0,0,.4-.4h0v-1.6a.45.45,0,0,0-.4-.3h0m-6.4-7.9h1.6v7.9H248Zm-4.6,0H245v7.9h-1.6Zm2.4,0h1.3v7.9h-1.3Zm4.6,0h1.3v7.9h-1.3Zm-3.9-6.9,6.1,4.5H240.5Zm6.3,5.3-.9.8H241l-.8-.8Zm-11.5,1.6h1.3v7.9h-1.3Zm12.6,9.5H239V341h14.9Z"/><path class="cls-1" d="M240.5,338.05h-5.4V334h5.4v-.8h-5.3l3.2-4.1h1.9l1.1-.8h-3.2c-.1,0-.3.1-.3.2l-3.8,5a.47.47,0,0,0,.1.6c.1,0,.1.1.2.1v4.1a.4.4,0,0,0,0,.8h6.2v-1Z"/><path class="cls-1" d="M258.7,338.05V334a.76.76,0,0,0,.4-.2.3.3,0,0,0,0-.4l-3.8-5c-.1-.1-.2-.2-.3-.2h-3.2l1.1.8h1.9l3.2,4.1h-5.3v.8h5.4V338h-5.4v.8h6.2a.43.43,0,0,0,.4-.4h0c-.2-.1-.4-.3-.6-.3"/><path class="cls-1" d="M236.6,335a.43.43,0,0,1-.4.4h0c-.2,0-.4-.3-.4-.5s.2-.3.4-.4a.66.66,0,0,1,.4.5"/><path class="cls-1" d="M238.2,335a.4.4,0,1,1-.4-.4.43.43,0,0,1,.4.4"/><path class="cls-1" d="M239.9,335a.43.43,0,0,1-.4.4h0a.43.43,0,0,1-.4-.4h0a.4.4,0,1,1,.8,0h0"/><path class="cls-1" d="M236.6,336.65a.43.43,0,0,1-.4.4h0a.43.43,0,0,1-.4-.4h0a.43.43,0,0,1,.4-.4h0a.37.37,0,0,1,.4.4h0"/><path class="cls-1" d="M238.2,336.65a.4.4,0,1,1-.8,0h0a.43.43,0,0,1,.4-.4.37.37,0,0,1,.4.4"/><path class="cls-1" d="M239.9,336.65a.43.43,0,0,1-.4.4h0a.43.43,0,0,1-.4-.4h0a.43.43,0,0,1,.4-.4h0a.37.37,0,0,1,.4.4h0"/><path class="cls-1" d="M253.9,335a.43.43,0,0,1-.4.4h0a.43.43,0,0,1-.4-.4h0a.4.4,0,1,1,.8,0h0"/><path class="cls-1" d="M255.6,335a.43.43,0,0,1-.4.4h0c-.2,0-.4-.3-.4-.5s.2-.3.4-.4a.66.66,0,0,1,.4.5"/><path class="cls-1" d="M257.2,335a.4.4,0,0,1-.8,0h0a.43.43,0,0,1,.4-.4.37.37,0,0,1,.4.4"/><path class="cls-1" d="M253.9,336.65a.43.43,0,0,1-.4.4h0a.43.43,0,0,1-.4-.4h0a.43.43,0,0,1,.4-.4h0a.37.37,0,0,1,.4.4h0"/><path class="cls-1" d="M255.6,336.65a.43.43,0,0,1-.4.4h0a.43.43,0,0,1-.4-.4h0a.43.43,0,0,1,.4-.4h0a.37.37,0,0,1,.4.4h0"/><path class="cls-1" d="M257.2,336.65a.4.4,0,1,1-.8,0h0a.43.43,0,0,1,.4-.4c.3,0,.4.1.4.4"/><path class="cls-1" d="M236.1,334.55a.43.43,0,0,0-.4.4h0a.43.43,0,0,0,.4.4h0a.43.43,0,0,0,.4-.4h0c.1-.2-.1-.4-.4-.4h0"/><path class="cls-1" d="M237.8,334.55a.43.43,0,0,0-.4.4h0a.4.4,0,1,0,.4-.4h0"/><path class="cls-1" d="M239.5,334.55a.43.43,0,0,0-.4.4h0a.4.4,0,1,0,.4-.4h0"/><path class="cls-1" d="M236.1,336.25a.43.43,0,0,0-.4.4h0a.43.43,0,0,0,.4.4h0a.43.43,0,0,0,.4-.4h0c.1-.3-.1-.4-.4-.4h0"/><path class="cls-1" d="M237.8,336.25a.43.43,0,0,0-.4.4h0a.4.4,0,1,0,.8,0h0a.37.37,0,0,0-.4-.4h0"/><path class="cls-1" d="M239.5,336.25a.43.43,0,0,0-.4.4h0a.4.4,0,1,0,.8,0,.37.37,0,0,0-.4-.4h0"/><path class="cls-1" d="M253.5,335.35a.43.43,0,0,0,.4-.4h0a.43.43,0,0,0-.4-.4h0a.43.43,0,0,0-.4.4h0a.43.43,0,0,0,.4.4h0"/><path class="cls-1" d="M255.2,335.35a.43.43,0,0,0,.4-.4h0a.43.43,0,0,0-.4-.4h0a.43.43,0,0,0-.4.4h0c-.1.2.1.4.4.4h0"/><path class="cls-1" d="M256.8,335.35a.43.43,0,0,0,.4-.4h0a.43.43,0,0,0-.4-.4h0a.43.43,0,0,0-.4.4h0a.43.43,0,0,0,.4.4h0"/><path class="cls-1" d="M253.5,337.05c.2,0,.4-.3.4-.5s-.2-.3-.4-.4a.45.45,0,0,0-.1.9h.1"/><path class="cls-1" d="M255.2,337.05a.45.45,0,1,0,.1-.9h-.1c-.2,0-.4.3-.4.5a.43.43,0,0,0,.4.4"/><path class="cls-1" d="M256.8,337.05a.51.51,0,0,0,.5-.4c.1-.3-.1-.4-.4-.5h-.1c-.2,0-.4.3-.4.5s.2.4.4.4"/><rect class="cls-1" x="506.1" y="152.85" width="89.3" height="22.3"/><polygon class="cls-1" points="595.4 168.95 595.4 163.95 595.4 158.95 605.4 161.45 615.4 163.95 605.4 166.45 595.4 168.95"/><rect class="cls-1" x="246.1" y="220.45" width="89.3" height="22.3"/><polygon class="cls-1" points="335.4 236.65 335.4 231.65 335.3 226.65 345.3 229.05 355.3 231.55 345.4 234.05 335.4 236.65"/><rect class="cls-1" x="305.9" y="398.75" width="89.3" height="22.3"/><polygon class="cls-1" points="395.2 414.95 395.2 409.95 395.2 404.95 405.2 407.35 415.2 409.85 405.2 412.35 395.2 414.95"/><rect class="cls-1" x="117.1" y="322.35" width="89.3" height="22.3"/><polygon class="cls-1" points="206.4 338.55 206.4 333.55 206.4 328.55 216.4 331.05 226.4 333.45 216.4 336.05 206.4 338.55"/><rect class="cls-1" x="673.3" y="115.95" width="89.3" height="22.3"/><polygon class="cls-1" points="673.3 132.05 673.3 127.05 673.3 122.05 663.3 124.55 653.3 127.15 663.3 129.55 673.3 132.05"/><rect class="cls-1" x="485" y="205.45" width="89.3" height="22.3"/><polygon class="cls-1" points="485 221.55 485 216.55 485 211.55 475 214.15 465 216.65 475 219.15 485 221.55"/><rect class="cls-1" x="580.8" y="279.25" width="89.3" height="22.3"/><polygon class="cls-1" points="580.8 295.45 580.8 290.45 580.8 285.45 570.8 287.95 560.8 290.55 570.8 292.95 580.8 295.45"/><rect class="cls-1" x="574.7" y="318.65" width="89.3" height="22.3"/><polygon class="cls-1" points="574.7 334.85 574.7 329.85 574.7 324.85 564.7 327.35 554.7 329.95 564.7 332.35 574.7 334.85"/></g><g id="t_vn"><polygon class="cls-2" points="532.7 162.75 531.5 162.75 531.5 162.05 534.7 162.05 534.7 162.75 533.4 162.75 533.4 166.15 532.7 166.15 532.7 162.75"/><path class="cls-2" d="M535.2,162.05H537a1.92,1.92,0,0,1,1.2.4,1.22,1.22,0,0,1,.3.9h0a1.19,1.19,0,0,1-1,1.2l1.1,1.6h-.8l-1-1.4h-.9v1.4h-.7Zm1.7,2a.71.71,0,0,0,.8-.7h0a.71.71,0,0,0-.8-.7h-1v1.4Z"/><path class="cls-2" d="M539,164.35v-2.3h.7v2.3c0,.8.4,1.1,1,1.1a1,1,0,0,0,1-1.1v-2.3h.5a.22.22,0,0,0,.2-.2.76.76,0,0,0-.2-.5h.7a1.27,1.27,0,0,1,.1.6.73.73,0,0,1-.6.7v1.7a1.76,1.76,0,1,1-3.5.3.37.37,0,0,1,.1-.3"/><path class="cls-2" d="M543.2,164.15h0a2.09,2.09,0,0,1,2-2.1h.1a1.75,1.75,0,0,1,1.2.4c.2,0,.2-.1.2-.2a.76.76,0,0,0-.2-.5h.7a1.27,1.27,0,0,1,.1.6.71.71,0,0,1-.3.6,1.92,1.92,0,0,1,.4,1.2h0a2.11,2.11,0,0,1-2.1,2.1h-.1a2,2,0,0,1-2.1-1.9c.1-.1.1-.1.1-.2m3.5,0h0a1.4,1.4,0,1,0-2.8,0h0a1.35,1.35,0,0,0,1.3,1.4h0a1.39,1.39,0,0,0,1.5-1.4h0m-2.1-3.1.6-.3.6.9h-.5Z"/><polygon class="cls-2" points="548 162.05 548.6 162.05 550.8 164.85 550.8 162.05 551.5 162.05 551.5 166.15 550.9 166.15 548.7 163.25 548.7 166.15 548 166.15 548 162.05"/><path class="cls-2" d="M552.1,164.15h0a2.08,2.08,0,0,1,1.9-2.1h.2a2,2,0,0,1,1.5.6l-.5.5a1.5,1.5,0,0,0-1.1-.4,1.34,1.34,0,0,0-1.3,1.4h0a1.34,1.34,0,0,0,1.3,1.4h.1a1.69,1.69,0,0,0,1-.3v-.8h-1v-.6h1.7v1.7a2.72,2.72,0,0,1-1.7.6,2,2,0,0,1-2.1-1.9v-.1"/><polygon class="cls-2" points="557.9 162.05 558.6 162.05 558.6 163.75 560.5 163.75 560.5 162.05 561.2 162.05 561.2 166.15 560.5 166.15 560.5 164.45 558.6 164.45 558.6 166.15 557.9 166.15 557.9 162.05"/><path class="cls-2" d="M561.8,164.15h0a2.11,2.11,0,0,1,2.1-2.1h.1a2,2,0,0,1,2.1,1.9v.2h0a2.18,2.18,0,0,1-2.2,2,2.25,2.25,0,0,1-2.1-2m3.4,0h0a1.35,1.35,0,0,0-1.3-1.4h0a1.42,1.42,0,0,0-1.4,1.3v.1h0a1.37,1.37,0,0,0,1.4,1.4,1.34,1.34,0,0,0,1.3-1.4h0m-1.6,2.3h.6v.7h-.6Z"/><path class="cls-2" d="M566.4,164.15h0a2.08,2.08,0,0,1,1.9-2.1h.2a2.27,2.27,0,0,1,1.6.6l-.5.5a1.61,1.61,0,0,0-1.1-.5,1.35,1.35,0,0,0-1.3,1.4h0a1.34,1.34,0,0,0,1.3,1.4h.1a1.85,1.85,0,0,0,1.2-.5l.5.5a2,2,0,0,1-1.6.7,2.09,2.09,0,0,1-2.3-2h0"/><polygon class="cls-2" points="272.7 230.35 271.4 230.35 271.4 229.75 274.7 229.75 274.7 230.35 273.4 230.35 273.4 233.75 272.7 233.75 272.7 230.35"/><path class="cls-2" d="M275.1,229.75h1.8a1.92,1.92,0,0,1,1.2.4,1.22,1.22,0,0,1,.3.9h0a1.19,1.19,0,0,1-1,1.2l1.1,1.5h-.8l-1-1.4h-.9v1.4h-.7Zm1.8,2a.71.71,0,0,0,.8-.7h0a.71.71,0,0,0-.8-.7h-1v1.4Z"/><path class="cls-2" d="M278.9,232.05v-2.3h.7v2.3c0,.8.4,1.1,1,1.1a1,1,0,0,0,1-1.1v-2.3h.5a.35.35,0,0,0,.2-.1.76.76,0,0,0-.2-.5h.7a1.27,1.27,0,0,1,.1.6.73.73,0,0,1-.6.7v1.7a1.76,1.76,0,0,1-3.5.3,1.58,1.58,0,0,0,.1-.4"/><path class="cls-2" d="M283.2,231.75h0a2.09,2.09,0,0,1,2-2.1h.1a1.75,1.75,0,0,1,1.2.4.22.22,0,0,0,.2-.2,4.33,4.33,0,0,0-.1-.5h.7a1.27,1.27,0,0,1,.1.6.62.62,0,0,1-.4.6,1.92,1.92,0,0,1,.4,1.2h0a2.09,2.09,0,0,1-2,2.1h-.1a2,2,0,0,1-2.1-1.9v-.2m3.4,0h0a1.4,1.4,0,0,0-2.8,0h0a1.35,1.35,0,0,0,1.3,1.4h0a1.39,1.39,0,0,0,1.5-1.4h0m-2-3.1.6-.3.6.9h-.5Z"/><polygon class="cls-2" points="288 229.75 288.6 229.75 290.8 232.55 290.8 229.75 291.5 229.75 291.5 233.75 290.9 233.75 288.6 230.95 288.6 233.75 288 233.75 288 229.75"/><path class="cls-2" d="M292,231.75h0a2.08,2.08,0,0,1,1.9-2.1h.2a2.46,2.46,0,0,1,1.5.5l-.5.5a1.5,1.5,0,0,0-1.1-.4,1.34,1.34,0,0,0-1.3,1.4h0a1.33,1.33,0,0,0,1.2,1.4h.1a1.69,1.69,0,0,0,1-.3v-.6h-1v-.6h1.7v1.7a2.72,2.72,0,0,1-1.7.6,2,2,0,0,1-2.1-1.9c.2-.1.2-.1.1-.2"/><polygon class="cls-2" points="297.8 229.75 298.6 229.75 298.6 231.45 300.5 231.45 300.5 229.75 301.2 229.75 301.2 233.75 300.5 233.75 300.5 232.05 298.6 232.05 298.6 233.75 297.8 233.75 297.8 229.75"/><path class="cls-2" d="M301.7,231.75h0a2.11,2.11,0,0,1,2.1-2.1h.1a2,2,0,0,1,2.1,1.9v.2h0a2.21,2.21,0,0,1-2.3,2,2.24,2.24,0,0,1-2-2m3.5,0h0a1.35,1.35,0,0,0-1.3-1.4h-.1a1.42,1.42,0,0,0-1.4,1.3v.1h0a1.37,1.37,0,0,0,1.4,1.4,1.5,1.5,0,0,0,1.4-1.4m-1.7,2.4h.6v.7h-.6Z"/><path class="cls-2" d="M306.3,231.75h0a2.08,2.08,0,0,1,1.9-2.1h.2a2.27,2.27,0,0,1,1.6.6l-.5.5a1.61,1.61,0,0,0-1.1-.5,1.35,1.35,0,0,0-1.3,1.4v.1h0a1.35,1.35,0,0,0,1.3,1.4h0a1.85,1.85,0,0,0,1.2-.5l.5.5a2.18,2.18,0,0,1-3,.2,2.72,2.72,0,0,1-.8-1.6"/><polygon class="cls-2" points="332.6 408.65 331.3 408.65 331.3 408.05 334.5 408.05 334.5 408.65 333.3 408.65 333.3 412.05 332.6 412.05 332.6 408.65"/><path class="cls-2" d="M335,408.05h1.8a1.92,1.92,0,0,1,1.2.4,1.22,1.22,0,0,1,.3.9h0a1.19,1.19,0,0,1-1,1.2l1.1,1.5h-.8l-1-1.4h-.9v1.4H335Zm1.7,2a.71.71,0,0,0,.8-.7h0a.71.71,0,0,0-.8-.7h-1v1.4Z"/><path class="cls-2" d="M338.8,410.35v-2.3h.7v2.3c0,.8.4,1.1,1,1.1a1,1,0,0,0,1-1.1v-2.3h.5a.35.35,0,0,0,.2-.1.76.76,0,0,0-.2-.5h.7a1.27,1.27,0,0,1,.1.6.86.86,0,0,1-.6.7v1.7a1.76,1.76,0,1,1-3.5.3,1.58,1.58,0,0,0,.1-.4"/><path class="cls-2" d="M343,410.05h0a2.11,2.11,0,0,1,2.1-2.1h.1a1.75,1.75,0,0,1,1.2.4.22.22,0,0,0,.2-.2,4.33,4.33,0,0,0-.1-.5h.7a1.27,1.27,0,0,1,.1.6.62.62,0,0,1-.4.6,1.92,1.92,0,0,1,.4,1.2h0a2.11,2.11,0,0,1-2.1,2.1h-.1a2,2,0,0,1-2.1-1.9v-.2m3.5,0h0a1.4,1.4,0,1,0-2.8,0h0a1.35,1.35,0,0,0,1.3,1.4h0a1.39,1.39,0,0,0,1.5-1.4h0m-2.1-3.1.6-.3.6.9h-.5Z"/><polygon class="cls-2" points="347.8 408.05 348.5 408.05 350.6 410.75 350.6 408.05 351.3 408.05 351.3 412.05 350.7 412.05 348.5 409.15 348.5 412.05 347.8 412.05 347.8 408.05"/><path class="cls-2" d="M351.9,410.05h0a2.09,2.09,0,0,1,2-2.1h.1a2.46,2.46,0,0,1,1.5.5l-.5.5a1.5,1.5,0,0,0-1.1-.4,1.34,1.34,0,0,0-1.3,1.4h0a1.34,1.34,0,0,0,1.3,1.4h.1a1.69,1.69,0,0,0,1-.3v-.8h-1v-.6h1.6v1.7a2.72,2.72,0,0,1-1.7.6,2,2,0,0,1-2.1-1.9c0,.1,0,0,.1,0"/><polygon class="cls-2" points="357.7 408.05 358.4 408.05 358.4 409.65 360.3 409.65 360.3 408.05 361 408.05 361 412.05 360.3 412.05 360.3 410.35 358.4 410.35 358.4 412.05 357.7 412.05 357.7 408.05"/><path class="cls-2" d="M361.6,410.05h0a2.11,2.11,0,0,1,2.1-2.1h.1a2,2,0,0,1,2.1,1.9v.2h0a2.21,2.21,0,0,1-2.3,2,2.24,2.24,0,0,1-2-2m3.5,0h0a1.35,1.35,0,0,0-1.3-1.4h0a1.42,1.42,0,0,0-1.4,1.3v.1h0a1.35,1.35,0,0,0,1.3,1.4h.1a1.35,1.35,0,0,0,1.3-1.4h0m-1.7,2.4h.6v.7h-.6Z"/><path class="cls-2" d="M366.2,410.05h0a2.08,2.08,0,0,1,1.9-2.1h.2a2.27,2.27,0,0,1,1.6.6l-.5.5a1.61,1.61,0,0,0-1.1-.5A1.35,1.35,0,0,0,367,410h0a1.34,1.34,0,0,0,1.3,1.4h.1a1.85,1.85,0,0,0,1.2-.5l.5.5a2.27,2.27,0,0,1-3.9-1.3h0"/><polygon class="cls-2" points="143.7 332.25 142.5 332.25 142.5 331.65 145.7 331.65 145.7 332.25 144.5 332.25 144.5 335.65 143.7 335.65 143.7 332.25"/><path class="cls-2" d="M146.2,331.65H148a1.92,1.92,0,0,1,1.2.4,1.22,1.22,0,0,1,.3.9h0a1.19,1.19,0,0,1-1,1.2l1.1,1.5h-.8l-1-1.4h-.9v1.4h-.7Zm1.7,2a.71.71,0,0,0,.8-.7h0a.71.71,0,0,0-.8-.7h-1v1.4Z"/><path class="cls-2" d="M150,334v-2.3h.7V334c0,.8.4,1.1,1,1.1a1,1,0,0,0,1-1.1v-2.3h.5a.22.22,0,0,0,.2-.2.76.76,0,0,0-.2-.5h.7a1.27,1.27,0,0,1,.1.6.73.73,0,0,1-.6.7V334a1.59,1.59,0,0,1-1.4,1.8h-.3a1.58,1.58,0,0,1-1.7-1.5.19.19,0,0,1,0-.3"/><path class="cls-2" d="M154.2,333.65h0a2.09,2.09,0,0,1,2-2.1h.1a1.92,1.92,0,0,1,1.2.4c.2,0,.2-.1.2-.2a.76.76,0,0,0-.2-.5h.7a1.27,1.27,0,0,1,.1.6.62.62,0,0,1-.4.6,1.92,1.92,0,0,1,.4,1.2h0a2.05,2.05,0,0,1-2.1,2.1,2.09,2.09,0,0,1-2-2.1m3.5,0h0a1.4,1.4,0,0,0-2.8,0h0a1.4,1.4,0,0,0,2.8,0m-2.1-3.1.6-.3.6.9h-.5Z"/><polygon class="cls-2" points="159 331.65 159.7 331.65 161.8 334.45 161.8 331.65 162.5 331.65 162.5 335.65 161.9 335.65 159.7 332.75 159.7 335.65 159 335.65 159 331.65"/><path class="cls-2" d="M163.1,333.65h0a2.08,2.08,0,0,1,1.9-2.1h.2a3,3,0,0,1,1.6.5l-.4.5a1.5,1.5,0,0,0-1.1-.4,1.42,1.42,0,0,0-1.3,1.4h0a1.27,1.27,0,0,0,1.2,1.4h.1a1.69,1.69,0,0,0,1-.3v-.8h-1v-.6H167V335a2.72,2.72,0,0,1-1.7.6,2.08,2.08,0,0,1-2.1-1.9c-.1.2-.1.1-.1,0"/><polygon class="cls-2" points="168.9 331.65 169.6 331.65 169.6 333.35 171.5 333.35 171.5 331.65 172.2 331.65 172.2 335.65 171.5 335.65 171.5 333.95 169.6 333.95 169.6 335.65 168.9 335.65 168.9 331.65"/><path class="cls-2" d="M172.8,333.65h0a2.1,2.1,0,0,1,4.2,0h0a2.1,2.1,0,1,1-4.2,0m3.5,0h0a1.4,1.4,0,0,0-2.8,0h0a1.35,1.35,0,0,0,1.3,1.4h.1a1.43,1.43,0,0,0,1.4-1.4h0m-1.7,2.4h.6v.7h-.6Z"/><path class="cls-2" d="M177.4,333.65h0a2.08,2.08,0,0,1,1.9-2.1h.2a2.27,2.27,0,0,1,1.6.6l-.4.5a1.61,1.61,0,0,0-1.1-.5,1.29,1.29,0,0,0-1.3,1.4h0a1.29,1.29,0,0,0,1.3,1.4h0a1.43,1.43,0,0,0,1.1-.5l.5.5a2,2,0,0,1-1.6.7,2.08,2.08,0,0,1-2.1-1.9c-.1,0-.1,0-.1-.1"/><polygon class="cls-2" points="699.9 125.85 698.6 125.85 698.6 125.15 701.9 125.15 701.9 125.85 700.6 125.85 700.6 129.15 699.9 129.15 699.9 125.85"/><path class="cls-2" d="M702.3,125.15h1.8a1.92,1.92,0,0,1,1.2.4,1.22,1.22,0,0,1,.3.9h0a1.19,1.19,0,0,1-1,1.2l1.1,1.5h-.8l-1-1.4H703v1.4h-.7Zm1.8,2c.5,0,.8-.2.8-.7h0a.71.71,0,0,0-.8-.7h-1v1.3h1Z"/><path class="cls-2" d="M706.1,127.45v-2.3h.7v2.3c0,.8.4,1.2,1,1.2a1,1,0,0,0,1-1.1v-2.4h.5c.1,0,.1,0,.2-.2a.76.76,0,0,0-.2-.5h.7a1.27,1.27,0,0,1,.1.6.86.86,0,0,1-.6.7v1.7a1.59,1.59,0,0,1-1.4,1.8h-.3a1.58,1.58,0,0,1-1.7-1.5v-.3"/><path class="cls-2" d="M710.4,127.15h0a2.11,2.11,0,0,1,2.1-2.1h.1a1.75,1.75,0,0,1,1.2.4c.2,0,.2-.1.2-.2a.76.76,0,0,0-.2-.5h.7a1.27,1.27,0,0,1,.1.6.71.71,0,0,1-.3.6,1.92,1.92,0,0,1,.4,1.2h0a2.11,2.11,0,0,1-2.1,2.1h-.1a2,2,0,0,1-2.1-1.9v-.2m3.5,0h0a1.35,1.35,0,0,0-1.3-1.4h0a1.37,1.37,0,0,0-1.4,1.4v.1h0a1.35,1.35,0,0,0,1.3,1.4h0a1.52,1.52,0,0,0,1.4-1.5h0m-2.1-3,.6-.3.6.9h-.5Z"/><polygon class="cls-2" points="715.1 125.15 715.8 125.15 717.9 127.95 717.9 125.15 718.6 125.15 718.6 129.15 718.1 129.15 715.8 126.35 715.8 129.15 715.1 129.15 715.1 125.15"/><path class="cls-2" d="M719.2,127.15h0a2.09,2.09,0,0,1,2-2.1h.1a2,2,0,0,1,1.5.6l-.5.5a1.5,1.5,0,0,0-1.1-.4,1.34,1.34,0,0,0-1.3,1.4h0a1.34,1.34,0,0,0,1.3,1.4h.1a1.69,1.69,0,0,0,1-.3v-.8h-1v-.6H723v1.7a2.72,2.72,0,0,1-1.7.6,2,2,0,0,1-2.1-1.9c.1,0,.1,0,0-.1"/><polygon class="cls-2" points="725 125.15 725.7 125.15 725.7 126.85 727.7 126.85 727.7 125.15 728.4 125.15 728.4 129.15 727.7 129.15 727.7 127.45 725.7 127.45 725.7 129.15 725 129.15 725 125.15"/><path class="cls-2" d="M728.9,127.15h0a2.11,2.11,0,0,1,2.1-2.1h.1a2,2,0,0,1,2.1,1.9v.2h0a2.18,2.18,0,0,1-2.2,2,2.25,2.25,0,0,1-2.1-2m3.5,0h0a1.35,1.35,0,0,0-1.3-1.4H731a1.42,1.42,0,0,0-1.4,1.3v.1h0a1.37,1.37,0,0,0,1.4,1.4,1.5,1.5,0,0,0,1.4-1.4h0m-1.7,2.4h.7v.7h-.7Z"/><path class="cls-2" d="M733.5,127.15h0a2.08,2.08,0,0,1,1.9-2.1h.2a2.27,2.27,0,0,1,1.6.6l-.5.5a1.61,1.61,0,0,0-1.1-.5,1.29,1.29,0,0,0-1.3,1.4h0a1.29,1.29,0,0,0,1.3,1.4h0a1.85,1.85,0,0,0,1.2-.5l.5.5a2.18,2.18,0,0,1-3,.2,1.9,1.9,0,0,1-.8-1.5"/><polygon class="cls-2" points="511.6 215.35 510.4 215.35 510.4 214.65 513.6 214.65 513.6 215.35 512.3 215.35 512.3 218.75 511.6 218.75 511.6 215.35"/><path class="cls-2" d="M514.1,214.65h1.8a1.92,1.92,0,0,1,1.2.4,1.22,1.22,0,0,1,.3.9h0a1.19,1.19,0,0,1-1,1.2l1.1,1.5h-.9l-1-1.4h-.9v1.4H514Zm1.7,2c.5,0,.8-.2.8-.7h0a.71.71,0,0,0-.8-.7h-1v1.3Z"/><path class="cls-2" d="M517.9,217.05v-2.3h.7v2.3c0,.8.4,1.1,1,1.1a1,1,0,0,0,1-1.1v-2.3h.5c.1,0,.2,0,.2-.1a.76.76,0,0,0-.2-.5h.7a1.27,1.27,0,0,1,.1.6.86.86,0,0,1-.6.7v1.7a1.59,1.59,0,0,1-1.4,1.8h-.3a1.58,1.58,0,0,1-1.7-1.5v-.4"/><path class="cls-2" d="M522.1,216.75h0a2.11,2.11,0,0,1,2.1-2.1h.1a1.92,1.92,0,0,1,1.2.4c.2,0,.2-.1.2-.2a.76.76,0,0,0-.2-.5h.7a1.27,1.27,0,0,1,.1.6.71.71,0,0,1-.3.6,1.92,1.92,0,0,1,.4,1.2h0a2.09,2.09,0,0,1-2,2.1h-.1a2,2,0,0,1-2.1-1.9.31.31,0,0,1-.1-.2m3.5,0h0a1.4,1.4,0,1,0-2.8,0h0a1.37,1.37,0,0,0,1.4,1.4,1.43,1.43,0,0,0,1.4-1.4h0m-2.1-3.1.6-.3.6.9h-.5Z"/><polygon class="cls-2" points="526.9 214.65 527.5 214.65 529.7 217.45 529.7 214.65 530.4 214.65 530.4 218.75 529.8 218.75 527.6 215.85 527.6 218.75 526.9 218.75 526.9 214.65"/><path class="cls-2" d="M531,216.75h0a2.08,2.08,0,0,1,1.9-2.1h.2a2.35,2.35,0,0,1,1.6.5l-.4.5a1.5,1.5,0,0,0-1.1-.4,1.42,1.42,0,0,0-1.3,1.4h0a1.27,1.27,0,0,0,1.2,1.4h.1a1.69,1.69,0,0,0,1-.3V217h-1v-.6h1.7v1.7a2.72,2.72,0,0,1-1.7.6,2.08,2.08,0,0,1-2.1-1.9c-.1.1-.1,0-.1,0"/><polygon class="cls-2" points="536.8 214.65 537.5 214.65 537.5 216.35 539.4 216.35 539.4 214.65 540.1 214.65 540.1 218.75 539.4 218.75 539.4 217.05 537.5 217.05 537.5 218.75 536.8 218.75 536.8 214.65"/><path class="cls-2" d="M540.7,216.75h0a2.11,2.11,0,0,1,2.1-2.1h.1a2,2,0,0,1,2.1,1.9v.2h0a2.05,2.05,0,0,1-2.1,2.1,2.14,2.14,0,0,1-2.2-2.1h0m3.4,0h0a1.4,1.4,0,1,0-2.8,0h0a1.35,1.35,0,0,0,1.3,1.4h.1a1.37,1.37,0,0,0,1.4-1.4h0m-1.6,2.4h.6v.7h-.6Z"/><path class="cls-2" d="M545.3,216.75h0a2.08,2.08,0,0,1,1.9-2.1h.2a2.27,2.27,0,0,1,1.6.6l-.5.5a1.61,1.61,0,0,0-1.1-.5,1.29,1.29,0,0,0-1.3,1.4h0a1.29,1.29,0,0,0,1.3,1.4h0a1.85,1.85,0,0,0,1.2-.5l.5.5a2,2,0,0,1-1.6.7,2.08,2.08,0,0,1-2.1-1.9l-.1-.1"/><polygon class="cls-2" points="607.4 289.15 606.1 289.15 606.1 288.55 609.4 288.55 609.4 289.15 608.1 289.15 608.1 292.55 607.4 292.55 607.4 289.15"/><path class="cls-2" d="M609.8,288.55h1.8a1.92,1.92,0,0,1,1.2.4,1.22,1.22,0,0,1,.3.9h0a1.19,1.19,0,0,1-1,1.2l1.1,1.5h-.8l-1-1.4h-.9v1.4h-.7Zm1.7,2a.71.71,0,0,0,.8-.7h0a.71.71,0,0,0-.8-.7h-1v1.4Z"/><path class="cls-2" d="M613.6,290.85v-2.3h.7v2.3c0,.8.4,1.1,1,1.1a1,1,0,0,0,1-1.1v-2.3h.5a.22.22,0,0,0,.2-.2.76.76,0,0,0-.2-.5h.8a1.27,1.27,0,0,1,.1.6.73.73,0,0,1-.6.7v1.7a1.76,1.76,0,0,1-3.5.3v-.3"/><path class="cls-2" d="M617.8,290.55h0a2.09,2.09,0,0,1,2-2.1h.1a1.75,1.75,0,0,1,1.2.4c.2,0,.2-.1.2-.2a.76.76,0,0,0-.2-.5h.7a1.27,1.27,0,0,1,.1.6.62.62,0,0,1-.4.6,1.92,1.92,0,0,1,.4,1.2h0a2.11,2.11,0,0,1-2.1,2.1h-.1a2,2,0,0,1-2.1-1.9c.2-.1.2-.1.2-.2m3.5,0h0a1.4,1.4,0,1,0-2.8,0h0a1.35,1.35,0,0,0,1.3,1.4h.1a1.37,1.37,0,0,0,1.4-1.4h0m-2-3.1.6-.3.6,1H620Z"/><polygon class="cls-2" points="622.6 288.55 623.3 288.55 625.4 291.35 625.4 288.55 626.1 288.55 626.1 292.55 625.5 292.55 623.3 289.65 623.3 292.55 622.6 292.55 622.6 288.55"/><path class="cls-2" d="M626.7,290.55h0a2.08,2.08,0,0,1,1.9-2.1h.2a2.46,2.46,0,0,1,1.5.5l-.5.5a1.5,1.5,0,0,0-1.1-.4,1.34,1.34,0,0,0-1.3,1.4h0a1.33,1.33,0,0,0,1.2,1.4h.1a1.69,1.69,0,0,0,1-.3v-.8h-1v-.6h1.7v1.7a2.72,2.72,0,0,1-1.7.6,2,2,0,0,1-2.1-1.9c.1.1.1.1.1,0"/><polygon class="cls-2" points="632.5 288.55 633.2 288.55 633.2 290.25 635.1 290.25 635.1 288.55 635.8 288.55 635.8 292.55 635.1 292.55 635.1 290.85 633.2 290.85 633.2 292.55 632.5 292.55 632.5 288.55"/><path class="cls-2" d="M636.4,290.55h0a2.11,2.11,0,0,1,2.1-2.1h.1a2,2,0,0,1,2.1,1.9v.2h0a2.11,2.11,0,0,1-2.1,2.1h-.1a2,2,0,0,1-2.1-1.9v-.2m3.5,0h0a1.35,1.35,0,0,0-1.3-1.4h-.1a1.37,1.37,0,0,0-1.4,1.4v.1h0a1.35,1.35,0,0,0,1.3,1.4h0a1.54,1.54,0,0,0,1.5-1.5h0m-1.7,2.4h.6v.7h-.6Z"/><path class="cls-2" d="M641,290.55h0a2.08,2.08,0,0,1,1.9-2.1h.2a2.27,2.27,0,0,1,1.6.6l-.5.5a1.61,1.61,0,0,0-1.1-.5,1.35,1.35,0,0,0-1.3,1.4v.1h0a1.29,1.29,0,0,0,1.3,1.4h0a1.85,1.85,0,0,0,1.2-.5l.5.5a2,2,0,0,1-2.9.2,1.92,1.92,0,0,1-.9-1.6"/><polygon class="cls-2" points="601.3 328.55 600.1 328.55 600.1 327.95 603.3 327.95 603.3 328.55 602 328.55 602 331.95 601.3 331.95 601.3 328.55"/><path class="cls-2" d="M603.8,328h1.8a1.92,1.92,0,0,1,1.2.4,1.22,1.22,0,0,1,.3.9h0a1.19,1.19,0,0,1-1,1.2l1.1,1.5h-.8l-1-1.4h-.9V332h-.7Zm1.7,2c.5,0,.8-.2.8-.7h0a.71.71,0,0,0-.8-.7h-1V330Z"/><path class="cls-2" d="M607.6,330.25V328h.7v2.3c0,.8.4,1.1,1,1.1a1,1,0,0,0,1-1.1V328h.5a.35.35,0,0,0,.2-.1.76.76,0,0,0-.2-.5h.7a1.27,1.27,0,0,1,.1.6.86.86,0,0,1-.6.7v1.7a1.59,1.59,0,0,1-1.4,1.8h-.3a1.58,1.58,0,0,1-1.7-1.5v-.4"/><path class="cls-2" d="M611.8,330h0a2.09,2.09,0,0,1,2-2.1h.1a1.75,1.75,0,0,1,1.2.4c.2,0,.2-.1.2-.2a.76.76,0,0,0-.2-.5h.7a1.27,1.27,0,0,1,.1.6.71.71,0,0,1-.3.6,1.92,1.92,0,0,1,.4,1.2h0a2.05,2.05,0,0,1-2.1,2.1,2.11,2.11,0,0,1-2.1-2.1h0m3.5,0h0a1.35,1.35,0,0,0-1.3-1.4h-.1a1.42,1.42,0,0,0-1.4,1.3v.1h0a1.4,1.4,0,0,0,2.8,0h0m-2.1-3.1.6-.3.6.9h-.5Z"/><polygon class="cls-2" points="616.6 327.95 617.2 327.95 619.4 330.75 619.4 327.95 620.1 327.95 620.1 331.95 619.5 331.95 617.3 329.15 617.3 331.95 616.6 331.95 616.6 327.95"/><path class="cls-2" d="M620.7,330h0a2.08,2.08,0,0,1,1.9-2.1h.2a2.46,2.46,0,0,1,1.5.5l-.4.5a1.5,1.5,0,0,0-1.1-.4,1.42,1.42,0,0,0-1.3,1.4h0a1.27,1.27,0,0,0,1.2,1.4h.1a1.69,1.69,0,0,0,1-.3v-.8h-1v-.6h1.7v1.7a2.72,2.72,0,0,1-1.7.6,2.08,2.08,0,0,1-2.1-1.9h0"/><polygon class="cls-2" points="626.5 327.95 627.2 327.95 627.2 329.65 629.1 329.65 629.1 327.95 629.8 327.95 629.8 331.95 629.1 331.95 629.1 330.25 627.2 330.25 627.2 331.95 626.5 331.95 626.5 327.95"/><path class="cls-2" d="M630.4,330h0a2.1,2.1,0,0,1,4.2,0h0a2.1,2.1,0,1,1-4.2,0m3.4,0h0a1.4,1.4,0,1,0-2.8,0h0a1.4,1.4,0,0,0,2.8,0h0m-1.6,2.4h.7v.7h-.7Z"/><path class="cls-2" d="M635,330h0a2.08,2.08,0,0,1,1.9-2.1h.2a2.27,2.27,0,0,1,1.6.6l-.5.5a1.61,1.61,0,0,0-1.1-.5,1.29,1.29,0,0,0-1.3,1.4h0a1.29,1.29,0,0,0,1.3,1.4h0a1.85,1.85,0,0,0,1.2-.5l.5.5a2,2,0,0,1-1.6.7,2,2,0,0,1-2.2-2h0"/></g></svg>