<svg id="Layer_1" data-name="Layer 1" xmlns="http://www.w3.org/2000/svg" viewBox="0 0 913 613.3"><defs><style>.cls-1{fill:#455981;}.cls-2{fill:#fff;}</style></defs><g id="Layer_2" data-name="Layer 2"><path class="cls-1" d="M442.8,416.55H427c-.2,0-.3-.1-.4-.3s0-.3.1-.5l2.3-2a.37.37,0,0,1,.3-.1h11.3a.37.37,0,0,1,.3.1l2.3,2a.44.44,0,0,1,.1.5,2.19,2.19,0,0,1-.5.3m-14.6-.9h13.5l-1.3-1.1H429.5Z"/><path class="cls-1" d="M442.8,415.65h-1.9v-8.1l1.6-1.5h0V406h0v-.1h0v-.2h0l-.1-.1h0l-7.4-5.4a.45.45,0,0,0-.5,0l-7.4,5.4h0v.1h0v.2h0v.1h0v.1h0l1.6,1.5v8.1h-1.9a.43.43,0,0,0-.4.4h0v1.6a.43.43,0,0,0,.4.4h15.8a.43.43,0,0,0,.4-.4h0v-1.5c.2-.3,0-.4-.2-.5h0m-6.4-7.8H438v7.9h-1.6Zm-4.5,0h1.6v7.9h-1.6Zm2.4,0h1.3v7.9h-1.3Zm4.5,0h1.3v7.9h-1.3Zm-3.9-6.9,6.1,4.4H428.9Zm6.3,5.3-.9.8H429.5l-.9-.8Zm-11.5,1.6H431v7.9h-1.3Zm12.7,9.5H427.5v-.8h14.9Z"/><path class="cls-1" d="M429,413.55h-5.4v-4.1H429v-.8h-5.4l3.2-4.1h1.8l1.1-.8h-3.1c-.1,0-.3.1-.3.2l-3.8,5a.3.3,0,0,0,0,.4.52.52,0,0,0,.4.2v4.1c-.2,0-.4.3-.4.5s.2.3.4.4h6.2Z"/><path class="cls-1" d="M447.2,413.55v-4.1a.43.43,0,0,0,.4-.4c0-.1,0-.2-.1-.2l-3.8-5c-.1-.1-.2-.2-.3-.2h-3.2l1.1.8h1.9l3.2,4.1H441v.8h5.4v4.1H441v.8h6.2a.43.43,0,0,0,.4-.4h0a.45.45,0,0,0-.4-.3"/><path class="cls-1" d="M425,410.45a.43.43,0,0,1-.4.4h0a.43.43,0,0,1-.4-.4h0a.43.43,0,0,1,.4-.4h0a.37.37,0,0,1,.4.4h0"/><path class="cls-1" d="M426.7,410.45a.43.43,0,0,1-.4.4h0a.43.43,0,0,1-.4-.4h0a.43.43,0,0,1,.4-.4h0a.43.43,0,0,1,.4.4h0"/><path class="cls-1" d="M428.4,410.45a.4.4,0,1,1-.4-.4.43.43,0,0,1,.4.4"/><path class="cls-1" d="M425,412.15a.43.43,0,0,1-.4.4h0a.43.43,0,0,1-.4-.4h0a.43.43,0,0,1,.4-.4h0a.37.37,0,0,1,.4.4h0"/><path class="cls-1" d="M426.7,412.15a.43.43,0,0,1-.4.4h0a.43.43,0,0,1-.4-.4h0a.43.43,0,0,1,.4-.4h0a.43.43,0,0,1,.4.4h0"/><path class="cls-1" d="M428.4,412.15a.4.4,0,0,1-.8,0h0a.4.4,0,0,1,.8,0"/><path class="cls-1" d="M442.4,410.45a.4.4,0,1,1-.4-.4.43.43,0,0,1,.4.4"/><path class="cls-1" d="M444.1,410.45a.43.43,0,0,1-.4.4h0a.43.43,0,0,1-.4-.4h0a.43.43,0,0,1,.4-.4h0a.43.43,0,0,1,.4.4h0"/><path class="cls-1" d="M445.7,410.45a.43.43,0,0,1-.4.4h0a.43.43,0,0,1-.4-.4h0a.43.43,0,0,1,.4-.4h0a.43.43,0,0,1,.4.4h0"/><path class="cls-1" d="M442.4,412.15a.4.4,0,0,1-.8,0h0a.4.4,0,0,1,.8,0"/><path class="cls-1" d="M444.1,412.15a.43.43,0,0,1-.4.4h0a.43.43,0,0,1-.4-.4h0a.43.43,0,0,1,.4-.4h0a.43.43,0,0,1,.4.4h0"/><path class="cls-1" d="M445.7,412.15a.43.43,0,0,1-.4.4h0a.43.43,0,0,1-.4-.4h0a.43.43,0,0,1,.4-.4h0a.43.43,0,0,1,.4.4h0"/><path class="cls-1" d="M547.8,338.85H532a.43.43,0,0,1-.4-.4c0-.1.1-.2.1-.3l2.3-2a.37.37,0,0,1,.3-.1h11.2a.37.37,0,0,1,.3.1l2.3,2a.44.44,0,0,1,.1.5.52.52,0,0,1-.4.2m-14.6-.8h13.5l-1.3-1.1H534.5Z"/><path class="cls-1" d="M547.8,338.05h-1.9V330l1.6-1.5h0v-.1h0v-.1h0v-.2h0V328h0l-7.3-5.4a.45.45,0,0,0-.5,0l-7.3,5.4h0l-.1.1h0v.2h0v.1h0l1.6,1.5V338h-1.8a.43.43,0,0,0-.4.4h0V340a.43.43,0,0,0,.4.4h15.8a.43.43,0,0,0,.4-.4h0v-1.6c-.1-.2-.2-.4-.5-.3h0m-6.4-7.9H543v7.9h-1.6Zm-4.5,0h1.5v7.9h-1.5Zm2.4,0h1.3v7.9h-1.3Zm4.5,0h1.3v7.9h-1.3Zm-3.9-6.9,6.1,4.4H533.8Zm6.3,5.3-.8.8H534.5l-.8-.8Zm-11.4,1.6h1.3v7.9h-1.3Zm12.6,9.5H532.5v-.8h14.9Z"/><path class="cls-1" d="M533.9,336h-5.4v-4.1h5.4v-.8h-5.3l3.2-4.1h1.8l1.1-.8h-3.2c-.1,0-.3.1-.3.2l-3.8,5a.47.47,0,0,0,.1.6c.1,0,.1.1.2.1v4.1a.4.4,0,1,0,0,.8h6.2Z"/><path class="cls-1" d="M552.2,336v-4.1c.1,0,.3-.1.3-.2a.3.3,0,0,0,0-.4l-3.8-5c-.1-.1-.2-.2-.3-.2h-3.2l1.1.8h1.8l3.2,4.1H546v.8h5.4v4.1H546v.8h6.2c.2,0,.4-.3.4-.5a.52.52,0,0,0-.4-.2"/><path class="cls-1" d="M530,332.85a.4.4,0,0,1-.8,0h0a.43.43,0,0,1,.4-.4c.2-.1.4.1.4.4h0"/><path class="cls-1" d="M531.7,332.85a.4.4,0,0,1-.8,0h0a.43.43,0,0,1,.4-.4c.2-.1.4.1.4.4"/><path class="cls-1" d="M533.3,332.85a.43.43,0,0,1-.4.4h0a.4.4,0,0,1,0-.8h0c.3-.1.4.1.4.4"/><path class="cls-1" d="M530,334.45a.4.4,0,0,1-.8,0h0a.4.4,0,1,1,.8,0h0"/><path class="cls-1" d="M531.7,334.45a.4.4,0,1,1-.4-.4.43.43,0,0,1,.4.4h0"/><path class="cls-1" d="M533.3,334.45a.43.43,0,0,1-.4.4h0a.4.4,0,1,1,0-.8h0a.37.37,0,0,1,.4.4"/><path class="cls-1" d="M547.4,332.85a.43.43,0,0,1-.4.4h0a.4.4,0,0,1,0-.8h0c.2-.1.4.1.4.4"/><path class="cls-1" d="M549,332.85a.4.4,0,0,1-.8,0h0a.43.43,0,0,1,.4-.4c.2-.1.4.1.4.4h0"/><path class="cls-1" d="M550.7,332.85a.4.4,0,0,1-.8,0h0a.43.43,0,0,1,.4-.4c.2-.1.4.1.4.4"/><path class="cls-1" d="M547.4,334.45a.43.43,0,0,1-.4.4h0a.4.4,0,1,1,0-.8h0a.43.43,0,0,1,.4.4"/><path class="cls-1" d="M549,334.45a.4.4,0,0,1-.8,0h0a.4.4,0,1,1,.8,0h0"/><path class="cls-1" d="M550.7,334.45a.4.4,0,1,1-.4-.4.43.43,0,0,1,.4.4h0"/><path class="cls-1" d="M550.8,297.85H535c-.2,0-.3-.1-.4-.3a.44.44,0,0,1,.1-.5l2.3-2a.37.37,0,0,1,.3-.1h11.3a.37.37,0,0,1,.3.1l2.3,2a.38.38,0,0,1,0,.6c-.1.2-.2.2-.4.2m-14.6-.8h13.5l-1.3-1.1H537.5Z"/><path class="cls-1" d="M550.8,297.05h-1.9V289l1.6-1.5h0v-.1h0V287h0l-.1-.1h0l-7.3-5.4a.45.45,0,0,0-.5,0l-7.3,5.4h0v.1h0v.2h0v.1h0v.1h0l1.6,1.5V297H535a.43.43,0,0,0-.4.4V299a.43.43,0,0,0,.4.4h15.8a.43.43,0,0,0,.4-.4v-1.6a.43.43,0,0,0-.4-.4m-6.3-7.8h1.6v7.9h-1.6Zm-4.6,0h1.6v7.9h-1.6Zm2.4,0h1.3v7.9h-1.3Zm4.5,0h1.3v7.9h-1.3Zm-3.8-6.9,6.1,4.4H536.9Zm6.3,5.3-.8.8H537.6l-.8-.8Zm-11.5,1.6h1.3v7.9h-1.3Zm12.6,9.5H535.5v-.8h14.9Z"/><path class="cls-1" d="M537,295h-5.4v-4.1H537v-.8h-5.4l3.2-4.1h1.8l1.1-.8h-3.1c-.1,0-.3.1-.3.2l-3.8,5a.47.47,0,0,0,.1.6c.1,0,.1.1.2.1v4.1c-.2,0-.4.3-.4.5s.2.3.4.4H537Z"/><path class="cls-1" d="M555.2,295v-4.1c.1,0,.3-.1.3-.2a.3.3,0,0,0,0-.4l-3.8-5c-.1-.1-.2-.2-.3-.2h-3.2l1.1.8h1.8l3.2,4.1H549v.8h5.4v4.1H549v.8h6.2c.2,0,.4-.3.4-.5a.52.52,0,0,0-.4-.2"/><path class="cls-1" d="M533.1,291.85a.4.4,0,1,1-.8,0c0-.2.3-.4.5-.4a1.38,1.38,0,0,1,.3.4"/><path class="cls-1" d="M534.7,291.85a.4.4,0,0,1-.8,0h0a.4.4,0,0,1,.8,0h0"/><path class="cls-1" d="M536.4,291.85a.4.4,0,1,1-.4-.4.43.43,0,0,1,.4.4"/><path class="cls-1" d="M533.1,293.55a.4.4,0,1,1-.4-.4.37.37,0,0,1,.4.4"/><path class="cls-1" d="M534.7,293.55a.4.4,0,1,1-.4-.4.37.37,0,0,1,.4.4"/><path class="cls-1" d="M536.4,293.55a.4.4,0,1,1-.4-.4h0c.2-.1.4.1.4.4"/><path class="cls-1" d="M550.4,291.85a.4.4,0,1,1-.4-.4.43.43,0,0,1,.4.4"/><path class="cls-1" d="M552.1,291.85a.43.43,0,0,1-.4.4h0a.4.4,0,0,1,0-.8h0a.43.43,0,0,1,.4.4"/><path class="cls-1" d="M553.7,291.85a.4.4,0,0,1-.8,0h0a.4.4,0,0,1,.8,0h0"/><path class="cls-1" d="M550.4,293.55a.4.4,0,1,1-.4-.4h0c.2-.1.4.1.4.4"/><path class="cls-1" d="M552.1,293.55a.43.43,0,0,1-.4.4h0a.4.4,0,1,1,0-.8h0c.2-.1.4.1.4.4h0"/><path class="cls-1" d="M553.7,293.55a.4.4,0,1,1-.4-.4.37.37,0,0,1,.4.4"/><path class="cls-1" d="M456.9,224.05H441.1c-.2,0-.3-.1-.4-.3a.44.44,0,0,1,.1-.5l2.3-1.9a.37.37,0,0,1,.3-.1h11.2a.37.37,0,0,1,.3.1l2.3,1.9a.44.44,0,0,1,.1.5.54.54,0,0,1-.4.3m-14.7-.8h13.5l-1.3-1.1H443.6Z"/><path class="cls-1" d="M456.9,223.25H455v-8.1l1.6-1.5h0v-.2h0v-.4h0v.1h0l-7.4-5.4a.45.45,0,0,0-.5,0l-7.4,5.4h0v.2h0v.4h0v.2h0l1.6,1.5v8.1H441a.43.43,0,0,0-.4.4h0v1.6a.43.43,0,0,0,.4.4h15.8a.43.43,0,0,0,.4-.4h0V224c.1-.5-.1-.7-.3-.7h0m-6.4-7.9h1.6v7.9h-1.6Zm-4.5,0h1.6v7.9H446Zm2.4,0h1.3v7.9h-1.3Zm4.5,0h1.3v7.9h-1.3Zm-3.9-6.9,6.1,4.4H443Zm6.3,5.3-.9.8H443.6l-.9-.8Zm-11.5,1.6h1.3v7.9h-1.3Zm12.7,9.5H441.6v-.8h14.9Z"/><path class="cls-1" d="M443,221.15h-5.4v-4.1H443v-.9h-5.4l3.2-4.1h1.9l1.1-.8h-3.2c-.1,0-.3.1-.3.2l-3.8,5a.3.3,0,0,0,0,.4.52.52,0,0,0,.4.2v4.1c-.2,0-.4.3-.4.5s.2.3.4.4h6.2Z"/><path class="cls-1" d="M461.3,221.15v-4.1a.43.43,0,0,0,.4-.4c0-.1,0-.2-.1-.2l-3.8-5c-.1-.1-.2-.2-.3-.2h-3.2l1.1.8h1.9l3.2,4.1h-5.4v.8h5.4v4.2h-5.4v.8h6.2c.2,0,.4-.3.4-.5s-.3-.3-.4-.3"/><path class="cls-1" d="M439.1,218.05a.43.43,0,0,1-.4.4h0a.43.43,0,0,1-.4-.4c0-.2.3-.4.5-.4a.45.45,0,0,1,.3.4"/><path class="cls-1" d="M440.8,218.05a.43.43,0,0,1-.4.4h0a.43.43,0,0,1-.4-.4h0a.43.43,0,0,1,.4-.4h0c.2-.1.4.1.4.4h0"/><path class="cls-1" d="M442.4,218.05a.4.4,0,1,1-.4-.4c.3-.1.4.1.4.4"/><path class="cls-1" d="M439.1,219.65a.43.43,0,0,1-.4.4h0a.4.4,0,1,1,.4-.4h0"/><path class="cls-1" d="M440.8,219.65a.43.43,0,0,1-.4.4h0a.4.4,0,1,1,.4-.4h0"/><path class="cls-1" d="M442.4,219.65a.4.4,0,1,1-.4-.4.43.43,0,0,1,.4.4h0"/><path class="cls-1" d="M456.5,218.05a.4.4,0,1,1-.4-.4c.2-.1.3.1.4.4"/><path class="cls-1" d="M458.1,218.05a.43.43,0,0,1-.4.4h0a.43.43,0,0,1-.4-.4h0a.43.43,0,0,1,.4-.4h0c.2-.1.4.1.4.4h0"/><path class="cls-1" d="M459.8,218.05a.43.43,0,0,1-.4.4h0a.43.43,0,0,1-.4-.4h0a.43.43,0,0,1,.4-.4h0c.2-.1.4.1.4.4h0"/><path class="cls-1" d="M456.5,219.65a.4.4,0,1,1-.4-.4.43.43,0,0,1,.4.4h0"/><path class="cls-1" d="M458.1,219.65a.43.43,0,0,1-.4.4h0a.4.4,0,0,1,0-.8h0a.43.43,0,0,1,.4.4h0"/><path class="cls-1" d="M459.8,219.65a.43.43,0,0,1-.4.4h0a.4.4,0,1,1,.4-.4h0"/><path class="cls-1" d="M643.8,133.05H628a.43.43,0,0,1-.4-.4c0-.1,0-.3.2-.3l2.3-2a.37.37,0,0,1,.3-.1h11.2a.37.37,0,0,1,.3.1l2.3,2a.44.44,0,0,1,.1.5.59.59,0,0,1-.5.2m-14.5-.8h13.5l-1.4-1.1H630.5Z"/><path class="cls-1" d="M643.8,132.25h-1.9v-8.1l1.6-1.5h0v-.1h0v-.1h0v-.2h-.1l-7.3-5.4a.45.45,0,0,0-.5,0l-7.3,5.4h-.1v.2h0v.1h0v.1h0l1.6,1.5v8.1H628a.43.43,0,0,0-.4.4h0v1.6a.43.43,0,0,0,.4.4h15.8a.43.43,0,0,0,.4-.4v-1.6a.43.43,0,0,0-.4-.4h0m-6.4-7.9H639v7.9h-1.6Zm-4.5,0h1.6v7.9h-1.6Zm2.4,0h1.3v7.9h-1.3Zm4.5,0h1.3v7.9h-1.3Zm-3.9-6.9,6.1,4.4H629.9Zm6.3,5.3-.8.8H630.6l-.8-.8Zm-11.5,1.6H632v7.9h-1.3Zm12.7,9.5H628.5v-.8h14.9Z"/><path class="cls-1" d="M629.9,130.15h-5.3v-4.1H630v-.8h-5.4l3.2-4.1h1.8l1.1-.8h-3.1c-.1,0-.3.1-.3.2l-3.8,5a.47.47,0,0,0,.1.6c.1,0,.1.1.2.1v4.1a.4.4,0,0,0,0,.8H630Z"/><path class="cls-1" d="M648.2,130.15v-4.1c.1,0,.3-.1.3-.2s0-.3,0-.4l-3.8-5c-.1-.1-.2-.2-.3-.2h-3.2l1.1.8h1.8l3.2,4.1H642v.8h5.4v4.1H642v.8h6.2a.43.43,0,0,0,.4-.4.45.45,0,0,0-.4-.3"/><path class="cls-1" d="M626,127.05a.43.43,0,0,1-.4.4h0a.4.4,0,0,1,0-.8h0a.37.37,0,0,1,.4.4"/><path class="cls-1" d="M627.7,127.05a.4.4,0,1,1-.4-.4.43.43,0,0,1,.4.4"/><path class="cls-1" d="M629.4,127.05a.4.4,0,1,1-.8,0h0a.4.4,0,1,1,.8,0h0"/><path class="cls-1" d="M626,128.75a.43.43,0,0,1-.4.4c-.2,0-.4-.3-.4-.5s.2-.3.4-.4c.3.1.4.2.4.5"/><path class="cls-1" d="M627.7,128.75a.4.4,0,1,1-.4-.4h0a.37.37,0,0,1,.4.4"/><path class="cls-1" d="M629.4,128.75a.43.43,0,0,1-.4.4.45.45,0,1,1-.1-.9h.1c.2.1.4.2.4.5h0"/><path class="cls-1" d="M643.4,127.05a.4.4,0,0,1-.8,0h0a.4.4,0,0,1,.8,0h0"/><path class="cls-1" d="M645.1,127.05a.43.43,0,0,1-.4.4h0a.4.4,0,0,1,0-.8h0a.43.43,0,0,1,.4.4"/><path class="cls-1" d="M646.7,127.05a.43.43,0,0,1-.4.4h0a.4.4,0,0,1,0-.8h0a.43.43,0,0,1,.4.4"/><path class="cls-1" d="M643.4,128.55c0,.1-.2.2-.4.2s-.4-.1-.4-.2.2-.2.4-.2.4,0,.4.2"/><path class="cls-1" d="M645.1,128.75a.43.43,0,0,1-.4.4c-.2,0-.4-.3-.4-.5s.2-.3.4-.4c.2.1.4.2.4.5"/><path class="cls-1" d="M646.7,128.75a.43.43,0,0,1-.4.4c-.2,0-.4-.3-.4-.5s.2-.3.4-.4c.2.1.4.2.4.5"/><path class="cls-1" d="M637.1,170.65H621.3a.43.43,0,0,1-.4-.4c0-.1,0-.3.2-.3l2.3-2a.37.37,0,0,1,.3-.1h11.2a.37.37,0,0,1,.3.1l2.3,2a.44.44,0,0,1,.1.5c-.2.1-.3.2-.5.2m-14.6-.9H636l-1.4-1.1H623.7Z"/><path class="cls-1" d="M637.1,169.75h-1.9v-8.1l1.6-1.5h0v-.1h0v-.2h-.1l-7.3-5.4a.45.45,0,0,0-.5,0l-7.3,5.4h-.1v.2h0v.1h0v.1h0l1.6,1.5v8.1h-1.8a.43.43,0,0,0-.4.4h0v1.6a.43.43,0,0,0,.4.4h15.8a.43.43,0,0,0,.4-.4v-1.7a.43.43,0,0,0-.4-.4h0m-6.5-7.8h1.6v7.9h-1.6Zm-4.5,0h1.6v7.9h-1.6Zm2.4,0h1.3v7.9h-1.3Zm4.5,0h1.3v7.9H633Zm-3.8-6.9,6.1,4.4H623.2Zm6.2,5.2-.8.8H623.8l-.8-.8ZM624,162h1.3v7.9H624Zm12.6,9.4H621.7v-.8h14.9Z"/><path class="cls-1" d="M623.2,167.65h-5.3v-4.1h5.4v-.8h-5.4l3.2-4.1h1.8l1.1-.8h-3.1c-.1,0-.3.1-.3.2l-3.8,5a.47.47,0,0,0,.1.6c.1,0,.1.1.2.1v4.1a.4.4,0,0,0,0,.8h6.2Z"/><path class="cls-1" d="M641.4,167.65v-4.1c.1,0,.3-.1.3-.2s0-.3,0-.4l-3.8-5c-.1-.1-.2-.2-.3-.2h-3.2l1.1.8h1.8l3.2,4.1h-5.3v.8h5.4v4.1h-5.4v.8h6.2a.43.43,0,0,0,.4-.4.45.45,0,0,0-.4-.3"/><path class="cls-1" d="M619.3,164.55a.43.43,0,0,1-.4.4h0a.4.4,0,1,1,0-.8h0a.43.43,0,0,1,.4.4"/><path class="cls-1" d="M620.9,164.55a.4.4,0,1,1-.4-.4.37.37,0,0,1,.4.4"/><path class="cls-1" d="M622.6,164.55a.4.4,0,0,1-.8,0h0a.4.4,0,0,1,.8,0h0"/><path class="cls-1" d="M619.3,166.25a.43.43,0,0,1-.4.4c-.2,0-.4-.3-.4-.5s.2-.3.4-.4a.66.66,0,0,1,.4.5"/><path class="cls-1" d="M620.9,166.25a.4.4,0,1,1-.4-.4h0a.37.37,0,0,1,.4.4"/><path class="cls-1" d="M622.6,166.25a.43.43,0,0,1-.4.4.51.51,0,0,1-.5-.4c-.1-.3.1-.4.4-.5h.1a.66.66,0,0,1,.4.5h0"/><path class="cls-1" d="M636.6,164.55a.4.4,0,1,1-.8,0h0a.4.4,0,0,1,.8,0h0"/><path class="cls-1" d="M638.3,164.55a.43.43,0,0,1-.4.4h0a.4.4,0,1,1,0-.8h0a.43.43,0,0,1,.4.4"/><path class="cls-1" d="M640,164.55a.43.43,0,0,1-.4.4h0a.4.4,0,1,1,0-.8h0a.43.43,0,0,1,.4.4"/><path class="cls-1" d="M636.6,166.05c0,.1-.2.2-.4.2s-.4-.1-.4-.2.2-.2.4-.2.4.1.4.2"/><path class="cls-1" d="M638.3,166.25a.43.43,0,0,1-.4.4c-.2,0-.4-.3-.4-.5s.2-.3.4-.4a.66.66,0,0,1,.4.5"/><path class="cls-1" d="M640,166.25a.43.43,0,0,1-.4.4c-.2,0-.4-.3-.4-.5s.2-.3.4-.4a.66.66,0,0,1,.4.5"/><path class="cls-2" d="M383.6,236.15v-4.1a.52.52,0,0,0,.4-.2.3.3,0,0,0,0-.4l-3.8-5c-.1-.1-.2-.2-.3-.2h-3.3l-5-3.6a.45.45,0,0,0-.5,0l-5,3.6h-3.2c-.1,0-.3.1-.3.2l-3.8,5a.3.3,0,0,0,0,.4.52.52,0,0,0,.4.2v4.1c-.2,0-.4.3-.4.5s.2.3.4.4h5.6l-1.6,1.4h0c-.1,0-.1.1-.1.2v1.8a.43.43,0,0,0,.4.4h15.8a.43.43,0,0,0,.4-.4h0v-1.7h0c0-.1-.1-.1-.1-.2h0l-1.6-1.4h5.6c.2,0,.4-.3.4-.5a.7.7,0,0,0-.4-.5"/><path class="cls-1" d="M379.2,239.05H363.4c-.2,0-.3-.1-.4-.3a.44.44,0,0,1,.1-.5l2.3-1.9a.37.37,0,0,1,.3-.1h11.2a.37.37,0,0,1,.3.1l2.3,1.9a.44.44,0,0,1,.1.5c-.1.2-.2.3-.4.3m-14.6-.8h13.5l-1.3-1.1H365.9Z"/><path class="cls-1" d="M379.2,238.25h-1.9v-8.1l1.6-1.5h0v-.2h0v-.4h0v0h0l-7.3-5.5a.45.45,0,0,0-.5,0l-7.3,5.4h0l-.1.1v.2h0v.4h0v.2h0l1.6,1.5v8.1h-1.9a.43.43,0,0,0-.4.4h0v1.6a.43.43,0,0,0,.4.4h15.8a.43.43,0,0,0,.4-.4h0v-1.6a.43.43,0,0,0-.4-.4h0m-6.4-8.2h1.5v7.9h-1.5Zm-4.5,0h1.6v7.9h-1.6Zm2.4,0H372v7.9h-1.3Zm4.5,0h1.3v7.9h-1.3Zm-3.9-6.9,6.1,4.4H365.2Zm6.3,5.3-.8.8H365.9l-.8-.8Zm-11.5,1.6h1.3v7.9h-1.3Zm12.7,9.5H363.9V239h14.9Z"/><path class="cls-1" d="M365.3,236.15h-5.4v-4.1h5.4v-.8H360l3.2-4.1h1.9l1.1-.8H363c-.1,0-.3.1-.3.2l-3.8,5a.3.3,0,0,0,0,.4.52.52,0,0,0,.4.2v4.1c-.2,0-.4.3-.4.5s.2.3.4.4h6.2Z"/><path class="cls-1" d="M383.6,236.15v-4.1a.52.52,0,0,0,.4-.2.3.3,0,0,0,0-.4l-3.8-5c-.1-.1-.2-.2-.3-.2h-3.3l1.1.8h1.9l3.2,4.1h-5.3v.8h5.4v4.2h-5.4v.8h6.2c.2,0,.4-.3.4-.5-.2-.1-.3-.3-.5-.3"/><path class="cls-1" d="M361.4,233.05a.4.4,0,0,1-.8,0h0a.4.4,0,0,1,.8,0"/><path class="cls-1" d="M363.1,233.05a.43.43,0,0,1-.4.4h0a.43.43,0,0,1-.4-.4h0a.43.43,0,0,1,.4-.4h0a.43.43,0,0,1,.4.4h0"/><path class="cls-1" d="M364.7,233.05a.4.4,0,1,1-.8,0h0c0-.2.3-.4.5-.4s.3.2.3.4"/><path class="cls-1" d="M361.4,234.75a.4.4,0,1,1-.4-.4.37.37,0,0,1,.4.4h0"/><path class="cls-1" d="M363.1,234.75a.43.43,0,0,1-.4.4h0a.4.4,0,0,1,0-.8c.2-.1.4.1.4.4h0"/><path class="cls-1" d="M364.7,234.75a.4.4,0,1,1-.4-.4c.3,0,.4.1.4.4"/><path class="cls-1" d="M378.7,233.05a.43.43,0,0,1-.4.4h0a.43.43,0,0,1-.4-.4h0a.43.43,0,0,1,.4-.4h0a.37.37,0,0,1,.4.4h0"/><path class="cls-1" d="M380.4,233.05a.4.4,0,0,1-.8,0h0a.4.4,0,0,1,.8,0"/><path class="cls-1" d="M382.1,233.05a.4.4,0,1,1-.4-.4.43.43,0,0,1,.4.4"/><path class="cls-1" d="M378.7,234.75a.43.43,0,0,1-.4.4h0a.4.4,0,1,1,0-.8c.3,0,.4.1.4.4h0"/><path class="cls-1" d="M380.4,234.75a.4.4,0,1,1-.4-.4.37.37,0,0,1,.4.4h0"/><path class="cls-1" d="M382.1,234.75a.4.4,0,1,1-.4-.4.37.37,0,0,1,.4.4h0"/><path class="cls-1" d="M361,232.65a.43.43,0,0,0-.4.4h0a.4.4,0,0,0,.8,0h0a.43.43,0,0,0-.4-.4h0"/><path class="cls-1" d="M362.7,232.65a.43.43,0,0,0-.4.4h0a.43.43,0,0,0,.4.4h0a.43.43,0,0,0,.4-.4h0a.43.43,0,0,0-.4-.4h0"/><path class="cls-1" d="M364.3,232.65a.43.43,0,0,0-.4.4h0a.43.43,0,0,0,.4.4h0a.43.43,0,0,0,.4-.4h0a.37.37,0,0,0-.4-.4h0"/><path class="cls-1" d="M361,234.25a.4.4,0,1,0,.4.4.43.43,0,0,0-.4-.4h0"/><path class="cls-1" d="M362.7,234.25a.4.4,0,1,0,.4.4c0-.2-.2-.3-.4-.4"/><path class="cls-1" d="M364.3,234.25a.4.4,0,1,0,.4.4c0-.2-.1-.3-.4-.4"/><path class="cls-1" d="M378.3,233.45a.43.43,0,0,0,.4-.4h0a.43.43,0,0,0-.4-.4h0a.43.43,0,0,0-.4.4h0a.43.43,0,0,0,.4.4h0"/><path class="cls-1" d="M380,233.45a.43.43,0,0,0,.4-.4h0a.4.4,0,1,0-.4.4h0"/><path class="cls-1" d="M381.7,233.45a.43.43,0,0,0,.4-.4h0a.4.4,0,1,0-.8,0,.37.37,0,0,0,.4.4h0"/><path class="cls-1" d="M378.3,235.15a.4.4,0,1,0,0-.8h0a.4.4,0,1,0,0,.8"/><path class="cls-1" d="M380,235.15a.4.4,0,1,0-.4-.4.43.43,0,0,0,.4.4h0"/><path class="cls-1" d="M381.7,235.15a.4.4,0,1,0-.4-.4c-.1.2.1.4.4.4h0"/><path class="cls-2" d="M258.7,338.05V334a.76.76,0,0,0,.4-.2.3.3,0,0,0,0-.4l-3.8-5c-.1-.1-.2-.2-.3-.2h-3.2l-5-3.6a.45.45,0,0,0-.5,0l-5,3.6h-3.2c-.1,0-.3.1-.3.2l-3.8,5a.47.47,0,0,0,.1.6c.1,0,.1.1.2.1v4.1a.4.4,0,1,0,0,.8h5.6l-1.6,1.4h0c-.1,0-.1.1-.1.2h0v1.7a.43.43,0,0,0,.4.4h15.8a.43.43,0,0,0,.4-.4h0v-1.7h0c0-.1-.1-.1-.1-.2h0l-1.6-1.4h5.6a.43.43,0,0,0,.4-.4h0c0-.3-.2-.4-.4-.5"/><path class="cls-1" d="M254.4,341H238.6c-.2,0-.3-.1-.4-.3s0-.3.1-.5l2.3-2a.37.37,0,0,1,.3-.1h11.2a.37.37,0,0,1,.3.1l2.3,2c.2.1.2.4.1.6s-.3.2-.4.2m-14.7-.8h13.5l-1.3-1.1H241Z"/><path class="cls-1" d="M254.4,340.15h-1.9v-8.1l1.6-1.5h0v-.1h0v-.1h0v-.2h0l-.1-.1h0l-7.4-5.4a.45.45,0,0,0-.5,0l-7.4,5.4h-.1v.2h0v.1h0v.1h0l1.6,1.5v8.1h-1.6a.43.43,0,0,0-.4.4h0v1.6a.43.43,0,0,0,.4.4h15.8a.43.43,0,0,0,.4-.4h0v-1.6a.45.45,0,0,0-.4-.3h0m-6.4-7.9h1.6v7.9H248Zm-4.6,0H245v7.9h-1.6Zm2.4,0h1.3v7.9h-1.3Zm4.6,0h1.3v7.9h-1.3Zm-3.9-6.9,6.1,4.5H240.5Zm6.3,5.3-.9.8H241l-.8-.8Zm-11.5,1.6h1.3v7.9h-1.3Zm12.6,9.5H239V341h14.9Z"/><path class="cls-1" d="M240.5,338.05h-5.4V334h5.4v-.8h-5.3l3.2-4.1h1.9l1.1-.8h-3.2c-.1,0-.3.1-.3.2l-3.8,5a.47.47,0,0,0,.1.6c.1,0,.1.1.2.1v4.1a.4.4,0,0,0,0,.8h6.2v-1Z"/><path class="cls-1" d="M258.7,338.05V334a.76.76,0,0,0,.4-.2.3.3,0,0,0,0-.4l-3.8-5c-.1-.1-.2-.2-.3-.2h-3.2l1.1.8h1.9l3.2,4.1h-5.3v.8h5.4V338h-5.4v.8h6.2a.43.43,0,0,0,.4-.4h0c-.2-.1-.4-.3-.6-.3"/><path class="cls-1" d="M236.6,335a.43.43,0,0,1-.4.4h0c-.2,0-.4-.3-.4-.5s.2-.3.4-.4a.66.66,0,0,1,.4.5"/><path class="cls-1" d="M238.2,335a.4.4,0,1,1-.4-.4.43.43,0,0,1,.4.4"/><path class="cls-1" d="M239.9,335a.43.43,0,0,1-.4.4h0a.43.43,0,0,1-.4-.4h0a.4.4,0,1,1,.8,0h0"/><path class="cls-1" d="M236.6,336.65a.43.43,0,0,1-.4.4h0a.43.43,0,0,1-.4-.4h0a.43.43,0,0,1,.4-.4h0a.37.37,0,0,1,.4.4h0"/><path class="cls-1" d="M238.2,336.65a.4.4,0,1,1-.8,0h0a.43.43,0,0,1,.4-.4.37.37,0,0,1,.4.4"/><path class="cls-1" d="M239.9,336.65a.43.43,0,0,1-.4.4h0a.43.43,0,0,1-.4-.4h0a.43.43,0,0,1,.4-.4h0a.37.37,0,0,1,.4.4h0"/><path class="cls-1" d="M253.9,335a.43.43,0,0,1-.4.4h0a.43.43,0,0,1-.4-.4h0a.4.4,0,1,1,.8,0h0"/><path class="cls-1" d="M255.6,335a.43.43,0,0,1-.4.4h0c-.2,0-.4-.3-.4-.5s.2-.3.4-.4a.66.66,0,0,1,.4.5"/><path class="cls-1" d="M257.2,335a.4.4,0,0,1-.8,0h0a.43.43,0,0,1,.4-.4.37.37,0,0,1,.4.4"/><path class="cls-1" d="M253.9,336.65a.43.43,0,0,1-.4.4h0a.43.43,0,0,1-.4-.4h0a.43.43,0,0,1,.4-.4h0a.37.37,0,0,1,.4.4h0"/><path class="cls-1" d="M255.6,336.65a.43.43,0,0,1-.4.4h0a.43.43,0,0,1-.4-.4h0a.43.43,0,0,1,.4-.4h0a.37.37,0,0,1,.4.4h0"/><path class="cls-1" d="M257.2,336.65a.4.4,0,1,1-.8,0h0a.43.43,0,0,1,.4-.4c.3,0,.4.1.4.4"/><path class="cls-1" d="M236.1,334.55a.43.43,0,0,0-.4.4h0a.43.43,0,0,0,.4.4h0a.43.43,0,0,0,.4-.4h0c.1-.2-.1-.4-.4-.4h0"/><path class="cls-1" d="M237.8,334.55a.43.43,0,0,0-.4.4h0a.4.4,0,1,0,.4-.4h0"/><path class="cls-1" d="M239.5,334.55a.43.43,0,0,0-.4.4h0a.4.4,0,1,0,.4-.4h0"/><path class="cls-1" d="M236.1,336.25a.43.43,0,0,0-.4.4h0a.43.43,0,0,0,.4.4h0a.43.43,0,0,0,.4-.4h0c.1-.3-.1-.4-.4-.4h0"/><path class="cls-1" d="M237.8,336.25a.43.43,0,0,0-.4.4h0a.4.4,0,1,0,.8,0h0a.37.37,0,0,0-.4-.4h0"/><path class="cls-1" d="M239.5,336.25a.43.43,0,0,0-.4.4h0a.4.4,0,1,0,.8,0,.37.37,0,0,0-.4-.4h0"/><path class="cls-1" d="M253.5,335.35a.43.43,0,0,0,.4-.4h0a.43.43,0,0,0-.4-.4h0a.43.43,0,0,0-.4.4h0a.43.43,0,0,0,.4.4h0"/><path class="cls-1" d="M255.2,335.35a.43.43,0,0,0,.4-.4h0a.43.43,0,0,0-.4-.4h0a.43.43,0,0,0-.4.4h0c-.1.2.1.4.4.4h0"/><path class="cls-1" d="M256.8,335.35a.43.43,0,0,0,.4-.4h0a.43.43,0,0,0-.4-.4h0a.43.43,0,0,0-.4.4h0a.43.43,0,0,0,.4.4h0"/><path class="cls-1" d="M253.5,337.05c.2,0,.4-.3.4-.5s-.2-.3-.4-.4a.45.45,0,0,0-.1.9h.1"/><path class="cls-1" d="M255.2,337.05a.45.45,0,1,0,.1-.9h-.1c-.2,0-.4.3-.4.5a.43.43,0,0,0,.4.4"/><path class="cls-1" d="M256.8,337.05a.51.51,0,0,0,.5-.4c.1-.3-.1-.4-.4-.5h-.1c-.2,0-.4.3-.4.5s.2.4.4.4"/><rect class="cls-1" x="506.1" y="152.85" width="89.3" height="22.3"/><polygon class="cls-1" points="595.4 168.95 595.4 163.95 595.4 158.95 605.4 161.45 615.4 163.95 605.4 166.45 595.4 168.95"/><rect class="cls-1" x="246.1" y="220.45" width="89.3" height="22.3"/><polygon class="cls-1" points="335.4 236.65 335.4 231.65 335.3 226.65 345.3 229.05 355.3 231.55 345.4 234.05 335.4 236.65"/><rect class="cls-1" x="305.9" y="398.75" width="89.3" height="22.3"/><polygon class="cls-1" points="395.2 414.95 395.2 409.95 395.2 404.95 405.2 407.35 415.2 409.85 405.2 412.35 395.2 414.95"/><rect class="cls-1" x="117.1" y="322.35" width="89.3" height="22.3"/><polygon class="cls-1" points="206.4 338.55 206.4 333.55 206.4 328.55 216.4 331.05 226.4 333.45 216.4 336.05 206.4 338.55"/><rect class="cls-1" x="673.3" y="115.95" width="89.3" height="22.3"/><polygon class="cls-1" points="673.3 132.05 673.3 127.05 673.3 122.05 663.3 124.55 653.3 127.15 663.3 129.55 673.3 132.05"/><rect class="cls-1" x="485" y="205.45" width="89.3" height="22.3"/><polygon class="cls-1" points="485 221.55 485 216.55 485 211.55 475 214.15 465 216.65 475 219.15 485 221.55"/><rect class="cls-1" x="580.8" y="279.25" width="89.3" height="22.3"/><polygon class="cls-1" points="580.8 295.45 580.8 290.45 580.8 285.45 570.8 287.95 560.8 290.55 570.8 292.95 580.8 295.45"/><rect class="cls-1" x="574.7" y="318.65" width="89.3" height="22.3"/><polygon class="cls-1" points="574.7 334.85 574.7 329.85 574.7 324.85 564.7 327.35 554.7 329.95 564.7 332.35 574.7 334.85"/></g><g id="t_en"><path class="cls-2" d="M517.3,218l.4-.5a2.11,2.11,0,0,0,1.3.5c.4,0,.7-.2.7-.5h0c0-.3-.2-.5-.9-.6-.9-.2-1.4-.5-1.4-1.2h0a1.27,1.27,0,0,1,1.4-1.2,2.46,2.46,0,0,1,1.5.5l-.4.5a1.67,1.67,0,0,0-1.1-.4c-.4,0-.7.2-.7.5h0c0,.3.2.5,1,.6s1.3.5,1.3,1.2h0c0,.8-.6,1.2-1.4,1.2A1.92,1.92,0,0,1,517.3,218Z"/><path class="cls-2" d="M521,216.55h0a2.05,2.05,0,0,1,2.1-2.1,2.58,2.58,0,0,1,1.6.6l-.5.5a1.61,1.61,0,0,0-1.1-.5,1.29,1.29,0,0,0-1.3,1.4h0a1.35,1.35,0,0,0,1.3,1.4,1.85,1.85,0,0,0,1.2-.5l.5.5a2.18,2.18,0,0,1-1.6.7A2,2,0,0,1,521,216.55Z"/><path class="cls-2" d="M525.4,214.55h.7v1.7H528v-1.7h.7v4.1H528V217h-1.9v1.7h-.7Z"/><path class="cls-2" d="M529.6,216.55h0a2.11,2.11,0,0,1,2.1-2.1,2.05,2.05,0,0,1,2.1,2.1h0a2.1,2.1,0,0,1-4.2,0Zm3.5,0h0a1.45,1.45,0,0,0-1.4-1.5,1.37,1.37,0,0,0-1.4,1.4h0a1.37,1.37,0,0,0,1.4,1.4A1.24,1.24,0,0,0,533.1,216.55Z"/><path class="cls-2" d="M534.5,216.55h0a2.11,2.11,0,0,1,2.1-2.1,2.05,2.05,0,0,1,2.1,2.1h0a2.11,2.11,0,0,1-2.1,2.1A2,2,0,0,1,534.5,216.55Zm3.5,0h0a1.45,1.45,0,0,0-1.4-1.5,1.37,1.37,0,0,0-1.4,1.4h0a1.37,1.37,0,0,0,1.4,1.4A1.24,1.24,0,0,0,538,216.55Z"/><path class="cls-2" d="M539.5,214.55h.7V218h2.1v.6h-2.8Z"/><path class="cls-2" d="M613.6,292.05l.4-.5a2.11,2.11,0,0,0,1.3.5c.4,0,.7-.2.7-.5h0c0-.3-.2-.5-.9-.6-.9-.2-1.4-.5-1.4-1.2h0a1.27,1.27,0,0,1,1.4-1.2,2.46,2.46,0,0,1,1.5.5l-.4.5a1.67,1.67,0,0,0-1.1-.4c-.4,0-.7.2-.7.5h0c0,.3.2.5,1,.6s1.3.5,1.3,1.2h0c0,.8-.6,1.2-1.4,1.2A1.92,1.92,0,0,1,613.6,292.05Z"/><path class="cls-2" d="M617.4,290.65h0a2.05,2.05,0,0,1,2.1-2.1,2.58,2.58,0,0,1,1.6.6l-.5.5a1.61,1.61,0,0,0-1.1-.5,1.29,1.29,0,0,0-1.3,1.4h0a1.35,1.35,0,0,0,1.3,1.4,1.85,1.85,0,0,0,1.2-.5l.5.5a2.18,2.18,0,0,1-1.6.7A1.9,1.9,0,0,1,617.4,290.65Z"/><path class="cls-2" d="M621.8,288.65h.7v1.7h1.9v-1.7h.7v4.1h-.7v-1.7h-1.9v1.7h-.7Z"/><path class="cls-2" d="M625.9,290.65h0a2.11,2.11,0,0,1,2.1-2.1,2.05,2.05,0,0,1,2.1,2.1h0a2.1,2.1,0,1,1-4.2,0Zm3.5,0h0a1.45,1.45,0,0,0-1.4-1.5,1.37,1.37,0,0,0-1.4,1.4h0A1.37,1.37,0,0,0,628,292,1.19,1.19,0,0,0,629.4,290.65Z"/><path class="cls-2" d="M630.8,290.65h0a2.11,2.11,0,0,1,2.1-2.1,2.05,2.05,0,0,1,2.1,2.1h0a2.1,2.1,0,0,1-4.2,0Zm3.5,0h0a1.45,1.45,0,0,0-1.4-1.5,1.37,1.37,0,0,0-1.4,1.4h0a1.37,1.37,0,0,0,1.4,1.4A1.24,1.24,0,0,0,634.3,290.65Z"/><path class="cls-2" d="M635.8,288.65h.7v3.4h2.1v.6h-2.8Z"/><path class="cls-2" d="M607.6,331.35l.4-.5a2.11,2.11,0,0,0,1.3.5c.4,0,.7-.2.7-.5h0c0-.3-.2-.5-.9-.6-.9-.2-1.4-.5-1.4-1.2h0a1.27,1.27,0,0,1,1.4-1.2,2.46,2.46,0,0,1,1.5.5l-.4.5a1.67,1.67,0,0,0-1.1-.4c-.4,0-.7.2-.7.5h0c0,.3.2.5,1,.6s1.3.5,1.3,1.2h0c0,.8-.6,1.2-1.4,1.2A1.75,1.75,0,0,1,607.6,331.35Z"/><path class="cls-2" d="M611.3,330h0a2.05,2.05,0,0,1,2.1-2.1,2.58,2.58,0,0,1,1.6.6l-.5.5a1.61,1.61,0,0,0-1.1-.5,1.29,1.29,0,0,0-1.3,1.4h0a1.35,1.35,0,0,0,1.3,1.4,1.85,1.85,0,0,0,1.2-.5l.5.5a2.18,2.18,0,0,1-1.6.7A2,2,0,0,1,611.3,330Z"/><path class="cls-2" d="M615.7,328h.7v1.7h1.9V328h.7v4.1h-.7v-1.7h-1.9v1.7h-.7Z"/><path class="cls-2" d="M619.9,330h0a2.11,2.11,0,0,1,2.1-2.1,2.05,2.05,0,0,1,2.1,2.1h0a2.11,2.11,0,0,1-2.1,2.1A2,2,0,0,1,619.9,330Zm3.5,0h0a1.45,1.45,0,0,0-1.4-1.5,1.37,1.37,0,0,0-1.4,1.4h0a1.37,1.37,0,0,0,1.4,1.4A1.24,1.24,0,0,0,623.4,330Z"/><path class="cls-2" d="M624.7,330h0a2.11,2.11,0,0,1,2.1-2.1,2.05,2.05,0,0,1,2.1,2.1h0a2.11,2.11,0,0,1-2.1,2.1A2.05,2.05,0,0,1,624.7,330Zm3.5,0h0a1.45,1.45,0,0,0-1.4-1.5,1.37,1.37,0,0,0-1.4,1.4h0a1.37,1.37,0,0,0,1.4,1.4A1.19,1.19,0,0,0,628.2,330Z"/><path class="cls-2" d="M629.8,328h.7v3.4h2.1v.6h-2.8Z"/><path class="cls-2" d="M278.5,233.25l.4-.5a2.11,2.11,0,0,0,1.3.5c.4,0,.7-.2.7-.5h0c0-.3-.2-.5-.9-.6-.9-.2-1.4-.5-1.4-1.2h0a1.27,1.27,0,0,1,1.4-1.2,2.46,2.46,0,0,1,1.5.5l-.4.5a1.67,1.67,0,0,0-1.1-.4c-.4,0-.7.2-.7.5h0c0,.3.2.5,1,.6s1.3.5,1.3,1.2h0c0,.8-.6,1.2-1.4,1.2A2.72,2.72,0,0,1,278.5,233.25Z"/><path class="cls-2" d="M282.3,231.75h0a2.05,2.05,0,0,1,2.1-2.1,2.58,2.58,0,0,1,1.6.6l-.5.5a1.61,1.61,0,0,0-1.1-.5,1.29,1.29,0,0,0-1.3,1.4h0a1.35,1.35,0,0,0,1.3,1.4,1.85,1.85,0,0,0,1.2-.5l.5.5a2.18,2.18,0,0,1-1.6.7A1.9,1.9,0,0,1,282.3,231.75Z"/><path class="cls-2" d="M286.7,229.75h.7v1.7h1.9v-1.7h.7v4.1h-.7v-1.7h-1.9v1.7h-.7Z"/><path class="cls-2" d="M290.8,231.75h0a2.11,2.11,0,0,1,2.1-2.1,2.05,2.05,0,0,1,2.1,2.1h0a2.11,2.11,0,0,1-2.1,2.1A2.05,2.05,0,0,1,290.8,231.75Zm3.5,0h0a1.45,1.45,0,0,0-1.4-1.5,1.37,1.37,0,0,0-1.4,1.4h0a1.37,1.37,0,0,0,1.4,1.4A1.19,1.19,0,0,0,294.3,231.75Z"/><path class="cls-2" d="M295.7,231.75h0a2.11,2.11,0,0,1,2.1-2.1,2.05,2.05,0,0,1,2.1,2.1h0a2.11,2.11,0,0,1-2.1,2.1A2.05,2.05,0,0,1,295.7,231.75Zm3.5,0h0a1.45,1.45,0,0,0-1.4-1.5,1.37,1.37,0,0,0-1.4,1.4h0a1.37,1.37,0,0,0,1.4,1.4A1.19,1.19,0,0,0,299.2,231.75Z"/><path class="cls-2" d="M300.7,229.75h.7v3.4h2.1v.6h-2.8v-4Z"/><path class="cls-2" d="M149.2,335l.4-.5a2.11,2.11,0,0,0,1.3.5c.4,0,.7-.2.7-.5h0c0-.3-.2-.5-.9-.6-.9-.2-1.4-.5-1.4-1.2h0a1.27,1.27,0,0,1,1.4-1.2,2.46,2.46,0,0,1,1.5.5l-.4.5a1.67,1.67,0,0,0-1.1-.4c-.4,0-.7.2-.7.5h0c0,.3.2.5,1,.6s1.3.5,1.3,1.2h0c0,.8-.6,1.2-1.4,1.2A2.72,2.72,0,0,1,149.2,335Z"/><path class="cls-2" d="M153,333.55h0a2.05,2.05,0,0,1,2.1-2.1,2.58,2.58,0,0,1,1.6.6l-.5.5a1.61,1.61,0,0,0-1.1-.5,1.29,1.29,0,0,0-1.3,1.4h0a1.35,1.35,0,0,0,1.3,1.4,1.85,1.85,0,0,0,1.2-.5l.5.5a2.18,2.18,0,0,1-1.6.7A2.06,2.06,0,0,1,153,333.55Z"/><path class="cls-2" d="M157.4,331.45h.7v1.7H160v-1.7h.7v4.1H160v-1.7h-1.9v1.7h-.7Z"/><path class="cls-2" d="M161.5,333.55h0a2.11,2.11,0,0,1,2.1-2.1,2.05,2.05,0,0,1,2.1,2.1h0a2.11,2.11,0,0,1-2.1,2.1A2.18,2.18,0,0,1,161.5,333.55Zm3.5,0h0a1.45,1.45,0,0,0-1.4-1.5,1.37,1.37,0,0,0-1.4,1.4h0a1.37,1.37,0,0,0,1.4,1.4A1.24,1.24,0,0,0,165,333.55Z"/><path class="cls-2" d="M166.4,333.55h0a2.11,2.11,0,0,1,2.1-2.1,2.05,2.05,0,0,1,2.1,2.1h0a2.11,2.11,0,0,1-2.1,2.1A2.18,2.18,0,0,1,166.4,333.55Zm3.5,0h0a1.45,1.45,0,0,0-1.4-1.5,1.37,1.37,0,0,0-1.4,1.4h0a1.37,1.37,0,0,0,1.4,1.4A1.29,1.29,0,0,0,169.9,333.55Z"/><path class="cls-2" d="M171.4,331.45h.7v3.4h2.1v.6h-2.8Z"/><path class="cls-2" d="M338.8,411.45l.4-.5a2.11,2.11,0,0,0,1.3.5c.4,0,.7-.2.7-.5h0c0-.3-.2-.5-.9-.6-.9-.2-1.4-.5-1.4-1.2h0a1.27,1.27,0,0,1,1.4-1.2,2.46,2.46,0,0,1,1.5.5l-.4.5a1.67,1.67,0,0,0-1.1-.4c-.4,0-.7.2-.7.5h0c0,.3.2.5,1,.6s1.3.5,1.3,1.2h0c0,.8-.6,1.2-1.4,1.2A2.72,2.72,0,0,1,338.8,411.45Z"/><path class="cls-2" d="M342.5,410.05h0a2.05,2.05,0,0,1,2.1-2.1,2.58,2.58,0,0,1,1.6.6l-.5.5a1.61,1.61,0,0,0-1.1-.5,1.29,1.29,0,0,0-1.3,1.4h0a1.35,1.35,0,0,0,1.3,1.4,1.85,1.85,0,0,0,1.2-.5l.5.5a2.18,2.18,0,0,1-1.6.7A2,2,0,0,1,342.5,410.05Z"/><path class="cls-2" d="M346.9,408h.7v1.7h1.9V408h.7v4.1h-.6v-1.7h-2v1.7h-.7Z"/><path class="cls-2" d="M351.1,410.05h0a2.11,2.11,0,0,1,2.1-2.1,2.05,2.05,0,0,1,2.1,2.1h0a2.1,2.1,0,1,1-4.2,0Zm3.5,0h0a1.45,1.45,0,0,0-1.4-1.5,1.37,1.37,0,0,0-1.4,1.4h0a1.37,1.37,0,0,0,1.4,1.4A1.24,1.24,0,0,0,354.6,410.05Z"/><path class="cls-2" d="M356,410.05h0a2.11,2.11,0,0,1,2.1-2.1,2.05,2.05,0,0,1,2.1,2.1h0a2.11,2.11,0,0,1-2.1,2.1A2,2,0,0,1,356,410.05Zm3.5,0h0a1.45,1.45,0,0,0-1.4-1.5,1.37,1.37,0,0,0-1.4,1.4h0a1.37,1.37,0,0,0,1.4,1.4A1.24,1.24,0,0,0,359.5,410.05Z"/><path class="cls-2" d="M361,408h.7v3.4h2.1v.6H361v-4Z"/><path class="cls-2" d="M539,165.55l.4-.5a2.11,2.11,0,0,0,1.3.5c.4,0,.7-.2.7-.5h0c0-.3-.2-.5-.9-.6-.9-.2-1.4-.5-1.4-1.2h0a1.27,1.27,0,0,1,1.4-1.2,2.46,2.46,0,0,1,1.5.5l-.4.5a1.67,1.67,0,0,0-1.1-.4c-.4,0-.7.2-.7.5h0c0,.3.2.5,1,.6s1.3.5,1.3,1.2h0c0,.8-.6,1.2-1.4,1.2A2.35,2.35,0,0,1,539,165.55Z"/><path class="cls-2" d="M542.7,164.05h0a2.05,2.05,0,0,1,2.1-2.1,2.58,2.58,0,0,1,1.6.6l-.5.5a1.61,1.61,0,0,0-1.1-.5,1.29,1.29,0,0,0-1.3,1.4h0a1.35,1.35,0,0,0,1.3,1.4,1.85,1.85,0,0,0,1.2-.5l.5.5a2.18,2.18,0,0,1-1.6.7A2,2,0,0,1,542.7,164.05Z"/><path class="cls-2" d="M547.1,162.05h.7v1.7h1.9v-1.7h.7v4.1h-.7v-1.7h-1.9v1.7h-.7Z"/><path class="cls-2" d="M551.3,164.05h0a2.11,2.11,0,0,1,2.1-2.1,2.05,2.05,0,0,1,2.1,2.1h0a2.11,2.11,0,0,1-2.1,2.1A2,2,0,0,1,551.3,164.05Zm3.5,0h0a1.45,1.45,0,0,0-1.4-1.5A1.37,1.37,0,0,0,552,164h0a1.37,1.37,0,0,0,1.4,1.4A1.19,1.19,0,0,0,554.8,164.05Z"/><path class="cls-2" d="M556.1,164.05h0a2.11,2.11,0,0,1,2.1-2.1,2.05,2.05,0,0,1,2.1,2.1h0a2.11,2.11,0,0,1-2.1,2.1A2.05,2.05,0,0,1,556.1,164.05Zm3.5,0h0a1.45,1.45,0,0,0-1.4-1.5,1.37,1.37,0,0,0-1.4,1.4h0a1.37,1.37,0,0,0,1.4,1.4C559.1,165.55,559.6,164.85,559.6,164.05Z"/><path class="cls-2" d="M561.2,162.05h.7v3.4H564v.6h-2.8Z"/><path class="cls-2" d="M706.1,128.55l.4-.5a2.11,2.11,0,0,0,1.3.5c.4,0,.7-.2.7-.5h0c0-.3-.2-.5-.9-.6-.9-.2-1.4-.5-1.4-1.2h0a1.27,1.27,0,0,1,1.4-1.2,2.46,2.46,0,0,1,1.5.5l-.4.5a1.67,1.67,0,0,0-1.1-.4c-.4,0-.7.2-.7.5h0c0,.3.2.5,1,.6s1.3.5,1.3,1.2h0c0,.8-.6,1.2-1.4,1.2A1.92,1.92,0,0,1,706.1,128.55Z"/><path class="cls-2" d="M709.9,127.15h0a2.05,2.05,0,0,1,2.1-2.1,2.58,2.58,0,0,1,1.6.6l-.5.5a1.61,1.61,0,0,0-1.1-.5,1.29,1.29,0,0,0-1.3,1.4h0a1.35,1.35,0,0,0,1.3,1.4,1.85,1.85,0,0,0,1.2-.5l.5.5a2.18,2.18,0,0,1-1.6.7A1.9,1.9,0,0,1,709.9,127.15Z"/><path class="cls-2" d="M714.3,125.15h.7v1.7h1.9v-1.7h.7v4.1h-.7v-1.7H715v1.7h-.7Z"/><path class="cls-2" d="M718.4,127.15h0a2.11,2.11,0,0,1,2.1-2.1,2.05,2.05,0,0,1,2.1,2.1h0a2.1,2.1,0,1,1-4.2,0Zm3.5,0h0a1.45,1.45,0,0,0-1.4-1.5,1.37,1.37,0,0,0-1.4,1.4h0a1.37,1.37,0,0,0,1.4,1.4A1.19,1.19,0,0,0,721.9,127.15Z"/><path class="cls-2" d="M723.3,127.15h0a2.11,2.11,0,0,1,2.1-2.1,2.05,2.05,0,0,1,2.1,2.1h0a2.1,2.1,0,0,1-4.2,0Zm3.5,0h0a1.45,1.45,0,0,0-1.4-1.5,1.37,1.37,0,0,0-1.4,1.4h0a1.37,1.37,0,0,0,1.4,1.4A1.24,1.24,0,0,0,726.8,127.15Z"/><path class="cls-2" d="M728.3,125.15h.7v3.4h2.1v.6h-2.8Z"/></g></svg>