<svg id="Layer_1" data-name="Layer 1" xmlns="http://www.w3.org/2000/svg" viewBox="0 0 913 614.91"><defs><style>.cls-1{fill:#455981;}.cls-2{fill:#fff;}</style></defs><g id="Layer_2" data-name="Layer 2"><path class="cls-1" d="M523,243.86a3,3,0,1,1,3-3,2.95,2.95,0,0,1-3,3m0-5.1a2.1,2.1,0,1,0,2.1,2.1h0a2.05,2.05,0,0,0-2.1-2.1"/><path class="cls-1" d="M524.05,240.36h-.7v-.6a.54.54,0,0,0-.5-.5.47.47,0,0,0-.5.5v.6h-.5a.47.47,0,0,0-.5.5.46.46,0,0,0,.5.4h.7v.7a.54.54,0,0,0,.5.5.47.47,0,0,0,.5-.5v-.7h.7c.2,0,.5-.2.5-.4h0c-.2-.3-.4-.5-.7-.5"/><path class="cls-1" d="M515.45,254.76h-5.3c-.2,0-.5-.2-.5-.4h0v-12.9c0-.2.2-.5.4-.5h5.3a.47.47,0,0,1,.5.5v12.9a.43.43,0,0,1-.4.4h0m-4.8-.9h4.4v-12h-4.4Z"/><path class="cls-1" d="M528.55,238.66l-5.3-3.3a.45.45,0,0,0-.5,0l-5.3,3.3a.52.52,0,0,0-.2.4v15.2a.46.46,0,0,0,.5.4h10.6c.2,0,.5-.2.5-.4h0v-15.2c-.1-.1-.2-.3-.3-.4m-8.2,13h2.1v2.2h-2.1Zm3,0h2.1v2.2h-2.1Zm4.5,2.2h-1.4v-2.8a.46.46,0,0,0-.5-.4h-6.1c-.2,0-.5.2-.5.4h0v2.7H518v-14.6l4.9-3,4.9,3Z"/><rect class="cls-1" x="515.85" y="244.86" width="1.3" height="0.9"/><path class="cls-1" d="M517.15,254.36V254h-1.3v.4a.46.46,0,0,1-.5.4h2.2a.43.43,0,0,1-.4-.4h0"/><path class="cls-1" d="M523.55,249.36a.6.6,0,1,1-.6-.6h0a.65.65,0,0,1,.6.6h0"/><path class="cls-1" d="M523.55,247.26a.61.61,0,0,1-1.2.2v-.2a.61.61,0,1,1,1.2-.2v.2"/><path class="cls-1" d="M523.55,245.16a.6.6,0,1,1-.6-.6h0a.65.65,0,0,1,.6.6"/><path class="cls-1" d="M526,249.36a.6.6,0,1,1-.6-.6h0a.58.58,0,0,1,.6.6h0"/><path class="cls-1" d="M526,247.26a.61.61,0,0,1-1.2.2v-.2a.61.61,0,1,1,1.2-.2v.2"/><path class="cls-1" d="M526,245.16a.6.6,0,1,1-.6-.6h0a.58.58,0,0,1,.6.6"/><path class="cls-1" d="M521.15,249.36a.6.6,0,1,1-.6-.6h0a.65.65,0,0,1,.6.6h0"/><path class="cls-1" d="M521.15,247.26a.6.6,0,1,1-.6-.6h0a.65.65,0,0,1,.6.6h0"/><path class="cls-1" d="M521.15,245.16a.6.6,0,1,1-.6-.6h0a.65.65,0,0,1,.6.6"/><path class="cls-1" d="M514.35,251.86a.6.6,0,1,1-.6-.6h0a.53.53,0,0,1,.6.6"/><path class="cls-1" d="M514.35,249.76a.6.6,0,1,1-.6-.6h0a.53.53,0,0,1,.6.6h0"/><path class="cls-1" d="M514.35,247.66a.6.6,0,1,1-.6-.6h0a.53.53,0,0,1,.6.6h0"/><path class="cls-1" d="M512.45,251.86a.6.6,0,1,1-.6-.6h0a.58.58,0,0,1,.6.6"/><path class="cls-1" d="M512.45,249.76a.6.6,0,1,1-.6-.6h0a.58.58,0,0,1,.6.6h0"/><path class="cls-1" d="M512.45,247.66a.6.6,0,1,1-.6-.6h0a.58.58,0,0,1,.6.6h0"/><path class="cls-1" d="M514.35,245.56a.6.6,0,1,1-.6-.6h0a.53.53,0,0,1,.6.6"/><path class="cls-1" d="M512.45,245.56a.6.6,0,1,1-.6-.6h0a.58.58,0,0,1,.6.6"/><path class="cls-1" d="M514.35,243.46a.6.6,0,1,1-.6-.6h0c.4-.1.6.2.6.6"/><path class="cls-1" d="M512.45,243.46a.6.6,0,1,1-.6-.6h0c.3-.1.6.2.6.6"/><path class="cls-1" d="M535.75,254.76h-5.3c-.2,0-.5-.2-.5-.4h0v-12.9c0-.2.2-.5.4-.5h5.3c.2,0,.5.2.5.4h0v12.9c.1.3-.1.5-.4.5h0m-4.8-.9h4.4v-12H531Z"/><path class="cls-1" d="M530.05,254.36V254h-1.3v.4a.46.46,0,0,1-.5.4h2.2a.43.43,0,0,1-.4-.4h0"/><rect class="cls-1" x="528.75" y="244.86" width="1.3" height="0.9"/><path class="cls-1" d="M534.65,251.86a.6.6,0,1,1-.6-.6h0a.53.53,0,0,1,.6.6"/><path class="cls-1" d="M534.65,249.76a.6.6,0,1,1-.6-.6h0c.4,0,.7.2.6.6h0"/><path class="cls-1" d="M534.65,247.66a.6.6,0,1,1-.6-.6h0c.4,0,.7.3.6.6h0"/><path class="cls-1" d="M532.75,251.86a.6.6,0,1,1-.6-.6h0a.58.58,0,0,1,.6.6"/><path class="cls-1" d="M532.75,249.76a.6.6,0,1,1-.6-.6h0a.58.58,0,0,1,.6.6h0"/><path class="cls-1" d="M532.75,247.66a.6.6,0,1,1-.6-.6h0a.58.58,0,0,1,.6.6h0"/><path class="cls-1" d="M534.65,245.56a.6.6,0,1,1-.6-.6h0a.53.53,0,0,1,.6.6"/><path class="cls-1" d="M532.75,245.56a.6.6,0,1,1-.6-.6h0a.58.58,0,0,1,.6.6"/><path class="cls-1" d="M534.65,243.46a.6.6,0,1,1-.6-.6h0a.53.53,0,0,1,.6.6"/><path class="cls-1" d="M532.75,243.46a.6.6,0,1,1-.6-.6h0c.3-.1.6.2.6.6"/><rect class="cls-1" x="560.25" y="236.76" width="89.3" height="22.3"/><polygon class="cls-1" points="560.25 252.86 560.25 247.86 560.25 242.86 550.25 245.46 540.25 247.96 550.25 250.46 560.25 252.86"/></g><g id="t-en"><path class="cls-2" d="M579.85,242.36h.7v4.2h-.7Z"/><path class="cls-2" d="M581.65,242.36h.7l2.2,2.9v-2.9h.7v4.2h-.6l-2.3-3v3h-.7v-4.2Z"/><path class="cls-2" d="M587.35,243.06h-1.3v-.7h3.4v.7h-1.3v3.5h-.7v-3.5Z"/><path class="cls-2" d="M590.05,242.36h3.1v.7h-2.3v1.1H593v.7h-2.1V246h2.4v.7h-3.1v-4.3Z"/><path class="cls-2" d="M594.05,242.36H596a2.14,2.14,0,0,1,1.2.4,1.22,1.22,0,0,1,.3.9h0a1.3,1.3,0,0,1-1,1.3l1.1,1.6h-.9l-1-1.5h-.9v1.5h-.7v-4.2Zm1.8,2a.81.81,0,0,0,.9-.7h0c0-.5-.3-.7-.9-.7h-1.1v1.4Z"/><path class="cls-2" d="M598.25,242.36h.7l2.2,2.9v-2.9h.7v4.2h-.6l-2.3-3v3h-.7v-4.2Z"/><path class="cls-2" d="M604.45,242.26h.7l1.8,4.2h-.8l-.4-1h-2l-.4,1h-.8Zm1,2.6-.7-1.7-.7,1.7Z"/><path class="cls-2" d="M608.05,243.06h-1.3v-.7h3.4v.7h-1.3v3.5h-.7v-3.5Z"/><path class="cls-2" d="M611,242.36h.7v4.2H611Z"/><path class="cls-2" d="M612.55,244.46h0a2.2,2.2,0,0,1,4.4-.1h0a2.16,2.16,0,0,1-2.2,2.2A2.08,2.08,0,0,1,612.55,244.46Zm3.6,0h0a1.4,1.4,0,1,0-2.8,0h0a1.4,1.4,0,1,0,2.8,0Z"/><path class="cls-2" d="M617.75,242.36h.7l2.2,2.9v-2.9h.7v4.2h-.6l-2.3-3v3h-.7v-4.2Z"/><path class="cls-2" d="M623.85,242.26h.7l1.8,4.2h-.8l-.4-1h-2l-.4,1H622Zm1.1,2.6-.7-1.7-.7,1.7Z"/><path class="cls-2" d="M627.05,242.36h.7v3.5H630v.7h-2.9Z"/><path class="cls-2" d="M590.55,249.26h.7V251h2v-1.7h.7v4.2h-.7v-1.8h-2v1.8h-.7Z"/><path class="cls-2" d="M594.85,251.36h0a2.2,2.2,0,0,1,4.4-.1h0a2.16,2.16,0,0,1-2.2,2.2A2,2,0,0,1,594.85,251.36Zm3.6,0h0a1.4,1.4,0,1,0-2.8,0h0a1.4,1.4,0,1,0,2.8,0Z"/><path class="cls-2" d="M599.75,252.86l.4-.5a1.66,1.66,0,0,0,1.3.5c.5,0,.7-.2.7-.5h0c0-.3-.2-.5-.9-.6-.9-.2-1.4-.5-1.4-1.2h0a1.27,1.27,0,0,1,1.4-1.2,2.46,2.46,0,0,1,1.5.5l-.4.6a1.86,1.86,0,0,0-1.1-.4c-.4,0-.7.2-.7.5h0c0,.3.2.5,1,.7s1.3.5,1.3,1.2h0c0,.8-.6,1.2-1.5,1.2A6,6,0,0,1,599.75,252.86Z"/><path class="cls-2" d="M603.75,249.26h1.6a1.43,1.43,0,0,1,1.6,1.4h0c0,.9-.7,1.4-1.7,1.4h-.8v1.3h-.7v-4.1Zm1.6,2.2c.6,0,.9-.3.9-.7h0c0-.5-.4-.7-.9-.7h-.9v1.5h.9Z"/><path class="cls-2" d="M607.75,249.26h.7v4.2h-.7Z"/><path class="cls-2" d="M610.55,250h-1.3v-.7h3.4v.7h-1.3v3.5h-.7V250Z"/><path class="cls-2" d="M614.25,249.26h.7l1.8,4.2H616l-.4-1h-2l-.4,1h-.8Zm1.1,2.5-.7-1.7-.7,1.7Z"/><path class="cls-2" d="M617.45,249.26h.7v3.5h2.2v.7h-2.9Z"/></g></svg>