<svg id="Layer_1" data-name="Layer 1" xmlns="http://www.w3.org/2000/svg" viewBox="0 0 913 614.91"><defs><style>.cls-1{fill:#455981;}.cls-2{fill:#fff;}</style></defs><g id="Layer_2" data-name="Layer 2"><path class="cls-1" d="M523,243.86a3,3,0,1,1,3-3,2.95,2.95,0,0,1-3,3m0-5.1a2.1,2.1,0,1,0,2.1,2.1h0a2.05,2.05,0,0,0-2.1-2.1"/><path class="cls-1" d="M524.05,240.36h-.7v-.6a.54.54,0,0,0-.5-.5.47.47,0,0,0-.5.5v.6h-.5a.47.47,0,0,0-.5.5.46.46,0,0,0,.5.4h.7v.7a.54.54,0,0,0,.5.5.47.47,0,0,0,.5-.5v-.7h.7c.2,0,.5-.2.5-.4h0c-.2-.3-.4-.5-.7-.5"/><path class="cls-1" d="M515.45,254.76h-5.3c-.2,0-.5-.2-.5-.4h0v-12.9c0-.2.2-.5.4-.5h5.3a.47.47,0,0,1,.5.5v12.9a.43.43,0,0,1-.4.4h0m-4.8-.9h4.4v-12h-4.4Z"/><path class="cls-1" d="M528.55,238.66l-5.3-3.3a.45.45,0,0,0-.5,0l-5.3,3.3a.52.52,0,0,0-.2.4v15.2a.46.46,0,0,0,.5.4h10.6c.2,0,.5-.2.5-.4h0v-15.2c-.1-.1-.2-.3-.3-.4m-8.2,13h2.1v2.2h-2.1Zm3,0h2.1v2.2h-2.1Zm4.5,2.2h-1.4v-2.8a.46.46,0,0,0-.5-.4h-6.1c-.2,0-.5.2-.5.4h0v2.7H518v-14.6l4.9-3,4.9,3Z"/><rect class="cls-1" x="515.85" y="244.86" width="1.3" height="0.9"/><path class="cls-1" d="M517.15,254.36V254h-1.3v.4a.46.46,0,0,1-.5.4h2.2a.43.43,0,0,1-.4-.4h0"/><path class="cls-1" d="M523.55,249.36a.6.6,0,1,1-.6-.6h0a.65.65,0,0,1,.6.6h0"/><path class="cls-1" d="M523.55,247.26a.61.61,0,0,1-1.2.2v-.2a.61.61,0,1,1,1.2-.2v.2"/><path class="cls-1" d="M523.55,245.16a.6.6,0,1,1-.6-.6h0a.65.65,0,0,1,.6.6"/><path class="cls-1" d="M526,249.36a.6.6,0,1,1-.6-.6h0a.58.58,0,0,1,.6.6h0"/><path class="cls-1" d="M526,247.26a.61.61,0,0,1-1.2.2v-.2a.61.61,0,1,1,1.2-.2v.2"/><path class="cls-1" d="M526,245.16a.6.6,0,1,1-.6-.6h0a.58.58,0,0,1,.6.6"/><path class="cls-1" d="M521.15,249.36a.6.6,0,1,1-.6-.6h0a.65.65,0,0,1,.6.6h0"/><path class="cls-1" d="M521.15,247.26a.6.6,0,1,1-.6-.6h0a.65.65,0,0,1,.6.6h0"/><path class="cls-1" d="M521.15,245.16a.6.6,0,1,1-.6-.6h0a.65.65,0,0,1,.6.6"/><path class="cls-1" d="M514.35,251.86a.6.6,0,1,1-.6-.6h0a.53.53,0,0,1,.6.6"/><path class="cls-1" d="M514.35,249.76a.6.6,0,1,1-.6-.6h0a.53.53,0,0,1,.6.6h0"/><path class="cls-1" d="M514.35,247.66a.6.6,0,1,1-.6-.6h0a.53.53,0,0,1,.6.6h0"/><path class="cls-1" d="M512.45,251.86a.6.6,0,1,1-.6-.6h0a.58.58,0,0,1,.6.6"/><path class="cls-1" d="M512.45,249.76a.6.6,0,1,1-.6-.6h0a.58.58,0,0,1,.6.6h0"/><path class="cls-1" d="M512.45,247.66a.6.6,0,1,1-.6-.6h0a.58.58,0,0,1,.6.6h0"/><path class="cls-1" d="M514.35,245.56a.6.6,0,1,1-.6-.6h0a.53.53,0,0,1,.6.6"/><path class="cls-1" d="M512.45,245.56a.6.6,0,1,1-.6-.6h0a.58.58,0,0,1,.6.6"/><path class="cls-1" d="M514.35,243.46a.6.6,0,1,1-.6-.6h0c.4-.1.6.2.6.6"/><path class="cls-1" d="M512.45,243.46a.6.6,0,1,1-.6-.6h0c.3-.1.6.2.6.6"/><path class="cls-1" d="M535.75,254.76h-5.3c-.2,0-.5-.2-.5-.4h0v-12.9c0-.2.2-.5.4-.5h5.3c.2,0,.5.2.5.4h0v12.9c.1.3-.1.5-.4.5h0m-4.8-.9h4.4v-12H531Z"/><path class="cls-1" d="M530.05,254.36V254h-1.3v.4a.46.46,0,0,1-.5.4h2.2a.43.43,0,0,1-.4-.4h0"/><rect class="cls-1" x="528.75" y="244.86" width="1.3" height="0.9"/><path class="cls-1" d="M534.65,251.86a.6.6,0,1,1-.6-.6h0a.53.53,0,0,1,.6.6"/><path class="cls-1" d="M534.65,249.76a.6.6,0,1,1-.6-.6h0c.4,0,.7.2.6.6h0"/><path class="cls-1" d="M534.65,247.66a.6.6,0,1,1-.6-.6h0c.4,0,.7.3.6.6h0"/><path class="cls-1" d="M532.75,251.86a.6.6,0,1,1-.6-.6h0a.58.58,0,0,1,.6.6"/><path class="cls-1" d="M532.75,249.76a.6.6,0,1,1-.6-.6h0a.58.58,0,0,1,.6.6h0"/><path class="cls-1" d="M532.75,247.66a.6.6,0,1,1-.6-.6h0a.58.58,0,0,1,.6.6h0"/><path class="cls-1" d="M534.65,245.56a.6.6,0,1,1-.6-.6h0a.53.53,0,0,1,.6.6"/><path class="cls-1" d="M532.75,245.56a.6.6,0,1,1-.6-.6h0a.58.58,0,0,1,.6.6"/><path class="cls-1" d="M534.65,243.46a.6.6,0,1,1-.6-.6h0a.53.53,0,0,1,.6.6"/><path class="cls-1" d="M532.75,243.46a.6.6,0,1,1-.6-.6h0c.3-.1.6.2.6.6"/><rect class="cls-1" x="560.25" y="236.76" width="89.3" height="22.3"/><polygon class="cls-1" points="560.25 252.86 560.25 247.86 560.25 242.86 550.25 245.46 540.25 247.96 550.25 250.46 560.25 252.86"/></g><g id="t_vn"><path class="cls-2" d="M576.15,246.26H578a1.28,1.28,0,0,1,1,.4.91.91,0,0,1,.3.7h0a1,1,0,0,1-.6.9c.5.2.8.4.8,1h0c0,.7-.6,1.1-1.5,1.1h-1.9Zm1.7,1.7c.5,0,.8-.2.8-.5h0c0-.3-.2-.5-.7-.5h-1v1.1Zm.2,1.7c.5,0,.8-.2.8-.6h0c0-.3-.3-.5-.8-.5h-1.2v1.1Z"/><path class="cls-2" d="M580.05,246.26h3v.6h-2.3V248h2v.7h-2v1h2.3v.6h-3Zm1.1-1.1h.7l.7.9h-.5l-.5-.4-.4.4h-.5Zm0,5.6h.7v.7h-.6Z"/><polygon class="cls-2" points="583.55 246.26 584.25 246.26 586.35 249.06 586.35 246.26 587.05 246.26 587.05 250.36 586.45 250.36 584.25 247.46 584.25 250.36 583.55 250.36 583.55 246.26"/><polygon class="cls-2" points="587.85 246.26 588.55 246.26 588.55 247.96 590.45 247.96 590.45 246.26 591.15 246.26 591.15 250.36 590.45 250.36 590.45 248.66 588.55 248.66 588.55 250.36 587.85 250.36 587.85 246.26"/><polygon class="cls-2" points="592.95 246.26 593.75 246.26 594.95 249.36 596.15 246.26 596.95 246.26 595.25 250.36 594.65 250.36 592.95 246.26"/><rect class="cls-2" x="597.35" y="246.26" width="0.7" height="4"/><path class="cls-2" d="M598.85,246.26h3v.6h-2.3V248h2v.7h-2v1h2.3v.6h-3Zm1.2-1.1h.6l.7.9h-.5l-.5-.4-.4.4h-.5Zm0,5.6h.7v.7h-.7Z"/><polygon class="cls-2" points="602.45 246.26 603.05 246.26 605.25 249.06 605.25 246.26 605.95 246.26 605.95 250.36 605.35 250.36 603.15 247.46 603.15 250.36 602.45 250.36 602.45 246.26"/><path class="cls-2" d="M611.25,250.06a1.92,1.92,0,0,1-1.2.4,2,2,0,0,1-2.1-1.9v-.2h0a2.18,2.18,0,0,1,2.2-2,2.15,2.15,0,0,1,2,2h0a1.75,1.75,0,0,1-.4,1.2l.5.4-.5.5Zm-.5-.5-.7-.6.5-.5.7.6a1.88,1.88,0,0,0,.2-.8h0a1.4,1.4,0,1,0-2.8,0h0a1.35,1.35,0,0,0,1.3,1.4h0a1,1,0,0,0,.8-.1"/><path class="cls-2" d="M612.65,248.66v-2.3h.7v2.3c0,.8.4,1.1,1,1.1a1,1,0,0,0,1-1.1v-2.3h.7v2.3a1.59,1.59,0,0,1-1.4,1.8h-.3a1.58,1.58,0,0,1-1.7-1.5v-.3"/><path class="cls-2" d="M616.65,248.36h0a2.18,2.18,0,0,1,2.2-2,2.15,2.15,0,0,1,2,2h0a2.11,2.11,0,0,1-2.1,2.1h-.1a2,2,0,0,1-2.1-1.9c0-.1,0-.2.1-.2m3.4,0h0a1.4,1.4,0,1,0-2.8,0h0a1.35,1.35,0,0,0,1.3,1.4h.1a1.37,1.37,0,0,0,1.4-1.4h0m-1.7-3.3h.6l.7.9h-.5l-.5-.4-.5.4h-.5Zm1.7-.7.6.3-.7.7h-.5Z"/><path class="cls-2" d="M621.15,248.36h0a2.08,2.08,0,0,1,1.9-2.1h.2a2.27,2.27,0,0,1,1.6.6l-.5.5a1.61,1.61,0,0,0-1.1-.5,1.29,1.29,0,0,0-1.3,1.4h0a1.29,1.29,0,0,0,1.3,1.4h0a1.85,1.85,0,0,0,1.2-.5l.5.5a2,2,0,0,1-1.6.7,2.19,2.19,0,0,1-2.2-2h0"/><polygon class="cls-2" points="627.75 246.96 626.45 246.96 626.45 246.26 629.75 246.26 629.75 246.96 628.45 246.96 628.45 250.36 627.75 250.36 627.75 246.96"/><path class="cls-2" d="M630.15,246.26h3v.6h-2.3V248h2v.7h-2v1h2.3v.6h-3Zm1.2-1.1h.7l.7.9h-.5l-.5-.4-.4.4h-.5Zm1.7-.8.6.3-.7.7h-.5Z"/></g></svg>