<svg id="Layer_1" data-name="Layer 1" xmlns="http://www.w3.org/2000/svg" viewBox="0 0 913 614.91"><defs><style>.cls-1{fill:#455981;}.cls-2{fill:#fff;}</style></defs><g id="Layer_2" data-name="Layer 2"><path class="cls-1" d="M357.9,462.34H336.3A2.26,2.26,0,0,1,334,460v-9.5a2.26,2.26,0,0,1,2.3-2.3h21.6a2.26,2.26,0,0,1,2.3,2.3V460a2.33,2.33,0,0,1-2.3,2.3m-21.6-12.9a1.11,1.11,0,0,0-1.1,1.1h0V460a1.11,1.11,0,0,0,1.1,1.1h21.6A1.11,1.11,0,0,0,359,460v-9.5a1.11,1.11,0,0,0-1.1-1.1Z"/><path class="cls-1" d="M347.1,458.14a2.8,2.8,0,1,1,2.8-2.8,2.8,2.8,0,0,1-2.8,2.8h0m0-4.4a1.6,1.6,0,1,0,1.6,1.6h0a1.58,1.58,0,0,0-1.6-1.6"/><rect class="cls-1" x="346.3" y="448.84" width="1.2" height="12.9"/><path class="cls-1" d="M337.1,457.84H334v-5h3.1Zm-2-1.2h.8V454h-.8Z"/><path class="cls-1" d="M338.5,459.34h-4.3v-8h4.3Zm-3.1-1.2h1.9v-5.6h-1.9Z"/><path class="cls-1" d="M360.2,457.84h-3.1v-5h3.1Zm-2-1.2h.8V454h-.8Z"/><path class="cls-1" d="M359.9,459.34h-4.3v-8h4.3Zm-3.1-1.2h1.9v-5.6h-1.9Z"/><path class="cls-1" d="M366.8,392.94l-3.6-2.6a.45.45,0,0,0-.5,0l-3.6,2.6c-.1.1-.2.2-.1.3V407a.43.43,0,0,0,.4.4h7.1a.43.43,0,0,0,.4-.4h0v-13.8c.1-.1,0-.2-.1-.3m-7,13.7v-3h4.7a.4.4,0,0,0,0-.8h-4.7V400h4.7a.35.35,0,0,0,.3-.5.32.32,0,0,0-.3-.3h-4.7v-2.9h4.7a.35.35,0,0,0,.3-.5.32.32,0,0,0-.3-.3h-4.7v-2.1L363,391l3.2,2.4v.2h-4.8a.35.35,0,0,0-.3.5.32.32,0,0,0,.3.3h4.7v2.9h-4.7a.35.35,0,0,0-.3.5.32.32,0,0,0,.3.3h4.7V401h-4.7a.4.4,0,0,0,0,.8h4.7v2.9h-4.7a.35.35,0,0,0-.3.5.32.32,0,0,0,.3.3h4.7v1.2Z"/><path class="cls-1" d="M355.3,394.74l-7.1-4.2a.3.3,0,0,0-.4,0c-.1.1-.2.2-.2.3v6.7h0v2.4h0V407a.43.43,0,0,0,.4.4h7.1a.43.43,0,0,0,.4-.4h0V395c0-.1-.1-.3-.2-.3m-2.5,3.3h1.8v1.6h-1.8Zm0,2.3h1.8v1.6h-1.8Zm0-4.7h1.8v1.6h-1.8Zm0,7.1h1.8v1.6h-1.8Zm1.1-7.9h-1.5a.43.43,0,0,0-.4.4v2.4h0V400h0v6.7h-1.1V400h0v-2.4h0v-2.4a.43.43,0,0,0-.4-.4h-2.2v-3.3Zm-5.6.8h1.8v1.6h-1.8Zm0,9.4h1.8v1.6h-1.8Zm0-2.3h1.8v1.6h-1.8Zm1.8-3.2h-1.8V398h1.8Zm-1.8.8h1.8v1.6h-1.8Zm4.5,4.8h1.8v1.6h-1.8Z"/><path class="cls-1" d="M358,403h-1.5a.4.4,0,1,1,0-.8H358a.4.4,0,0,1,0,.8"/><path class="cls-1" d="M358,401.24h-1.5a.4.4,0,1,1,0-.8H358a.4.4,0,0,1,0,.8"/><path class="cls-1" d="M358,399.44h-1.5a.4.4,0,0,1,0-.8H358a.4.4,0,0,1,0,.8"/><path class="cls-1" d="M358,397.54h-1.5a.41.41,0,1,1-.2-.8h1.6a.35.35,0,0,1,.3.5c.1.2,0,.3-.2.3"/><path class="cls-1" d="M358,395.74h-1.5a.41.41,0,1,1-.2-.8h1.6a.35.35,0,0,1,.3.5c.1.1,0,.3-.2.3"/><path class="cls-1" d="M358,393.94h-1.5a.41.41,0,1,1-.2-.8h1.6a.35.35,0,0,1,.3.5c.1.1,0,.2-.2.3"/><path class="cls-1" d="M358,392h-1.5a.4.4,0,1,1,0-.8H358a.4.4,0,0,1,0,.8"/><path class="cls-1" d="M358,390.24h-1.5a.4.4,0,1,1,0-.8H358a.4.4,0,0,1,0,.8"/><rect class="cls-1" x="355.4" y="403.84" width="3.6" height="0.8"/><path class="cls-1" d="M355.6,393.54a.43.43,0,0,0-.4-.4h-1.1V392h1.1a.4.4,0,1,0,0-.8h-1.1v-.9h0v-.1h1.1a.4.4,0,1,0,0-.8h-.9a3.06,3.06,0,0,1,4-2,3.3,3.3,0,0,1,2,2h-1a.4.4,0,0,0,0,.8h1.1v.1h0v.9h-1.1a.4.4,0,0,0,0,.8h1.1l.8-.6v-1.6h0v-.1a3.95,3.95,0,0,0-7.8,0v.1h0v1.8h0v1.8h0l.8.5v-.1h1.1a.43.43,0,0,0,.4-.4"/><rect class="cls-1" x="384.3" y="444.14" width="89.3" height="22.3"/><polygon class="cls-1" points="384.3 460.44 384.3 455.44 384.3 450.44 374.3 452.94 364.3 455.54 374.3 457.94 384.3 460.44"/><rect class="cls-1" x="389.3" y="388.24" width="89.3" height="22.3"/><polygon class="cls-1" points="389.3 404.44 389.3 399.44 389.3 394.44 379.3 396.94 369.3 399.54 379.3 401.94 389.3 404.44"/></g><g id="t_en"><path class="cls-2" d="M411.35,401.84l.4-.5a2.11,2.11,0,0,0,1.3.5c.4,0,.7-.2.7-.5h0c0-.3-.2-.5-.9-.6-.9-.2-1.4-.5-1.4-1.2h0a1.27,1.27,0,0,1,1.4-1.2,2.46,2.46,0,0,1,1.5.5l-.4.5a1.67,1.67,0,0,0-1.1-.4c-.4,0-.7.2-.7.5h0c0,.3.2.5,1,.6s1.3.5,1.3,1.2h0c0,.8-.6,1.2-1.5,1.2A1.82,1.82,0,0,1,411.35,401.84Z"/><path class="cls-2" d="M415.35,398.34H417c1,0,1.6.5,1.6,1.4h0a1.42,1.42,0,0,1-1.6,1.4h-.8v1.3h-.7v-4.1Zm1.5,2.2a.81.81,0,0,0,.9-.7h0c0-.5-.3-.7-.9-.7h-.8v1.5h.8Z"/><path class="cls-2" d="M419,400.44h0a2.1,2.1,0,1,1,4.2,0h0a2.1,2.1,0,0,1-4.2,0Zm3.5,0h0a1.45,1.45,0,0,0-1.4-1.5,1.37,1.37,0,0,0-1.4,1.4h0a1.45,1.45,0,0,0,1.4,1.5A1.31,1.31,0,0,0,422.45,400.44Z"/><path class="cls-2" d="M424.05,398.34h1.8a2.14,2.14,0,0,1,1.2.4,1.22,1.22,0,0,1,.3.9h0a1.12,1.12,0,0,1-1,1.2l1.1,1.5h-.8l-1-1.4h-.9v1.4h-.7Zm1.8,2.1a.71.71,0,0,0,.8-.7h0a.71.71,0,0,0-.8-.7h-1v1.4Z"/><path class="cls-2" d="M429.25,399H428v-.7h3.3v.7H430v3.4h-.7Z"/><path class="cls-2" d="M435.05,398.34h.7l1.8,4.1h-.8l-.4-1h-1.9l-.4,1h-.7Zm1,2.5-.7-1.6-.7,1.6Z"/><path class="cls-2" d="M438.15,398.34H440a2.14,2.14,0,0,1,1.2.4,1.22,1.22,0,0,1,.3.9h0a1.12,1.12,0,0,1-1,1.2l1.1,1.5h-.8l-1-1.4h-.9v1.4h-.7Zm1.8,2.1a.71.71,0,0,0,.8-.7h0a.71.71,0,0,0-.8-.7h-1v1.4Z"/><path class="cls-2" d="M442.35,398.34h3v.6h-2.3V400h2v.6h-2v1.1h2.3v.6h-3.1v-4Z"/><path class="cls-2" d="M446.15,398.34h.7l2.2,2.8v-2.8h.7v4.1h-.6l-2.3-2.9v2.9h-.7v-4.1Z"/><path class="cls-2" d="M452.15,398.34h.7l1.8,4.1h-.8l-.4-1h-1.9l-.4,1h-.7Zm1,2.5-.7-1.6-.7,1.6Z"/><path class="cls-2" d="M404,456.84l.4-.5a2.11,2.11,0,0,0,1.3.5c.4,0,.7-.2.7-.5h0c0-.3-.2-.4-.9-.6s-1.3-.5-1.3-1.2h0a1.27,1.27,0,0,1,1.4-1.2,2.17,2.17,0,0,1,1.4.5l-.4.5a1.67,1.67,0,0,0-1.1-.4c-.4,0-.7.2-.7.5h0c0,.3.2.4.9.6s1.3.5,1.3,1.2h0c0,.8-.6,1.2-1.4,1.2A2.66,2.66,0,0,1,404,456.84Z"/><path class="cls-2" d="M407.85,453.44h1.6a1.32,1.32,0,0,1,1.5,1.3h0a1.42,1.42,0,0,1-1.6,1.4h-.8v1.3h-.7Zm1.5,2a.81.81,0,0,0,.9-.7h0c0-.5-.3-.7-.9-.7h-.8v1.4Z"/><path class="cls-2" d="M411.35,455.44h0a2.11,2.11,0,0,1,2.1-2.1,2.05,2.05,0,0,1,2.1,2.1h0a2.11,2.11,0,0,1-2.1,2.1A2.18,2.18,0,0,1,411.35,455.44Zm3.5,0h0a1.37,1.37,0,0,0-1.4-1.4,1.29,1.29,0,0,0-1.3,1.4h0a1.37,1.37,0,0,0,1.4,1.4A1.42,1.42,0,0,0,414.85,455.44Z"/><path class="cls-2" d="M416.35,453.44h1.8a1.59,1.59,0,0,1,1.2.4,1.22,1.22,0,0,1,.3.9h0a1.12,1.12,0,0,1-1,1.2l1.1,1.5H419l-1-1.4h-.9v1.4h-.7Zm1.7,1.9a.71.71,0,0,0,.8-.7h0a.71.71,0,0,0-.8-.7h-1v1.3h1Z"/><path class="cls-2" d="M421.35,454h-1.3v-.7h3.2v.7H422v3.3h-.7V454Z"/><path class="cls-2" d="M425.45,456.84l.4-.5a2.11,2.11,0,0,0,1.3.5c.4,0,.7-.2.7-.5h0c0-.3-.2-.4-.9-.6s-1.3-.5-1.3-1.2h0a1.27,1.27,0,0,1,1.4-1.2,2.17,2.17,0,0,1,1.4.5l-.4.5a1.67,1.67,0,0,0-1.1-.4c-.4,0-.7.2-.7.5h0c0,.3.2.4.9.6s1.3.5,1.3,1.2h0c0,.8-.6,1.2-1.4,1.2A2.27,2.27,0,0,1,425.45,456.84Z"/><path class="cls-2" d="M430.15,454h-1.3v-.7h3.2v.7h-1.3v3.3h-.7V454Z"/><path class="cls-2" d="M433.75,453.34h.6l1.8,4h-.7l-.4-1h-1.9l-.4,1h-.7Zm1,2.5-.7-1.6-.7,1.6Z"/><path class="cls-2" d="M436.75,453.44h1.5a2,2,0,0,1,2.1,2h0a2,2,0,0,1-2.1,2h-1.5Zm1.5,3.3a1.35,1.35,0,0,0,1.4-1.3h0a1.31,1.31,0,0,0-1.4-1.4h-.8v2.7Z"/><path class="cls-2" d="M441.25,453.44h.7v4h-.7Z"/><path class="cls-2" d="M442.85,455.74v-2.3h.7v2.3a1,1,0,1,0,2,0v-2.3h.7v2.3a1.61,1.61,0,0,1-1.7,1.8A1.71,1.71,0,0,1,442.85,455.74Z"/><path class="cls-2" d="M447.15,453.44h.7l1.2,1.9,1.2-1.9h.7v4h-.7v-2.9l-1.3,1.9h0l-1.2-1.9v2.9h-.7v-4Z"/></g></svg>