<svg id="Layer_1" data-name="Layer 1" xmlns="http://www.w3.org/2000/svg" viewBox="0 0 913 614.91"><defs><style>.cls-1{fill:#455981;}.cls-2{fill:#fff;}</style></defs><g id="Layer_2" data-name="Layer 2"><path class="cls-1" d="M357.9,462.34H336.3A2.26,2.26,0,0,1,334,460v-9.5a2.26,2.26,0,0,1,2.3-2.3h21.6a2.26,2.26,0,0,1,2.3,2.3V460a2.33,2.33,0,0,1-2.3,2.3m-21.6-12.9a1.11,1.11,0,0,0-1.1,1.1h0V460a1.11,1.11,0,0,0,1.1,1.1h21.6A1.11,1.11,0,0,0,359,460v-9.5a1.11,1.11,0,0,0-1.1-1.1Z"/><path class="cls-1" d="M347.1,458.14a2.8,2.8,0,1,1,2.8-2.8,2.8,2.8,0,0,1-2.8,2.8h0m0-4.4a1.6,1.6,0,1,0,1.6,1.6h0a1.58,1.58,0,0,0-1.6-1.6"/><rect class="cls-1" x="346.3" y="448.84" width="1.2" height="12.9"/><path class="cls-1" d="M337.1,457.84H334v-5h3.1Zm-2-1.2h.8V454h-.8Z"/><path class="cls-1" d="M338.5,459.34h-4.3v-8h4.3Zm-3.1-1.2h1.9v-5.6h-1.9Z"/><path class="cls-1" d="M360.2,457.84h-3.1v-5h3.1Zm-2-1.2h.8V454h-.8Z"/><path class="cls-1" d="M359.9,459.34h-4.3v-8h4.3Zm-3.1-1.2h1.9v-5.6h-1.9Z"/><path class="cls-1" d="M366.8,392.94l-3.6-2.6a.45.45,0,0,0-.5,0l-3.6,2.6c-.1.1-.2.2-.1.3V407a.43.43,0,0,0,.4.4h7.1a.43.43,0,0,0,.4-.4h0v-13.8c.1-.1,0-.2-.1-.3m-7,13.7v-3h4.7a.4.4,0,0,0,0-.8h-4.7V400h4.7a.35.35,0,0,0,.3-.5.32.32,0,0,0-.3-.3h-4.7v-2.9h4.7a.35.35,0,0,0,.3-.5.32.32,0,0,0-.3-.3h-4.7v-2.1L363,391l3.2,2.4v.2h-4.8a.35.35,0,0,0-.3.5.32.32,0,0,0,.3.3h4.7v2.9h-4.7a.35.35,0,0,0-.3.5.32.32,0,0,0,.3.3h4.7V401h-4.7a.4.4,0,0,0,0,.8h4.7v2.9h-4.7a.35.35,0,0,0-.3.5.32.32,0,0,0,.3.3h4.7v1.2Z"/><path class="cls-1" d="M355.3,394.74l-7.1-4.2a.3.3,0,0,0-.4,0c-.1.1-.2.2-.2.3v6.7h0v2.4h0V407a.43.43,0,0,0,.4.4h7.1a.43.43,0,0,0,.4-.4h0V395c0-.1-.1-.3-.2-.3m-2.5,3.3h1.8v1.6h-1.8Zm0,2.3h1.8v1.6h-1.8Zm0-4.7h1.8v1.6h-1.8Zm0,7.1h1.8v1.6h-1.8Zm1.1-7.9h-1.5a.43.43,0,0,0-.4.4v2.4h0V400h0v6.7h-1.1V400h0v-2.4h0v-2.4a.43.43,0,0,0-.4-.4h-2.2v-3.3Zm-5.6.8h1.8v1.6h-1.8Zm0,9.4h1.8v1.6h-1.8Zm0-2.3h1.8v1.6h-1.8Zm1.8-3.2h-1.8V398h1.8Zm-1.8.8h1.8v1.6h-1.8Zm4.5,4.8h1.8v1.6h-1.8Z"/><path class="cls-1" d="M358,403h-1.5a.4.4,0,1,1,0-.8H358a.4.4,0,0,1,0,.8"/><path class="cls-1" d="M358,401.24h-1.5a.4.4,0,1,1,0-.8H358a.4.4,0,0,1,0,.8"/><path class="cls-1" d="M358,399.44h-1.5a.4.4,0,0,1,0-.8H358a.4.4,0,0,1,0,.8"/><path class="cls-1" d="M358,397.54h-1.5a.41.41,0,1,1-.2-.8h1.6a.35.35,0,0,1,.3.5c.1.2,0,.3-.2.3"/><path class="cls-1" d="M358,395.74h-1.5a.41.41,0,1,1-.2-.8h1.6a.35.35,0,0,1,.3.5c.1.1,0,.3-.2.3"/><path class="cls-1" d="M358,393.94h-1.5a.41.41,0,1,1-.2-.8h1.6a.35.35,0,0,1,.3.5c.1.1,0,.2-.2.3"/><path class="cls-1" d="M358,392h-1.5a.4.4,0,1,1,0-.8H358a.4.4,0,0,1,0,.8"/><path class="cls-1" d="M358,390.24h-1.5a.4.4,0,1,1,0-.8H358a.4.4,0,0,1,0,.8"/><rect class="cls-1" x="355.4" y="403.84" width="3.6" height="0.8"/><path class="cls-1" d="M355.6,393.54a.43.43,0,0,0-.4-.4h-1.1V392h1.1a.4.4,0,1,0,0-.8h-1.1v-.9h0v-.1h1.1a.4.4,0,1,0,0-.8h-.9a3.06,3.06,0,0,1,4-2,3.3,3.3,0,0,1,2,2h-1a.4.4,0,0,0,0,.8h1.1v.1h0v.9h-1.1a.4.4,0,0,0,0,.8h1.1l.8-.6v-1.6h0v-.1a3.95,3.95,0,0,0-7.8,0v.1h0v1.8h0v1.8h0l.8.5v-.1h1.1a.43.43,0,0,0,.4-.4"/><rect class="cls-1" x="384.3" y="444.14" width="89.3" height="22.3"/><polygon class="cls-1" points="384.3 460.44 384.3 455.44 384.3 450.44 374.3 452.94 364.3 455.54 374.3 457.94 384.3 460.44"/><rect class="cls-1" x="389.3" y="388.24" width="89.3" height="22.3"/><polygon class="cls-1" points="389.3 404.44 389.3 399.44 389.3 394.44 379.3 396.94 369.3 399.54 379.3 401.94 389.3 404.44"/></g><g id="t_vn"><path class="cls-2" d="M406.7,456.84l.4-.5a1.9,1.9,0,0,0,1.3.5c.4,0,.7-.2.7-.5h0c0-.3-.2-.5-.9-.6s-1.3-.5-1.3-1.2h0a1.24,1.24,0,0,1,1.3-1.2h.1a3,3,0,0,1,1.5.5l-.4.5a1.5,1.5,0,0,0-1.1-.4c-.4,0-.6.2-.6.5h0c0,.3.2.5,1,.6s1.3.5,1.3,1.2h0c0,.8-.6,1.2-1.4,1.2a2.88,2.88,0,0,1-1.9-.6"/><path class="cls-2" d="M411.8,453.34h.7l1.8,4h-.8l-.4-1h-1.9l-.4,1h-.7Zm0-1.2h.6l.7.9h-.5l-.5-.4-.4.4h-.5Zm1,3.7-.7-1.6-.7,1.6Z"/><polygon class="cls-2" points="414.6 453.34 415.3 453.34 417.5 456.14 417.5 453.34 418.2 453.34 418.2 457.44 417.6 457.44 415.3 454.54 415.3 457.44 414.6 457.44 414.6 453.34"/><polygon class="cls-2" points="420 453.34 420.8 453.34 422 456.44 423.2 453.34 423.9 453.34 422.3 457.44 421.7 457.44 420 453.34"/><path class="cls-2" d="M425.8,453.34h.6l1.8,4h-.8l-.4-1h-1.9l-.4,1H424Zm0-1.2h.6l.7.9h-.5l-.5-.4-.4.4h-.5Zm1,3.7-.7-1.6-.7,1.6Zm-1.1,2h.7v.7h-.6Z"/><polygon class="cls-2" points="428.6 453.34 429.3 453.34 431.4 456.14 431.4 453.34 432.1 453.34 432.1 457.44 431.5 457.44 429.3 454.54 429.3 457.44 428.6 457.44 428.6 453.34"/><path class="cls-2" d="M434.4,455.64H434V455h.4v-1.7h1.5a2,2,0,0,1,2.1,1.9v.1h0a2,2,0,0,1-2,2h-1.6Zm1.5,1.1a1.4,1.4,0,0,0,1.4-1.2v-.1h0A1.41,1.41,0,0,0,436,454h-.9v1h1v.6h-1v1.1Z"/><path class="cls-2" d="M438.5,455.44h0a2.21,2.21,0,0,1,2.3-2,2.15,2.15,0,0,1,2,2h0a2.11,2.11,0,0,1-2.1,2.1h-.1a2,2,0,0,1-2.1-1.9v-.2m3.4,0h0a1.4,1.4,0,0,0-2.8,0h0a1.35,1.35,0,0,0,1.3,1.4h.1a1.37,1.37,0,0,0,1.4-1.4h0m-1.6-3.3h.6l.7.8h-.5l-.5-.4-.4.4h-.5Zm0,5.7h.6v.7h-.6Z"/><polygon class="cls-2" points="443.2 453.34 443.9 453.34 446 456.14 446 453.34 446.8 453.34 446.8 457.44 446.2 457.44 443.9 454.54 443.9 457.44 443.2 457.44 443.2 453.34"/><path class="cls-2" d="M447.3,455.44h0a2.08,2.08,0,0,1,1.9-2.1h.1a2.46,2.46,0,0,1,1.5.5l-.5.5a1.19,1.19,0,0,0-1.1-.4,1.34,1.34,0,0,0-1.3,1.4h0a1.34,1.34,0,0,0,1.3,1.4h.1a1.69,1.69,0,0,0,1-.3v-.8h-1V455H451v1.7a2.72,2.72,0,0,1-1.7.6,2,2,0,0,1-2.1-1.9c.2.1.2,0,.1,0"/><polygon class="cls-2" points="418.5 394.74 417.3 394.74 417.3 394.14 420.5 394.14 420.5 394.74 419.3 394.74 419.3 398.14 418.5 398.14 418.5 394.74"/><path class="cls-2" d="M421,394.14h1.8a1.92,1.92,0,0,1,1.2.4,1.22,1.22,0,0,1,.3.9h0a1.19,1.19,0,0,1-1,1.2l1.1,1.5h-.8l-1-1.4h-.9v1.4H421Zm1.7,2a.71.71,0,0,0,.8-.7h0a.71.71,0,0,0-.8-.7h-1v1.4Z"/><path class="cls-2" d="M424.8,396.44v-2.3h.7v2.3c0,.8.4,1.1,1,1.1a1,1,0,0,0,1-1.1v-2.3h.7v2.3a1.59,1.59,0,0,1-1.4,1.8h-.3a1.58,1.58,0,0,1-1.7-1.5v-.3"/><polygon class="cls-2" points="428.9 394.14 429.6 394.14 431.7 396.94 431.7 394.14 432.4 394.14 432.4 398.14 431.8 398.14 429.6 395.24 429.6 398.14 428.9 398.14 428.9 394.14"/><path class="cls-2" d="M433,396.14h0a2.08,2.08,0,0,1,1.9-2.1h.2a2.46,2.46,0,0,1,1.5.5l-.4.5a1.5,1.5,0,0,0-1.1-.4,1.42,1.42,0,0,0-1.3,1.4h0a1.33,1.33,0,0,0,1.2,1.4h.1a1.69,1.69,0,0,0,1-.3v-.8h-1v-.6h1.7v1.7a2.72,2.72,0,0,1-1.7.6,2.08,2.08,0,0,1-2.1-1.9h0"/><polygon class="cls-2" points="439.8 394.74 438.5 394.74 438.5 394.14 441.8 394.14 441.8 394.74 440.5 394.74 440.5 398.14 439.8 398.14 439.8 394.74"/><path class="cls-2" d="M443.7,394h.6l1.8,4h-.7l-.4-1h-1.9l-.4,1H442Zm0-1.2h.6l.7.9h-.6l-.5-.4-.4.4H443Zm1,3.7-.7-1.6-.7,1.6Z"/><polygon class="cls-2" points="446.5 394.14 447.3 394.14 448.5 396.04 449.7 394.14 450.4 394.14 450.4 398.14 449.7 398.14 449.7 395.24 448.5 397.14 448.4 397.14 447.2 395.24 447.2 398.14 446.5 398.14 446.5 394.14"/><polygon class="cls-2" points="406.8 402.44 405.5 402.44 405.5 401.84 408.7 401.84 408.7 402.44 407.5 402.44 407.5 405.84 406.8 405.84 406.8 402.44"/><polygon class="cls-2" points="409.2 401.84 409.9 401.84 409.9 403.54 411.8 403.54 411.8 401.84 412.5 401.84 412.5 405.84 411.8 405.84 411.8 404.14 409.9 404.14 409.9 405.84 409.2 405.84 409.2 401.84"/><path class="cls-2" d="M413.3,401.84h3v.6H414v1h2v.6h-2v1.1h2.3v.6h-3Zm1.1-1.2h.6l.7.8h-.6l-.4-.4-.5.4h-.5Zm1.2-.1c.2,0,.4-.1.4-.3s0-.1-.2-.1-.2,0-.2.2l-.4-.2a.63.63,0,0,1,.6-.5.58.58,0,0,1,.6.6h0a.68.68,0,0,1-.4.6v.2h-.3Z"/><polygon class="cls-2" points="419.3 402.44 418 402.44 418 401.84 421.2 401.84 421.2 402.44 420 402.44 420 405.84 419.3 405.84 419.3 402.44"/><polygon class="cls-2" points="421.7 401.84 422.4 401.84 422.4 403.54 424.3 403.54 424.3 401.84 425 401.84 425 405.84 424.3 405.84 424.3 404.14 422.4 404.14 422.4 405.84 421.7 405.84 421.7 401.84"/><path class="cls-2" d="M427.2,401.84h.6l1.8,4h-.7l-.4-1h-1.9l-.4,1h-.8Zm1,2.4-.7-1.6-.7,1.6Z"/><path class="cls-2" d="M429.8,403.84h0a2.11,2.11,0,0,1,2.1-2.1h.1a2,2,0,0,1,2.1,1.9v.2h0a2.11,2.11,0,0,1-2.1,2.1h-.1a2,2,0,0,1-2.1-1.9v-.2m3.5,0h0a1.35,1.35,0,0,0-1.3-1.4h0a1.37,1.37,0,0,0-1.4,1.4v.1h0a1.35,1.35,0,0,0,1.3,1.4h0a1.52,1.52,0,0,0,1.4-1.5h0"/><path class="cls-2" d="M436.2,404.14h-.4v-.6h.4v-1.7h1.5a2,2,0,0,1,2.1,1.9v.1h0a2,2,0,0,1-2,2h-1.6Zm1.5,1.1a1.4,1.4,0,0,0,1.4-1.2v-.1h0a1.41,1.41,0,0,0-1.3-1.4h-.9v1h1v.6h-1v1.1Z"/><path class="cls-2" d="M441.9,401.84h.6l1.8,4h-.8l-.4-1h-1.9l-.4,1h-.7Zm1,2.4-.7-1.6-.7,1.6Z"/><polygon class="cls-2" points="446.1 401.84 446.8 401.84 448.9 404.64 448.9 401.84 449.6 401.84 449.6 405.84 449 405.84 446.8 402.94 446.8 405.84 446.1 405.84 446.1 401.84"/><path class="cls-2" d="M451.8,401.84h.6l1.8,4h-.8l-.4-1h-1.9l-.4,1H450Zm-.7-1.2h.5a.52.52,0,0,0,.7.3l.3-.3h.5a.94.94,0,0,1-1,1,1,1,0,0,1-1-1m1.7,3.6-.7-1.6-.7,1.6Z"/><polygon class="cls-2" points="454.6 401.84 455.3 401.84 457.4 404.64 457.4 401.84 458.1 401.84 458.1 405.84 457.5 405.84 455.3 402.94 455.3 405.84 454.6 405.84 454.6 401.84"/><path class="cls-2" d="M458.7,403.84h0a2.08,2.08,0,0,1,1.9-2.1h.2a2.46,2.46,0,0,1,1.5.5l-.5.5a1.5,1.5,0,0,0-1.1-.4,1.42,1.42,0,0,0-1.3,1.4h0a1.27,1.27,0,0,0,1.2,1.4h.1a1.69,1.69,0,0,0,1-.3V404h-1v-.6h1.6v1.7a2.72,2.72,0,0,1-1.7.6,2.08,2.08,0,0,1-2.1-1.9c.1.1.1.1.2,0"/></g></svg>