<?xml version="1.0" encoding="utf-8"?>
<!-- Generator: Adobe Illustrator 25.3.1, SVG Export Plug-In . SVG Version: 6.00 Build 0)  -->
<svg version="1.1" id="Layer_1" xmlns="http://www.w3.org/2000/svg" xmlns:xlink="http://www.w3.org/1999/xlink" x="0px" y="0px"
	 viewBox="0 0 105.1 78.9" style="enable-background:new 0 0 105.1 78.9;" xml:space="preserve">
<style type="text/css">
	.st0{fill:#61AFA7;}
	.st1{display:none;fill:url(#SVGID_1_);}
	.st2{fill:#141414;stroke:#282624;stroke-miterlimit:10;}
	.st3{display:none;fill:#3F3C39;}
</style>
<path class="st0" d="M54,10L8.8,53.8c11,15.3,27.2,24.3,44.3,24.6c17.2,0.3,33.6-8.2,44.9-23.2L54,10z"/>
<linearGradient id="SVGID_1_" gradientUnits="userSpaceOnUse" x1="40.6" y1="1014.2244" x2="66.2" y2="1014.2244" gradientTransform="matrix(1 0 0 1 0 -1000.7244)">
	<stop  offset="0" style="stop-color:#BA8746"/>
	<stop  offset="1" style="stop-color:#F0A055;stop-opacity:0"/>
</linearGradient>
<circle class="st1" cx="53.4" cy="13.5" r="12.8"/>
<path class="st2" d="M53.4,5.1c-4.1,0-7.4,3.3-7.4,7.4s3.3,7.4,7.4,7.4s7.4-3.3,7.4-7.4l0,0c0-4.1-3.2-7.4-7.3-7.4
	C53.5,5.1,53.4,5.1,53.4,5.1z"/>
<path class="st3" d="M52.3,16.9h2.3c1.3,0,2.3-1,2.3-2.3v-3.4c0-0.7-0.5-1.2-1.2-1.2l0,0V5.5c0.1-0.6-0.4-1.1-1-1.2h-0.1h-2.3
	c-0.7,0-1.2,0.5-1.2,1.2l0,0V10c-0.6,0.1-1.1,0.6-1.1,1.2v3.4C50,15.9,51,16.9,52.3,16.9z M53.4,18c-1.2,0.1-2.2,1.1-2.3,2.3
	c0,1.3,1,2.3,2.3,2.3s2.3-1,2.3-2.3S54.7,18,53.4,18z"/>
</svg>
